<?xml version="1.0" encoding="UTF-8"?><svg xmlns="http://www.w3.org/2000/svg" xmlns:xlink="http://www.w3.org/1999/xlink" viewBox="0 0 333.38 372.45"><defs><style>.cls-1{fill:#fff;}.cls-2{fill:#b3b3b3;opacity:.8;}.cls-2,.cls-3,.cls-4,.cls-5,.cls-6,.cls-7,.cls-8,.cls-9,.cls-10,.cls-11,.cls-12,.cls-13,.cls-14,.cls-15,.cls-16,.cls-17,.cls-18{mix-blend-mode:multiply;}.cls-19{fill:#ffc022;}.cls-3{fill:#ccc;opacity:.6;}.cls-4{fill:url(#linear-gradient-2);}.cls-4,.cls-5,.cls-6,.cls-7,.cls-8,.cls-9,.cls-10,.cls-11,.cls-12,.cls-13,.cls-14,.cls-15,.cls-16,.cls-17,.cls-18{opacity:.4;}.cls-20{isolation:isolate;}.cls-5{fill:url(#linear-gradient-12);}.cls-21{fill:#534741;}.cls-6{fill:url(#linear-gradient-8);}.cls-22{fill:#e8c47b;}.cls-7{fill:url(#linear-gradient-13);}.cls-8{fill:url(#linear-gradient-11);}.cls-9{fill:url(#linear-gradient-15);}.cls-10{fill:url(#linear-gradient-4);}.cls-23{fill:#ff931e;}.cls-11{fill:url(#linear-gradient-3);}.cls-12{fill:url(#linear-gradient-5);}.cls-24{fill:#dab873;}.cls-13{fill:url(#linear-gradient-14);}.cls-14{fill:url(#linear-gradient-7);}.cls-25{fill:#bf6e17;}.cls-15{fill:url(#linear-gradient-9);}.cls-16{fill:url(#linear-gradient);}.cls-17{fill:url(#linear-gradient-6);}.cls-26{fill:#d17918;}.cls-18{fill:url(#linear-gradient-10);}</style><linearGradient id="linear-gradient" x1="138.42" y1="312.44" x2="171.44" y2="312.44" gradientTransform="translate(487.5 154.12) rotate(90)" gradientUnits="userSpaceOnUse"><stop offset="0" stop-color="#fff"/><stop offset="1" stop-color="#d17918"/></linearGradient><linearGradient id="linear-gradient-2" x1="121.87" x2="154.89" xlink:href="#linear-gradient"/><linearGradient id="linear-gradient-3" x1="105.33" x2="138.35" xlink:href="#linear-gradient"/><linearGradient id="linear-gradient-4" x1="106.65" y1="206.53" x2="139.67" y2="206.53" xlink:href="#linear-gradient"/><linearGradient id="linear-gradient-5" x1="90.11" y1="206.53" x2="123.13" y2="206.53" xlink:href="#linear-gradient"/><linearGradient id="linear-gradient-6" x1="73.56" y1="206.53" x2="106.58" y2="206.53" xlink:href="#linear-gradient"/><linearGradient id="linear-gradient-7" x1="57.02" y1="206.53" x2="90.04" y2="206.53" xlink:href="#linear-gradient"/><linearGradient id="linear-gradient-8" x1="40.48" y1="206.53" x2="73.5" y2="206.53" xlink:href="#linear-gradient"/><linearGradient id="linear-gradient-9" x1="156.64" y1="245.41" x2="189.66" y2="245.41" xlink:href="#linear-gradient"/><linearGradient id="linear-gradient-10" x1="140.1" y1="245.41" x2="173.12" y2="245.41" xlink:href="#linear-gradient"/><linearGradient id="linear-gradient-11" x1="123.56" y1="245.41" x2="156.58" y2="245.41" xlink:href="#linear-gradient"/><linearGradient id="linear-gradient-12" x1="107.01" y1="245.41" x2="140.03" y2="245.41" xlink:href="#linear-gradient"/><linearGradient id="linear-gradient-13" x1="90.47" y1="245.41" x2="123.49" y2="245.41" xlink:href="#linear-gradient"/><linearGradient id="linear-gradient-14" x1="242.78" y1="462.42" x2="275.8" y2="462.42" gradientTransform="translate(62.18 -219.45) rotate(21.62)" xlink:href="#linear-gradient"/><linearGradient id="linear-gradient-15" x1="423.1" y1="418.59" x2="456.12" y2="418.59" gradientTransform="translate(567.24 -219.45) rotate(158.38) scale(1 -1)" xlink:href="#linear-gradient"/></defs><g class="cls-20"><g id="Layer_2"><g id="DESIGNED_BY_FREEPIK"><g><g><path class="cls-3" d="M219.89,301.47c0,12.04-49.23,21.8-109.95,21.8S0,313.5,0,301.47s49.23-21.8,109.95-21.8,109.95,9.76,109.95,21.8Z"/><path class="cls-22" d="M293.9,229.01s-19.21-97.31-91.46-140.31h-51.64C78.54,131.71,59.33,229.01,59.33,229.01c-21.13,113.15,110.16,98.74,110.16,98.74h14.24s131.29,14.41,110.16-98.74Z"/><path class="cls-24" d="M293.9,229.01s-19.21-97.31-91.46-140.31h-28.7c49.08,43.22,62.87,113.03,62.87,113.03,19.3,103.35-100.62,90.19-100.62,90.19h-13.01s-31.27,3.42-59.3-6.98c24.13,51.77,105.82,42.82,105.82,42.82h14.24s131.29,14.41,110.16-98.74Z"/><path class="cls-22" d="M98.39,25.44c-2.68-3.52-6.91-11.11-2.31-14.62,5.99-4.58,17.74,.27,23.83,1.98,7.97,2.22,16.78,4.21,25.54,3.3,8.55-.89,18.28-5.64,25.87-8.72,7.69-3.12,15.76-8.73,24.95-5.9,9.61,2.97,13.39,11.38,24.49,12.43,19.5,1.85,31.01-15.64,49.29-13.77,9.5,.97,8.41,6.89,3.09,10.96l-70.69,77.59h-51.64L98.39,25.44Z"/><g><g><path class="cls-3" d="M242.09,357.12c-23.76,0-43.02-7.41-43.02-16.54s19.26-16.54,43.02-16.54,43.02,7.41,43.02,16.54-19.26,16.54-43.02,16.54Z"/><path class="cls-3" d="M287.23,306.72c-23.76,0-43.02-7.41-43.02-16.54s19.26-16.54,43.02-16.54,43.02,7.41,43.02,16.54-19.26,16.54-43.02,16.54Z"/><path class="cls-3" d="M281.97,339.31c-23.74-.8-43.24,5.95-43.55,15.08-.31,9.13,18.69,17.18,42.43,17.99,23.74,.8,43.24-5.95,43.55-15.08,.31-9.13-18.69-17.18-42.43-17.99Z"/><path class="cls-3" d="M160.34,311.96c23.74-.8,43.24,5.95,43.55,15.08,.31,9.13-18.69,17.18-42.43,17.99-23.74,.8-43.24-5.95-43.55-15.08-.31-9.13,18.69-17.18,42.43-17.99Z"/><g><path class="cls-23" d="M141.43,316.83c0,9.14,19.26,16.54,43.02,16.54s43.02-7.41,43.02-16.54v-7.82h-86.03v7.82Z"/><g><path class="cls-26" d="M180.35,313.03v20.26c1.35,.05,2.71,.08,4.09,.08v-20.34h-4.09Z"/><path class="cls-26" d="M172.06,313.03v19.64c2.22,.26,4.52,.44,6.88,.56v-20.2h-6.88Z"/><path class="cls-26" d="M170.36,332.46v-23.41h-28.93v7.78c0,7.24,12.09,13.39,28.93,15.63Z"/><path class="cls-26" d="M199.77,313.03v19.26c.47-.07,.94-.14,1.4-.21v-19.04h-1.4Z"/><path class="cls-26" d="M194.42,332.92c.47-.04,.94-.09,1.4-.14v-19.75h-1.4v19.89Z"/><path class="cls-26" d="M187.63,313.03v20.29c.69-.02,1.37-.04,2.05-.08v-20.22h-2.05Z"/></g><g><path class="cls-23" d="M184.45,325.56c-23.76,0-43.02-7.41-43.02-16.54s19.26-16.54,43.02-16.54,43.02,7.41,43.02,16.54-19.26,16.54-43.02,16.54Z"/><path class="cls-16" d="M208.68,322.68c-1.22,.04-2.45,.07-3.7,.07-23.76,0-43.02-7.41-43.02-16.54,0-5.68,7.44-10.69,18.78-13.67-22.02,.72-39.32,7.82-39.32,16.48,0,9.14,19.26,16.54,43.02,16.54,8.99,0,17.33-1.06,24.24-2.88Z"/><path class="cls-26" d="M227.43,309.53c-.71-8.9-19.67-16.03-42.98-16.03s-42.27,7.13-42.98,16.03c.71,8.9,19.67,16.03,42.98,16.03s42.28-7.13,42.98-16.03Zm-42.98,13.98c-19.31,0-35.01-6.04-35.01-13.47s15.71-13.47,35.01-13.47,35.02,6.04,35.02,13.47-15.71,13.47-35.02,13.47Z"/><path class="cls-26" d="M180.55,306.72l-16.64,4.78v3.32l17.03-5.25c1.68,1.36,4.11,2.39,7.24,3.07,.25,.06,.51,.1,.77,.15v2.96h6.18v-2.28c1.35,.06,2.6,.07,3.69,.04v2.24h6.18v-8.9h-6.18v4.3c-1.03,.04-2.32,.04-3.69-.05v-4.25h-6.18v3.03c-1.47-.57-2.74-1.39-3.57-2.54l-4.83-.64Z"/><path class="cls-19" d="M219.46,309.01c0,7.42-15.71,13.47-35.02,13.47s-35.01-6.04-35.01-13.47,15.71-13.47,35.01-13.47,35.02,6.04,35.02,13.47m8,0c0-9.14-19.26-16.54-43.02-16.54s-43.02,7.41-43.02,16.54,19.26,16.54,43.02,16.54,43.02-7.41,43.02-16.54h0Z"/><path class="cls-19" d="M154.06,309.01c0-6.44,13.63-11.69,30.39-11.69s30.39,5.24,30.39,11.69-13.63,11.69-30.39,11.69-30.39-5.24-30.39-11.69Zm59.44,0c0-6.16-13.03-11.17-29.05-11.17s-29.05,5.01-29.05,11.17,13.03,11.17,29.05,11.17,29.05-5.01,29.05-11.17Z"/><path class="cls-19" d="M180.55,304.49l-16.64,4.78v3.32l17.03-5.25c1.68,1.36,4.11,2.39,7.24,3.07,.25,.06,.51,.1,.77,.15v2.97h6.18v-2.28c1.35,.06,2.6,.06,3.69,.04v2.24h6.18v-8.9h-6.18v4.3c-1.03,.04-2.32,.04-3.69-.05v-4.25h-6.18v3.03c-1.47-.57-2.74-1.39-3.57-2.54l-4.83-.63Z"/></g></g><g><path class="cls-23" d="M141.43,300.29c0,9.13,19.26,16.54,43.02,16.54s43.02-7.41,43.02-16.54v-7.82h-86.03v7.82Z"/><g><path class="cls-26" d="M180.35,296.49v20.26c1.35,.05,2.71,.08,4.09,.08v-20.34h-4.09Z"/><path class="cls-26" d="M172.06,296.49v19.64c2.22,.26,4.52,.45,6.88,.56v-20.2h-6.88Z"/><path class="cls-26" d="M170.36,315.92v-23.41h-28.93v7.78c0,7.24,12.09,13.38,28.93,15.63Z"/><path class="cls-26" d="M199.77,296.49v19.26c.47-.07,.94-.14,1.4-.21v-19.04h-1.4Z"/><path class="cls-26" d="M194.42,316.38c.47-.04,.94-.09,1.4-.14v-19.75h-1.4v19.89Z"/><path class="cls-26" d="M187.63,296.49v20.29c.69-.02,1.37-.04,2.05-.08v-20.21h-2.05Z"/></g><g><path class="cls-23" d="M184.45,309.01c-23.76,0-43.02-7.41-43.02-16.54s19.26-16.54,43.02-16.54,43.02,7.41,43.02,16.54-19.26,16.54-43.02,16.54Z"/><path class="cls-4" d="M208.68,306.14c-1.22,.04-2.45,.06-3.7,.06-23.76,0-43.02-7.41-43.02-16.54,0-5.68,7.44-10.69,18.78-13.67-22.02,.72-39.32,7.82-39.32,16.48,0,9.14,19.26,16.54,43.02,16.54,8.99,0,17.33-1.06,24.24-2.88Z"/><path class="cls-26" d="M227.43,292.98c-.71-8.9-19.67-16.03-42.98-16.03s-42.27,7.13-42.98,16.03c.71,8.9,19.67,16.03,42.98,16.03s42.28-7.13,42.98-16.03Zm-42.98,13.98c-19.31,0-35.01-6.04-35.01-13.47s15.71-13.47,35.01-13.47,35.02,6.04,35.02,13.47-15.71,13.47-35.02,13.47Z"/><path class="cls-26" d="M180.55,290.18l-16.64,4.78v3.32l17.03-5.25c1.68,1.36,4.11,2.39,7.24,3.07,.25,.06,.51,.1,.77,.15v2.97h6.18v-2.28c1.35,.06,2.6,.07,3.69,.04v2.24h6.18v-8.9h-6.18v4.3c-1.03,.04-2.32,.04-3.69-.05v-4.25h-6.18v3.03c-1.47-.57-2.74-1.39-3.57-2.54l-4.83-.64Z"/><path class="cls-19" d="M219.46,292.47c0,7.42-15.71,13.47-35.02,13.47s-35.01-6.04-35.01-13.47,15.71-13.47,35.01-13.47,35.02,6.04,35.02,13.47m8,0c0-9.14-19.26-16.54-43.02-16.54s-43.02,7.41-43.02,16.54,19.26,16.54,43.02,16.54,43.02-7.41,43.02-16.54h0Z"/><path class="cls-19" d="M154.06,292.47c0-6.45,13.63-11.69,30.39-11.69s30.39,5.24,30.39,11.69-13.63,11.69-30.39,11.69-30.39-5.24-30.39-11.69Zm59.44,0c0-6.16-13.03-11.17-29.05-11.17s-29.05,5.01-29.05,11.17,13.03,11.17,29.05,11.17,29.05-5.01,29.05-11.17Z"/><path class="cls-19" d="M180.55,287.95l-16.64,4.78v3.32l17.03-5.25c1.68,1.36,4.11,2.39,7.24,3.07,.25,.05,.51,.1,.77,.15v2.96h6.18v-2.28c1.35,.06,2.6,.06,3.69,.04v2.24h6.18v-8.9h-6.18v4.3c-1.03,.04-2.32,.04-3.69-.05v-4.25h-6.18v3.03c-1.47-.57-2.74-1.39-3.57-2.54l-4.83-.63Z"/></g></g><g><path class="cls-23" d="M141.43,283.74c0,9.13,19.26,16.54,43.02,16.54s43.02-7.41,43.02-16.54v-7.82h-86.03v7.82Z"/><g><path class="cls-26" d="M180.35,279.94v20.26c1.35,.05,2.71,.08,4.09,.08v-20.34h-4.09Z"/><path class="cls-26" d="M172.06,279.94v19.64c2.22,.26,4.52,.45,6.88,.56v-20.2h-6.88Z"/><path class="cls-26" d="M170.36,299.37v-23.41h-28.93v7.78c0,7.24,12.09,13.38,28.93,15.63Z"/><path class="cls-26" d="M199.77,279.94v19.26c.47-.07,.94-.14,1.4-.21v-19.05h-1.4Z"/><path class="cls-26" d="M194.42,299.83c.47-.04,.94-.09,1.4-.14v-19.75h-1.4v19.89Z"/><path class="cls-26" d="M187.63,279.94v20.29c.69-.02,1.37-.04,2.05-.08v-20.21h-2.05Z"/></g><g><path class="cls-23" d="M184.45,292.47c-23.76,0-43.02-7.41-43.02-16.54s19.26-16.54,43.02-16.54,43.02,7.41,43.02,16.54-19.26,16.54-43.02,16.54Z"/><path class="cls-11" d="M208.68,289.6c-1.22,.04-2.45,.06-3.7,.06-23.76,0-43.02-7.41-43.02-16.54,0-5.68,7.44-10.69,18.78-13.67-22.02,.72-39.32,7.82-39.32,16.48,0,9.14,19.26,16.54,43.02,16.54,8.99,0,17.33-1.06,24.24-2.88Z"/><path class="cls-26" d="M227.43,276.44c-.71-8.9-19.67-16.03-42.98-16.03s-42.27,7.13-42.98,16.03c.71,8.9,19.67,16.03,42.98,16.03s42.28-7.13,42.98-16.03Zm-42.98,13.98c-19.31,0-35.01-6.04-35.01-13.47s15.71-13.47,35.01-13.47,35.02,6.04,35.02,13.47-15.71,13.47-35.02,13.47Z"/><path class="cls-26" d="M180.55,273.63l-16.64,4.78v3.32l17.03-5.25c1.68,1.36,4.11,2.39,7.24,3.07,.25,.06,.51,.1,.77,.15v2.96h6.18v-2.28c1.35,.06,2.6,.07,3.69,.04v2.24h6.18v-8.9h-6.18v4.29c-1.03,.04-2.32,.04-3.69-.05v-4.25h-6.18v3.03c-1.47-.57-2.74-1.39-3.57-2.54l-4.83-.64Z"/><path class="cls-19" d="M219.46,275.93c0,7.42-15.71,13.47-35.02,13.47s-35.01-6.04-35.01-13.47,15.71-13.47,35.01-13.47,35.02,6.04,35.02,13.47m8,0c0-9.14-19.26-16.54-43.02-16.54s-43.02,7.41-43.02,16.54,19.26,16.54,43.02,16.54,43.02-7.41,43.02-16.54h0Z"/><path class="cls-19" d="M154.06,275.93c0-6.45,13.63-11.69,30.39-11.69s30.39,5.24,30.39,11.69-13.63,11.69-30.39,11.69-30.39-5.24-30.39-11.69Zm59.44,0c0-6.16-13.03-11.17-29.05-11.17s-29.05,5.01-29.05,11.17,13.03,11.17,29.05,11.17,29.05-5.01,29.05-11.17Z"/><path class="cls-19" d="M180.55,271.41l-16.64,4.78v3.32l17.03-5.25c1.68,1.36,4.11,2.39,7.24,3.07,.25,.05,.51,.1,.77,.15v2.96h6.18v-2.28c1.35,.06,2.6,.06,3.69,.04v2.24h6.18v-8.9h-6.18v4.3c-1.03,.04-2.32,.04-3.69-.05v-4.25h-6.18v3.03c-1.47-.57-2.74-1.39-3.57-2.54l-4.83-.63Z"/></g></g><g><path class="cls-23" d="M247.34,285.06c0,9.14,19.26,16.54,43.02,16.54s43.02-7.41,43.02-16.54v-7.82h-86.03v7.82Z"/><g><path class="cls-26" d="M286.27,281.26v20.26c1.35,.05,2.71,.08,4.09,.08v-20.34h-4.09Z"/><path class="cls-26" d="M277.97,281.26v19.64c2.22,.26,4.52,.44,6.88,.56v-20.2h-6.88Z"/><path class="cls-26" d="M276.27,300.69v-23.41h-28.93v7.78c0,7.24,12.09,13.39,28.93,15.63Z"/><path class="cls-26" d="M305.68,281.26v19.26c.47-.07,.94-.14,1.4-.21v-19.04h-1.4Z"/><path class="cls-26" d="M300.33,301.15c.47-.04,.94-.09,1.4-.14v-19.75h-1.4v19.89Z"/><path class="cls-26" d="M293.55,281.26v20.29c.69-.02,1.37-.04,2.05-.08v-20.22h-2.05Z"/></g><g><path class="cls-23" d="M290.36,293.79c-23.76,0-43.02-7.41-43.02-16.54s19.26-16.54,43.02-16.54,43.02,7.41,43.02,16.54-19.26,16.54-43.02,16.54Z"/><path class="cls-10" d="M314.6,290.91c-1.22,.04-2.45,.07-3.7,.07-23.76,0-43.02-7.41-43.02-16.54,0-5.68,7.44-10.69,18.78-13.67-22.02,.72-39.32,7.82-39.32,16.48,0,9.14,19.26,16.54,43.02,16.54,8.99,0,17.33-1.06,24.24-2.88Z"/><path class="cls-26" d="M333.34,277.76c-.71-8.9-19.67-16.03-42.98-16.03s-42.27,7.13-42.98,16.03c.71,8.9,19.67,16.03,42.98,16.03s42.28-7.13,42.98-16.03Zm-42.98,13.98c-19.31,0-35.01-6.04-35.01-13.47s15.71-13.47,35.01-13.47,35.02,6.04,35.02,13.47-15.71,13.47-35.02,13.47Z"/><path class="cls-26" d="M286.46,274.95l-16.64,4.78v3.32l17.03-5.25c1.68,1.36,4.11,2.39,7.24,3.07,.25,.06,.51,.1,.77,.15v2.96h6.18v-2.28c1.35,.06,2.6,.07,3.69,.04v2.24h6.18v-8.9h-6.18v4.3c-1.03,.04-2.32,.04-3.69-.05v-4.25h-6.18v3.03c-1.47-.57-2.74-1.39-3.57-2.54l-4.83-.64Z"/><path class="cls-19" d="M325.37,277.25c0,7.42-15.71,13.47-35.02,13.47s-35.01-6.04-35.01-13.47,15.71-13.47,35.01-13.47,35.02,6.04,35.02,13.47m8,0c0-9.14-19.26-16.54-43.02-16.54s-43.02,7.41-43.02,16.54,19.26,16.54,43.02,16.54,43.02-7.41,43.02-16.54h0Z"/><path class="cls-19" d="M259.97,277.25c0-6.44,13.63-11.69,30.39-11.69s30.39,5.24,30.39,11.69-13.63,11.69-30.39,11.69-30.39-5.24-30.39-11.69Zm59.44,0c0-6.16-13.03-11.17-29.05-11.17s-29.05,5.01-29.05,11.17,13.03,11.17,29.05,11.17,29.05-5.01,29.05-11.17Z"/><path class="cls-19" d="M286.46,272.73l-16.64,4.78v3.32l17.03-5.25c1.68,1.36,4.11,2.39,7.24,3.07,.25,.06,.51,.1,.77,.15v2.97h6.18v-2.28c1.35,.06,2.6,.06,3.69,.04v2.24h6.18v-8.9h-6.18v4.3c-1.03,.04-2.32,.04-3.69-.05v-4.25h-6.18v3.03c-1.47-.57-2.74-1.39-3.57-2.54l-4.83-.63Z"/></g></g><g><path class="cls-23" d="M247.34,268.52c0,9.13,19.26,16.54,43.02,16.54s43.02-7.41,43.02-16.54v-7.82h-86.03v7.82Z"/><g><path class="cls-26" d="M286.27,264.72v20.26c1.35,.05,2.71,.08,4.09,.08v-20.34h-4.09Z"/><path class="cls-26" d="M277.97,264.72v19.64c2.22,.26,4.52,.45,6.88,.56v-20.2h-6.88Z"/><path class="cls-26" d="M276.27,284.15v-23.41h-28.93v7.78c0,7.24,12.09,13.38,28.93,15.63Z"/><path class="cls-26" d="M305.68,264.72v19.26c.47-.07,.94-.14,1.4-.21v-19.04h-1.4Z"/><path class="cls-26" d="M300.33,284.61c.47-.04,.94-.09,1.4-.14v-19.75h-1.4v19.89Z"/><path class="cls-26" d="M293.55,264.72v20.29c.69-.02,1.37-.04,2.05-.08v-20.21h-2.05Z"/></g><g><path class="cls-23" d="M290.36,277.25c-23.76,0-43.02-7.41-43.02-16.54s19.26-16.54,43.02-16.54,43.02,7.41,43.02,16.54-19.26,16.54-43.02,16.54Z"/><path class="cls-12" d="M314.6,274.37c-1.22,.04-2.45,.06-3.7,.06-23.76,0-43.02-7.41-43.02-16.54,0-5.68,7.44-10.69,18.78-13.67-22.02,.72-39.32,7.82-39.32,16.48,0,9.14,19.26,16.54,43.02,16.54,8.99,0,17.33-1.06,24.24-2.88Z"/><path class="cls-26" d="M333.34,261.22c-.71-8.9-19.67-16.03-42.98-16.03s-42.27,7.13-42.98,16.03c.71,8.9,19.67,16.03,42.98,16.03s42.28-7.13,42.98-16.03Zm-42.98,13.98c-19.31,0-35.01-6.04-35.01-13.47s15.71-13.47,35.01-13.47,35.02,6.04,35.02,13.47-15.71,13.47-35.02,13.47Z"/><path class="cls-26" d="M286.46,258.41l-16.64,4.78v3.32l17.03-5.25c1.68,1.36,4.11,2.39,7.24,3.07,.25,.06,.51,.1,.77,.15v2.97h6.18v-2.28c1.35,.06,2.6,.07,3.69,.04v2.24h6.18v-8.9h-6.18v4.3c-1.03,.04-2.32,.04-3.69-.05v-4.25h-6.18v3.03c-1.47-.57-2.74-1.39-3.57-2.54l-4.83-.64Z"/><path class="cls-19" d="M325.37,260.7c0,7.42-15.71,13.47-35.02,13.47s-35.01-6.04-35.01-13.47,15.71-13.47,35.01-13.47,35.02,6.04,35.02,13.47m8,0c0-9.14-19.26-16.54-43.02-16.54s-43.02,7.41-43.02,16.54,19.26,16.54,43.02,16.54,43.02-7.41,43.02-16.54h0Z"/><path class="cls-19" d="M259.97,260.7c0-6.45,13.63-11.69,30.39-11.69s30.39,5.24,30.39,11.69-13.63,11.69-30.39,11.69-30.39-5.24-30.39-11.69Zm59.44,0c0-6.16-13.03-11.17-29.05-11.17s-29.05,5.01-29.05,11.17,13.03,11.17,29.05,11.17,29.05-5.01,29.05-11.17Z"/><path class="cls-19" d="M286.46,256.18l-16.64,4.78v3.32l17.03-5.25c1.68,1.36,4.11,2.39,7.24,3.07,.25,.05,.51,.1,.77,.15v2.96h6.18v-2.28c1.35,.06,2.6,.06,3.69,.04v2.24h6.18v-8.9h-6.18v4.3c-1.03,.04-2.32,.04-3.69-.05v-4.25h-6.18v3.03c-1.47-.57-2.74-1.39-3.57-2.54l-4.83-.63Z"/></g></g><g><path class="cls-23" d="M247.34,251.98c0,9.13,19.26,16.54,43.02,16.54s43.02-7.41,43.02-16.54v-7.82h-86.03v7.82Z"/><g><path class="cls-26" d="M286.27,248.18v20.26c1.35,.05,2.71,.08,4.09,.08v-20.34h-4.09Z"/><path class="cls-26" d="M277.97,248.18v19.64c2.22,.26,4.52,.45,6.88,.56v-20.2h-6.88Z"/><path class="cls-26" d="M276.27,267.6v-23.41h-28.93v7.78c0,7.24,12.09,13.38,28.93,15.63Z"/><path class="cls-26" d="M305.68,248.18v19.26c.47-.07,.94-.14,1.4-.21v-19.04h-1.4Z"/><path class="cls-26" d="M300.33,268.07c.47-.04,.94-.09,1.4-.14v-19.75h-1.4v19.89Z"/><path class="cls-26" d="M293.55,248.18v20.29c.69-.02,1.37-.04,2.05-.08v-20.21h-2.05Z"/></g><g><path class="cls-23" d="M290.36,260.7c-23.76,0-43.02-7.41-43.02-16.54s19.26-16.54,43.02-16.54,43.02,7.41,43.02,16.54-19.26,16.54-43.02,16.54Z"/><path class="cls-17" d="M314.6,257.83c-1.22,.04-2.45,.06-3.7,.06-23.76,0-43.02-7.41-43.02-16.54,0-5.68,7.44-10.69,18.78-13.67-22.02,.72-39.32,7.82-39.32,16.48,0,9.14,19.26,16.54,43.02,16.54,8.99,0,17.33-1.06,24.24-2.88Z"/><path class="cls-26" d="M333.34,244.67c-.71-8.9-19.67-16.03-42.98-16.03s-42.27,7.13-42.98,16.03c.71,8.9,19.67,16.03,42.98,16.03s42.28-7.13,42.98-16.03Zm-42.98,13.98c-19.31,0-35.01-6.04-35.01-13.47s15.71-13.47,35.01-13.47,35.02,6.04,35.02,13.47-15.71,13.47-35.02,13.47Z"/><path class="cls-26" d="M286.46,241.86l-16.64,4.78v3.32l17.03-5.25c1.68,1.36,4.11,2.39,7.24,3.07,.25,.06,.51,.1,.77,.15v2.96h6.18v-2.28c1.35,.06,2.6,.07,3.69,.04v2.24h6.18v-8.9h-6.18v4.29c-1.03,.04-2.32,.04-3.69-.05v-4.25h-6.18v3.03c-1.47-.57-2.74-1.39-3.57-2.54l-4.83-.64Z"/><path class="cls-19" d="M325.37,244.16c0,7.42-15.71,13.47-35.02,13.47s-35.01-6.04-35.01-13.47,15.71-13.47,35.01-13.47,35.02,6.04,35.02,13.47m8,0c0-9.14-19.26-16.54-43.02-16.54s-43.02,7.41-43.02,16.54,19.26,16.54,43.02,16.54,43.02-7.41,43.02-16.54h0Z"/><path class="cls-19" d="M259.97,244.16c0-6.45,13.63-11.69,30.39-11.69s30.39,5.24,30.39,11.69-13.63,11.69-30.39,11.69-30.39-5.24-30.39-11.69Zm59.44,0c0-6.16-13.03-11.17-29.05-11.17s-29.05,5.01-29.05,11.17,13.03,11.17,29.05,11.17,29.05-5.01,29.05-11.17Z"/><path class="cls-19" d="M286.46,239.64l-16.64,4.78v3.32l17.03-5.25c1.68,1.36,4.11,2.39,7.24,3.07,.25,.05,.51,.1,.77,.15v2.96h6.18v-2.28c1.35,.06,2.6,.06,3.69,.04v2.24h6.18v-8.9h-6.18v4.3c-1.03,.04-2.32,.04-3.69-.05v-4.25h-6.18v3.03c-1.47-.57-2.74-1.39-3.57-2.54l-4.83-.63Z"/></g></g><g><path class="cls-23" d="M247.34,235.43c0,9.13,19.26,16.54,43.02,16.54s43.02-7.41,43.02-16.54v-7.82h-86.03v7.82Z"/><g><path class="cls-26" d="M286.27,231.63v20.26c1.35,.05,2.71,.08,4.09,.08v-20.34h-4.09Z"/><path class="cls-26" d="M277.97,231.63v19.64c2.22,.26,4.52,.44,6.88,.56v-20.2h-6.88Z"/><path class="cls-26" d="M276.27,251.06v-23.41h-28.93v7.78c0,7.24,12.09,13.38,28.93,15.63Z"/><path class="cls-26" d="M305.68,231.63v19.26c.47-.07,.94-.14,1.4-.21v-19.04h-1.4Z"/><path class="cls-26" d="M300.33,251.52c.47-.04,.94-.09,1.4-.14v-19.75h-1.4v19.89Z"/><path class="cls-26" d="M293.55,231.63v20.29c.69-.02,1.37-.04,2.05-.08v-20.22h-2.05Z"/></g><g><path class="cls-23" d="M290.36,244.16c-23.76,0-43.02-7.41-43.02-16.54s19.26-16.54,43.02-16.54,43.02,7.41,43.02,16.54-19.26,16.54-43.02,16.54Z"/><path class="cls-14" d="M314.6,241.28c-1.22,.04-2.45,.07-3.7,.07-23.76,0-43.02-7.41-43.02-16.54,0-5.68,7.44-10.69,18.78-13.67-22.02,.72-39.32,7.82-39.32,16.48,0,9.14,19.26,16.54,43.02,16.54,8.99,0,17.33-1.06,24.24-2.88Z"/><path class="cls-26" d="M333.34,228.13c-.71-8.9-19.67-16.03-42.98-16.03s-42.27,7.13-42.98,16.03c.71,8.9,19.67,16.03,42.98,16.03s42.28-7.13,42.98-16.03Zm-42.98,13.98c-19.31,0-35.01-6.04-35.01-13.47s15.71-13.47,35.01-13.47,35.02,6.04,35.02,13.47-15.71,13.47-35.02,13.47Z"/><path class="cls-26" d="M286.46,225.32l-16.64,4.78v3.32l17.03-5.25c1.68,1.36,4.11,2.39,7.24,3.07,.25,.06,.51,.1,.77,.15v2.96h6.18v-2.28c1.35,.06,2.6,.06,3.69,.04v2.24h6.18v-8.9h-6.18v4.3c-1.03,.04-2.32,.04-3.69-.05v-4.25h-6.18v3.03c-1.47-.57-2.74-1.39-3.57-2.54l-4.83-.64Z"/><path class="cls-19" d="M325.37,227.62c0,7.42-15.71,13.47-35.02,13.47s-35.01-6.04-35.01-13.47,15.71-13.47,35.01-13.47,35.02,6.04,35.02,13.47m8,0c0-9.14-19.26-16.54-43.02-16.54s-43.02,7.41-43.02,16.54,19.26,16.54,43.02,16.54,43.02-7.41,43.02-16.54h0Z"/><path class="cls-19" d="M259.97,227.62c0-6.45,13.63-11.69,30.39-11.69s30.39,5.24,30.39,11.69-13.63,11.69-30.39,11.69-30.39-5.24-30.39-11.69Zm59.44,0c0-6.16-13.03-11.17-29.05-11.17s-29.05,5.01-29.05,11.17,13.03,11.17,29.05,11.17,29.05-5.01,29.05-11.17Z"/><path class="cls-19" d="M286.46,223.1l-16.64,4.78v3.32l17.03-5.25c1.68,1.36,4.11,2.39,7.24,3.07,.25,.06,.51,.1,.77,.15v2.97h6.18v-2.28c1.35,.06,2.6,.06,3.69,.04v2.24h6.18v-8.9h-6.18v4.3c-1.03,.04-2.32,.04-3.69-.05v-4.25h-6.18v3.03c-1.47-.57-2.74-1.39-3.57-2.54l-4.83-.63Z"/></g></g><g><path class="cls-23" d="M247.34,218.89c0,9.13,19.26,16.54,43.02,16.54s43.02-7.41,43.02-16.54v-7.82h-86.03v7.82Z"/><g><path class="cls-26" d="M286.27,215.09v20.26c1.35,.05,2.71,.08,4.09,.08v-20.34h-4.09Z"/><path class="cls-26" d="M277.97,215.09v19.64c2.22,.26,4.52,.44,6.88,.56v-20.2h-6.88Z"/><path class="cls-26" d="M276.27,234.52v-23.41h-28.93v7.78c0,7.24,12.09,13.39,28.93,15.63Z"/><path class="cls-26" d="M305.68,215.09v19.26c.47-.07,.94-.14,1.4-.21v-19.05h-1.4Z"/><path class="cls-26" d="M300.33,234.98c.47-.04,.94-.09,1.4-.14v-19.75h-1.4v19.89Z"/><path class="cls-26" d="M293.55,215.09v20.29c.69-.02,1.37-.04,2.05-.08v-20.22h-2.05Z"/></g><g><path class="cls-23" d="M290.36,227.62c-23.76,0-43.02-7.41-43.02-16.54s19.26-16.54,43.02-16.54,43.02,7.41,43.02,16.54-19.26,16.54-43.02,16.54Z"/><path class="cls-6" d="M314.6,224.74c-1.22,.04-2.45,.07-3.7,.07-23.76,0-43.02-7.41-43.02-16.54,0-5.68,7.44-10.69,18.78-13.67-22.02,.72-39.32,7.82-39.32,16.48,0,9.14,19.26,16.54,43.02,16.54,8.99,0,17.33-1.06,24.24-2.88Z"/><path class="cls-26" d="M333.34,211.59c-.71-8.9-19.67-16.03-42.98-16.03s-42.27,7.13-42.98,16.03c.71,8.9,19.67,16.03,42.98,16.03s42.28-7.13,42.98-16.03Zm-42.98,13.98c-19.31,0-35.01-6.04-35.01-13.47s15.71-13.47,35.01-13.47,35.02,6.04,35.02,13.47-15.71,13.47-35.02,13.47Z"/><path class="cls-26" d="M286.46,208.78l-16.64,4.78v3.32l17.03-5.25c1.68,1.36,4.11,2.39,7.24,3.07,.25,.06,.51,.1,.77,.15v2.97h6.18v-2.28c1.35,.06,2.6,.07,3.69,.04v2.24h6.18v-8.9h-6.18v4.3c-1.03,.04-2.32,.04-3.69-.05v-4.25h-6.18v3.03c-1.47-.57-2.74-1.39-3.57-2.54l-4.83-.64Z"/><path class="cls-19" d="M325.37,211.07c0,7.42-15.71,13.47-35.02,13.47s-35.01-6.04-35.01-13.47,15.71-13.47,35.01-13.47,35.02,6.04,35.02,13.47m8,0c0-9.14-19.26-16.54-43.02-16.54s-43.02,7.41-43.02,16.54,19.26,16.54,43.02,16.54,43.02-7.41,43.02-16.54h0Z"/><path class="cls-19" d="M259.97,211.07c0-6.44,13.63-11.69,30.39-11.69s30.39,5.24,30.39,11.69-13.63,11.69-30.39,11.69-30.39-5.24-30.39-11.69Zm59.44,0c0-6.16-13.03-11.17-29.05-11.17s-29.05,5.01-29.05,11.17,13.03,11.17,29.05,11.17,29.05-5.01,29.05-11.17Z"/><path class="cls-19" d="M286.46,206.55l-16.64,4.78v3.32l17.03-5.25c1.68,1.36,4.11,2.39,7.24,3.07,.25,.05,.51,.1,.77,.15v2.97h6.18v-2.28c1.35,.06,2.6,.06,3.69,.04v2.24h6.18v-8.9h-6.18v4.3c-1.03,.04-2.32,.04-3.69-.05v-4.25h-6.18v3.03c-1.47-.57-2.74-1.39-3.57-2.54l-4.83-.63Z"/></g></g><g><path class="cls-23" d="M208.46,335.06c0,9.14,19.26,16.54,43.02,16.54s43.02-7.41,43.02-16.54v-7.82h-86.03v7.82Z"/><g><path class="cls-26" d="M247.39,331.26v20.26c1.35,.05,2.71,.08,4.09,.08v-20.34h-4.09Z"/><path class="cls-26" d="M239.09,331.26v19.64c2.22,.26,4.52,.44,6.88,.56v-20.2h-6.88Z"/><path class="cls-26" d="M237.39,350.69v-23.41h-28.93v7.78c0,7.24,12.09,13.39,28.93,15.63Z"/><path class="cls-26" d="M266.8,331.26v19.26c.47-.07,.94-.14,1.4-.21v-19.05h-1.4Z"/><path class="cls-26" d="M261.45,351.15c.47-.04,.94-.09,1.4-.14v-19.75h-1.4v19.89Z"/><path class="cls-26" d="M254.67,331.26v20.29c.69-.02,1.37-.04,2.05-.08v-20.22h-2.05Z"/></g><g><path class="cls-23" d="M251.48,343.78c-23.76,0-43.02-7.41-43.02-16.54s19.26-16.54,43.02-16.54,43.02,7.41,43.02,16.54-19.26,16.54-43.02,16.54Z"/><path class="cls-15" d="M275.72,340.91c-1.22,.04-2.45,.07-3.7,.07-23.76,0-43.02-7.41-43.02-16.54,0-5.68,7.44-10.69,18.78-13.67-22.02,.72-39.32,7.82-39.32,16.48,0,9.14,19.26,16.54,43.02,16.54,8.99,0,17.34-1.06,24.24-2.88Z"/><path class="cls-26" d="M294.46,327.76c-.71-8.9-19.67-16.03-42.98-16.03s-42.27,7.13-42.98,16.03c.71,8.9,19.67,16.03,42.98,16.03s42.28-7.13,42.98-16.03Zm-42.98,13.98c-19.31,0-35.01-6.04-35.01-13.47s15.71-13.47,35.01-13.47,35.02,6.04,35.02,13.47-15.71,13.47-35.02,13.47Z"/><path class="cls-26" d="M247.58,324.94l-16.64,4.78v3.32l17.03-5.25c1.68,1.36,4.11,2.39,7.24,3.07,.25,.06,.51,.1,.77,.15v2.96h6.18v-2.28c1.35,.06,2.6,.07,3.69,.04v2.24h6.18v-8.9h-6.18v4.3c-1.03,.04-2.32,.04-3.69-.05v-4.25h-6.18v3.03c-1.47-.57-2.74-1.39-3.57-2.54l-4.83-.64Z"/><path class="cls-19" d="M286.5,327.24c0,7.42-15.71,13.47-35.02,13.47s-35.01-6.04-35.01-13.47,15.71-13.47,35.01-13.47,35.02,6.04,35.02,13.47m8,0c0-9.14-19.26-16.54-43.02-16.54s-43.02,7.41-43.02,16.54,19.26,16.54,43.02,16.54,43.02-7.41,43.02-16.54h0Z"/><path class="cls-19" d="M221.09,327.24c0-6.44,13.63-11.69,30.39-11.69s30.39,5.24,30.39,11.69-13.63,11.69-30.39,11.69-30.39-5.24-30.39-11.69Zm59.44,0c0-6.16-13.03-11.17-29.05-11.17s-29.05,5.01-29.05,11.17,13.03,11.17,29.05,11.17,29.05-5.01,29.05-11.17Z"/><path class="cls-19" d="M247.58,322.72l-16.64,4.78v3.32l17.03-5.25c1.68,1.36,4.11,2.39,7.24,3.07,.25,.06,.51,.1,.77,.15v2.97h6.18v-2.28c1.35,.06,2.6,.06,3.69,.04v2.24h6.18v-8.9h-6.18v4.3c-1.03,.04-2.32,.04-3.69-.05v-4.25h-6.18v3.03c-1.47-.57-2.74-1.39-3.57-2.54l-4.83-.63Z"/></g></g><g><path class="cls-23" d="M208.46,318.51c0,9.13,19.26,16.54,43.02,16.54s43.02-7.41,43.02-16.54v-7.82h-86.03v7.82Z"/><g><path class="cls-26" d="M247.39,314.71v20.26c1.35,.05,2.71,.08,4.09,.08v-20.34h-4.09Z"/><path class="cls-26" d="M239.09,314.71v19.64c2.22,.26,4.52,.45,6.88,.56v-20.2h-6.88Z"/><path class="cls-26" d="M237.39,334.14v-23.41h-28.93v7.78c0,7.24,12.09,13.38,28.93,15.63Z"/><path class="cls-26" d="M266.8,314.71v19.26c.47-.07,.94-.14,1.4-.21v-19.04h-1.4Z"/><path class="cls-26" d="M261.45,334.6c.47-.04,.94-.09,1.4-.14v-19.75h-1.4v19.89Z"/><path class="cls-26" d="M254.67,314.71v20.29c.69-.02,1.37-.04,2.05-.08v-20.21h-2.05Z"/></g><g><path class="cls-23" d="M251.48,327.24c-23.76,0-43.02-7.41-43.02-16.54s19.26-16.54,43.02-16.54,43.02,7.41,43.02,16.54-19.26,16.54-43.02,16.54Z"/><path class="cls-18" d="M275.72,324.36c-1.22,.04-2.45,.06-3.7,.06-23.76,0-43.02-7.41-43.02-16.54,0-5.68,7.44-10.69,18.78-13.67-22.02,.72-39.32,7.82-39.32,16.48,0,9.14,19.26,16.54,43.02,16.54,8.99,0,17.34-1.06,24.24-2.88Z"/><path class="cls-26" d="M294.46,311.21c-.71-8.9-19.67-16.03-42.98-16.03s-42.27,7.13-42.98,16.03c.71,8.9,19.67,16.03,42.98,16.03s42.28-7.13,42.98-16.03Zm-42.98,13.98c-19.31,0-35.01-6.04-35.01-13.47s15.71-13.47,35.01-13.47,35.02,6.04,35.02,13.47-15.71,13.47-35.02,13.47Z"/><path class="cls-26" d="M247.58,308.4l-16.64,4.78v3.32l17.03-5.25c1.68,1.36,4.11,2.39,7.24,3.07,.25,.06,.51,.1,.77,.15v2.97h6.18v-2.28c1.35,.06,2.6,.07,3.69,.04v2.24h6.18v-8.9h-6.18v4.3c-1.03,.04-2.32,.04-3.69-.05v-4.25h-6.18v3.03c-1.47-.57-2.74-1.39-3.57-2.54l-4.83-.64Z"/><path class="cls-19" d="M286.5,310.7c0,7.42-15.71,13.47-35.02,13.47s-35.01-6.04-35.01-13.47,15.71-13.47,35.01-13.47,35.02,6.04,35.02,13.47m8,0c0-9.14-19.26-16.54-43.02-16.54s-43.02,7.41-43.02,16.54,19.26,16.54,43.02,16.54,43.02-7.41,43.02-16.54h0Z"/><path class="cls-19" d="M221.09,310.7c0-6.45,13.63-11.69,30.39-11.69s30.39,5.24,30.39,11.69-13.63,11.69-30.39,11.69-30.39-5.24-30.39-11.69Zm59.44,0c0-6.16-13.03-11.17-29.05-11.17s-29.05,5.01-29.05,11.17,13.03,11.17,29.05,11.17,29.05-5.01,29.05-11.17Z"/><path class="cls-19" d="M247.58,306.18l-16.64,4.78v3.32l17.03-5.25c1.68,1.36,4.11,2.39,7.24,3.07,.25,.05,.51,.1,.77,.15v2.96h6.18v-2.28c1.35,.06,2.6,.06,3.69,.04v2.24h6.18v-8.9h-6.18v4.3c-1.03,.04-2.32,.04-3.69-.05v-4.25h-6.18v3.03c-1.47-.57-2.74-1.39-3.57-2.54l-4.83-.63Z"/></g></g><g><path class="cls-23" d="M208.46,301.97c0,9.13,19.26,16.54,43.02,16.54s43.02-7.41,43.02-16.54v-7.82h-86.03v7.82Z"/><g><path class="cls-26" d="M247.39,298.17v20.26c1.35,.05,2.71,.08,4.09,.08v-20.34h-4.09Z"/><path class="cls-26" d="M239.09,298.17v19.64c2.22,.26,4.52,.45,6.88,.56v-20.2h-6.88Z"/><path class="cls-26" d="M237.39,317.6v-23.41h-28.93v7.78c0,7.24,12.09,13.38,28.93,15.63Z"/><path class="cls-26" d="M266.8,298.17v19.26c.47-.07,.94-.14,1.4-.21v-19.04h-1.4Z"/><path class="cls-26" d="M261.45,318.06c.47-.04,.94-.09,1.4-.14v-19.75h-1.4v19.89Z"/><path class="cls-26" d="M254.67,298.17v20.29c.69-.02,1.37-.04,2.05-.08v-20.21h-2.05Z"/></g><g><path class="cls-23" d="M251.48,310.7c-23.76,0-43.02-7.41-43.02-16.54s19.26-16.54,43.02-16.54,43.02,7.41,43.02,16.54-19.26,16.54-43.02,16.54Z"/><path class="cls-8" d="M275.72,307.82c-1.22,.04-2.45,.06-3.7,.06-23.76,0-43.02-7.41-43.02-16.54,0-5.68,7.44-10.69,18.78-13.67-22.02,.72-39.32,7.82-39.32,16.48,0,9.14,19.26,16.54,43.02,16.54,8.99,0,17.34-1.06,24.24-2.88Z"/><path class="cls-26" d="M294.46,294.67c-.71-8.9-19.67-16.03-42.98-16.03s-42.27,7.13-42.98,16.03c.71,8.9,19.67,16.03,42.98,16.03s42.28-7.13,42.98-16.03Zm-42.98,13.98c-19.31,0-35.01-6.04-35.01-13.47s15.71-13.47,35.01-13.47,35.02,6.04,35.02,13.47-15.71,13.47-35.02,13.47Z"/><path class="cls-26" d="M247.58,291.86l-16.64,4.78v3.32l17.03-5.25c1.68,1.36,4.11,2.39,7.24,3.07,.25,.06,.51,.1,.77,.15v2.96h6.18v-2.28c1.35,.06,2.6,.07,3.69,.04v2.24h6.18v-8.9h-6.18v4.3c-1.03,.04-2.32,.04-3.69-.05v-4.25h-6.18v3.03c-1.47-.57-2.74-1.39-3.57-2.54l-4.83-.64Z"/><path class="cls-19" d="M286.5,294.15c0,7.42-15.71,13.47-35.02,13.47s-35.01-6.04-35.01-13.47,15.71-13.47,35.01-13.47,35.02,6.04,35.02,13.47m8,0c0-9.14-19.26-16.54-43.02-16.54s-43.02,7.41-43.02,16.54,19.26,16.54,43.02,16.54,43.02-7.41,43.02-16.54h0Z"/><path class="cls-19" d="M221.09,294.15c0-6.45,13.63-11.69,30.39-11.69s30.39,5.24,30.39,11.69-13.63,11.69-30.39,11.69-30.39-5.24-30.39-11.69Zm59.44,0c0-6.16-13.03-11.17-29.05-11.17s-29.05,5.01-29.05,11.17,13.03,11.17,29.05,11.17,29.05-5.01,29.05-11.17Z"/><path class="cls-19" d="M247.58,289.63l-16.64,4.78v3.32l17.03-5.25c1.68,1.36,4.11,2.39,7.24,3.07,.25,.05,.51,.1,.77,.15v2.96h6.18v-2.28c1.35,.06,2.6,.06,3.69,.04v2.24h6.18v-8.9h-6.18v4.3c-1.03,.04-2.32,.04-3.69-.05v-4.25h-6.18v3.03c-1.47-.57-2.74-1.39-3.57-2.54l-4.83-.63Z"/></g></g><g><path class="cls-23" d="M208.46,285.43c0,9.13,19.26,16.54,43.02,16.54s43.02-7.41,43.02-16.54v-7.82h-86.03v7.82Z"/><g><path class="cls-26" d="M247.39,281.63v20.26c1.35,.05,2.71,.08,4.09,.08v-20.34h-4.09Z"/><path class="cls-26" d="M239.09,281.63v19.64c2.22,.26,4.52,.44,6.88,.56v-20.2h-6.88Z"/><path class="cls-26" d="M237.39,301.06v-23.41h-28.93v7.78c0,7.24,12.09,13.38,28.93,15.63Z"/><path class="cls-26" d="M266.8,281.63v19.26c.47-.07,.94-.14,1.4-.21v-19.05h-1.4Z"/><path class="cls-26" d="M261.45,301.52c.47-.04,.94-.09,1.4-.14v-19.75h-1.4v19.89Z"/><path class="cls-26" d="M254.67,281.63v20.29c.69-.02,1.37-.04,2.05-.08v-20.22h-2.05Z"/></g><g><path class="cls-23" d="M251.48,294.15c-23.76,0-43.02-7.41-43.02-16.54s19.26-16.54,43.02-16.54,43.02,7.41,43.02,16.54-19.26,16.54-43.02,16.54Z"/><path class="cls-5" d="M275.72,291.28c-1.22,.04-2.45,.07-3.7,.07-23.76,0-43.02-7.41-43.02-16.54,0-5.68,7.44-10.69,18.78-13.67-22.02,.72-39.32,7.82-39.32,16.48,0,9.14,19.26,16.54,43.02,16.54,8.99,0,17.34-1.06,24.24-2.88Z"/><path class="cls-26" d="M294.46,278.13c-.71-8.9-19.67-16.03-42.98-16.03s-42.27,7.13-42.98,16.03c.71,8.9,19.67,16.03,42.98,16.03s42.28-7.13,42.98-16.03Zm-42.98,13.98c-19.31,0-35.01-6.04-35.01-13.47s15.71-13.47,35.01-13.47,35.02,6.04,35.02,13.47-15.71,13.47-35.02,13.47Z"/><path class="cls-26" d="M247.58,275.31l-16.64,4.78v3.32l17.03-5.25c1.68,1.36,4.11,2.39,7.24,3.07,.25,.06,.51,.1,.77,.15v2.96h6.18v-2.28c1.35,.06,2.6,.06,3.69,.04v2.24h6.18v-8.9h-6.18v4.3c-1.03,.04-2.32,.04-3.69-.05v-4.25h-6.18v3.03c-1.47-.57-2.74-1.39-3.57-2.54l-4.83-.64Z"/><path class="cls-19" d="M286.5,277.61c0,7.42-15.71,13.47-35.02,13.47s-35.01-6.04-35.01-13.47,15.71-13.47,35.01-13.47,35.02,6.04,35.02,13.47m8,0c0-9.14-19.26-16.54-43.02-16.54s-43.02,7.41-43.02,16.54,19.26,16.54,43.02,16.54,43.02-7.41,43.02-16.54h0Z"/><path class="cls-19" d="M221.09,277.61c0-6.45,13.63-11.69,30.39-11.69s30.39,5.24,30.39,11.69-13.63,11.69-30.39,11.69-30.39-5.24-30.39-11.69Zm59.44,0c0-6.16-13.03-11.17-29.05-11.17s-29.05,5.01-29.05,11.17,13.03,11.17,29.05,11.17,29.05-5.01,29.05-11.17Z"/><path class="cls-19" d="M247.58,273.09l-16.64,4.78v3.32l17.03-5.25c1.68,1.36,4.11,2.39,7.24,3.07,.25,.06,.51,.1,.77,.15v2.97h6.18v-2.28c1.35,.06,2.6,.06,3.69,.04v2.24h6.18v-8.9h-6.18v4.3c-1.03,.04-2.32,.04-3.69-.05v-4.25h-6.18v3.03c-1.47-.57-2.74-1.39-3.57-2.54l-4.83-.63Z"/></g></g><g><path class="cls-23" d="M208.46,268.88c0,9.13,19.26,16.54,43.02,16.54s43.02-7.41,43.02-16.54v-7.82h-86.03v7.82Z"/><g><path class="cls-26" d="M247.39,265.08v20.26c1.35,.05,2.71,.08,4.09,.08v-20.34h-4.09Z"/><path class="cls-26" d="M239.09,265.08v19.64c2.22,.26,4.52,.44,6.88,.56v-20.2h-6.88Z"/><path class="cls-26" d="M237.39,284.51v-23.41h-28.93v7.78c0,7.24,12.09,13.39,28.93,15.63Z"/><path class="cls-26" d="M266.8,265.08v19.26c.47-.07,.94-.14,1.4-.21v-19.04h-1.4Z"/><path class="cls-26" d="M261.45,284.97c.47-.04,.94-.09,1.4-.14v-19.75h-1.4v19.89Z"/><path class="cls-26" d="M254.67,265.08v20.29c.69-.02,1.37-.04,2.05-.08v-20.22h-2.05Z"/></g><g><path class="cls-23" d="M251.48,277.61c-23.76,0-43.02-7.41-43.02-16.54s19.26-16.54,43.02-16.54,43.02,7.41,43.02,16.54-19.26,16.54-43.02,16.54Z"/><path class="cls-7" d="M275.72,274.73c-1.22,.04-2.45,.07-3.7,.07-23.76,0-43.02-7.41-43.02-16.54,0-5.68,7.44-10.69,18.78-13.67-22.02,.72-39.32,7.82-39.32,16.48,0,9.14,19.26,16.54,43.02,16.54,8.99,0,17.34-1.06,24.24-2.88Z"/><path class="cls-26" d="M294.46,261.58c-.71-8.9-19.67-16.03-42.98-16.03s-42.27,7.13-42.98,16.03c.71,8.9,19.67,16.03,42.98,16.03s42.28-7.13,42.98-16.03Zm-42.98,13.98c-19.31,0-35.01-6.04-35.01-13.47s15.71-13.47,35.01-13.47,35.02,6.04,35.02,13.47-15.71,13.47-35.02,13.47Z"/><path class="cls-26" d="M247.58,258.77l-16.64,4.78v3.32l17.03-5.25c1.68,1.36,4.11,2.39,7.24,3.07,.25,.06,.51,.1,.77,.15v2.97h6.18v-2.28c1.35,.06,2.6,.07,3.69,.04v2.24h6.18v-8.9h-6.18v4.3c-1.03,.04-2.32,.04-3.69-.05v-4.25h-6.18v3.03c-1.47-.57-2.74-1.39-3.57-2.54l-4.83-.64Z"/><path class="cls-19" d="M286.5,261.07c0,7.42-15.71,13.47-35.02,13.47s-35.01-6.04-35.01-13.47,15.71-13.47,35.01-13.47,35.02,6.04,35.02,13.47m8,0c0-9.14-19.26-16.54-43.02-16.54s-43.02,7.41-43.02,16.54,19.26,16.54,43.02,16.54,43.02-7.41,43.02-16.54h0Z"/><path class="cls-19" d="M221.09,261.07c0-6.44,13.63-11.69,30.39-11.69s30.39,5.24,30.39,11.69-13.63,11.69-30.39,11.69-30.39-5.24-30.39-11.69Zm59.44,0c0-6.16-13.03-11.17-29.05-11.17s-29.05,5.01-29.05,11.17,13.03,11.17,29.05,11.17,29.05-5.01,29.05-11.17Z"/><path class="cls-19" d="M247.58,256.55l-16.64,4.78v3.32l17.03-5.25c1.68,1.36,4.11,2.39,7.24,3.07,.25,.05,.51,.1,.77,.15v2.97h6.18v-2.28c1.35,.06,2.6,.06,3.69,.04v2.24h6.18v-8.9h-6.18v4.3c-1.03,.04-2.32,.04-3.69-.05v-4.25h-6.18v3.03c-1.47-.57-2.74-1.39-3.57-2.54l-4.83-.63Z"/></g></g><path class="cls-3" d="M162.17,264.95c-6.45-1.59-14.44,6.93-20.5,20.56l.02,.06c.05,.18,.11,.36,.18,.54,.03,.08,.05,.15,.08,.23,.1,.25,.21,.49,.34,.73,.02,.04,.05,.08,.07,.12,.11,.2,.23,.4,.36,.6,.06,.09,.12,.17,.18,.26,.01,.02,.03,.04,.04,.06-.08,.11-.16,.22-.23,.33-.09,.14-.17,.28-.25,.42-.07,.12-.14,.24-.2,.36-.08,.15-.14,.3-.21,.45-.05,.12-.11,.23-.15,.35-.06,.16-.11,.32-.16,.48-.03,.11-.07,.22-.1,.33-.05,.18-.08,.36-.11,.54-.02,.09-.04,.18-.05,.28-.04,.27-.05,.55-.05,.83v7.82c0,.26,.02,.52,.05,.78,0,.08,.03,.16,.04,.24,.03,.18,.06,.36,.11,.54,.02,.09,.04,.18,.07,.26,.05,.18,.11,.36,.18,.54,.03,.08,.05,.15,.08,.23,.1,.25,.21,.49,.34,.73,.02,.04,.05,.08,.07,.13,.11,.2,.23,.4,.36,.6,.06,.09,.12,.17,.18,.26,.01,.02,.03,.04,.04,.06-.08,.11-.16,.22-.23,.33-.09,.14-.18,.29-.26,.43-.07,.12-.14,.23-.2,.35-.08,.15-.14,.3-.21,.45-.05,.11-.11,.23-.15,.34-.06,.16-.11,.32-.16,.49-.03,.11-.07,.21-.1,.32-.05,.18-.08,.36-.11,.55-.02,.09-.04,.18-.05,.27-.04,.27-.05,.55-.05,.83v7.82c0,.26,.02,.52,.05,.78,0,.08,.03,.16,.04,.24,.03,.18,.06,.36,.11,.54,.02,.09,.04,.18,.07,.26,.05,.18,.11,.36,.18,.54,.03,.08,.05,.15,.08,.23,.1,.25,.21,.49,.34,.74,.02,.04,.05,.08,.07,.12,.11,.2,.23,.4,.36,.6,.06,.09,.12,.17,.18,.26,.11,.16,.22,.31,.34,.47,.07,.09,.14,.18,.22,.27,.13,.16,.27,.31,.41,.47,.07,.08,.14,.16,.22,.24,.21,.22,.44,.44,.67,.65,.08,.08,.18,.15,.27,.23,.16,.14,.33,.29,.51,.43,.12,.1,.25,.19,.37,.29,.15,.12,.31,.24,.47,.36,.14,.1,.28,.2,.42,.3,.16,.11,.33,.23,.5,.34,.15,.1,.29,.2,.45,.29,.29,.18,.59,.37,.91,.54,.19,.11,.39,.22,.59,.32,.15,.08,.31,.17,.47,.25,.21,.11,.43,.22,.65,.33,.15,.07,.3,.15,.45,.22,.24,.11,.48,.23,.72,.34,.12,.05,.24,.1,.35,.16,.91,.41,1.87,.8,2.88,1.17,.1,.04,.2,.08,.31,.11,.33,.12,.66,.23,.99,.35,.1,.03,.19,.06,.29,.1,1.42,.47,2.93,.9,4.51,1.3,2.8-5.73,5.27-12.54,7.11-19.99,5.67-23.07,3.08-43.54-5.8-45.72Z"/><g><path class="cls-23" d="M127.73,340.11c8.49,3.37,22.47-11.81,31.23-33.9,8.75-22.09,8.96-42.72,.47-46.09l-7.27-2.88-31.7,79.98,7.27,2.88Z"/><g><path class="cls-26" d="M138.54,302.52l18.84,7.47c.54-1.23,1.07-2.49,1.58-3.78l-18.91-7.49-1.51,3.8Z"/><path class="cls-26" d="M135.49,310.23l18.26,7.24c1.06-1.97,2.08-4.04,3.06-6.19l-18.78-7.44-2.53,6.39Z"/><path class="cls-26" d="M152.92,318.97l-21.77-8.63-10.66,26.89,7.24,2.87c6.73,2.67,16.9-6.31,25.19-21.13Z"/><path class="cls-26" d="M145.69,284.47l17.9,7.09c.11-.46,.22-.92,.32-1.38l-17.71-7.02-.52,1.3Z"/><path class="cls-26" d="M162.21,296.77c.13-.45,.26-.9,.39-1.35l-18.36-7.28-.52,1.3,18.49,7.33Z"/><path class="cls-26" d="M141.22,295.75l18.86,7.47c.24-.65,.46-1.29,.68-1.93l-18.79-7.45-.75,1.9Z"/></g><g><path class="cls-23" d="M151.69,303.33c-8.75,22.09-22.73,37.26-31.23,33.9-8.49-3.37-8.28-24,.47-46.08,8.75-22.09,22.73-37.26,31.23-33.9,8.49,3.37,8.28,24-.47,46.09Z"/><path class="cls-13" d="M157.95,279.74c-.41,1.15-.84,2.3-1.3,3.46-8.75,22.09-22.73,37.26-31.23,33.9-5.28-2.09-7.19-10.86-5.79-22.49-7.44,20.74-7.21,39.43,.83,42.62,8.49,3.37,22.48-11.81,31.23-33.9,3.31-8.36,5.4-16.51,6.26-23.59Z"/><path class="cls-26" d="M152.63,257.47c-8.53-2.62-22.15,12.38-30.74,34.05-8.59,21.67-8.94,41.93-.93,45.87,8.53,2.62,22.15-12.38,30.74-34.05,8.59-21.67,8.94-41.93,.93-45.87Zm-2.84,45.11c-7.11,17.95-18.52,30.33-25.42,27.59-6.9-2.74-6.73-19.56,.38-37.51,7.11-17.95,18.52-30.33,25.42-27.59,6.9,2.74,6.73,19.56-.38,37.51Z"/><path class="cls-26" d="M132.74,300.02l-1.68,17.23,3.09,1.22,1.39-17.76c1.89-1.06,3.73-2.94,5.52-5.59,.15-.22,.28-.44,.42-.66l2.76,1.09,2.28-5.74-2.12-.84c.55-1.23,1.02-2.4,1.4-3.42l2.08,.82,2.27-5.74-8.27-3.28-2.28,5.74,3.99,1.58c-.35,.97-.82,2.17-1.41,3.41l-3.95-1.56-2.27,5.74,2.82,1.12c-1.07,1.15-2.3,2.04-3.67,2.38l-2.37,4.25Z"/><path class="cls-19" d="M149.21,264.68c6.9,2.74,6.73,19.56-.38,37.51-7.11,17.95-18.52,30.33-25.42,27.59-6.9-2.74-6.73-19.56,.38-37.51,7.11-17.95,18.52-30.33,25.42-27.59m2.95-7.44c-8.49-3.37-22.48,11.81-31.23,33.9-8.75,22.08-8.96,42.72-.47,46.08,8.49,3.37,22.48-11.81,31.23-33.9,8.75-22.09,8.96-42.72,.47-46.09h0Z"/><path class="cls-19" d="M125.12,325.48c-5.99-2.37-5.84-16.98,.33-32.55,6.17-15.58,16.07-26.32,22.06-23.95,5.99,2.37,5.84,16.98-.33,32.56-6.17,15.57-16.07,26.32-22.06,23.94Zm21.9-55.26c-5.73-2.27-15.19,8-21.09,22.89-5.9,14.89-6.04,28.86-.31,31.13,5.73,2.27,15.19-8,21.09-22.89,5.9-14.89,6.04-28.86,.32-31.13Z"/><path class="cls-19" d="M130.68,299.2l-1.68,17.23,3.09,1.22,1.39-17.77c1.89-1.06,3.74-2.94,5.52-5.59,.14-.22,.28-.44,.42-.66l2.76,1.09,2.28-5.74-2.12-.84c.55-1.23,1.02-2.4,1.4-3.42l2.08,.82,2.27-5.74-8.27-3.28-2.27,5.74,3.99,1.58c-.35,.97-.82,2.17-1.41,3.41l-3.95-1.56-2.28,5.74,2.82,1.12c-1.07,1.15-2.3,2.04-3.68,2.38l-2.37,4.25Z"/></g></g><path class="cls-3" d="M268.2,350.3c15.45-2.51,26.29-8.39,26.29-15.25v-7.82c0-1.51-.54-2.97-1.52-4.36,.99-1.39,1.52-2.85,1.52-4.36v-7.82c0-1.51-.54-2.97-1.52-4.36,.99-1.39,1.52-2.85,1.52-4.36v-7.82c0-1.51-.54-2.97-1.52-4.36,.99-1.39,1.52-2.85,1.52-4.36v-.11c-8.82-3.09-25.29,10.2-37.87,30.98-7.75,12.8-12.3,25.58-13.06,35.02,.79,.06,1.59,.11,2.4,.15h0c1.8,.09,3.64,.14,5.51,.14,1.76,0,3.5-.05,5.21-.12h.03c3.73-.18,7.31-.53,10.68-1.05,.27-.04,.54-.08,.81-.12Z"/><g><path class="cls-23" d="M317.9,365.79c-8.49,3.37-22.47-11.81-31.23-33.9-8.75-22.09-8.96-42.72-.47-46.09l7.27-2.88,31.7,79.98-7.27,2.88Z"/><g><path class="cls-26" d="M307.09,328.2l-18.84,7.47c-.54-1.23-1.07-2.49-1.58-3.78l18.91-7.49,1.51,3.8Z"/><path class="cls-26" d="M310.15,335.92l-18.26,7.24c-1.06-1.97-2.08-4.04-3.05-6.19l18.78-7.44,2.53,6.39Z"/><path class="cls-26" d="M292.71,344.66l21.77-8.63,10.66,26.89-7.24,2.87c-6.73,2.67-16.9-6.31-25.19-21.13Z"/><path class="cls-26" d="M299.94,310.15l-17.9,7.09c-.11-.46-.22-.92-.32-1.38l17.71-7.02,.52,1.3Z"/><path class="cls-26" d="M283.42,322.46c-.13-.45-.26-.9-.39-1.35l18.36-7.28,.52,1.3-18.49,7.33Z"/><path class="cls-26" d="M304.41,321.44l-18.86,7.47c-.24-.65-.46-1.29-.68-1.93l18.79-7.45,.75,1.9Z"/></g><g><path class="cls-23" d="M293.94,329.02c8.75,22.09,22.73,37.26,31.23,33.9,8.49-3.37,8.28-24-.47-46.08-8.75-22.09-22.73-37.26-31.23-33.9-8.49,3.37-8.28,24,.47,46.09Z"/><path class="cls-9" d="M287.68,305.42c.41,1.15,.84,2.3,1.3,3.46,8.75,22.08,22.73,37.26,31.23,33.9,5.28-2.09,7.19-10.86,5.79-22.49,7.44,20.74,7.21,39.43-.83,42.62-8.49,3.37-22.47-11.81-31.23-33.9-3.31-8.36-5.4-16.51-6.26-23.59Z"/><path class="cls-26" d="M293.94,329.02c8.59,21.67,22.21,36.67,30.74,34.05,8.01-3.94,7.66-24.2-.93-45.87-8.59-21.67-22.21-36.67-30.74-34.05-8.01,3.94-7.65,24.2,.93,45.87Zm1.53-38.27c6.9-2.74,18.3,9.64,25.42,27.59,7.11,17.95,7.29,34.78,.38,37.51-6.9,2.74-18.31-9.64-25.42-27.59-7.11-17.95-7.28-34.78-.38-37.51Z"/><path class="cls-26" d="M312.89,325.7l1.68,17.23-3.09,1.22-1.39-17.76c-1.89-1.06-3.73-2.94-5.52-5.59-.15-.22-.28-.44-.42-.66l-2.76,1.09-2.28-5.74,2.12-.84c-.55-1.23-1.02-2.4-1.4-3.42l-2.08,.82-2.28-5.74,8.27-3.28,2.28,5.74-3.99,1.58c.35,.97,.82,2.17,1.41,3.41l3.95-1.56,2.28,5.74-2.82,1.12c1.07,1.15,2.3,2.04,3.67,2.38l2.37,4.25Z"/><path class="cls-19" d="M296.42,290.37c6.9-2.74,18.31,9.64,25.42,27.59,7.11,17.95,7.28,34.78,.38,37.51-6.9,2.74-18.31-9.64-25.42-27.59-7.11-17.95-7.29-34.78-.38-37.51m-2.95-7.44c-8.49,3.37-8.28,24,.47,46.09,8.75,22.09,22.73,37.26,31.23,33.9,8.49-3.37,8.28-24-.47-46.08-8.75-22.09-22.73-37.26-31.23-33.9h0Z"/><path class="cls-19" d="M298.45,327.23c-6.17-15.58-6.32-30.18-.33-32.56,5.99-2.37,15.89,8.37,22.06,23.95,6.17,15.57,6.32,30.18,.33,32.55-5.99,2.38-15.89-8.37-22.06-23.94Zm.48-.19c5.9,14.89,15.36,25.16,21.09,22.89,5.73-2.27,5.59-16.23-.31-31.13-5.9-14.89-15.36-25.16-21.09-22.89-5.73,2.27-5.59,16.23,.32,31.13Z"/><path class="cls-19" d="M314.96,324.88l1.68,17.23-3.09,1.22-1.39-17.77c-1.89-1.06-3.74-2.94-5.52-5.59-.14-.22-.28-.44-.42-.66l-2.76,1.09-2.28-5.74,2.12-.84c-.55-1.23-1.02-2.4-1.4-3.42l-2.08,.82-2.27-5.74,8.27-3.28,2.27,5.74-3.99,1.58c.35,.97,.82,2.17,1.41,3.41l3.95-1.56,2.28,5.74-2.82,1.12c1.07,1.15,2.3,2.04,3.68,2.38l2.37,4.25Z"/></g></g></g><polygon class="cls-1" points="158.55 275.34 156.8 270.9 155.05 275.34 150.6 277.1 155.05 278.85 156.8 283.3 158.55 278.85 163 277.1 158.55 275.34"/><polygon class="cls-1" points="284.78 270.64 283.03 266.19 281.28 270.64 276.83 272.39 281.28 274.14 283.03 278.59 284.78 274.14 289.23 272.39 284.78 270.64"/><polygon class="cls-1" points="326.16 221.06 324.41 216.61 322.65 221.06 318.21 222.81 322.65 224.57 324.41 229.01 326.16 224.57 330.61 222.81 326.16 221.06"/><polygon class="cls-1" points="220.16 302.9 218.41 298.45 216.66 302.9 212.21 304.65 216.66 306.4 218.41 310.85 220.16 306.4 224.61 304.65 220.16 302.9"/></g><path class="cls-24" d="M156.2,88.7s-23.8,17.38-31.26,30.65c0,0,31.8-23.57,48.8-30.65h-17.54Z"/><path class="cls-24" d="M163.35,88.7s18.34,9.71,27.31,30.65c0,0-1.16-17.66-10.71-30.65h-16.6Z"/><path class="cls-24" d="M199.77,132.39s16.1,30.21,24.84,63.17c0,0,1.9-37.41-24.84-63.17Z"/><path class="cls-22" d="M221.09,136.22s16.1,30.21,24.84,63.17c0,0,1.9-37.41-24.84-63.17Z"/><path class="cls-22" d="M195.83,147.49s27.02-4.41,51.58,1.93c0,0-24.6-12.76-51.58-1.93Z"/><path class="cls-22" d="M201.73,162.05s27.02-4.41,51.58,1.93c0,0-24.6-12.76-51.58-1.93Z"/><g><path class="cls-24" d="M201.73,162.05s9.07-1.48,21.48-1.49c-.39-.93-.79-1.86-1.21-2.8-6.33,.26-13.21,1.46-20.27,4.3Z"/><path class="cls-24" d="M216.5,146.01c-.46-.92-.93-1.84-1.41-2.77-6.05,.34-12.58,1.57-19.25,4.25,0,0,8.68-1.41,20.66-1.49Z"/></g><path class="cls-24" d="M128.89,15l34.46,64.45V10.72c-.66,.27-1.32,.54-1.99,.81-.12,.05-.24,.1-.36,.14-.67,.27-1.35,.53-2.02,.79-.03,.01-.05,.02-.08,.03-.7,.26-1.4,.52-2.1,.77-.14,.05-.29,.1-.43,.15-.55,.19-1.1,.38-1.65,.56-.19,.06-.37,.12-.56,.18-.63,.2-1.27,.39-1.9,.57-.06,.02-.11,.03-.17,.05-.68,.19-1.35,.36-2.02,.52-.18,.04-.37,.08-.55,.12-.51,.11-1.01,.21-1.51,.31-.19,.04-.39,.07-.58,.1-.66,.11-1.32,.21-1.97,.27-5.57,.58-11.17-.02-16.56-1.1Z"/><path class="cls-24" d="M119.91,12.8c-.72-.2-1.52-.45-2.38-.71l28.59,43.82L125.2,14.18c-1.8-.43-3.57-.9-5.3-1.38Z"/><path class="cls-24" d="M273.13,11.1c5.33-4.07,6.42-9.99-3.09-10.96-16.66-1.7-27.7,12.66-44.27,13.83l-38.14,74.73h14.8L273.13,11.1Z"/><path class="cls-24" d="M192.23,70.26l28.23-56.39c-5.79-.63-9.58-3.26-13.29-6.04l-14.93,62.43Z"/><path class="cls-21" d="M147.35,248.89c-30.82,0-55.89-24.48-55.89-54.57s25.07-54.57,55.89-54.57,55.89,24.48,55.89,54.57-25.07,54.57-55.89,54.57Zm0-102.15c-26.96,0-48.89,21.34-48.89,47.57s21.93,47.57,48.89,47.57,48.89-21.34,48.89-47.57-21.93-47.57-48.89-47.57Z"/><path class="cls-21" d="M127.5,200.9l21,28.1h14.59l-23.06-28.76c5.98-2.84,10.5-6.93,13.49-12.22,.24-.43,.44-.86,.66-1.3h13.01v-10.43h-10c.25-2.27,.28-4.4,.17-6.23h9.83v-10.43h-39.07v10.43h18.86c.15,1.74,.17,3.91-.22,6.23h-18.64v10.43h13.31c-2.52,2.48-6.09,4.63-11.15,6.03l-2.79,8.15Z"/></g><g><path class="cls-23" d="M216.5,86.01c-.32,0-.64-.03-.97-.11-26.07-5.76-74.28,.01-74.77,.07-2.74,.33-5.21-1.9-5.51-4.99-.3-3.09,1.69-5.87,4.43-6.2,2.04-.25,50.2-6.02,77.77,.07,2.71,.6,4.48,3.55,3.94,6.6-.47,2.68-2.56,4.54-4.9,4.54Z"/><g><path class="cls-25" d="M173.25,72.28c-.83,.03-1.66,.06-2.48,.09-1.5,2.39-3.48,6.28-4.62,11.51,.69-.04,1.39-.07,2.1-.11,1.33-5.63,3.66-9.57,5-11.49Z"/><path class="cls-25" d="M159.05,73.02c-.85,.06-1.67,.12-2.48,.18-1.51,2.58-3.32,6.51-4.31,11.65,.67-.06,1.37-.11,2.08-.17,1.15-5.44,3.26-9.42,4.7-11.65Z"/><path class="cls-25" d="M166.19,72.58c-.84,.04-1.67,.09-2.48,.14-1.51,2.48-3.42,6.39-4.49,11.58,.68-.05,1.38-.09,2.08-.14,1.25-5.56,3.49-9.51,4.89-11.58Z"/><path class="cls-25" d="M151.85,73.57c-.86,.07-1.68,.15-2.47,.22-1.5,2.69-3.21,6.63-4.1,11.7,.64-.06,1.33-.13,2.09-.21,1.03-5.32,3-9.31,4.48-11.71Z"/><path class="cls-25" d="M142.14,74.51c-1.41,2.68-2.92,6.42-3.73,11.11,.61,.27,1.28,.41,1.98,.38,.9-5.2,2.72-9.19,4.21-11.75-.94,.1-1.77,.18-2.46,.26Z"/><path class="cls-25" d="M213.23,74.04c-.7-.12-1.42-.23-2.14-.34-1.42,2.52-3.02,6.16-3.96,10.8,.67,.08,1.34,.17,1.99,.26,.99-4.74,2.71-8.37,4.1-10.72Z"/><path class="cls-25" d="M217.46,74.86s-.08-.02-.12-.03c-1.36,2.64-2.76,6.24-3.54,10.71,.59,.11,1.17,.23,1.73,.36,.08,.02,.15,.01,.23,.03,.75-4.29,2.13-7.76,3.42-10.28-.51-.37-1.09-.65-1.73-.79Z"/><path class="cls-25" d="M200.45,72.59c-.77-.05-1.54-.1-2.31-.15-1.46,2.34-3.34,6.08-4.49,11.06,.69,.02,1.37,.05,2.05,.08,1.27-5.25,3.4-9,4.75-11Z"/><path class="cls-25" d="M206.92,73.17c-.74-.08-1.48-.16-2.23-.23-1.45,2.42-3.21,6.1-4.27,10.93,.68,.05,1.35,.1,2.02,.16,1.15-5,3.09-8.69,4.47-10.85Z"/><path class="cls-25" d="M193.83,72.24c-.79-.03-1.58-.05-2.37-.07-1.47,2.29-3.44,6.07-4.63,11.19,.69,0,1.38,.01,2.07,.02,1.36-5.45,3.63-9.28,4.93-11.14Z"/><path class="cls-25" d="M184.66,72.08c-1.48,2.29-3.49,6.11-4.69,11.31,.69-.01,1.39-.02,2.08-.03,1.39-5.59,3.75-9.47,5.03-11.27-.81,0-1.61-.01-2.42-.01Z"/><path class="cls-25" d="M180.22,72.11c-.82,.01-1.64,.03-2.45,.04-1.49,2.32-3.5,6.18-4.69,11.42,.69-.02,1.39-.05,2.09-.07,1.38-5.64,3.75-9.56,5.05-11.39Z"/></g><path class="cls-2" d="M216.5,81.21c-.32,0-.64-.03-.97-.11-26.07-5.76-74.28,.01-74.77,.07-2.17,.26-4.17-1.09-5.06-3.19-.38,.91-.56,1.93-.45,3,.3,3.09,2.77,5.32,5.51,4.99,.48-.06,48.69-5.83,74.77-.07,.33,.07,.65,.11,.97,.11,2.34,0,4.43-1.86,4.9-4.54,.21-1.23,.04-2.43-.4-3.48-.82,1.95-2.57,3.23-4.5,3.23Z"/></g><g><path class="cls-23" d="M216.5,97.31c-.32,0-.64-.03-.97-.11-26.07-5.76-74.28,.01-74.77,.07-2.74,.33-5.21-1.9-5.51-4.99-.3-3.09,1.69-5.87,4.43-6.2,2.04-.25,50.2-6.02,77.77,.07,2.71,.6,4.48,3.55,3.94,6.6-.47,2.68-2.56,4.54-4.9,4.54Z"/><g><path class="cls-25" d="M173.25,83.58c-.83,.03-1.66,.06-2.48,.09-1.5,2.39-3.48,6.28-4.62,11.51,.69-.04,1.39-.07,2.1-.11,1.33-5.63,3.66-9.57,5-11.49Z"/><path class="cls-25" d="M159.05,84.32c-.85,.06-1.67,.12-2.48,.18-1.51,2.58-3.32,6.51-4.31,11.65,.67-.06,1.37-.11,2.08-.17,1.15-5.44,3.26-9.42,4.7-11.65Z"/><path class="cls-25" d="M166.19,83.89c-.84,.04-1.67,.09-2.48,.14-1.51,2.48-3.42,6.39-4.49,11.58,.68-.05,1.38-.09,2.08-.14,1.25-5.56,3.49-9.51,4.89-11.58Z"/><path class="cls-25" d="M151.85,84.87c-.86,.07-1.68,.15-2.47,.22-1.5,2.69-3.21,6.63-4.1,11.7,.64-.06,1.33-.13,2.09-.21,1.03-5.32,3-9.31,4.48-11.71Z"/><path class="cls-25" d="M142.14,85.81c-1.41,2.68-2.92,6.42-3.73,11.11,.61,.27,1.28,.41,1.98,.38,.9-5.2,2.72-9.19,4.21-11.75-.94,.1-1.77,.18-2.46,.26Z"/><path class="cls-25" d="M213.23,85.35c-.7-.12-1.42-.23-2.14-.34-1.42,2.52-3.02,6.16-3.96,10.8,.67,.08,1.34,.17,1.99,.26,.99-4.74,2.71-8.37,4.1-10.72Z"/><path class="cls-25" d="M217.46,86.16s-.08-.02-.12-.03c-1.36,2.64-2.76,6.24-3.54,10.71,.59,.11,1.17,.23,1.73,.36,.08,.02,.15,.01,.23,.03,.75-4.29,2.13-7.76,3.42-10.28-.51-.37-1.09-.65-1.73-.79Z"/><path class="cls-25" d="M200.45,83.89c-.77-.05-1.54-.1-2.31-.15-1.46,2.34-3.34,6.08-4.49,11.06,.69,.02,1.37,.05,2.05,.08,1.27-5.25,3.4-9,4.75-11Z"/><path class="cls-25" d="M206.92,84.47c-.74-.08-1.48-.16-2.23-.23-1.45,2.42-3.21,6.1-4.27,10.93,.68,.05,1.35,.1,2.02,.16,1.15-5,3.09-8.69,4.47-10.85Z"/><path class="cls-25" d="M193.83,83.54c-.79-.03-1.58-.05-2.37-.07-1.47,2.29-3.44,6.07-4.63,11.19,.69,0,1.38,.01,2.07,.02,1.36-5.45,3.63-9.28,4.93-11.14Z"/><path class="cls-25" d="M184.66,83.38c-1.48,2.29-3.49,6.11-4.69,11.31,.69-.01,1.39-.02,2.08-.03,1.39-5.59,3.75-9.47,5.03-11.27-.81,0-1.61-.01-2.42-.01Z"/><path class="cls-25" d="M180.22,83.41c-.82,.01-1.64,.03-2.45,.04-1.49,2.32-3.5,6.18-4.69,11.42,.69-.02,1.39-.05,2.09-.07,1.38-5.64,3.75-9.56,5.05-11.39Z"/></g><path class="cls-2" d="M216.5,92.52c-.32,0-.64-.03-.97-.11-26.07-5.76-74.28,.01-74.77,.07-2.17,.26-4.17-1.09-5.06-3.19-.38,.91-.56,1.93-.45,3,.3,3.09,2.77,5.32,5.51,4.99,.48-.06,48.69-5.83,74.77-.07,.33,.07,.65,.11,.97,.11,2.34,0,4.43-1.86,4.9-4.54,.21-1.23,.04-2.43-.4-3.48-.82,1.95-2.57,3.23-4.5,3.23Z"/></g></g></g></g></g></svg>