<?xml version="1.0" encoding="UTF-8"?><svg id="Layer_2" xmlns="http://www.w3.org/2000/svg" viewBox="0 0 735.06 503.06"><defs><style>.cls-1{fill:#fcbebe;}.cls-2{fill:#fff;}.cls-3{fill:#fca377;}.cls-4{fill:#ffc76c;}.cls-5{fill:#dce7f9;}.cls-6{fill:#fff9ee;}.cls-7{fill:#ffb486;}.cls-8{fill:#d7e4f9;}.cls-9{fill:#ffba8c;}.cls-10{fill:#5e3b3b;}.cls-11{fill:#47393d;}.cls-12{fill:#e05353;}.cls-13{fill:#9fb26b;}.cls-14{fill:#4a292f;}.cls-15{fill:#ffb587;}.cls-16{fill:#fdfffe;}.cls-17{fill:#afcaf9;}.cls-18{fill:#ffdccf;}.cls-19{fill:#f75d59;}.cls-20{fill:#ffe9ab;}</style></defs><g id="Layer_1-2"><g><path class="cls-2" d="M94.66,503.06c-27.58-45.15-55.72-91.77-64.23-143.96-8.52-52.19,7.24-111.94,51.72-140.7,34.91-22.56,79.56-22.12,118.98-35.39C296.68,150.85,350.67,43.03,445.85,9.75c73.42-25.67,159.36,1.37,213.35,57.25,53.98,55.89,78,136.17,75.72,213.74-2.29,77.57-28.84,152.77-64.82,221.59l-575.44,.73Z"/><rect class="cls-18" x="155.48" y="130.56" width="452.62" height="369.76" rx="30.18" ry="30.18"/><path class="cls-2" d="M273.27,106.49c5.43-9.46,6.65-22.02,.51-31.03-7.42-10.89-22.55-13.24-35.67-11.97-25.27,2.43-48.62,14.35-70.18,27.76-17.33,10.78-36.94,26.03-34.73,48.95,1.61,16.75,12.64,22.81,28.35,22.31,34.93-1.1,93.89-24.93,111.73-56.02Z"/><g><path class="cls-17" d="M598.1,159v38.89H145.48v-38.89c0-15.7,14.98-28.43,33.43-28.43h385.73c18.47,0,33.45,12.73,33.45,28.43Z"/><path class="cls-16" d="M598.1,339.16v134.83c0,14.54-14.98,26.33-33.45,26.33H178.92c-18.46,0-33.43-11.8-33.43-26.33V197.39h452.62v141.77h0Z"/><g><g><ellipse class="cls-8" cx="273.34" cy="160.49" rx="11.29" ry="11.97"/><rect class="cls-10" x="266.07" y="106.13" width="14.53" height="59.59" rx="7.18" ry="7.18"/></g><g><ellipse class="cls-8" cx="214.76" cy="160.49" rx="11.29" ry="11.97"/><rect class="cls-10" x="207.49" y="106.13" width="14.53" height="59.59" rx="7.19" ry="7.19"/></g><g><ellipse class="cls-8" cx="337.21" cy="160.49" rx="11.29" ry="11.97"/><rect class="cls-10" x="329.94" y="106.13" width="14.53" height="59.59" rx="7.19" ry="7.19"/></g><g><ellipse class="cls-8" cx="401.08" cy="160.49" rx="11.29" ry="11.97"/><rect class="cls-10" x="393.81" y="106.13" width="14.53" height="59.59" rx="7.18" ry="7.18"/></g><g><ellipse class="cls-8" cx="464.95" cy="160.49" rx="11.29" ry="11.97"/><rect class="cls-10" x="457.69" y="106.13" width="14.53" height="59.59" rx="7.18" ry="7.18"/></g><g><ellipse class="cls-8" cx="528.82" cy="160.49" rx="11.29" ry="11.97"/><rect class="cls-10" x="521.56" y="106.13" width="14.53" height="59.59" rx="7.19" ry="7.19"/></g></g><g><g><rect class="cls-5" x="172.41" y="249.52" width="42.35" height="34.62"/><rect class="cls-5" x="172.41" y="304.54" width="42.35" height="34.62"/><rect class="cls-5" x="172.41" y="359.55" width="42.35" height="34.62"/><rect class="cls-5" x="172.41" y="414.56" width="42.35" height="34.62"/></g><g><rect class="cls-5" x="231.81" y="249.52" width="42.35" height="34.62"/><rect class="cls-19" x="231.81" y="304.54" width="42.35" height="34.62"/><rect class="cls-5" x="231.81" y="359.55" width="42.35" height="34.62"/><rect class="cls-5" x="231.81" y="414.56" width="42.35" height="34.62"/></g><g><rect class="cls-5" x="291.22" y="249.52" width="42.35" height="34.62"/><rect class="cls-5" x="291.22" y="304.54" width="42.35" height="34.62"/><rect class="cls-5" x="291.22" y="359.55" width="42.35" height="34.62"/><rect class="cls-5" x="291.22" y="414.56" width="42.35" height="34.62"/></g><g><rect class="cls-5" x="350.62" y="249.52" width="42.35" height="34.62"/><rect class="cls-5" x="350.62" y="304.54" width="42.35" height="34.62"/><rect class="cls-5" x="350.62" y="359.55" width="42.35" height="34.62"/><rect class="cls-5" x="350.62" y="414.56" width="42.35" height="34.62"/></g><g><rect class="cls-5" x="410.02" y="249.52" width="42.35" height="34.62"/><rect class="cls-5" x="410.02" y="304.54" width="42.35" height="34.62"/><rect class="cls-5" x="410.02" y="359.55" width="42.35" height="34.62"/><rect class="cls-5" x="410.02" y="414.56" width="42.35" height="34.62"/></g><g><rect class="cls-1" x="469.42" y="359.55" width="42.35" height="34.62"/><rect class="cls-1" x="469.42" y="249.52" width="42.35" height="34.62"/><rect class="cls-1" x="469.42" y="304.54" width="42.35" height="34.62"/><rect class="cls-1" x="469.42" y="414.56" width="42.35" height="34.62"/></g><g><rect class="cls-1" x="528.82" y="414.56" width="42.35" height="34.62"/><rect class="cls-1" x="528.82" y="249.52" width="42.35" height="34.62"/><rect class="cls-1" x="528.82" y="304.54" width="42.35" height="34.62"/><rect class="cls-1" x="528.82" y="359.55" width="42.35" height="34.62"/></g><polygon class="cls-16" points="250.82 334.93 238.45 318.37 242.37 315.09 250.77 326.33 263.57 308.75 267.52 311.98 250.82 334.93"/></g></g><g><path class="cls-10" d="M578.19,501.82H178.91c-19.26,0-34.93-12.48-34.93-27.83v-195.71h3v195.71c0,13.69,14.32,24.83,31.93,24.83h399.27v3Z"/><rect class="cls-10" x="596.6" y="321.44" width="3" height="65.75"/><path class="cls-10" d="M599.6,258.37h-3v-99.37c0-14.85-14.33-26.93-31.95-26.93H178.91c-6.43,0-12.64,1.61-17.94,4.66-8.76,5.03-13.99,13.36-13.99,22.27h-3c0-10,5.79-19.3,15.5-24.88,5.76-3.31,12.48-5.05,19.43-5.05h385.74c19.27,0,34.95,13.43,34.95,29.93v99.37Z"/></g><g><g><polygon class="cls-7" points="680.95 489.82 682.57 470.84 668.66 470.84 669.5 489.82 680.95 489.82"/><path class="cls-3" d="M682.53,471.14l-.92,10.68c-4.9,.31-9.63-.29-12.5-.78l-.5-11.03,13.93,1.13Z"/></g><g><path class="cls-14" d="M684.62,499.97h-36.19c-.04-.43-.13-1.75,.15-3.14,.01-.03,35.54,.2,35.54,.2l.51,2.94Z"/><path class="cls-14" d="M684.11,497.03l-35.53-.23c.34-3.68,4.96-5.41,9.26-6.5,.29-.07,.57-.14,.86-.21,.62-.15,1.22-.28,1.79-.41,.3-.07,.59-.13,.86-.19,1.49-.33,2.72-.62,3.44-.95,.64-.31,1.42-.75,2.09-1.16,.23-.14,.44-.28,.64-.4,.64-.4,1.1-.7,1.1-.7,2.33,.76,5.83,2.95,13.52-.53l.23,1.34,.13,.76,1.6,9.19Z"/><g><path class="cls-14" d="M657.38,492.65c0-.07,.05-1.16,.47-2.35l-.47,2.35Z"/><path class="cls-14" d="M659.98,492.19c0-.08,.05-1.26,.52-2.51l-.52,2.51Z"/></g><path class="cls-14" d="M667.53,486.98c1.35,1.16,6.3,4.45,14.85,.1l-14.85-.1Z"/></g><path class="cls-10" d="M657.65,477.06c13.16,2.06,25.39,2.93,34.69,0,0,0,7.87-88.2-6.08-169.24l-27.9,.12s-10.73,97.39-.71,169.12Z"/><path class="cls-10" d="M656.58,227.15c-5.32-1.29-8.62-3.6-9.81-6.88-1.74-4.78,1.66-9.62,2.05-10.15l1.05,.77c-.14,.19-3.41,4.72-1.88,8.94,1.03,2.84,4.02,4.88,8.89,6.06l-.3,1.26Z"/><g><polygon class="cls-7" points="599.46 489.82 605.44 470.84 591.53 470.84 587.28 489.82 599.46 489.82"/><path class="cls-3" d="M605.47,470.68l-3.3,10.43c-6.26,1.12-11.09,.06-12.8-.42l2.37-10.6h4.97l8.76,.59Z"/></g><path class="cls-19" d="M673.05,251.75s37.55,6.88,34.17,44.03c-1.41,15.44-13.08,26.11-13.08,26.11l-4.29-13.05-15.02,5.05-1.79-62.14Z"/><polygon class="cls-15" points="652.2 255.33 654.83 235.14 666.77 235.14 669.59 255.33 652.2 255.33"/><path class="cls-15" d="M658.3,242.94c7.55-2.12,16.46-12.54,13.13-24.58-2.64-9.55-18.95-6.91-23.31,1.28-6.75,12.71-7.17,28.17,10.18,23.3Z"/><path class="cls-9" d="M589.42,275.54c-.73-.52-3.11-2.11-3.5-2.92-.35-.75-1.75-5.04-2.64-4.66-.93,.4,.65,3.15-.13,3.34-.48,.12-3.66-5.23-4.51-4.36-.56,.57,1.81,3.54,1.41,3.73-.37,.17-2.52-4.1-3.39-3.3-.91,.84,2.98,4.44,2.54,4.8-.22,.18-3.6-4.57-4.29-3.9-.92,.9,2.9,4.2,2.51,4.65-.19,.22-1.33-1.19-2.12-1.94-.44-.42-.84-.13-.71,.26,1.33,4.03,7.72,7.76,8.14,8.34,.62,.87,1.25,1.72,1.88,2.53l4.8-6.57Z"/><path class="cls-10" d="M580.95,476.21c12.7,1.8,24.58,2.21,34.9,0,42.81-79.41,60.72-169.12,60.72-169.12h-33.07c-42.72,73.59-62.55,169.12-62.55,169.12Z"/><path class="cls-19" d="M608.5,284.02l-18.78-10.1-6.84,8.9s11.07,28.85,32.77,26.42c17.36-1.94,27.83-34.48,27.83-34.48l-34.98,9.27Z"/><path class="cls-19" d="M694.53,331.26c-29.86,13.59-73.27,1.69-73.27,1.69l1.32-4.4,.2-.68,11.29-37.6-29.69-.36s19.89-27.91,31.47-34.7c3.03-1.77,7.08-3.11,11.67-3.95,.36-.06,.72-.13,1.09-.18,7.46-1.22,16.19-1.13,24.13,.55,.28,.06,.56,.12,.83,.18,4.46,1.01,8.65,2.53,12.2,4.62,0,0-2.13,11.99,.85,20.14,6.79,18.52,7.81,40.63,7.91,50.06,0,.27,0,.52,0,.76,.02,2.45-.03,3.86-.03,3.86Z"/><path class="cls-12" d="M668.42,337.44c-.44,.03-.88,.07-1.33,.1-.32,.02-.64,.04-.96,.06-23.23,1.3-44.88-4.64-44.88-4.64l1.33-4.4,.2-.67,8.77-29.33c1.48-1.51,8.92-13.64,10.08-18.54,0,0,.49,12.55-3.45,22.84-2.49,6.5-5.29,16.15-1.97,22.27,4.3,7.94,31.84,12.2,32.22,12.31Z"/><rect class="cls-10" x="602.76" y="279.14" width="19.65" height="1.3" transform="translate(8.88 578.26) rotate(-50.86)"/><path class="cls-10" d="M652.14,244.15c-3.73,0-5.76-1.92-5.87-2.03l.91-.93c.13,.13,3.33,3.15,9.41,.74l.48,1.21c-1.87,.74-3.52,1.01-4.92,1.01Z"/><path class="cls-15" d="M668.97,250.78c-8.81,4.14-16.12-.38-16.12-.38l.21-1.61,15.59-.21,.32,2.2Z"/><path class="cls-10" d="M659.55,334.33c-17.17,0-31.7-3.6-37.15-5.15l.36-1.25c5.4,1.53,19.79,5.09,36.79,5.09,13.02,0,24.71-2.09,34.76-6.23l.49,1.2c-10.2,4.2-22.06,6.32-35.25,6.32Z"/><path class="cls-10" d="M695.56,331.26h-1.3c0-.32-.09-32.27-7.88-54.59l1.23-.43c7.86,22.53,7.95,54.7,7.95,55.02Z"/><path class="cls-10" d="M662.73,255.99c-6.23,0-12.13-3-14.44-4.33l.65-1.13c3.45,1.99,15.33,7.9,23.37,.63l.87,.96c-3.18,2.87-6.87,3.86-10.45,3.86Z"/><g><path class="cls-14" d="M603.36,499.97h-36.19c-.04-.43-.13-1.75,.15-3.14,.01-.03,35.54,.2,35.54,.2l.51,2.94Z"/><path class="cls-14" d="M602.85,497.03l-35.53-.23c.34-3.68,4.96-5.41,9.26-6.5,.29-.07,.57-.14,.86-.21,.62-.15,1.22-.28,1.79-.41,.3-.07,.59-.13,.86-.19,1.49-.33,2.72-.62,3.44-.95,.64-.31,1.42-.75,2.09-1.16,.23-.14,.44-.28,.64-.4,.64-.4,1.1-.7,1.1-.7,2.33,.76,5.83,2.95,13.52-.53l.23,1.34,.13,.76,1.6,9.19Z"/><g><path class="cls-14" d="M576.12,492.65c0-.07,.05-1.16,.47-2.35l-.47,2.35Z"/><path class="cls-14" d="M578.72,492.19c0-.08,.05-1.26,.52-2.51l-.52,2.51Z"/></g><path class="cls-14" d="M586.27,486.98c1.35,1.16,6.3,4.45,14.85,.1l-14.85-.1Z"/></g><rect class="cls-10" x="636.33" y="284.32" width="9.86" height="1.3" transform="translate(1.83 574.03) rotate(-48.29)"/><path class="cls-10" d="M691.81,328.56h-1.3c0-7.36-.95-17.73-.96-17.84l1.29-.12c0,.1,.97,10.55,.97,17.96Z"/><path class="cls-10" d="M613.11,310.41c-20.47,0-31.08-26.95-31.18-27.22l1.21-.47c.1,.26,10.38,26.39,29.97,26.39,.83,0,1.68-.05,2.52-.14,16.98-1.9,27.17-32.97,27.6-34.29l1.24,.4c-.44,1.35-10.88,33.2-28.69,35.19-.88,.1-1.78,.15-2.66,.15Z"/><path class="cls-10" d="M693.81,273.41c-7.84,4.68-26.45,3.55-33.13-12.01-4.92-11.47-2.51-24.45-1.35-28.07l-2.03-6.42s-10.21-4.46-7.65-16.23c0,0,1.13,.89,4.58,.61,1.92-.17,7-2.05,12.01-.98,.01,0,.03,0,.04,.01,4.53,.59,13.98,3.72,14.94,18.71,.8,12.36,11.09,13.68,15.96,18.65,9.75,9.93,5.47,20.44-3.39,25.73Z"/><path class="cls-15" d="M661.89,230.02c0,1.86-1.5,3.36-3.36,3.36s-3.36-1.5-3.36-3.36,1.5-3.36,3.36-3.36,3.36,1.5,3.36,3.36Z"/><path class="cls-10" d="M705.48,254.12c-.79-3.2-2.79-6.21-5.95-8.95-1.48-1.29-3.39-2.25-5.41-3.26-5.14-2.58-10.46-5.25-11.71-13.88-2.11-14.65-11.74-16.72-15.79-16.93h-.1c-3.65-.49-7.22,.6-9.58,1.33-.81,.25-1.51,.46-2.01,.55l-.21-1.28c.41-.07,1.11-.28,1.84-.51,2.47-.76,6.21-1.9,10.14-1.39,4.37,.23,14.76,2.44,17.01,18.04,1.15,7.96,6.16,10.47,11,12.91,2.09,1.05,4.07,2.05,5.68,3.44,3.36,2.92,5.5,6.16,6.35,9.62l-1.26,.31Z"/><path class="cls-14" d="M686.1,478.41c-8.24,1.16-18.06,.29-28.45-1.35-3.91-27.99-4.45-59.47-3.92-87.98,.02,.33,8.55-27.16,8.55-27.16,0,0-3.72,21.47-2.44,34.4,1.32,13.35,6.2,17.29,8.08,32.33,1.1,8.79-3.29,15.41-1.69,24.62,1.68,9.69,9.11,15.69,16.37,22.21,1.05,.95,2.35,1.9,3.5,2.93Z"/><path class="cls-16" d="M653.92,390.91l-1.23-.43c3.48-10.01,6.82-20.3,9.92-30.6l1.24,.38c-3.11,10.32-6.45,20.63-9.94,30.66Z"/><path class="cls-14" d="M617.83,472.47c-.65,1.25-1.31,2.5-1.99,3.74-10.31,2.21-22.2,1.79-34.9,0,0,0,9.03-43.52,28.04-94.44,.88,9.33-1.41,19.05-4.15,28.16-3.61,11.98-8.02,24.18-6.91,36.65,.8,9.03,5.46,18.66,13.38,23.51,1.89,1.16,4.19,1.81,6.53,2.37Z"/><path class="cls-16" d="M607.19,389.75l-1.22-.44c7.77-21.61,15.67-40.95,22.86-55.92l1.17,.56c-7.17,14.93-15.06,34.22-22.81,55.79Z"/></g><g><g><path class="cls-4" d="M196,270.89l-54.26-13.29c-13.94,8.44-30.29,13.29-47.78,13.29C42.9,270.89,1.5,229.49,1.5,178.42S42.9,85.96,93.96,85.96s92.47,41.4,92.47,92.46c0,12.55-2.5,24.52-7.04,35.43l16.61,57.04Z"/><g><g><circle class="cls-2" cx="93.96" cy="178.42" r="77.94" transform="translate(-98.64 118.7) rotate(-45)"/><circle class="cls-2" cx="93.96" cy="178.42" r="77.94" transform="translate(-98.64 118.7) rotate(-45)"/></g><path class="cls-10" d="M139.93,189.81l-43.13-13.89-22.52-53.45c-.51-1.2-1.68-1.98-2.98-1.98-.43,0-.86,.09-1.26,.25-1.64,.69-2.42,2.59-1.73,4.24l21.25,50.44-58.33-17.25c-.15-.04-.3-.07-.46-.07-.72,0-1.36,.49-1.56,1.18-.24,.85,.26,1.74,1.1,1.99l60.87,18,.28,.68-.31,.95,.82,.26,.3,.72,.84-.35,44.81,14.43c.32,.1,.66,.16,.99,.16,1.41,0,2.65-.9,3.08-2.24,.55-1.7-.39-3.52-2.09-4.07Z"/><g><path class="cls-10" d="M84.9,125.27v2.33h8.53v-2.33h-2.77v-12.75h-2.11l-4.67,4.04,.81,1.11c.08,.13,.2,.23,.35,.31,.15,.08,.32,.12,.5,.12,.12,0,.23-.02,.35-.06,.12-.04,.23-.11,.36-.2l1.66-1.42v8.85h-3.02Z"/><path class="cls-10" d="M103.74,124.95s-4.81,0-4.86,0l2.64-2.7c.4-.4,.77-.8,1.13-1.19,.37-.4,.7-.82,.98-1.25,.29-.44,.52-.91,.69-1.39,.17-.5,.26-1.04,.26-1.62,0-.68-.12-1.31-.37-1.85-.24-.55-.58-1.02-1.01-1.4-.42-.38-.93-.67-1.51-.87-.57-.19-1.18-.29-1.83-.29s-1.27,.1-1.84,.29c-.58,.19-1.09,.48-1.54,.85-.45,.37-.83,.84-1.12,1.39-.29,.54-.48,1.17-.58,1.87l-.07,.48,1.41,.24,.14,.02c.05,0,.1,0,.15,0,.29,0,.53-.08,.73-.24,.19-.15,.32-.38,.41-.7,.05-.25,.14-.48,.27-.68,.13-.21,.29-.39,.48-.54,.19-.15,.41-.27,.65-.35,.25-.09,.52-.13,.82-.13s.58,.04,.83,.13c.24,.08,.45,.2,.63,.36,.17,.15,.31,.35,.41,.59,.1,.25,.16,.55,.16,.89s-.05,.7-.15,1.01c-.1,.32-.26,.65-.45,.97-.2,.33-.45,.66-.74,.99-.3,.34-.64,.7-1,1.07l-4.5,4.52c-.16,.16-.28,.34-.36,.54-.07,.19-.11,.37-.11,.56v1.1h10.38v-1.56c0-.31-.11-.58-.31-.78-.14-.14-.4-.31-.8-.31Z"/><path class="cls-10" d="M97.92,235.11c-.43-.4-.93-.71-1.49-.92-.56-.21-1.15-.31-1.77-.31-.3,0-.59,.02-.87,.07l4.36-5.52h-2.58c-.29,0-.55,.06-.78,.18-.23,.12-.42,.26-.56,.45l-3.56,4.8c-.62,.83-1.08,1.62-1.37,2.35-.3,.75-.45,1.47-.45,2.15,0,.79,.12,1.52,.36,2.16,.24,.66,.6,1.22,1.05,1.69,.45,.46,1.01,.83,1.64,1.08,.63,.25,1.34,.37,2.1,.37s1.49-.13,2.15-.39c.66-.26,1.22-.62,1.69-1.08,.47-.46,.84-1,1.1-1.61,.26-.61,.39-1.29,.39-2s-.13-1.4-.37-1.98c-.25-.58-.59-1.08-1.02-1.48Zm-6.4,3.55c0-.32,.06-.63,.18-.93,.12-.29,.28-.55,.5-.78,.22-.22,.49-.4,.8-.54,.31-.13,.68-.2,1.08-.2,.38,0,.72,.06,1.03,.17,.3,.11,.55,.27,.77,.48,.21,.21,.38,.46,.49,.77,.12,.31,.18,.67,.18,1.06,0,.37-.06,.71-.18,1.01-.12,.3-.29,.56-.52,.78-.22,.22-.49,.39-.81,.52-.32,.13-.69,.19-1.09,.19s-.75-.06-1.05-.18c-.29-.12-.54-.29-.75-.5-.2-.21-.36-.48-.47-.78-.11-.32-.17-.68-.17-1.07Z"/><path class="cls-10" d="M159.04,178.57c-.3-.37-.69-.68-1.15-.93,.34-.21,.63-.47,.87-.77,.25-.31,.44-.67,.58-1.08,.13-.4,.2-.85,.2-1.35,0-.61-.12-1.18-.35-1.69-.23-.51-.56-.95-.98-1.31-.41-.36-.9-.63-1.47-.82-.55-.19-1.16-.28-1.81-.28s-1.27,.1-1.84,.29c-.58,.19-1.1,.48-1.54,.85-.45,.37-.83,.84-1.12,1.39-.29,.54-.48,1.17-.58,1.87l-.07,.48,1.41,.24,.14,.02c.05,0,.1,0,.15,0,.28,0,.52-.08,.72-.24,.19-.15,.32-.38,.4-.67,.07-.25,.16-.49,.3-.7,.13-.21,.28-.39,.47-.54,.19-.15,.41-.27,.65-.35,.25-.09,.52-.13,.82-.13s.58,.04,.83,.12c.24,.08,.44,.19,.61,.34,.17,.15,.3,.33,.4,.57,.1,.24,.15,.53,.15,.86,0,.3-.05,.57-.14,.81-.09,.22-.23,.41-.43,.57-.22,.17-.51,.32-.86,.42-.37,.11-.84,.17-1.38,.17h-.5v2.28h.5c.68,0,1.25,.06,1.66,.18,.39,.11,.7,.26,.91,.44,.2,.17,.33,.36,.4,.59,.08,.26,.13,.56,.13,.89,0,.24-.05,.49-.15,.75-.1,.26-.25,.48-.45,.69-.2,.21-.45,.38-.76,.51-.3,.13-.67,.2-1.09,.2s-.77-.06-1.03-.17c-.28-.12-.51-.27-.68-.44-.18-.17-.33-.36-.43-.55-.13-.23-.23-.44-.31-.59l-.09-.19c-.1-.22-.25-.39-.45-.5-.18-.09-.37-.14-.59-.14s-.41,.04-.61,.13l-1.16,.49,.13,.43c.17,.55,.38,1.07,.63,1.54,.26,.5,.6,.94,1.01,1.3,.41,.37,.92,.66,1.51,.87,.58,.2,1.28,.31,2.08,.31,.7,0,1.37-.11,1.98-.32,.62-.21,1.18-.52,1.65-.93,.48-.41,.86-.91,1.13-1.48,.28-.58,.42-1.24,.42-1.96,0-.97-.27-1.8-.8-2.45Z"/><path class="cls-10" d="M36.95,171.75c-.44-.45-.97-.8-1.58-1.04-.61-.25-1.29-.37-2.02-.37s-1.44,.13-2.06,.38c-.63,.25-1.17,.6-1.63,1.05-.46,.44-.82,.97-1.07,1.57-.25,.6-.38,1.24-.38,1.92s.12,1.36,.36,1.92c.24,.56,.57,1.04,.97,1.43,.41,.39,.89,.69,1.42,.89,.53,.2,1.09,.3,1.68,.3,.38,0,.74-.04,1.1-.12l-4.49,5.88h2.62c.28,0,.53-.05,.76-.16,.23-.11,.42-.27,.56-.46l3.42-4.94c.26-.38,.5-.74,.7-1.1,.21-.36,.39-.73,.54-1.09,.15-.37,.27-.76,.36-1.15,.08-.39,.12-.82,.12-1.25,0-.73-.12-1.41-.35-2.02-.24-.62-.58-1.16-1.02-1.6Zm-5.84,2.42c.11-.28,.27-.52,.47-.72,.2-.2,.45-.36,.74-.47,.3-.12,.63-.18,1-.18,.35,0,.67,.06,.95,.17,.28,.11,.51,.26,.72,.46,.2,.2,.36,.45,.47,.74,.12,.3,.18,.64,.18,1.01,0,.3-.05,.58-.16,.86-.11,.27-.26,.51-.46,.72-.2,.21-.45,.38-.75,.5-.3,.13-.66,.19-1.06,.19-.36,0-.69-.05-.98-.16-.28-.1-.5-.24-.69-.43-.19-.19-.33-.42-.44-.71-.11-.29-.16-.63-.16-1.02,0-.35,.06-.67,.17-.95Z"/></g><g><rect class="cls-10" x="57.48" y="110.6" width="3" height="10.08" transform="translate(-49.92 44.99) rotate(-30)"/><rect class="cls-10" x="127.45" y="235.79" width="3" height="10.08" transform="translate(-103.14 96.74) rotate(-30)"/><g><rect class="cls-10" x="30.45" y="137.27" width="3" height="10.32" transform="translate(-107.38 98.89) rotate(-60)"/><rect class="cls-10" x="30.45" y="137.27" width="3" height="10.32" transform="translate(-107.38 98.89) rotate(-60)"/><rect class="cls-10" x="154.48" y="208.88" width="3" height="10.32" transform="translate(-107.38 242.1) rotate(-60)"/></g><g><rect class="cls-10" x="26.79" y="212.54" width="10.32" height="3" transform="translate(-102.75 44.66) rotate(-30)"/><rect class="cls-10" x="26.79" y="212.54" width="10.32" height="3" transform="translate(-102.75 44.66) rotate(-30)"/><rect class="cls-10" x="150.82" y="140.93" width="10.32" height="3" transform="translate(-50.32 97.08) rotate(-30)"/></g><rect class="cls-10" x="53.94" y="239.33" width="10.08" height="3" transform="translate(-179.07 171.48) rotate(-60)"/><rect class="cls-10" x="53.94" y="239.33" width="10.08" height="3" transform="translate(-179.07 171.48) rotate(-60)"/><rect class="cls-10" x="123.91" y="114.15" width="10.08" height="3" transform="translate(-35.68 169.48) rotate(-60)"/></g></g><circle class="cls-19" cx="93.96" cy="178.42" r="8.08" transform="translate(-97.23 242.51) rotate(-80.76)"/><path class="cls-10" d="M198.17,272.96l-56.18-13.76c-14.47,8.63-31.06,13.19-48.02,13.19C42.15,272.39,0,230.23,0,178.42c0-21.1,6.83-41.03,19.76-57.65l2.37,1.84c-12.51,16.08-19.13,35.38-19.13,55.8,0,50.16,40.8,90.97,90.96,90.97,16.62,0,32.88-4.52,47-13.07l.53-.32,52.34,12.82-16.03-55.05,.2-.49c4.59-11.04,6.92-22.77,6.92-34.85,0-50.16-40.81-90.96-90.97-90.96-15.69,0-31.15,4.06-44.72,11.73l-1.48-2.61c14.02-7.93,29.99-12.12,46.19-12.12,51.82,0,93.97,42.15,93.97,93.96,0,12.3-2.34,24.25-6.95,35.52l17.19,59.03Z"/></g><g><path class="cls-10" d="M93.96,257.87c-43.81,0-79.44-35.64-79.44-79.44S50.16,98.98,93.96,98.98c32.46,0,61.35,19.42,73.6,49.48l-2.78,1.13c-11.79-28.92-39.59-47.61-70.82-47.61-42.15,0-76.44,34.29-76.44,76.44s34.29,76.44,76.44,76.44c15.52,0,30.46-4.62,43.2-13.37l1.7,2.47c-13.25,9.09-28.77,13.9-44.9,13.9Z"/><path class="cls-10" d="M158.74,224.43l-2.44-1.74c9.23-12.98,14.11-28.28,14.11-44.26h3c0,16.61-5.07,32.52-14.67,46Z"/></g></g><rect class="cls-10" x="203.47" y="196.89" width="364.38" height="3"/><g><g><g><circle class="cls-4" cx="501.32" cy="452.22" r="48.96" transform="translate(-159.14 312.15) rotate(-30.08)"/><circle class="cls-20" cx="501.32" cy="452.22" r="35.23" transform="translate(-144.37 649.49) rotate(-59.04)"/><path class="cls-10" d="M501.35,502.18c-21.28,0-41.05-13.72-47.72-35.07-3.98-12.74-2.76-26.26,3.44-38.08,6.19-11.82,16.62-20.52,29.36-24.5,5.7-1.78,11.58-2.52,17.48-2.22l-.1,2c-5.67-.3-11.31,.42-16.78,2.13-12.23,3.82-22.24,12.17-28.18,23.51-5.95,11.35-7.12,24.33-3.3,36.56,7.88,25.24,34.83,39.36,60.07,31.48,11.58-3.62,21.29-11.41,27.31-21.93l1.74,.99c-6.28,10.96-16.38,19.08-28.45,22.84-4.94,1.54-9.94,2.28-14.86,2.28Z"/><path class="cls-10" d="M550.63,460.28l-1.97-.32c1.21-7.4,.69-14.81-1.56-22.03-4.09-13.1-13.62-23.83-26.14-29.46l.82-1.82c13.04,5.86,22.97,17.04,27.23,30.69,2.35,7.51,2.89,15.23,1.63,22.95Z"/></g><path class="cls-4" d="M504.69,475.52c-3.23,.42-5.95-.08-8.16-1.51-2.21-1.42-3.79-3.64-4.72-6.64l-.97-3.09,8.23-2.57,1.11,3.56c.85,2.74,2.78,3.63,5.79,2.69,3.01-.94,4.07-2.82,3.19-5.65-.55-1.75-1.57-3.16-3.06-4.25-1.5-1.08-3.96-2.12-7.4-3.11-4.28-1.27-7.45-2.71-9.52-4.33-2.07-1.62-3.51-3.72-4.32-6.33-.91-2.91-.88-5.55,.09-7.92,.97-2.37,2.87-4.31,5.69-5.84l-1.28-4.1,7.13-2.23,1.28,4.1c3.23-.42,5.93,.08,8.11,1.49,2.18,1.41,3.74,3.62,4.67,6.62l.42,1.34-8.23,2.57-.57-1.82c-.87-2.78-2.75-3.71-5.66-2.81-2.9,.91-3.93,2.7-3.09,5.39,.5,1.61,1.5,2.94,2.98,3.98,1.48,1.04,3.95,2.08,7.4,3.11,4.29,1.32,7.48,2.79,9.55,4.43,2.08,1.64,3.53,3.8,4.37,6.49,.95,3.05,.93,5.8-.07,8.25-1,2.45-2.95,4.43-5.84,5.92l1.47,4.71-7.13,2.23-1.47-4.71Z"/></g><g><path class="cls-6" d="M466.08,431.33c3.65,1.85,6.16,4.7,7.87,8.26h0c1.72-3.56,4.24-6.42,7.88-8.28h0c-3.65-1.85-6.17-4.7-7.88-8.26h0c-1.72,3.56-4.23,6.42-7.87,8.28Z"/><path class="cls-6" d="M476.69,452.99c2.12,1.08,3.58,2.73,4.58,4.8h0c1-2.07,2.46-3.73,4.58-4.81h0c-2.12-1.08-3.58-2.73-4.58-4.8h0c-1,2.07-2.46,3.73-4.58,4.81Z"/></g></g><g><g><path class="cls-13" d="M133.73,405.16s-7.14-45.7,27.38-60.89c34.53-15.19-27.38,60.89-27.38,60.89Z"/><path class="cls-13" d="M90.23,404.86s4.91-39.16-17.91-40.08c-22.82-.93,17.91,40.08,17.91,40.08Z"/><path class="cls-13" d="M117.02,376.74s-6.51-66.08,23.03-70.44c31.48-4.65-23.03,70.44-23.03,70.44Z"/><path class="cls-11" d="M130.77,434.45l-2-.05c.01-.42,1.32-42.61,21.56-62.96l1.42,1.41c-19.69,19.79-20.97,61.19-20.98,61.6Z"/><path class="cls-11" d="M97.67,434.51c-.25-1.42-6.21-34.96-17.02-46.63l1.47-1.36c11.21,12.1,17.27,46.2,17.52,47.65l-1.97,.34Z"/><path class="cls-11" d="M113.66,434.49c-.08-.59-7.72-60.01,21.28-104.33l1.67,1.1c-28.59,43.7-21.05,102.38-20.97,102.97l-1.98,.27Z"/><path class="cls-13" d="M103.5,390.35s-19.85-47.42,7.65-67.09c27.5-19.67-7.65,67.09-7.65,67.09Z"/><path class="cls-11" d="M108.59,434.56c-.12-.44-12.33-44.89,0-88.77l1.93,.54c-12.18,43.35-.12,87.25,0,87.69l-1.93,.54Z"/><path class="cls-2" d="M117.28,352.64l-1.92-.56c3.8-12.99,5.37-22.05,4.69-26.93l1.98-.28c.73,5.16-.87,14.51-4.75,27.77Z"/></g><g><path class="cls-19" d="M129.68,500.32h-35.52s-12.44-43.31-10.02-73.67h55.56c2.57,30.64-10.02,73.67-10.02,73.67Z"/><rect class="cls-2" x="83.91" y="438.34" width="56.09" height="2"/><rect class="cls-2" x="84.25" y="444.72" width="55.42" height="2"/></g></g><rect class="cls-10" x="71.57" y="499.69" width="625.43" height="3"/><g><g><g><rect class="cls-4" x="351.83" y="481.75" width="94.98" height="18.38"/><rect class="cls-4" x="371.83" y="461.43" width="94.98" height="18.38"/><rect class="cls-4" x="351.9" y="441.18" width="94.98" height="18.38"/><rect class="cls-10" x="435.88" y="441.18" width="2" height="18.38"/><rect class="cls-10" x="425.88" y="441.18" width="2" height="18.38"/><rect class="cls-10" x="395.88" y="441.18" width="2" height="18.38"/><rect class="cls-10" x="375.88" y="441.18" width="2" height="18.38"/><rect class="cls-10" x="455.81" y="461.43" width="2" height="18.38"/><rect class="cls-10" x="445.81" y="461.43" width="2" height="18.38"/><rect class="cls-10" x="415.81" y="461.43" width="2" height="18.38"/><rect class="cls-10" x="405.81" y="461.43" width="2" height="18.38"/><rect class="cls-10" x="395.81" y="481.75" width="2" height="18.38"/><rect class="cls-10" x="375.81" y="481.75" width="2" height="18.38"/><rect class="cls-10" x="365.81" y="481.75" width="2" height="18.38"/><rect class="cls-10" x="351.89" y="459.45" width="94.47" height="2"/><rect class="cls-10" x="371.9" y="479.9" width="94.92" height="2"/></g><path class="cls-6" d="M431.51,468.63c2.95,1.5,4.97,3.79,6.36,6.67h0c1.39-2.88,3.42-5.19,6.37-6.68h0c-2.95-1.5-4.98-3.79-6.37-6.67h0c-1.39,2.88-3.41,5.19-6.36,6.68Z"/><path class="cls-6" d="M364.46,449.84c2.12,1.08,3.58,2.73,4.58,4.8h0c1-2.07,2.46-3.73,4.58-4.81h0c-2.12-1.08-3.58-2.73-4.58-4.8h0c-1,2.07-2.46,3.73-4.58,4.81Z"/></g><rect class="cls-10" x="465.81" y="461.43" width="2" height="20.47"/></g></g></g></svg>