<?xml version="1.0" encoding="UTF-8"?>
<svg id="Layer_2" data-name="Layer 2" xmlns="http://www.w3.org/2000/svg" xmlns:xlink="http://www.w3.org/1999/xlink" viewBox="0 0 27.14 22.34">
  <defs>
    <style>
      .cls-1 {
        fill: url(#Degradado_sin_nombre_4);
      }
    </style>
    <linearGradient id="Degradado_sin_nombre_4" data-name="Degradado sin nombre 4" x1="22.82" y1="19.67" x2="6.61" y2="3.47" gradientUnits="userSpaceOnUse">
      <stop offset="0" stop-color="#0cf"/>
      <stop offset="1" stop-color="#0080ff"/>
    </linearGradient>
  </defs>
  <g id="ELEMENTS">
    <path class="cls-1" d="m27.03,2.68c-.86.39-1.82.63-2.75.78.44-.07,1.09-.87,1.35-1.2.4-.49.73-1.05.91-1.66.02-.05.04-.11,0-.14-.06-.02-.1-.01-.15.01-1.04.56-2.11.96-3.26,1.25-.09.02-.16,0-.22-.06-.09-.11-.18-.21-.28-.29-.48-.41-1-.73-1.58-.97-.76-.31-1.6-.44-2.42-.39-.8.05-1.58.28-2.29.65-.71.37-1.35.89-1.85,1.51-.52.64-.91,1.41-1.11,2.21-.19.78-.17,1.55-.06,2.34.02.13,0,.15-.11.13-4.47-.67-8.18-2.26-11.18-5.69-.13-.15-.2-.15-.31.01-1.32,1.97-.68,5.14.97,6.7.22.21.44.42.69.6-.09.02-1.18-.1-2.16-.6-.13-.08-.2-.04-.21.11-.01.21,0,.41.04.64.25,2,1.64,3.85,3.53,4.57.23.09.47.18.72.22-.43.09-.88.16-2.12.07-.15-.03-.21.05-.15.2.93,2.54,2.94,3.29,4.45,3.72.2.04.4.04.61.08-.01.02-.02.02-.04.04-.5.76-2.23,1.33-3.04,1.61-1.47.51-3.06.74-4.61.59-.25-.04-.3-.03-.37,0-.07.04,0,.1.07.17.31.21.63.39.96.57.98.52,2.01.94,3.08,1.23,5.54,1.53,11.78.41,15.94-3.73,3.27-3.25,4.41-7.72,4.41-12.21,0-.18.21-.27.33-.36.85-.64,1.54-1.4,2.17-2.26.14-.19.14-.36.14-.43v-.02c0-.07,0-.05-.11,0Z"/>
  </g>
</svg>