<svg width="43" height="41" viewBox="0 0 43 41" fill="none" xmlns="http://www.w3.org/2000/svg">
<path d="M23.9803 6.52694C24.4003 6.31804 24.7514 6.14194 25.1047 5.96804C27.3556 4.85897 29.8745 6.41429 29.8865 8.92554C29.8931 10.2085 29.8865 11.4915 29.8865 12.8248C30.0725 12.8248 30.2322 12.8226 30.3908 12.8248C31.7842 12.8477 33.1886 12.7646 34.5667 12.9199C36.7072 13.1605 38.35 15.0702 38.409 17.2238C38.443 18.4401 38.4189 19.6574 38.4211 20.8737C38.4211 21.0213 38.4211 21.1701 38.4211 21.3144C38.7448 21.3768 39.0423 21.4118 39.3267 21.4927C40.6184 21.8624 41.5831 22.9562 41.6728 24.3015C41.7461 25.404 41.7603 26.5207 41.6684 27.6199C41.5295 29.2704 40.3297 30.3193 38.4211 30.5741C38.4211 31.0554 38.4287 31.5454 38.42 32.0332C38.4014 33.0974 38.4626 34.1737 38.3314 35.2248C38.0667 37.3433 36.1931 38.9774 34.0614 39.0704C33.9247 39.0758 33.788 39.078 33.6512 39.078C24.3533 39.078 15.0553 39.0802 5.75732 39.078C3.46592 39.078 1.65029 37.689 1.13623 35.5343C1.04545 35.1537 1.00826 34.7512 1.00717 34.3585C0.999511 28.753 0.997323 23.1487 1.00389 17.5432C1.00717 14.8438 2.98029 12.8652 5.67748 12.816C5.87326 12.8127 6.10842 12.7263 6.25498 12.5983C10.3029 9.06663 14.3454 5.52725 18.3803 1.98022C19.4675 1.02429 20.6695 0.700535 22.0115 1.30975C23.3744 1.92882 23.9781 3.05975 23.9792 4.53413C23.9792 5.17616 23.9792 5.81819 23.9792 6.52694H23.9803ZM37.1097 21.3571C37.1097 20.0883 37.1097 18.8852 37.1097 17.6832C37.1086 15.4979 35.7425 14.1373 33.5462 14.1373C24.3314 14.1373 15.1154 14.1373 5.9006 14.1373C3.67373 14.1373 2.31748 15.4869 2.31639 17.7029C2.31639 23.1979 2.31639 28.694 2.31639 34.189C2.31639 36.4082 3.67264 37.7655 5.88967 37.7655C12.4795 37.7655 19.0694 37.7655 25.6603 37.7655C28.3815 37.7655 31.1017 37.7743 33.823 37.7612C35.5522 37.7524 36.9992 36.4552 37.0856 34.761C37.1556 33.384 37.0987 32.0015 37.0965 30.6201C37.0965 30.5993 37.0637 30.5796 37.0331 30.5446C34.9003 30.5446 32.7544 30.549 30.6084 30.5435C28.959 30.5391 27.9298 29.756 27.5109 28.1657C27.1719 26.8762 27.1598 25.5626 27.3961 24.2621C27.7789 22.1577 28.7862 21.356 30.9267 21.356C32.8003 21.356 34.6728 21.356 36.5464 21.356H37.1108L37.1097 21.3571ZM8.00717 12.8237C9.17092 12.8237 10.2078 12.8269 11.2436 12.8182C11.3595 12.8182 11.4809 12.7613 11.5881 12.7077C15.192 10.9129 18.7959 9.11804 22.3922 7.30897C22.5223 7.24335 22.6514 7.03335 22.6558 6.88679C22.6809 6.08179 22.6667 5.2746 22.6678 4.4685C22.6689 3.56288 22.2894 2.8771 21.4603 2.49757C20.6411 2.12241 19.9312 2.3685 19.2794 2.94163C16.4892 5.396 13.6892 7.84163 10.8936 10.2905C9.9606 11.1076 9.02982 11.9268 8.00717 12.8237V12.8237ZM34.4344 29.2332C35.7458 29.2332 37.0572 29.2398 38.3697 29.231C39.5422 29.2233 40.38 28.3833 40.392 27.2119C40.3997 26.4058 40.3953 25.5998 40.3931 24.7937C40.3887 23.4877 39.575 22.6707 38.2701 22.6696C35.7283 22.6674 33.1875 22.6674 30.6456 22.6696C29.5256 22.6696 28.982 23.0962 28.7458 24.1899C28.5062 25.2979 28.4986 26.4168 28.7097 27.5269C28.959 28.834 29.4665 29.2321 30.7856 29.2321C32.0019 29.2321 33.2181 29.2321 34.4333 29.2321L34.4344 29.2332ZM28.5708 12.8083C28.5708 11.4116 28.5992 10.0598 28.5598 8.70897C28.5369 7.9335 28.0851 7.38882 27.3753 7.07819C26.7376 6.79929 26.1328 6.9185 25.5269 7.22257C21.9273 9.02616 18.3223 10.8177 14.7206 12.6148C14.632 12.6596 14.5489 12.7165 14.3958 12.8083H28.5719H28.5708Z" fill="white" stroke="white" stroke-width="2"/>
<circle cx="32.3496" cy="25.7354" r="1" fill="white"/>
</svg>
