<svg width="30" height="34" viewBox="0 0 30 34" fill="none" xmlns="http://www.w3.org/2000/svg">
<path d="M29.7814 23.9123L26.4825 17.8223V11.4814C26.4825 5.15055 21.3316 0 15.0002 0C8.66887 0 3.51793 5.15055 3.51793 11.4814V17.8223L0.218892 23.9122C0.0692839 24.1883 -0.00601456 24.4986 0.000375317 24.8126C0.00676519 25.1266 0.0946241 25.4335 0.255343 25.7034C0.416062 25.9732 0.644128 26.1966 0.917193 26.3518C1.19026 26.507 1.49896 26.5886 1.81304 26.5886H8.38022C8.36191 26.7895 8.35265 26.9911 8.3525 27.1929C8.3525 28.9558 9.05287 30.6465 10.2995 31.8931C11.5462 33.1397 13.2371 33.84 15.0001 33.84C16.7632 33.84 18.454 33.1397 19.7007 31.8931C20.9474 30.6465 21.6478 28.9558 21.6478 27.1929C21.6478 26.9889 21.638 26.7877 21.62 26.5886H28.1872C28.5013 26.5885 28.8099 26.5069 29.083 26.3517C29.356 26.1965 29.584 25.9731 29.7447 25.7033C29.9054 25.4335 29.9932 25.1266 29.9996 24.8126C30.006 24.4986 29.9307 24.1884 29.7811 23.9123H29.7814ZM19.2305 27.1929C19.231 27.7742 19.1116 28.3493 18.8799 28.8825C18.6482 29.4156 18.309 29.8952 17.8837 30.2914C17.4583 30.6877 16.9558 30.992 16.4076 31.1854C15.8593 31.3788 15.2771 31.4571 14.6973 31.4154C14.1174 31.3738 13.5523 31.2131 13.0374 30.9434C12.5224 30.6737 12.0685 30.3007 11.7041 29.8478C11.3397 29.3949 11.0726 28.8717 10.9194 28.3109C10.7662 27.7502 10.7303 27.1638 10.8138 26.5886H19.1866C19.2156 26.7887 19.2303 26.9906 19.2305 27.1929ZM2.82764 24.1714L5.93525 18.4349V11.4814C5.93525 9.07743 6.89031 6.77189 8.59032 5.07201C10.2903 3.37213 12.596 2.41714 15.0002 2.41714C17.4044 2.41714 19.7101 3.37213 21.4101 5.07201C23.1101 6.77189 24.0652 9.07743 24.0652 11.4814V18.4349L27.1726 24.1714H2.82764Z" fill="black"/>
</svg>
