<svg width="40" height="40" viewBox="0 0 40 40" fill="none" xmlns="http://www.w3.org/2000/svg">
<rect width="40" height="40" rx="20" fill="#F97C36"/>
<path d="M19.89 17.9229C21.5279 17.9257 22.8543 19.2529 22.8571 20.89V20.8929C22.8571 22.5314 21.5286 23.86 19.89 23.86C18.2514 23.86 16.9229 22.5314 16.9229 20.8929C16.9229 20.0729 17.2557 19.3307 17.7929 18.7936C18.3129 18.2557 19.0407 17.9221 19.8471 17.9221H19.8921H19.89V17.9229ZM27.1429 13.6371H27.1821C27.8979 13.6371 28.545 13.9329 29.0064 14.4093L29.0071 14.41C29.4843 14.8721 29.78 15.5193 29.78 16.235V16.2764V16.2743V25.5057C29.7793 26.9621 28.5993 28.1421 27.1429 28.1429H12.6371C11.1807 28.1421 10.0007 26.9621 10 25.5057V16.275C10 16.2636 10 16.2493 10 16.2357C10 15.52 10.2957 14.8729 10.7721 14.4114L10.7729 14.4107C11.235 13.9336 11.8821 13.6379 12.5979 13.6379H12.6393H12.6371H14.9443L15.4693 12.2364C15.6207 11.8743 15.8671 11.5779 16.1786 11.37L16.1857 11.3657C16.4793 11.1436 16.8493 11.0079 17.25 11H17.2514H22.5264C22.9293 11.0079 23.2986 11.1436 23.5971 11.3693L23.5929 11.3657C23.9107 11.5779 24.1579 11.8743 24.3043 12.2236L24.3093 12.2364L24.8343 13.6379L27.1429 13.6371ZM19.89 25.5057C19.9093 25.5057 19.9321 25.5064 19.955 25.5064C21.2086 25.5064 22.3414 24.9871 23.1493 24.1521L23.1507 24.1507C23.9871 23.3414 24.5057 22.2086 24.5057 20.955C24.5057 20.9321 24.5057 20.9093 24.505 20.8864V20.89C24.505 20.8707 24.5057 20.8471 24.5057 20.8243C24.5057 19.5707 23.9864 18.4379 23.1514 17.63L23.15 17.6286C22.3164 16.7914 21.1636 16.2736 19.8893 16.2736C18.615 16.2736 17.4621 16.7914 16.6286 17.6279C15.7921 18.4371 15.2736 19.57 15.2736 20.8236C15.2736 20.8464 15.2736 20.8693 15.2743 20.8921V20.8886C15.2743 20.9086 15.2736 20.9321 15.2736 20.9557C15.2736 22.2093 15.7921 23.3414 16.6264 24.1493L16.6279 24.1507C17.4371 24.9871 18.57 25.5057 19.8236 25.5057C19.8471 25.5057 19.87 25.5057 19.8929 25.505H19.8893L19.89 25.5057Z" fill="white"/>
</svg>
