<svg width="40" height="40" viewBox="0 0 40 40" fill="none" xmlns="http://www.w3.org/2000/svg">
<path d="M9.84278 10.1085C12.5578 7.49434 16.1803 6.03398 19.9495 6.03423C23.7186 6.03449 27.341 7.49535 30.0556 10.1099C31.3792 11.3837 32.4321 12.9114 33.1513 14.6017C33.8705 16.2919 34.2412 18.1099 34.2412 19.9468C34.2412 21.7836 33.8705 23.6016 33.1513 25.2919C32.4321 26.9821 31.3792 28.5099 30.0556 29.7836C27.341 32.3982 23.7186 33.8591 19.9495 33.8593C16.1803 33.8596 12.5578 32.3992 9.84278 29.785C8.51874 28.5112 7.46545 26.9833 6.74598 25.2928C6.02651 23.6023 5.65567 21.784 5.65567 19.9468C5.65567 18.1096 6.02651 16.2913 6.74598 14.6008C7.46545 12.9103 8.51874 11.3823 9.84278 10.1085Z" fill="white" stroke="#FF6400" stroke-width="2.5"/>
<path d="M12.0181 19.6362L18.1103 25.5658" stroke="#FF6400" stroke-width="2.5" stroke-linecap="round" stroke-linejoin="round"/>
<path d="M18.1104 25.5664L28.6123 15.3438" stroke="#FF6400" stroke-width="2.5" stroke-linecap="round" stroke-linejoin="round"/>
</svg>
