<svg width="21" height="21" viewBox="0 0 21 21" fill="none" xmlns="http://www.w3.org/2000/svg">
<path d="M15.3643 6.7511C15.7517 6.3637 15.7519 5.73576 15.3647 5.34856C14.9775 4.96135 14.3495 4.96151 13.9621 5.34891L5.54897 13.7621C5.16157 14.1495 5.16141 14.7774 5.54861 15.1646C5.93582 15.5518 6.56376 15.5517 6.95116 15.1643L15.3643 6.7511Z" fill="white"/>
<path d="M15.0108 6.39747C15.2029 6.20534 15.2031 5.89398 15.0111 5.70204C14.8192 5.51009 14.5078 5.51025 14.3157 5.70239L5.90252 14.1155C5.71038 14.3077 5.71023 14.619 5.90217 14.811C6.09411 15.0029 6.40547 15.0028 6.59761 14.8106L15.0108 6.39747Z" stroke="#F36565"/>
<path d="M13.9613 15.1641C14.3487 15.5515 14.9766 15.5517 15.3638 15.1645C15.751 14.7773 15.7509 14.1493 15.3635 13.7619L6.95033 5.34877C6.56293 4.96137 5.93499 4.96121 5.54779 5.34842C5.16058 5.73562 5.16074 6.36356 5.54814 6.75097L13.9613 15.1641Z" fill="white"/>
<path d="M14.3149 14.8106C14.5071 15.0027 14.8184 15.0029 15.0104 14.8109C15.2023 14.619 15.2022 14.3076 15.01 14.1155L6.59686 5.70233C6.40472 5.51019 6.09336 5.51003 5.90142 5.70197C5.70948 5.89392 5.70963 6.20527 5.90177 6.39741L14.3149 14.8106Z" stroke="#F36565"/>
</svg>
