<svg id="combine-merge-icon" xmlns="http://www.w3.org/2000/svg" width="30" height="29.91" viewBox="0 0 30 29.91">
  <path id="Path_1" data-name="Path 1" d="M11.172,0A11.181,11.181,0,0,1,21.885,7.988,11.173,11.173,0,1,1,8.115,21.921,11.174,11.174,0,0,1,11.172,0ZM22.3,10.249q.029.377.037.762v.161A11.17,11.17,0,0,1,11.169,22.344h-.112c-.227,0-.454-.012-.676-.027A9.173,9.173,0,1,0,22.3,10.249ZM18.828,7.566h.112c.227,0,.452.012.676.027A9.172,9.172,0,1,0,7.69,19.661q-.029-.377-.037-.762v-.161A11.17,11.17,0,0,1,18.828,7.566Z"/>
</svg>
