<svg xmlns="http://www.w3.org/2000/svg" width="21" height="28" viewBox="0 0 21 28">
  <path id="csv" d="M12.25,7.437V0H1.313A1.309,1.309,0,0,0,0,1.312V26.687A1.309,1.309,0,0,0,1.313,28H19.688A1.309,1.309,0,0,0,21,26.687V8.75H13.563A1.316,1.316,0,0,1,12.25,7.437ZM7,15.312a.437.437,0,0,1-.437.437H6.125a.875.875,0,0,0-.875.875v1.75a.875.875,0,0,0,.875.875h.438A.437.437,0,0,1,7,19.687v.875A.437.437,0,0,1,6.563,21H6.125A2.625,2.625,0,0,1,3.5,18.375v-1.75A2.625,2.625,0,0,1,6.125,14h.438A.437.437,0,0,1,7,14.437ZM9.421,21H8.75a.437.437,0,0,1-.437-.437v-.875a.437.437,0,0,1,.438-.437h.671c.325,0,.569-.191.569-.362a.29.29,0,0,0-.116-.21l-1.2-1.026a2.03,2.03,0,0,1-.729-1.539A2.225,2.225,0,0,1,10.268,14h.67a.437.437,0,0,1,.438.437v.875a.437.437,0,0,1-.437.437h-.671c-.325,0-.569.191-.569.362a.29.29,0,0,0,.116.21l1.2,1.026a2.03,2.03,0,0,1,.729,1.539A2.224,2.224,0,0,1,9.421,21ZM14,14.437v1.137a5.961,5.961,0,0,0,.875,3.111,5.96,5.96,0,0,0,.875-3.111V14.437A.437.437,0,0,1,16.188,14h.875a.437.437,0,0,1,.438.437v1.137a7.522,7.522,0,0,1-1.984,5.146.875.875,0,0,1-1.282,0,7.522,7.522,0,0,1-1.984-5.146V14.437A.437.437,0,0,1,12.688,14h.875A.437.437,0,0,1,14,14.437Zm6.617-8.7L15.263.383A1.312,1.312,0,0,0,14.334,0H14V7h7V6.666A1.308,1.308,0,0,0,20.617,5.742Z"/>
</svg>
