<svg xmlns="http://www.w3.org/2000/svg" width="24" height="24.462" viewBox="0 0 24 24.462"><path d="M247.1,245.307v-1.843c0-.258-.158-.333-.354-.17l-3.445,2.871a.37.37,0,0,0,0,.59l3.445,2.871c.2.164.354.087.354-.17v-1.843h6.462v1.843c0,.257.158.333.354.17l3.446-2.871a.37.37,0,0,0,0-.59l-3.446-2.871c-.2-.163-.354-.088-.354.17v1.843Zm11.54-12.923h1.849a1.847,1.847,0,0,1,1.843,1.851v18.453a1.848,1.848,0,0,1-1.843,1.851H240.18a1.847,1.847,0,0,1-1.844-1.851V234.234a1.848,1.848,0,0,1,1.844-1.851h1.849v2.3a1.848,1.848,0,0,0,1.851,1.849h.914a1.848,1.848,0,0,0,1.85-1.849v-2.3h7.385v2.3a1.848,1.848,0,0,0,1.851,1.849h.914a1.848,1.848,0,0,0,1.85-1.849Zm-18.924,7.845a.464.464,0,0,1,.463-.461h20.3a.465.465,0,0,1,.463.461v12.463a.464.464,0,0,1-.463.461h-20.3a.465.465,0,0,1-.463-.461ZM242.951,231a.926.926,0,0,1,.922-.927h.925a.925.925,0,0,1,.922.927v3.685a.926.926,0,0,1-.922.927h-.925a.925.925,0,0,1-.922-.927Zm12,0a.926.926,0,0,1,.922-.927h.925a.925.925,0,0,1,.922.927v3.685a.926.926,0,0,1-.922.927h-.925a.925.925,0,0,1-.922-.927Z" transform="translate(-238.336 -230.076)" fill-rule="evenodd"/></svg>