<svg xmlns="http://www.w3.org/2000/svg" width="46" height="46" viewBox="0 0 46 46"><g transform="translate(-1575 -40)"><rect width="27" height="27" rx="5" transform="translate(1594 59)" fill="#fff"/><path d="M5,1A4,4,0,0,0,1,5V22a4,4,0,0,0,4,4H22a4,4,0,0,0,4-4V5a4,4,0,0,0-4-4H5M5,0H22a5,5,0,0,1,5,5V22a5,5,0,0,1-5,5H5a5,5,0,0,1-5-5V5A5,5,0,0,1,5,0Z" transform="translate(1594 59)" fill="#707070"/><rect width="27" height="28" rx="5" transform="translate(1575 40)" fill="#515151"/><path d="M5,1A4,4,0,0,0,1,5V23a4,4,0,0,0,4,4H22a4,4,0,0,0,4-4V5a4,4,0,0,0-4-4H5M5,0H22a5,5,0,0,1,5,5V23a5,5,0,0,1-5,5H5a5,5,0,0,1-5-5V5A5,5,0,0,1,5,0Z" transform="translate(1575 40)" fill="#707070"/><text transform="translate(1582 60)" fill="#fff" font-size="18" font-family="Roboto-Bold, Roboto" font-weight="700"><tspan x="0" y="0">A</tspan></text><text transform="translate(1599 80)" fill="#515151" font-size="17" font-family="NirmalaUI-Bold, Nirmala UI" font-weight="700"><tspan x="0" y="0">अ</tspan></text></g></svg>