<svg xmlns="http://www.w3.org/2000/svg" width="28" height="27.489" viewBox="0 0 28 27.489">
  <path fill="#ffffff" id="excel" d="M27.478,3.692H18.1V5.428h2.765V8.174H18.1v.875h2.765V11.8H18.1v.9h2.765v2.6H18.1v1.042h2.765v2.606H18.1v1.042h2.765v2.621H18.1v1.912h9.38c.148-.044.272-.219.371-.523a2.558,2.558,0,0,0,.15-.742V4.009c0-.149-.051-.239-.15-.271A1.284,1.284,0,0,0,27.478,3.692ZM26.262,22.608h-4.5V19.989h4.5v2.619Zm0-3.661h-4.5V16.34h4.5Zm0-3.649h-4.5V12.709h4.5V15.3Zm0-3.5h-4.5V9.052h4.5V11.8h0Zm0-3.639h-4.5V5.429h4.5v2.73ZM0,3.259v21.7l16.52,2.857V.329L0,3.268ZM9.792,19.675Q9.7,19.42,8.908,17.5c-.524-1.279-.84-2.023-.932-2.235H7.946L6.174,19.484l-2.368-.16,2.809-5.25L4.043,8.824,6.457,8.7l1.6,4.108h.031l1.8-4.294,2.5-.158L9.411,14.034l3.063,5.8-2.682-.157Z" transform="translate(0 -0.328)"/>
</svg>
