<svg xmlns="http://www.w3.org/2000/svg" xmlns:xlink="http://www.w3.org/1999/xlink" width="38" height="38" viewBox="0 0 38 38"><defs><linearGradient id="a" x1="-6.934" y1="10.216" x2="-6.934" y2="10.241" gradientUnits="objectBoundingBox"><stop offset="0" stop-color="#0062e0"/><stop offset="1" stop-color="#19afff"/></linearGradient></defs><path d="M15.865,37.81A19.038,19.038,0,0,1,19,0a19.038,19.038,0,0,1,3.135,37.81l-1.045-.855H16.91Z" fill="url(#a)"/><path d="M27,24.71l.855-5.32H22.82v-3.7c0-1.52.57-2.66,2.85-2.66h2.47V8.18a31.069,31.069,0,0,0-4.18-.38c-4.37,0-7.41,2.66-7.41,7.41v4.18H11.8v5.32h4.75V38.1a17.385,17.385,0,0,0,6.27,0V24.71Z" transform="translate(-0.59 -0.39)" fill="#fff"/></svg>