<svg xmlns="http://www.w3.org/2000/svg" width="38" height="38" viewBox="0 0 38 38"><g transform="translate(-1338.902 -306)"><g transform="translate(1338.902 306)"><path d="M3.833,52.833a21.557,21.557,0,0,0-.307-3.594h-18.28V56.38H-4.287A8.815,8.815,0,0,1-8.17,62.048V66.8h6.244A18.38,18.38,0,0,0,3.833,52.833Z" transform="translate(34.167 -33.406)" fill="#4285f4"/><path d="M-8.138,68.9A18.726,18.726,0,0,0,4.69,64.3l-6.244-4.75a11.9,11.9,0,0,1-6.584,1.837,11.568,11.568,0,0,1-10.887-7.853h-6.438v4.893A19.429,19.429,0,0,0-8.138,68.9Z" transform="translate(27.551 -30.903)" fill="#34a853"/><path d="M-18.229,58a10.813,10.813,0,0,1-.615-3.626,11.234,11.234,0,0,1,.615-3.626V45.859h-6.438a18.457,18.457,0,0,0-2.087,8.518A18.457,18.457,0,0,0-24.667,62.9Z" transform="translate(26.754 -35.377)" fill="#fbbc05"/><path d="M-8.138,46.76A10.658,10.658,0,0,1-.7,49.61l5.533-5.415A18.78,18.78,0,0,0-8.138,39.239,19.429,19.429,0,0,0-25.464,49.721l6.438,4.893A11.568,11.568,0,0,1-8.138,46.76Z" transform="translate(27.551 -39.239)" fill="#ea4335"/></g></g></svg>