<?xml version="1.0" encoding="UTF-8"?><svg xmlns="http://www.w3.org/2000/svg" xmlns:xlink="http://www.w3.org/1999/xlink" viewBox="0 0 126 140.77"><defs><style>.cls-1{fill:#fff;}.cls-2{fill:#b3b3b3;opacity:.8;}.cls-2,.cls-3,.cls-4,.cls-5,.cls-6,.cls-7,.cls-8,.cls-9,.cls-10,.cls-11,.cls-12,.cls-13,.cls-14,.cls-15,.cls-16,.cls-17,.cls-18{mix-blend-mode:multiply;}.cls-19{fill:#ffc022;}.cls-3{fill:#ccc;opacity:.6;}.cls-4{fill:url(#linear-gradient-2);}.cls-4,.cls-5,.cls-6,.cls-7,.cls-8,.cls-9,.cls-10,.cls-11,.cls-12,.cls-13,.cls-14,.cls-15,.cls-16,.cls-17,.cls-18{opacity:.4;}.cls-20{isolation:isolate;}.cls-5{fill:url(#linear-gradient-12);}.cls-21{fill:#534741;}.cls-6{fill:url(#linear-gradient-8);}.cls-22{fill:#e8c47b;}.cls-7{fill:url(#linear-gradient-13);}.cls-8{fill:url(#linear-gradient-11);}.cls-9{fill:url(#linear-gradient-15);}.cls-10{fill:url(#linear-gradient-4);}.cls-23{fill:#ff931e;}.cls-11{fill:url(#linear-gradient-3);}.cls-12{fill:url(#linear-gradient-5);}.cls-24{fill:#dab873;}.cls-13{fill:url(#linear-gradient-14);}.cls-14{fill:url(#linear-gradient-7);}.cls-25{fill:#bf6e17;}.cls-15{fill:url(#linear-gradient-9);}.cls-16{fill:url(#linear-gradient);}.cls-17{fill:url(#linear-gradient-6);}.cls-26{fill:#d17918;}.cls-18{fill:url(#linear-gradient-10);}</style><linearGradient id="linear-gradient" x1="-31.4" y1="201.81" x2="-18.92" y2="201.81" gradientTransform="translate(267.97 141.97) rotate(90)" gradientUnits="userSpaceOnUse"><stop offset="0" stop-color="#fff"/><stop offset="1" stop-color="#d17918"/></linearGradient><linearGradient id="linear-gradient-2" x1="-37.66" x2="-25.18" xlink:href="#linear-gradient"/><linearGradient id="linear-gradient-3" x1="-43.91" x2="-31.43" xlink:href="#linear-gradient"/><linearGradient id="linear-gradient-4" x1="-43.41" y1="161.78" x2="-30.93" y2="161.78" xlink:href="#linear-gradient"/><linearGradient id="linear-gradient-5" x1="-49.66" y1="161.78" x2="-37.18" y2="161.78" xlink:href="#linear-gradient"/><linearGradient id="linear-gradient-6" x1="-55.92" y1="161.78" x2="-43.44" y2="161.78" xlink:href="#linear-gradient"/><linearGradient id="linear-gradient-7" x1="-62.17" y1="161.78" x2="-49.69" y2="161.78" xlink:href="#linear-gradient"/><linearGradient id="linear-gradient-8" x1="-68.42" y1="161.78" x2="-55.94" y2="161.78" xlink:href="#linear-gradient"/><linearGradient id="linear-gradient-9" x1="-24.52" y1="176.47" x2="-12.04" y2="176.47" xlink:href="#linear-gradient"/><linearGradient id="linear-gradient-10" x1="-30.77" y1="176.47" x2="-18.29" y2="176.47" xlink:href="#linear-gradient"/><linearGradient id="linear-gradient-11" x1="-37.02" y1="176.47" x2="-24.54" y2="176.47" xlink:href="#linear-gradient"/><linearGradient id="linear-gradient-12" x1="-43.27" y1="176.47" x2="-30.79" y2="176.47" xlink:href="#linear-gradient"/><linearGradient id="linear-gradient-13" x1="-49.53" y1="176.47" x2="-37.05" y2="176.47" xlink:href="#linear-gradient"/><linearGradient id="linear-gradient-14" x1="141.46" y1="269.58" x2="153.94" y2="269.58" gradientTransform="translate(12.22 -189.4) rotate(21.62)" xlink:href="#linear-gradient"/><linearGradient id="linear-gradient-15" x1="380.81" y1="185.18" x2="393.29" y2="185.18" gradientTransform="translate(409.82 -189.4) rotate(158.38) scale(1 -1)" xlink:href="#linear-gradient"/></defs><g class="cls-20"><g id="Layer_2"><g id="DESIGNED_BY_FREEPIK"><g><g><path class="cls-3" d="M83.11,113.94c0,4.55-18.6,8.24-41.55,8.24S0,118.49,0,113.94s18.6-8.24,41.55-8.24,41.55,3.69,41.55,8.24Z"/><path class="cls-22" d="M111.08,86.56s-7.26-36.78-34.57-53.03h-19.52c-27.31,16.25-34.57,53.03-34.57,53.03-7.98,42.77,41.64,37.32,41.64,37.32h5.38s49.62,5.45,41.64-37.32Z"/><path class="cls-24" d="M111.08,86.56s-7.26-36.78-34.57-53.03h-10.85c18.55,16.34,23.76,42.72,23.76,42.72,7.29,39.06-38.03,34.09-38.03,34.09h-4.92s-11.82,1.29-22.41-2.64c9.12,19.57,39.99,16.18,39.99,16.18h5.38s49.62,5.45,41.64-37.32Z"/><path class="cls-22" d="M37.19,9.62c-1.01-1.33-2.61-4.2-.87-5.52,2.26-1.73,6.7,.1,9.01,.75,3.01,.84,6.34,1.59,9.65,1.25,3.23-.34,6.91-2.13,9.78-3.3,2.9-1.18,5.96-3.3,9.43-2.23,3.63,1.12,5.06,4.3,9.26,4.7,7.37,.7,11.72-5.91,18.63-5.21,3.59,.37,3.18,2.61,1.17,4.14l-26.72,29.33h-19.52L37.19,9.62Z"/><g><g><path class="cls-3" d="M91.5,134.97c-8.98,0-16.26-2.8-16.26-6.25s7.28-6.25,16.26-6.25,16.26,2.8,16.26,6.25-7.28,6.25-16.26,6.25Z"/><path class="cls-3" d="M108.56,115.92c-8.98,0-16.26-2.8-16.26-6.25s7.28-6.25,16.26-6.25,16.26,2.8,16.26,6.25-7.28,6.25-16.26,6.25Z"/><path class="cls-3" d="M106.57,128.24c-8.97-.3-16.34,2.25-16.46,5.7-.12,3.45,7.06,6.49,16.04,6.8,8.97,.3,16.34-2.25,16.46-5.7,.12-3.45-7.06-6.49-16.04-6.8Z"/><path class="cls-3" d="M60.6,117.9c8.97-.3,16.34,2.25,16.46,5.7,.12,3.45-7.06,6.49-16.04,6.8-8.97,.3-16.34-2.25-16.46-5.7-.12-3.45,7.06-6.49,16.04-6.8Z"/><g><path class="cls-23" d="M53.45,119.75c0,3.45,7.28,6.25,16.26,6.25s16.26-2.8,16.26-6.25v-2.95H53.45v2.95Z"/><g><path class="cls-26" d="M68.16,118.31v7.66c.51,.02,1.02,.03,1.55,.03v-7.69h-1.55Z"/><path class="cls-26" d="M65.03,118.31v7.42c.84,.1,1.71,.17,2.6,.21v-7.64h-2.6Z"/><path class="cls-26" d="M64.39,125.65v-8.85h-10.93v2.94c0,2.74,4.57,5.06,10.93,5.91Z"/><path class="cls-26" d="M75.5,118.31v7.28c.18-.03,.36-.05,.53-.08v-7.2h-.53Z"/><path class="cls-26" d="M73.48,125.83c.18-.02,.35-.03,.53-.05v-7.47h-.53v7.52Z"/><path class="cls-26" d="M70.92,118.31v7.67c.26,0,.52-.02,.77-.03v-7.64h-.77Z"/></g><g><path class="cls-23" d="M69.71,123.04c-8.98,0-16.26-2.8-16.26-6.25s7.28-6.25,16.26-6.25,16.26,2.8,16.26,6.25-7.28,6.25-16.26,6.25Z"/><path class="cls-16" d="M78.87,121.96c-.46,.02-.93,.02-1.4,.02-8.98,0-16.26-2.8-16.26-6.25,0-2.15,2.81-4.04,7.1-5.17-8.32,.27-14.86,2.96-14.86,6.23,0,3.45,7.28,6.25,16.26,6.25,3.4,0,6.55-.4,9.16-1.09Z"/><path class="cls-26" d="M85.96,116.99c-.27-3.36-7.44-6.06-16.25-6.06s-15.98,2.7-16.24,6.06c.27,3.36,7.44,6.06,16.24,6.06s15.98-2.7,16.25-6.06Zm-16.25,5.28c-7.3,0-13.23-2.28-13.23-5.09s5.94-5.09,13.23-5.09,13.23,2.28,13.23,5.09-5.94,5.09-13.23,5.09Z"/><path class="cls-26" d="M68.24,115.92l-6.29,1.81v1.26l6.44-1.98c.64,.51,1.55,.9,2.73,1.16,.1,.02,.19,.04,.29,.06v1.12h2.33v-.86c.51,.02,.98,.02,1.4,.02v.85h2.33v-3.36h-2.33v1.62c-.39,.01-.88,.01-1.4-.02v-1.6h-2.33v1.15c-.55-.22-1.04-.52-1.35-.96l-1.82-.24Z"/><path class="cls-19" d="M82.95,116.79c0,2.81-5.94,5.09-13.23,5.09s-13.23-2.28-13.23-5.09,5.94-5.09,13.23-5.09,13.23,2.28,13.23,5.09m3.02,0c0-3.45-7.28-6.25-16.26-6.25s-16.26,2.8-16.26,6.25,7.28,6.25,16.26,6.25,16.26-2.8,16.26-6.25h0Z"/><path class="cls-19" d="M58.23,116.79c0-2.44,5.15-4.42,11.48-4.42s11.48,1.98,11.48,4.42-5.15,4.42-11.48,4.42-11.48-1.98-11.48-4.42Zm22.46,0c0-2.33-4.93-4.22-10.98-4.22s-10.98,1.89-10.98,4.22,4.93,4.22,10.98,4.22,10.98-1.89,10.98-4.22Z"/><path class="cls-19" d="M68.24,115.08l-6.29,1.81v1.26l6.44-1.98c.64,.52,1.55,.9,2.73,1.16,.1,.02,.19,.04,.29,.06v1.12h2.33v-.86c.51,.02,.98,.02,1.4,.02v.85h2.33v-3.36h-2.33v1.62c-.39,.01-.88,.01-1.4-.02v-1.6h-2.33v1.15c-.55-.22-1.04-.52-1.35-.96l-1.82-.24Z"/></g></g><g><path class="cls-23" d="M53.45,113.49c0,3.45,7.28,6.25,16.26,6.25s16.26-2.8,16.26-6.25v-2.95H53.45v2.95Z"/><g><path class="cls-26" d="M68.16,112.06v7.66c.51,.02,1.02,.03,1.55,.03v-7.69h-1.55Z"/><path class="cls-26" d="M65.03,112.06v7.42c.84,.1,1.71,.17,2.6,.21v-7.64h-2.6Z"/><path class="cls-26" d="M64.39,119.4v-8.85h-10.93v2.94c0,2.74,4.57,5.06,10.93,5.91Z"/><path class="cls-26" d="M75.5,112.06v7.28c.18-.03,.36-.05,.53-.08v-7.2h-.53Z"/><path class="cls-26" d="M73.48,119.58c.18-.02,.35-.03,.53-.05v-7.47h-.53v7.52Z"/><path class="cls-26" d="M70.92,112.06v7.67c.26,0,.52-.02,.77-.03v-7.64h-.77Z"/></g><g><path class="cls-23" d="M69.71,116.79c-8.98,0-16.26-2.8-16.26-6.25s7.28-6.25,16.26-6.25,16.26,2.8,16.26,6.25-7.28,6.25-16.26,6.25Z"/><path class="cls-4" d="M78.87,115.71c-.46,.02-.93,.02-1.4,.02-8.98,0-16.26-2.8-16.26-6.25,0-2.15,2.81-4.04,7.1-5.17-8.32,.27-14.86,2.96-14.86,6.23,0,3.45,7.28,6.25,16.26,6.25,3.4,0,6.55-.4,9.16-1.09Z"/><path class="cls-26" d="M85.96,110.73c-.27-3.36-7.44-6.06-16.25-6.06s-15.98,2.7-16.24,6.06c.27,3.36,7.44,6.06,16.24,6.06s15.98-2.7,16.25-6.06Zm-16.25,5.28c-7.3,0-13.23-2.28-13.23-5.09s5.94-5.09,13.23-5.09,13.23,2.28,13.23,5.09-5.94,5.09-13.23,5.09Z"/><path class="cls-26" d="M68.24,109.67l-6.29,1.81v1.26l6.44-1.98c.64,.51,1.55,.9,2.73,1.16,.1,.02,.19,.04,.29,.06v1.12h2.33v-.86c.51,.02,.98,.02,1.4,.02v.85h2.33v-3.36h-2.33v1.62c-.39,.01-.88,.01-1.4-.02v-1.6h-2.33v1.15c-.55-.22-1.04-.52-1.35-.96l-1.82-.24Z"/><path class="cls-19" d="M82.95,110.54c0,2.81-5.94,5.09-13.23,5.09s-13.23-2.28-13.23-5.09,5.94-5.09,13.23-5.09,13.23,2.28,13.23,5.09m3.02,0c0-3.45-7.28-6.25-16.26-6.25s-16.26,2.8-16.26,6.25,7.28,6.25,16.26,6.25,16.26-2.8,16.26-6.25h0Z"/><path class="cls-19" d="M58.23,110.54c0-2.44,5.15-4.42,11.48-4.42s11.48,1.98,11.48,4.42-5.15,4.42-11.48,4.42-11.48-1.98-11.48-4.42Zm22.46,0c0-2.33-4.93-4.22-10.98-4.22s-10.98,1.89-10.98,4.22,4.93,4.22,10.98,4.22,10.98-1.89,10.98-4.22Z"/><path class="cls-19" d="M68.24,108.83l-6.29,1.81v1.26l6.44-1.99c.64,.52,1.55,.9,2.73,1.16,.1,.02,.19,.04,.29,.06v1.12h2.33v-.86c.51,.02,.98,.02,1.4,.02v.85h2.33v-3.36h-2.33v1.62c-.39,.01-.88,.01-1.4-.02v-1.6h-2.33v1.15c-.55-.22-1.04-.52-1.35-.96l-1.82-.24Z"/></g></g><g><path class="cls-23" d="M53.45,107.24c0,3.45,7.28,6.25,16.26,6.25s16.26-2.8,16.26-6.25v-2.95H53.45v2.95Z"/><g><path class="cls-26" d="M68.16,105.81v7.66c.51,.02,1.02,.03,1.55,.03v-7.69h-1.55Z"/><path class="cls-26" d="M65.03,105.81v7.42c.84,.1,1.71,.17,2.6,.21v-7.64h-2.6Z"/><path class="cls-26" d="M64.39,113.15v-8.85h-10.93v2.94c0,2.73,4.57,5.06,10.93,5.91Z"/><path class="cls-26" d="M75.5,105.81v7.28c.18-.03,.36-.05,.53-.08v-7.2h-.53Z"/><path class="cls-26" d="M73.48,113.32c.18-.02,.35-.03,.53-.05v-7.47h-.53v7.52Z"/><path class="cls-26" d="M70.92,105.81v7.67c.26,0,.52-.02,.77-.03v-7.64h-.77Z"/></g><g><path class="cls-23" d="M69.71,110.54c-8.98,0-16.26-2.8-16.26-6.25s7.28-6.25,16.26-6.25,16.26,2.8,16.26,6.25-7.28,6.25-16.26,6.25Z"/><path class="cls-11" d="M78.87,109.45c-.46,.02-.93,.02-1.4,.02-8.98,0-16.26-2.8-16.26-6.25,0-2.15,2.81-4.04,7.1-5.17-8.32,.27-14.86,2.96-14.86,6.23,0,3.45,7.28,6.25,16.26,6.25,3.4,0,6.55-.4,9.16-1.09Z"/><path class="cls-26" d="M85.96,104.48c-.27-3.36-7.44-6.06-16.25-6.06s-15.98,2.7-16.24,6.06c.27,3.36,7.44,6.06,16.24,6.06s15.98-2.7,16.25-6.06Zm-16.25,5.28c-7.3,0-13.23-2.28-13.23-5.09s5.94-5.09,13.23-5.09,13.23,2.28,13.23,5.09-5.94,5.09-13.23,5.09Z"/><path class="cls-26" d="M68.24,103.42l-6.29,1.81v1.26l6.44-1.98c.64,.51,1.55,.9,2.73,1.16,.1,.02,.19,.04,.29,.06v1.12h2.33v-.86c.51,.02,.98,.02,1.4,.02v.85h2.33v-3.36h-2.33v1.62c-.39,.01-.88,.01-1.4-.02v-1.6h-2.33v1.15c-.55-.22-1.04-.52-1.35-.96l-1.82-.24Z"/><path class="cls-19" d="M82.95,104.29c0,2.81-5.94,5.09-13.23,5.09s-13.23-2.28-13.23-5.09,5.94-5.09,13.23-5.09,13.23,2.28,13.23,5.09m3.02,0c0-3.45-7.28-6.25-16.26-6.25s-16.26,2.8-16.26,6.25,7.28,6.25,16.26,6.25,16.26-2.8,16.26-6.25h0Z"/><path class="cls-19" d="M58.23,104.29c0-2.44,5.15-4.42,11.48-4.42s11.48,1.98,11.48,4.42-5.15,4.42-11.48,4.42-11.48-1.98-11.48-4.42Zm22.46,0c0-2.33-4.93-4.22-10.98-4.22s-10.98,1.89-10.98,4.22,4.93,4.22,10.98,4.22,10.98-1.89,10.98-4.22Z"/><path class="cls-19" d="M68.24,102.58l-6.29,1.81v1.26l6.44-1.99c.64,.52,1.55,.9,2.73,1.16,.1,.02,.19,.04,.29,.06v1.12h2.33v-.86c.51,.02,.98,.02,1.4,.02v.85h2.33v-3.36h-2.33v1.62c-.39,.01-.88,.01-1.4-.02v-1.6h-2.33v1.15c-.55-.22-1.04-.52-1.35-.96l-1.82-.24Z"/></g></g><g><path class="cls-23" d="M93.48,107.74c0,3.45,7.28,6.25,16.26,6.25s16.26-2.8,16.26-6.25v-2.95h-32.52v2.95Z"/><g><path class="cls-26" d="M108.19,106.3v7.66c.51,.02,1.02,.03,1.55,.03v-7.69h-1.55Z"/><path class="cls-26" d="M105.06,106.3v7.42c.84,.1,1.71,.17,2.6,.21v-7.64h-2.6Z"/><path class="cls-26" d="M104.42,113.65v-8.85h-10.93v2.94c0,2.74,4.57,5.06,10.93,5.91Z"/><path class="cls-26" d="M115.53,106.3v7.28c.18-.03,.36-.05,.53-.08v-7.2h-.53Z"/><path class="cls-26" d="M113.51,113.82c.18-.02,.35-.03,.53-.05v-7.47h-.53v7.52Z"/><path class="cls-26" d="M110.95,106.3v7.67c.26,0,.52-.02,.77-.03v-7.64h-.77Z"/></g><g><path class="cls-23" d="M109.74,111.04c-8.98,0-16.26-2.8-16.26-6.25s7.28-6.25,16.26-6.25,16.26,2.8,16.26,6.25-7.28,6.25-16.26,6.25Z"/><path class="cls-10" d="M118.9,109.95c-.46,.02-.93,.02-1.4,.02-8.98,0-16.26-2.8-16.26-6.25,0-2.15,2.81-4.04,7.1-5.17-8.32,.27-14.86,2.96-14.86,6.23,0,3.45,7.28,6.25,16.26,6.25,3.4,0,6.55-.4,9.16-1.09Z"/><path class="cls-26" d="M125.99,104.98c-.27-3.36-7.44-6.06-16.25-6.06s-15.98,2.7-16.24,6.06c.27,3.36,7.44,6.06,16.24,6.06s15.98-2.7,16.25-6.06Zm-16.25,5.28c-7.3,0-13.23-2.28-13.23-5.09s5.94-5.09,13.23-5.09,13.23,2.28,13.23,5.09-5.94,5.09-13.23,5.09Z"/><path class="cls-26" d="M108.27,103.92l-6.29,1.81v1.26l6.44-1.98c.64,.51,1.55,.9,2.73,1.16,.1,.02,.19,.04,.29,.06v1.12h2.33v-.86c.51,.02,.98,.02,1.4,.02v.85h2.33v-3.36h-2.33v1.62c-.39,.01-.88,.01-1.4-.02v-1.6h-2.33v1.15c-.55-.22-1.04-.52-1.35-.96l-1.82-.24Z"/><path class="cls-19" d="M122.98,104.79c0,2.81-5.94,5.09-13.23,5.09s-13.23-2.28-13.23-5.09,5.94-5.09,13.23-5.09,13.23,2.28,13.23,5.09m3.02,0c0-3.45-7.28-6.25-16.26-6.25s-16.26,2.8-16.26,6.25,7.28,6.25,16.26,6.25,16.26-2.8,16.26-6.25h0Z"/><path class="cls-19" d="M98.26,104.79c0-2.44,5.15-4.42,11.48-4.42s11.48,1.98,11.48,4.42-5.15,4.42-11.48,4.42-11.48-1.98-11.48-4.42Zm22.46,0c0-2.33-4.93-4.22-10.98-4.22s-10.98,1.89-10.98,4.22,4.93,4.22,10.98,4.22,10.98-1.89,10.98-4.22Z"/><path class="cls-19" d="M108.27,103.08l-6.29,1.81v1.26l6.44-1.98c.64,.52,1.55,.9,2.73,1.16,.1,.02,.19,.04,.29,.06v1.12h2.33v-.86c.51,.02,.98,.02,1.4,.02v.85h2.33v-3.36h-2.33v1.62c-.39,.01-.88,.01-1.4-.02v-1.6h-2.33v1.15c-.55-.22-1.04-.52-1.35-.96l-1.82-.24Z"/></g></g><g><path class="cls-23" d="M93.48,101.49c0,3.45,7.28,6.25,16.26,6.25s16.26-2.8,16.26-6.25v-2.95h-32.52v2.95Z"/><g><path class="cls-26" d="M108.19,100.05v7.66c.51,.02,1.02,.03,1.55,.03v-7.69h-1.55Z"/><path class="cls-26" d="M105.06,100.05v7.42c.84,.1,1.71,.17,2.6,.21v-7.64h-2.6Z"/><path class="cls-26" d="M104.42,107.39v-8.85h-10.93v2.94c0,2.74,4.57,5.06,10.93,5.91Z"/><path class="cls-26" d="M115.53,100.05v7.28c.18-.03,.36-.05,.53-.08v-7.2h-.53Z"/><path class="cls-26" d="M113.51,107.57c.18-.02,.35-.03,.53-.05v-7.47h-.53v7.52Z"/><path class="cls-26" d="M110.95,100.05v7.67c.26,0,.52-.02,.77-.03v-7.64h-.77Z"/></g><g><path class="cls-23" d="M109.74,104.79c-8.98,0-16.26-2.8-16.26-6.25s7.28-6.25,16.26-6.25,16.26,2.8,16.26,6.25-7.28,6.25-16.26,6.25Z"/><path class="cls-12" d="M118.9,103.7c-.46,.02-.93,.02-1.4,.02-8.98,0-16.26-2.8-16.26-6.25,0-2.15,2.81-4.04,7.1-5.17-8.32,.27-14.86,2.96-14.86,6.23,0,3.45,7.28,6.25,16.26,6.25,3.4,0,6.55-.4,9.16-1.09Z"/><path class="cls-26" d="M125.99,98.73c-.27-3.36-7.44-6.06-16.25-6.06s-15.98,2.7-16.24,6.06c.27,3.36,7.44,6.06,16.24,6.06s15.98-2.7,16.25-6.06Zm-16.25,5.28c-7.3,0-13.23-2.28-13.23-5.09s5.94-5.09,13.23-5.09,13.23,2.28,13.23,5.09-5.94,5.09-13.23,5.09Z"/><path class="cls-26" d="M108.27,97.67l-6.29,1.81v1.26l6.44-1.98c.64,.51,1.55,.9,2.73,1.16,.1,.02,.19,.04,.29,.06v1.12h2.33v-.86c.51,.02,.98,.02,1.4,.02v.85h2.33v-3.36h-2.33v1.62c-.39,.01-.88,.01-1.4-.02v-1.6h-2.33v1.15c-.55-.22-1.04-.52-1.35-.96l-1.82-.24Z"/><path class="cls-19" d="M122.98,98.53c0,2.81-5.94,5.09-13.23,5.09s-13.23-2.28-13.23-5.09,5.94-5.09,13.23-5.09,13.23,2.28,13.23,5.09m3.02,0c0-3.45-7.28-6.25-16.26-6.25s-16.26,2.8-16.26,6.25,7.28,6.25,16.26,6.25,16.26-2.8,16.26-6.25h0Z"/><path class="cls-19" d="M98.26,98.53c0-2.44,5.15-4.42,11.48-4.42s11.48,1.98,11.48,4.42-5.15,4.42-11.48,4.42-11.48-1.98-11.48-4.42Zm22.46,0c0-2.33-4.93-4.22-10.98-4.22s-10.98,1.89-10.98,4.22,4.93,4.22,10.98,4.22,10.98-1.89,10.98-4.22Z"/><path class="cls-19" d="M108.27,96.82l-6.29,1.81v1.26l6.44-1.99c.64,.52,1.55,.9,2.73,1.16,.1,.02,.19,.04,.29,.06v1.12h2.33v-.86c.51,.02,.98,.02,1.4,.02v.85h2.33v-3.36h-2.33v1.62c-.39,.01-.88,.01-1.4-.02v-1.6h-2.33v1.15c-.55-.22-1.04-.52-1.35-.96l-1.82-.24Z"/></g></g><g><path class="cls-23" d="M93.48,95.23c0,3.45,7.28,6.25,16.26,6.25s16.26-2.8,16.26-6.25v-2.95h-32.52v2.95Z"/><g><path class="cls-26" d="M108.19,93.8v7.66c.51,.02,1.02,.03,1.55,.03v-7.69h-1.55Z"/><path class="cls-26" d="M105.06,93.8v7.42c.84,.1,1.71,.17,2.6,.21v-7.64h-2.6Z"/><path class="cls-26" d="M104.42,101.14v-8.85h-10.93v2.94c0,2.73,4.57,5.06,10.93,5.91Z"/><path class="cls-26" d="M115.53,93.8v7.28c.18-.03,.36-.05,.53-.08v-7.2h-.53Z"/><path class="cls-26" d="M113.51,101.32c.18-.02,.35-.03,.53-.05v-7.47h-.53v7.52Z"/><path class="cls-26" d="M110.95,93.8v7.67c.26,0,.52-.02,.77-.03v-7.64h-.77Z"/></g><g><path class="cls-23" d="M109.74,98.53c-8.98,0-16.26-2.8-16.26-6.25s7.28-6.25,16.26-6.25,16.26,2.8,16.26,6.25-7.28,6.25-16.26,6.25Z"/><path class="cls-17" d="M118.9,97.45c-.46,.02-.93,.02-1.4,.02-8.98,0-16.26-2.8-16.26-6.25,0-2.15,2.81-4.04,7.1-5.17-8.32,.27-14.86,2.96-14.86,6.23,0,3.45,7.28,6.25,16.26,6.25,3.4,0,6.55-.4,9.16-1.09Z"/><path class="cls-26" d="M125.99,92.47c-.27-3.36-7.44-6.06-16.25-6.06s-15.98,2.7-16.24,6.06c.27,3.36,7.44,6.06,16.24,6.06s15.98-2.7,16.25-6.06Zm-16.25,5.28c-7.3,0-13.23-2.28-13.23-5.09s5.94-5.09,13.23-5.09,13.23,2.28,13.23,5.09-5.94,5.09-13.23,5.09Z"/><path class="cls-26" d="M108.27,91.41l-6.29,1.81v1.26l6.44-1.98c.64,.51,1.55,.9,2.73,1.16,.1,.02,.19,.04,.29,.06v1.12h2.33v-.86c.51,.02,.98,.02,1.4,.02v.85h2.33v-3.36h-2.33v1.62c-.39,.01-.88,.01-1.4-.02v-1.6h-2.33v1.15c-.55-.22-1.04-.52-1.35-.96l-1.82-.24Z"/><path class="cls-19" d="M122.98,92.28c0,2.81-5.94,5.09-13.23,5.09s-13.23-2.28-13.23-5.09,5.94-5.09,13.23-5.09,13.23,2.28,13.23,5.09m3.02,0c0-3.45-7.28-6.25-16.26-6.25s-16.26,2.8-16.26,6.25,7.28,6.25,16.26,6.25,16.26-2.8,16.26-6.25h0Z"/><path class="cls-19" d="M98.26,92.28c0-2.44,5.15-4.42,11.48-4.42s11.48,1.98,11.48,4.42-5.15,4.42-11.48,4.42-11.48-1.98-11.48-4.42Zm22.46,0c0-2.33-4.93-4.22-10.98-4.22s-10.98,1.89-10.98,4.22,4.93,4.22,10.98,4.22,10.98-1.89,10.98-4.22Z"/><path class="cls-19" d="M108.27,90.57l-6.29,1.81v1.26l6.44-1.99c.64,.52,1.55,.9,2.73,1.16,.1,.02,.19,.04,.29,.06v1.12h2.33v-.86c.51,.02,.98,.02,1.4,.02v.85h2.33v-3.36h-2.33v1.62c-.39,.01-.88,.01-1.4-.02v-1.6h-2.33v1.15c-.55-.22-1.04-.52-1.35-.96l-1.82-.24Z"/></g></g><g><path class="cls-23" d="M93.48,88.98c0,3.45,7.28,6.25,16.26,6.25s16.26-2.8,16.26-6.25v-2.95h-32.52v2.95Z"/><g><path class="cls-26" d="M108.19,87.55v7.66c.51,.02,1.02,.03,1.55,.03v-7.69h-1.55Z"/><path class="cls-26" d="M105.06,87.55v7.42c.84,.1,1.71,.17,2.6,.21v-7.64h-2.6Z"/><path class="cls-26" d="M104.42,94.89v-8.85h-10.93v2.94c0,2.73,4.57,5.06,10.93,5.91Z"/><path class="cls-26" d="M115.53,87.55v7.28c.18-.03,.36-.05,.53-.08v-7.2h-.53Z"/><path class="cls-26" d="M113.51,95.06c.18-.02,.35-.03,.53-.05v-7.47h-.53v7.52Z"/><path class="cls-26" d="M110.95,87.55v7.67c.26,0,.52-.02,.77-.03v-7.64h-.77Z"/></g><g><path class="cls-23" d="M109.74,92.28c-8.98,0-16.26-2.8-16.26-6.25s7.28-6.25,16.26-6.25,16.26,2.8,16.26,6.25-7.28,6.25-16.26,6.25Z"/><path class="cls-14" d="M118.9,91.19c-.46,.02-.93,.02-1.4,.02-8.98,0-16.26-2.8-16.26-6.25,0-2.15,2.81-4.04,7.1-5.17-8.32,.27-14.86,2.96-14.86,6.23,0,3.45,7.28,6.25,16.26,6.25,3.4,0,6.55-.4,9.16-1.09Z"/><path class="cls-26" d="M125.99,86.22c-.27-3.36-7.44-6.06-16.25-6.06s-15.98,2.7-16.24,6.06c.27,3.36,7.44,6.06,16.24,6.06s15.98-2.7,16.25-6.06Zm-16.25,5.28c-7.3,0-13.23-2.28-13.23-5.09s5.94-5.09,13.23-5.09,13.23,2.28,13.23,5.09-5.94,5.09-13.23,5.09Z"/><path class="cls-26" d="M108.27,85.16l-6.29,1.81v1.26l6.44-1.98c.64,.51,1.55,.9,2.73,1.16,.1,.02,.19,.04,.29,.06v1.12h2.33v-.86c.51,.02,.98,.02,1.4,.02v.85h2.33v-3.36h-2.33v1.62c-.39,.01-.88,.01-1.4-.02v-1.6h-2.33v1.15c-.55-.22-1.04-.52-1.35-.96l-1.82-.24Z"/><path class="cls-19" d="M122.98,86.03c0,2.81-5.94,5.09-13.23,5.09s-13.23-2.28-13.23-5.09,5.94-5.09,13.23-5.09,13.23,2.28,13.23,5.09m3.02,0c0-3.45-7.28-6.25-16.26-6.25s-16.26,2.8-16.26,6.25,7.28,6.25,16.26,6.25,16.26-2.8,16.26-6.25h0Z"/><path class="cls-19" d="M98.26,86.03c0-2.44,5.15-4.42,11.48-4.42s11.48,1.98,11.48,4.42-5.15,4.42-11.48,4.42-11.48-1.98-11.48-4.42Zm22.46,0c0-2.33-4.93-4.22-10.98-4.22s-10.98,1.89-10.98,4.22,4.93,4.22,10.98,4.22,10.98-1.89,10.98-4.22Z"/><path class="cls-19" d="M108.27,84.32l-6.29,1.81v1.26l6.44-1.99c.64,.52,1.55,.9,2.73,1.16,.1,.02,.19,.04,.29,.06v1.12h2.33v-.86c.51,.02,.98,.02,1.4,.02v.85h2.33v-3.36h-2.33v1.62c-.39,.01-.88,.01-1.4-.02v-1.6h-2.33v1.15c-.55-.22-1.04-.52-1.35-.96l-1.82-.24Z"/></g></g><g><path class="cls-23" d="M93.48,82.73c0,3.45,7.28,6.25,16.26,6.25s16.26-2.8,16.26-6.25v-2.95h-32.52v2.95Z"/><g><path class="cls-26" d="M108.19,81.29v7.66c.51,.02,1.02,.03,1.55,.03v-7.69h-1.55Z"/><path class="cls-26" d="M105.06,81.29v7.42c.84,.1,1.71,.17,2.6,.21v-7.64h-2.6Z"/><path class="cls-26" d="M104.42,88.64v-8.85h-10.93v2.94c0,2.74,4.57,5.06,10.93,5.91Z"/><path class="cls-26" d="M115.53,81.29v7.28c.18-.03,.36-.05,.53-.08v-7.2h-.53Z"/><path class="cls-26" d="M113.51,88.81c.18-.02,.35-.03,.53-.05v-7.47h-.53v7.52Z"/><path class="cls-26" d="M110.95,81.29v7.67c.26,0,.52-.02,.77-.03v-7.64h-.77Z"/></g><g><path class="cls-23" d="M109.74,86.03c-8.98,0-16.26-2.8-16.26-6.25s7.28-6.25,16.26-6.25,16.26,2.8,16.26,6.25-7.28,6.25-16.26,6.25Z"/><path class="cls-6" d="M118.9,84.94c-.46,.02-.93,.02-1.4,.02-8.98,0-16.26-2.8-16.26-6.25,0-2.15,2.81-4.04,7.1-5.17-8.32,.27-14.86,2.96-14.86,6.23,0,3.45,7.28,6.25,16.26,6.25,3.4,0,6.55-.4,9.16-1.09Z"/><path class="cls-26" d="M125.99,79.97c-.27-3.36-7.44-6.06-16.25-6.06s-15.98,2.7-16.24,6.06c.27,3.36,7.44,6.06,16.24,6.06s15.98-2.7,16.25-6.06Zm-16.25,5.28c-7.3,0-13.23-2.28-13.23-5.09s5.94-5.09,13.23-5.09,13.23,2.28,13.23,5.09-5.94,5.09-13.23,5.09Z"/><path class="cls-26" d="M108.27,78.91l-6.29,1.81v1.26l6.44-1.98c.64,.51,1.55,.9,2.73,1.16,.1,.02,.19,.04,.29,.06v1.12h2.33v-.86c.51,.02,.98,.02,1.4,.02v.85h2.33v-3.36h-2.33v1.62c-.39,.01-.88,.01-1.4-.02v-1.6h-2.33v1.15c-.55-.22-1.04-.52-1.35-.96l-1.82-.24Z"/><path class="cls-19" d="M122.98,79.78c0,2.81-5.94,5.09-13.23,5.09s-13.23-2.28-13.23-5.09,5.94-5.09,13.23-5.09,13.23,2.28,13.23,5.09m3.02,0c0-3.45-7.28-6.25-16.26-6.25s-16.26,2.8-16.26,6.25,7.28,6.25,16.26,6.25,16.26-2.8,16.26-6.25h0Z"/><path class="cls-19" d="M98.26,79.78c0-2.44,5.15-4.42,11.48-4.42s11.48,1.98,11.48,4.42-5.15,4.42-11.48,4.42-11.48-1.98-11.48-4.42Zm22.46,0c0-2.33-4.93-4.22-10.98-4.22s-10.98,1.89-10.98,4.22,4.93,4.22,10.98,4.22,10.98-1.89,10.98-4.22Z"/><path class="cls-19" d="M108.27,78.07l-6.29,1.81v1.26l6.44-1.99c.64,.52,1.55,.9,2.73,1.16,.1,.02,.19,.04,.29,.06v1.12h2.33v-.86c.51,.02,.98,.02,1.4,.02v.85h2.33v-3.36h-2.33v1.62c-.39,.01-.88,.01-1.4-.02v-1.61h-2.33v1.15c-.55-.22-1.04-.52-1.35-.96l-1.82-.24Z"/></g></g><g><path class="cls-23" d="M78.79,126.63c0,3.45,7.28,6.25,16.26,6.25s16.26-2.8,16.26-6.25v-2.95h-32.52v2.95Z"/><g><path class="cls-26" d="M93.5,125.2v7.66c.51,.02,1.03,.03,1.55,.03v-7.69h-1.55Z"/><path class="cls-26" d="M90.37,125.2v7.42c.84,.1,1.71,.17,2.6,.21v-7.64h-2.6Z"/><path class="cls-26" d="M89.72,132.54v-8.85h-10.93v2.94c0,2.74,4.57,5.06,10.93,5.91Z"/><path class="cls-26" d="M100.84,125.2v7.28c.18-.03,.36-.05,.53-.08v-7.2h-.53Z"/><path class="cls-26" d="M98.82,132.72c.18-.02,.35-.03,.53-.05v-7.47h-.53v7.52Z"/><path class="cls-26" d="M96.25,125.2v7.67c.26,0,.52-.02,.77-.03v-7.64h-.77Z"/></g><g><path class="cls-23" d="M95.05,129.93c-8.98,0-16.26-2.8-16.26-6.25s7.28-6.25,16.26-6.25,16.26,2.8,16.26,6.25-7.28,6.25-16.26,6.25Z"/><path class="cls-15" d="M104.21,128.85c-.46,.02-.93,.02-1.4,.02-8.98,0-16.26-2.8-16.26-6.25,0-2.15,2.81-4.04,7.1-5.17-8.32,.27-14.86,2.96-14.86,6.23,0,3.45,7.28,6.25,16.26,6.25,3.4,0,6.55-.4,9.16-1.09Z"/><path class="cls-26" d="M111.29,123.88c-.27-3.36-7.44-6.06-16.25-6.06s-15.98,2.7-16.24,6.06c.27,3.36,7.44,6.06,16.24,6.06s15.98-2.7,16.25-6.06Zm-16.25,5.28c-7.3,0-13.23-2.28-13.23-5.09s5.94-5.09,13.23-5.09,13.23,2.28,13.23,5.09-5.94,5.09-13.23,5.09Z"/><path class="cls-26" d="M93.57,122.81l-6.29,1.81v1.26l6.44-1.98c.64,.51,1.55,.9,2.73,1.16,.1,.02,.19,.04,.29,.06v1.12h2.33v-.86c.51,.02,.98,.02,1.4,.02v.85h2.33v-3.36h-2.33v1.62c-.39,.01-.88,.01-1.4-.02v-1.6h-2.33v1.15c-.55-.22-1.04-.52-1.35-.96l-1.82-.24Z"/><path class="cls-19" d="M108.28,123.68c0,2.81-5.94,5.09-13.23,5.09s-13.23-2.28-13.23-5.09,5.94-5.09,13.23-5.09,13.23,2.28,13.23,5.09m3.02,0c0-3.45-7.28-6.25-16.26-6.25s-16.26,2.8-16.26,6.25,7.28,6.25,16.26,6.25,16.26-2.8,16.26-6.25h0Z"/><path class="cls-19" d="M83.56,123.68c0-2.44,5.15-4.42,11.48-4.42s11.48,1.98,11.48,4.42-5.15,4.42-11.48,4.42-11.48-1.98-11.48-4.42Zm22.46,0c0-2.33-4.93-4.22-10.98-4.22s-10.98,1.89-10.98,4.22,4.93,4.22,10.98,4.22,10.98-1.89,10.98-4.22Z"/><path class="cls-19" d="M93.57,121.97l-6.29,1.81v1.26l6.44-1.98c.64,.52,1.55,.9,2.73,1.16,.1,.02,.19,.04,.29,.06v1.12h2.33v-.86c.51,.02,.98,.02,1.4,.02v.85h2.33v-3.36h-2.33v1.62c-.39,.01-.88,.01-1.4-.02v-1.6h-2.33v1.15c-.55-.22-1.04-.52-1.35-.96l-1.82-.24Z"/></g></g><g><path class="cls-23" d="M78.79,120.38c0,3.45,7.28,6.25,16.26,6.25s16.26-2.8,16.26-6.25v-2.95h-32.52v2.95Z"/><g><path class="cls-26" d="M93.5,118.95v7.66c.51,.02,1.03,.03,1.55,.03v-7.69h-1.55Z"/><path class="cls-26" d="M90.37,118.95v7.42c.84,.1,1.71,.17,2.6,.21v-7.64h-2.6Z"/><path class="cls-26" d="M89.72,126.29v-8.85h-10.93v2.94c0,2.73,4.57,5.06,10.93,5.91Z"/><path class="cls-26" d="M100.84,118.95v7.28c.18-.03,.36-.05,.53-.08v-7.2h-.53Z"/><path class="cls-26" d="M98.82,126.46c.18-.02,.35-.03,.53-.05v-7.47h-.53v7.52Z"/><path class="cls-26" d="M96.25,118.95v7.67c.26,0,.52-.02,.77-.03v-7.64h-.77Z"/></g><g><path class="cls-23" d="M95.05,123.68c-8.98,0-16.26-2.8-16.26-6.25s7.28-6.25,16.26-6.25,16.26,2.8,16.26,6.25-7.28,6.25-16.26,6.25Z"/><path class="cls-18" d="M104.21,122.59c-.46,.02-.93,.02-1.4,.02-8.98,0-16.26-2.8-16.26-6.25,0-2.15,2.81-4.04,7.1-5.17-8.32,.27-14.86,2.96-14.86,6.23,0,3.45,7.28,6.25,16.26,6.25,3.4,0,6.55-.4,9.16-1.09Z"/><path class="cls-26" d="M111.29,117.62c-.27-3.36-7.44-6.06-16.25-6.06s-15.98,2.7-16.24,6.06c.27,3.36,7.44,6.06,16.24,6.06s15.98-2.7,16.25-6.06Zm-16.25,5.28c-7.3,0-13.23-2.28-13.23-5.09s5.94-5.09,13.23-5.09,13.23,2.28,13.23,5.09-5.94,5.09-13.23,5.09Z"/><path class="cls-26" d="M93.57,116.56l-6.29,1.81v1.26l6.44-1.98c.64,.51,1.55,.9,2.73,1.16,.1,.02,.19,.04,.29,.06v1.12h2.33v-.86c.51,.02,.98,.02,1.4,.02v.85h2.33v-3.36h-2.33v1.62c-.39,.01-.88,.01-1.4-.02v-1.6h-2.33v1.15c-.55-.22-1.04-.52-1.35-.96l-1.82-.24Z"/><path class="cls-19" d="M108.28,117.43c0,2.81-5.94,5.09-13.23,5.09s-13.23-2.28-13.23-5.09,5.94-5.09,13.23-5.09,13.23,2.28,13.23,5.09m3.02,0c0-3.45-7.28-6.25-16.26-6.25s-16.26,2.8-16.26,6.25,7.28,6.25,16.26,6.25,16.26-2.8,16.26-6.25h0Z"/><path class="cls-19" d="M83.56,117.43c0-2.44,5.15-4.42,11.48-4.42s11.48,1.98,11.48,4.42-5.15,4.42-11.48,4.42-11.48-1.98-11.48-4.42Zm22.46,0c0-2.33-4.93-4.22-10.98-4.22s-10.98,1.89-10.98,4.22,4.93,4.22,10.98,4.22,10.98-1.89,10.98-4.22Z"/><path class="cls-19" d="M93.57,115.72l-6.29,1.81v1.26l6.44-1.99c.64,.52,1.55,.9,2.73,1.16,.1,.02,.19,.04,.29,.06v1.12h2.33v-.86c.51,.02,.98,.02,1.4,.02v.85h2.33v-3.36h-2.33v1.62c-.39,.01-.88,.01-1.4-.02v-1.6h-2.33v1.15c-.55-.22-1.04-.52-1.35-.96l-1.82-.24Z"/></g></g><g><path class="cls-23" d="M78.79,114.13c0,3.45,7.28,6.25,16.26,6.25s16.26-2.8,16.26-6.25v-2.95h-32.52v2.95Z"/><g><path class="cls-26" d="M93.5,112.69v7.66c.51,.02,1.03,.03,1.55,.03v-7.69h-1.55Z"/><path class="cls-26" d="M90.37,112.69v7.42c.84,.1,1.71,.17,2.6,.21v-7.64h-2.6Z"/><path class="cls-26" d="M89.72,120.04v-8.85h-10.93v2.94c0,2.73,4.57,5.06,10.93,5.91Z"/><path class="cls-26" d="M100.84,112.69v7.28c.18-.03,.36-.05,.53-.08v-7.2h-.53Z"/><path class="cls-26" d="M98.82,120.21c.18-.02,.35-.03,.53-.05v-7.47h-.53v7.52Z"/><path class="cls-26" d="M96.25,112.69v7.67c.26,0,.52-.02,.77-.03v-7.64h-.77Z"/></g><g><path class="cls-23" d="M95.05,117.43c-8.98,0-16.26-2.8-16.26-6.25s7.28-6.25,16.26-6.25,16.26,2.8,16.26,6.25-7.28,6.25-16.26,6.25Z"/><path class="cls-8" d="M104.21,116.34c-.46,.02-.93,.02-1.4,.02-8.98,0-16.26-2.8-16.26-6.25,0-2.15,2.81-4.04,7.1-5.17-8.32,.27-14.86,2.96-14.86,6.23,0,3.45,7.28,6.25,16.26,6.25,3.4,0,6.55-.4,9.16-1.09Z"/><path class="cls-26" d="M111.29,111.37c-.27-3.36-7.44-6.06-16.25-6.06s-15.98,2.7-16.24,6.06c.27,3.36,7.44,6.06,16.24,6.06s15.98-2.7,16.25-6.06Zm-16.25,5.28c-7.3,0-13.23-2.28-13.23-5.09s5.94-5.09,13.23-5.09,13.23,2.28,13.23,5.09-5.94,5.09-13.23,5.09Z"/><path class="cls-26" d="M93.57,110.31l-6.29,1.81v1.26l6.44-1.98c.64,.51,1.55,.9,2.73,1.16,.1,.02,.19,.04,.29,.06v1.12h2.33v-.86c.51,.02,.98,.02,1.4,.02v.85h2.33v-3.36h-2.33v1.62c-.39,.01-.88,.01-1.4-.02v-1.6h-2.33v1.15c-.55-.22-1.04-.52-1.35-.96l-1.82-.24Z"/><path class="cls-19" d="M108.28,111.18c0,2.81-5.94,5.09-13.23,5.09s-13.23-2.28-13.23-5.09,5.94-5.09,13.23-5.09,13.23,2.28,13.23,5.09m3.02,0c0-3.45-7.28-6.25-16.26-6.25s-16.26,2.8-16.26,6.25,7.28,6.25,16.26,6.25,16.26-2.8,16.26-6.25h0Z"/><path class="cls-19" d="M83.56,111.18c0-2.44,5.15-4.42,11.48-4.42s11.48,1.98,11.48,4.42-5.15,4.42-11.48,4.42-11.48-1.98-11.48-4.42Zm22.46,0c0-2.33-4.93-4.22-10.98-4.22s-10.98,1.89-10.98,4.22,4.93,4.22,10.98,4.22,10.98-1.89,10.98-4.22Z"/><path class="cls-19" d="M93.57,109.47l-6.29,1.81v1.26l6.44-1.99c.64,.52,1.55,.9,2.73,1.16,.1,.02,.19,.04,.29,.06v1.12h2.33v-.86c.51,.02,.98,.02,1.4,.02v.85h2.33v-3.36h-2.33v1.62c-.39,.01-.88,.01-1.4-.02v-1.6h-2.33v1.15c-.55-.22-1.04-.52-1.35-.96l-1.82-.24Z"/></g></g><g><path class="cls-23" d="M78.79,107.88c0,3.45,7.28,6.25,16.26,6.25s16.26-2.8,16.26-6.25v-2.95h-32.52v2.95Z"/><g><path class="cls-26" d="M93.5,106.44v7.66c.51,.02,1.03,.03,1.55,.03v-7.69h-1.55Z"/><path class="cls-26" d="M90.37,106.44v7.42c.84,.1,1.71,.17,2.6,.21v-7.64h-2.6Z"/><path class="cls-26" d="M89.72,113.78v-8.85h-10.93v2.94c0,2.73,4.57,5.06,10.93,5.91Z"/><path class="cls-26" d="M100.84,106.44v7.28c.18-.03,.36-.05,.53-.08v-7.2h-.53Z"/><path class="cls-26" d="M98.82,113.96c.18-.02,.35-.03,.53-.05v-7.47h-.53v7.52Z"/><path class="cls-26" d="M96.25,106.44v7.67c.26,0,.52-.02,.77-.03v-7.64h-.77Z"/></g><g><path class="cls-23" d="M95.05,111.18c-8.98,0-16.26-2.8-16.26-6.25s7.28-6.25,16.26-6.25,16.26,2.8,16.26,6.25-7.28,6.25-16.26,6.25Z"/><path class="cls-5" d="M104.21,110.09c-.46,.02-.93,.02-1.4,.02-8.98,0-16.26-2.8-16.26-6.25,0-2.15,2.81-4.04,7.1-5.17-8.32,.27-14.86,2.96-14.86,6.23,0,3.45,7.28,6.25,16.26,6.25,3.4,0,6.55-.4,9.16-1.09Z"/><path class="cls-26" d="M111.29,105.12c-.27-3.36-7.44-6.06-16.25-6.06s-15.98,2.7-16.24,6.06c.27,3.36,7.44,6.06,16.24,6.06s15.98-2.7,16.25-6.06Zm-16.25,5.28c-7.3,0-13.23-2.28-13.23-5.09s5.94-5.09,13.23-5.09,13.23,2.28,13.23,5.09-5.94,5.09-13.23,5.09Z"/><path class="cls-26" d="M93.57,104.06l-6.29,1.81v1.26l6.44-1.98c.64,.51,1.55,.9,2.73,1.16,.1,.02,.19,.04,.29,.06v1.12h2.33v-.86c.51,.02,.98,.02,1.4,.02v.85h2.33v-3.36h-2.33v1.62c-.39,.01-.88,.01-1.4-.02v-1.6h-2.33v1.15c-.55-.22-1.04-.52-1.35-.96l-1.82-.24Z"/><path class="cls-19" d="M108.28,104.92c0,2.81-5.94,5.09-13.23,5.09s-13.23-2.28-13.23-5.09,5.94-5.09,13.23-5.09,13.23,2.28,13.23,5.09m3.02,0c0-3.45-7.28-6.25-16.26-6.25s-16.26,2.8-16.26,6.25,7.28,6.25,16.26,6.25,16.26-2.8,16.26-6.25h0Z"/><path class="cls-19" d="M83.56,104.92c0-2.44,5.15-4.42,11.48-4.42s11.48,1.98,11.48,4.42-5.15,4.42-11.48,4.42-11.48-1.98-11.48-4.42Zm22.46,0c0-2.33-4.93-4.22-10.98-4.22s-10.98,1.89-10.98,4.22,4.93,4.22,10.98,4.22,10.98-1.89,10.98-4.22Z"/><path class="cls-19" d="M93.57,103.21l-6.29,1.81v1.26l6.44-1.99c.64,.52,1.55,.9,2.73,1.16,.1,.02,.19,.04,.29,.06v1.12h2.33v-.86c.51,.02,.98,.02,1.4,.02v.85h2.33v-3.36h-2.33v1.62c-.39,.01-.88,.01-1.4-.02v-1.6h-2.33v1.15c-.55-.22-1.04-.52-1.35-.96l-1.82-.24Z"/></g></g><g><path class="cls-23" d="M78.79,101.62c0,3.45,7.28,6.25,16.26,6.25s16.26-2.8,16.26-6.25v-2.95h-32.52v2.95Z"/><g><path class="cls-26" d="M93.5,100.19v7.66c.51,.02,1.03,.03,1.55,.03v-7.69h-1.55Z"/><path class="cls-26" d="M90.37,100.19v7.42c.84,.1,1.71,.17,2.6,.21v-7.64h-2.6Z"/><path class="cls-26" d="M89.72,107.53v-8.85h-10.93v2.94c0,2.74,4.57,5.06,10.93,5.91Z"/><path class="cls-26" d="M100.84,100.19v7.28c.18-.03,.36-.05,.53-.08v-7.2h-.53Z"/><path class="cls-26" d="M98.82,107.71c.18-.02,.35-.03,.53-.05v-7.47h-.53v7.52Z"/><path class="cls-26" d="M96.25,100.19v7.67c.26,0,.52-.02,.77-.03v-7.64h-.77Z"/></g><g><path class="cls-23" d="M95.05,104.92c-8.98,0-16.26-2.8-16.26-6.25s7.28-6.25,16.26-6.25,16.26,2.8,16.26,6.25-7.28,6.25-16.26,6.25Z"/><path class="cls-7" d="M104.21,103.84c-.46,.02-.93,.02-1.4,.02-8.98,0-16.26-2.8-16.26-6.25,0-2.15,2.81-4.04,7.1-5.17-8.32,.27-14.86,2.96-14.86,6.23,0,3.45,7.28,6.25,16.26,6.25,3.4,0,6.55-.4,9.16-1.09Z"/><path class="cls-26" d="M111.29,98.86c-.27-3.36-7.44-6.06-16.25-6.06s-15.98,2.7-16.24,6.06c.27,3.36,7.44,6.06,16.24,6.06s15.98-2.7,16.25-6.06Zm-16.25,5.28c-7.3,0-13.23-2.28-13.23-5.09s5.94-5.09,13.23-5.09,13.23,2.28,13.23,5.09-5.94,5.09-13.23,5.09Z"/><path class="cls-26" d="M93.57,97.8l-6.29,1.81v1.26l6.44-1.98c.64,.51,1.55,.9,2.73,1.16,.1,.02,.19,.04,.29,.06v1.12h2.33v-.86c.51,.02,.98,.02,1.4,.02v.85h2.33v-3.36h-2.33v1.62c-.39,.01-.88,.01-1.4-.02v-1.6h-2.33v1.15c-.55-.22-1.04-.52-1.35-.96l-1.82-.24Z"/><path class="cls-19" d="M108.28,98.67c0,2.81-5.94,5.09-13.23,5.09s-13.23-2.28-13.23-5.09,5.94-5.09,13.23-5.09,13.23,2.28,13.23,5.09m3.02,0c0-3.45-7.28-6.25-16.26-6.25s-16.26,2.8-16.26,6.25,7.28,6.25,16.26,6.25,16.26-2.8,16.26-6.25h0Z"/><path class="cls-19" d="M83.56,98.67c0-2.44,5.15-4.42,11.48-4.42s11.48,1.98,11.48,4.42-5.15,4.42-11.48,4.42-11.48-1.98-11.48-4.42Zm22.46,0c0-2.33-4.93-4.22-10.98-4.22s-10.98,1.89-10.98,4.22,4.93,4.22,10.98,4.22,10.98-1.89,10.98-4.22Z"/><path class="cls-19" d="M93.57,96.96l-6.29,1.81v1.26l6.44-1.99c.64,.52,1.55,.9,2.73,1.16,.1,.02,.19,.04,.29,.06v1.12h2.33v-.86c.51,.02,.98,.02,1.4,.02v.85h2.33v-3.36h-2.33v1.62c-.39,.01-.88,.01-1.4-.02v-1.61h-2.33v1.15c-.55-.22-1.04-.52-1.35-.96l-1.82-.24Z"/></g></g><path class="cls-3" d="M61.29,100.14c-2.44-.6-5.46,2.62-7.75,7.77v.02c.03,.07,.05,.14,.07,.2,.01,.03,.02,.06,.03,.09,.04,.09,.08,.19,.13,.28,0,.02,.02,.03,.03,.05,.04,.08,.09,.15,.14,.23,.02,.03,.04,.07,.07,.1l.02,.02s-.06,.08-.09,.13c-.03,.05-.07,.11-.1,.16-.03,.05-.05,.09-.08,.13-.03,.06-.05,.11-.08,.17-.02,.04-.04,.09-.06,.13-.02,.06-.04,.12-.06,.18-.01,.04-.03,.08-.04,.12-.02,.07-.03,.14-.04,.21,0,.03-.02,.07-.02,.1-.01,.1-.02,.21-.02,.31h0v2.95c0,.1,0,.2,.02,.29,0,.03,0,.06,.01,.09,.01,.07,.02,.14,.04,.2,0,.03,.02,.07,.03,.1,.02,.07,.04,.14,.07,.2,.01,.03,.02,.06,.03,.09,.04,.09,.08,.19,.13,.28,0,.02,.02,.03,.03,.05,.04,.08,.09,.15,.14,.23,.02,.03,.04,.07,.07,.1l.02,.02s-.06,.08-.09,.12c-.04,.05-.07,.11-.1,.16-.03,.04-.05,.09-.08,.13-.03,.06-.05,.11-.08,.17-.02,.04-.04,.09-.06,.13-.02,.06-.04,.12-.06,.18-.01,.04-.03,.08-.04,.12-.02,.07-.03,.14-.04,.21,0,.03-.01,.07-.02,.1-.01,.1-.02,.21-.02,.31h0v2.95c0,.1,0,.2,.02,.29,0,.03,0,.06,.01,.09,.01,.07,.02,.14,.04,.2,0,.03,.02,.07,.03,.1,.02,.07,.04,.14,.07,.2,.01,.03,.02,.06,.03,.09,.04,.09,.08,.19,.13,.28,0,.02,.02,.03,.03,.05,.04,.08,.09,.15,.14,.23,.02,.03,.04,.06,.07,.1,.04,.06,.08,.12,.13,.18,.03,.03,.05,.07,.08,.1,.05,.06,.1,.12,.16,.18,.03,.03,.05,.06,.08,.09,.08,.08,.16,.17,.25,.25,.03,.03,.07,.06,.1,.09,.06,.05,.13,.11,.19,.16,.05,.04,.09,.07,.14,.11,.06,.05,.12,.09,.18,.13,.05,.04,.1,.08,.16,.11,.06,.04,.13,.09,.19,.13,.06,.04,.11,.07,.17,.11,.11,.07,.22,.14,.34,.21,.07,.04,.15,.08,.22,.12,.06,.03,.12,.06,.18,.1,.08,.04,.16,.08,.25,.13,.06,.03,.11,.06,.17,.08,.09,.04,.18,.09,.27,.13,.04,.02,.09,.04,.13,.06,.34,.15,.71,.3,1.09,.44,.04,.01,.08,.03,.12,.04,.12,.04,.25,.09,.38,.13,.04,.01,.07,.02,.11,.04,.54,.18,1.11,.34,1.7,.49,1.06-2.17,1.99-4.74,2.69-7.55,2.14-8.72,1.16-16.46-2.19-17.28Z"/><g><path class="cls-23" d="M48.28,128.54c3.21,1.27,8.49-4.46,11.8-12.81,3.31-8.35,3.39-16.15,.18-17.42l-2.75-1.09-11.98,30.23,2.75,1.09Z"/><g><path class="cls-26" d="M52.36,114.34l7.12,2.82c.2-.47,.4-.94,.6-1.43l-7.15-2.83-.57,1.44Z"/><path class="cls-26" d="M51.21,117.25l6.9,2.73c.4-.74,.79-1.53,1.15-2.34l-7.1-2.81-.96,2.42Z"/><path class="cls-26" d="M57.8,120.56l-8.23-3.26-4.03,10.16,2.73,1.08c2.54,1.01,6.39-2.38,9.52-7.99Z"/><path class="cls-26" d="M55.07,107.52l6.77,2.68c.04-.17,.08-.35,.12-.52l-6.69-2.65-.19,.49Z"/><path class="cls-26" d="M61.31,112.17c.05-.17,.1-.34,.15-.51l-6.94-2.75-.19,.49,6.99,2.77Z"/><path class="cls-26" d="M53.38,111.78l7.13,2.83c.09-.24,.17-.49,.26-.73l-7.1-2.81-.28,.72Z"/></g><g><path class="cls-23" d="M57.33,114.64c-3.31,8.35-8.59,14.08-11.8,12.81-3.21-1.27-3.13-9.07,.18-17.42,3.31-8.35,8.59-14.08,11.8-12.81,3.21,1.27,3.13,9.07-.18,17.42Z"/><path class="cls-13" d="M59.7,105.73c-.16,.43-.32,.87-.49,1.31-3.31,8.35-8.59,14.08-11.8,12.81-2-.79-2.72-4.1-2.19-8.5-2.81,7.84-2.73,14.9,.32,16.11,3.21,1.27,8.49-4.46,11.8-12.81,1.25-3.16,2.04-6.24,2.36-8.92Z"/><path class="cls-26" d="M57.69,97.31c-3.23-.99-8.37,4.68-11.62,12.87-3.25,8.19-3.38,15.85-.35,17.33,3.22,.99,8.37-4.68,11.62-12.87,3.25-8.19,3.38-15.85,.35-17.34Zm-1.07,17.05c-2.69,6.78-7,11.46-9.61,10.43-2.61-1.03-2.54-7.39,.14-14.18s7-11.46,9.61-10.43c2.61,1.03,2.54,7.39-.14,14.18Z"/><path class="cls-26" d="M50.17,113.39l-.64,6.51,1.17,.46,.53-6.71c.71-.4,1.41-1.11,2.09-2.11,.06-.08,.11-.17,.16-.25l1.04,.41,.86-2.17-.8-.32c.21-.46,.39-.91,.53-1.29l.79,.31,.86-2.17-3.13-1.24-.86,2.17,1.51,.6c-.13,.37-.31,.82-.53,1.29l-1.49-.59-.86,2.17,1.06,.42c-.41,.44-.87,.77-1.39,.9l-.9,1.61Z"/><path class="cls-19" d="M56.4,100.04c2.61,1.03,2.54,7.39-.14,14.18-2.69,6.78-7,11.46-9.61,10.43-2.61-1.03-2.54-7.39,.14-14.18,2.69-6.78,7-11.46,9.61-10.43m1.11-2.81c-3.21-1.27-8.49,4.46-11.8,12.81-3.31,8.35-3.39,16.15-.18,17.42,3.21,1.27,8.49-4.46,11.8-12.81,3.31-8.35,3.39-16.15,.18-17.42h0Z"/><path class="cls-19" d="M47.29,123.02c-2.26-.9-2.21-6.42,.12-12.3,2.33-5.89,6.07-9.95,8.34-9.05,2.26,.9,2.21,6.42-.13,12.3-2.33,5.89-6.07,9.95-8.34,9.05Zm8.28-20.88c-2.16-.86-5.74,3.02-7.97,8.65-2.23,5.63-2.28,10.91-.12,11.76,2.16,.86,5.74-3.02,7.97-8.65,2.23-5.63,2.28-10.91,.12-11.76Z"/><path class="cls-19" d="M49.39,113.08l-.64,6.51,1.17,.46,.53-6.71c.71-.4,1.41-1.11,2.09-2.11,.05-.08,.11-.17,.16-.25l1.04,.41,.86-2.17-.8-.32c.21-.47,.38-.91,.53-1.29l.79,.31,.86-2.17-3.13-1.24-.86,2.17,1.51,.6c-.13,.37-.31,.82-.53,1.29l-1.49-.59-.86,2.17,1.06,.42c-.41,.44-.87,.77-1.39,.9l-.89,1.61Z"/></g></g><path class="cls-3" d="M101.37,132.4c5.84-.95,9.94-3.17,9.94-5.76v-2.95c0-.57-.2-1.12-.58-1.65,.37-.53,.58-1.08,.58-1.65v-2.95c0-.57-.2-1.12-.58-1.65,.37-.53,.58-1.08,.58-1.65v-2.95c0-.57-.2-1.12-.58-1.65,.37-.53,.58-1.08,.58-1.65v-.04c-3.34-1.17-9.56,3.86-14.31,11.71-2.93,4.84-4.65,9.67-4.94,13.23,.3,.02,.6,.04,.91,.06h0c.68,.03,1.38,.05,2.08,.05,.67,0,1.32-.02,1.97-.05h0c1.41-.07,2.76-.2,4.04-.4,.1-.02,.21-.03,.31-.05Z"/><g><path class="cls-23" d="M120.15,138.25c-3.21,1.27-8.49-4.46-11.8-12.81-3.31-8.35-3.39-16.15-.18-17.42l2.75-1.09,11.98,30.23-2.75,1.09Z"/><g><path class="cls-26" d="M116.06,124.05l-7.12,2.82c-.2-.47-.4-.94-.6-1.43l7.15-2.83,.57,1.44Z"/><path class="cls-26" d="M117.22,126.96l-6.9,2.73c-.4-.74-.79-1.53-1.15-2.34l7.1-2.81,.96,2.42Z"/><path class="cls-26" d="M110.63,130.26l8.23-3.26,4.03,10.16-2.73,1.08c-2.54,1.01-6.39-2.38-9.52-7.99Z"/><path class="cls-26" d="M113.36,117.22l-6.77,2.68c-.04-.17-.08-.35-.12-.52l6.69-2.65,.19,.49Z"/><path class="cls-26" d="M107.12,121.87c-.05-.17-.1-.34-.15-.51l6.94-2.75,.19,.49-6.99,2.77Z"/><path class="cls-26" d="M115.05,121.49l-7.13,2.83c-.09-.24-.17-.49-.26-.73l7.1-2.81,.28,.72Z"/></g><g><path class="cls-23" d="M111.09,124.35c3.31,8.35,8.59,14.08,11.8,12.81,3.21-1.27,3.13-9.07-.18-17.42-3.31-8.35-8.59-14.08-11.8-12.81-3.21,1.27-3.13,9.07,.18,17.42Z"/><path class="cls-9" d="M108.73,115.43c.16,.43,.32,.87,.49,1.31,3.31,8.35,8.59,14.08,11.8,12.81,2-.79,2.72-4.1,2.19-8.5,2.81,7.84,2.73,14.9-.32,16.11-3.21,1.27-8.49-4.46-11.8-12.81-1.25-3.16-2.04-6.24-2.36-8.92Z"/><path class="cls-26" d="M111.09,124.35c3.25,8.19,8.39,13.86,11.62,12.87,3.03-1.49,2.89-9.14-.35-17.33-3.25-8.19-8.39-13.86-11.62-12.87-3.03,1.49-2.89,9.14,.35,17.34Zm.58-14.46c2.61-1.03,6.92,3.64,9.61,10.43,2.69,6.78,2.75,13.14,.14,14.18-2.61,1.03-6.92-3.64-9.61-10.43-2.69-6.78-2.75-13.14-.14-14.18Z"/><path class="cls-26" d="M118.26,123.1l.64,6.51-1.17,.46-.53-6.71c-.71-.4-1.41-1.11-2.09-2.11-.05-.08-.11-.17-.16-.25l-1.04,.41-.86-2.17,.8-.32c-.21-.46-.39-.91-.53-1.29l-.79,.31-.86-2.17,3.13-1.24,.86,2.17-1.51,.6c.13,.37,.31,.82,.53,1.29l1.49-.59,.86,2.17-1.06,.42c.41,.44,.87,.77,1.39,.9l.9,1.61Z"/><path class="cls-19" d="M112.03,109.74c2.61-1.03,6.92,3.64,9.61,10.43,2.69,6.78,2.75,13.14,.14,14.18-2.61,1.03-6.92-3.64-9.61-10.43-2.69-6.78-2.75-13.14-.14-14.18m-1.11-2.81c-3.21,1.27-3.13,9.07,.18,17.42,3.31,8.35,8.59,14.08,11.8,12.81,3.21-1.27,3.13-9.07-.18-17.42-3.31-8.35-8.59-14.08-11.8-12.81h0Z"/><path class="cls-19" d="M112.8,123.68c-2.33-5.89-2.39-11.41-.13-12.3,2.26-.9,6,3.16,8.34,9.05,2.33,5.89,2.39,11.41,.12,12.3-2.26,.9-6-3.16-8.34-9.05Zm.18-.07c2.23,5.63,5.81,9.51,7.97,8.65,2.17-.86,2.11-6.14-.12-11.76-2.23-5.63-5.81-9.51-7.97-8.65-2.16,.86-2.11,6.14,.12,11.76Z"/><path class="cls-19" d="M119.04,122.79l.64,6.51-1.17,.46-.53-6.71c-.71-.4-1.41-1.11-2.09-2.11-.05-.08-.11-.17-.16-.25l-1.04,.41-.86-2.17,.8-.32c-.21-.47-.38-.91-.53-1.29l-.79,.31-.86-2.17,3.13-1.24,.86,2.17-1.51,.6c.13,.37,.31,.82,.53,1.29l1.49-.59,.86,2.17-1.06,.42c.41,.44,.87,.77,1.39,.9l.89,1.61Z"/></g></g></g><polygon class="cls-1" points="59.93 104.07 59.26 102.39 58.6 104.07 56.92 104.73 58.6 105.39 59.26 107.07 59.93 105.39 61.61 104.73 59.93 104.07"/><polygon class="cls-1" points="107.63 102.29 106.97 100.61 106.31 102.29 104.63 102.95 106.31 103.61 106.97 105.29 107.63 103.61 109.31 102.95 107.63 102.29"/><polygon class="cls-1" points="123.27 83.55 122.61 81.87 121.95 83.55 120.27 84.21 121.95 84.87 122.61 86.56 123.27 84.87 124.95 84.21 123.27 83.55"/><polygon class="cls-1" points="83.21 114.48 82.55 112.8 81.89 114.48 80.2 115.14 81.89 115.81 82.55 117.49 83.21 115.81 84.89 115.14 83.21 114.48"/></g><path class="cls-24" d="M59.04,33.52s-8.99,6.57-11.81,11.58c0,0,12.02-8.91,18.44-11.58h-6.63Z"/><path class="cls-24" d="M61.74,33.52s6.93,3.67,10.32,11.58c0,0-.44-6.68-4.05-11.58h-6.27Z"/><path class="cls-24" d="M75.5,50.04s6.09,11.42,9.39,23.88c0,0,.72-14.14-9.39-23.88Z"/><path class="cls-22" d="M83.56,51.48s6.09,11.42,9.39,23.88c0,0,.72-14.14-9.39-23.88Z"/><path class="cls-22" d="M74.01,55.75s10.21-1.67,19.49,.73c0,0-9.3-4.82-19.49-.73Z"/><path class="cls-22" d="M76.24,61.25s10.21-1.67,19.49,.73c0,0-9.3-4.82-19.49-.73Z"/><g><path class="cls-24" d="M76.24,61.25s3.43-.56,8.12-.56c-.15-.35-.3-.7-.46-1.06-2.39,.1-4.99,.55-7.66,1.62Z"/><path class="cls-24" d="M81.82,55.18c-.17-.35-.35-.7-.53-1.05-2.29,.13-4.75,.59-7.28,1.61,0,0,3.28-.53,7.81-.56Z"/></g><path class="cls-24" d="M48.71,5.67l13.02,24.36V4.05c-.25,.1-.5,.21-.75,.31l-.14,.05c-.25,.1-.51,.2-.76,.3h-.03c-.26,.11-.53,.21-.79,.3-.05,.02-.11,.04-.16,.06-.21,.07-.42,.14-.62,.21-.07,.02-.14,.05-.21,.07-.24,.08-.48,.15-.72,.22-.02,0-.04,.01-.06,.02-.26,.07-.51,.14-.76,.19-.07,.02-.14,.03-.21,.05-.19,.04-.38,.08-.57,.12-.07,.01-.15,.03-.22,.04-.25,.04-.5,.08-.75,.1-2.11,.22-4.22,0-6.26-.42Z"/><path class="cls-24" d="M45.32,4.84c-.27-.08-.57-.17-.9-.27l10.81,16.56-7.9-15.77c-.68-.16-1.35-.34-2-.52Z"/><path class="cls-24" d="M103.23,4.2c2.01-1.54,2.43-3.78-1.17-4.14-6.3-.64-10.47,4.79-16.73,5.23l-14.41,28.24h5.59L103.23,4.2Z"/><path class="cls-24" d="M72.65,26.56l10.67-21.31c-2.19-.24-3.62-1.23-5.02-2.28l-5.64,23.6Z"/><path class="cls-21" d="M55.69,94.07c-11.65,0-21.12-9.25-21.12-20.63s9.48-20.63,21.12-20.63,21.12,9.25,21.12,20.63-9.48,20.63-21.12,20.63Zm0-38.61c-10.19,0-18.48,8.07-18.48,17.98s8.29,17.98,18.48,17.98,18.48-8.07,18.48-17.98-8.29-17.98-18.48-17.98Z"/><path class="cls-21" d="M48.19,75.93l7.94,10.62h5.51l-8.72-10.87c2.26-1.07,3.97-2.62,5.1-4.62,.09-.16,.17-.33,.25-.49h4.92v-3.94h-3.78c.1-.86,.11-1.66,.07-2.36h3.71v-3.94h-14.77v3.94h7.13c.06,.66,.06,1.48-.08,2.36h-7.05v3.94h5.03c-.95,.94-2.3,1.75-4.21,2.28l-1.05,3.08Z"/></g><g><path class="cls-23" d="M81.83,32.51c-.12,0-.24-.01-.37-.04-9.85-2.18-28.08,0-28.26,.03-1.04,.13-1.97-.72-2.08-1.88-.11-1.17,.64-2.22,1.67-2.34,.77-.09,18.97-2.27,29.39,.03,1.02,.23,1.69,1.34,1.49,2.5-.18,1.01-.97,1.72-1.85,1.72Z"/><g><path class="cls-25" d="M65.48,27.32c-.32,.01-.63,.02-.94,.04-.57,.9-1.32,2.37-1.75,4.35,.26-.01,.53-.03,.79-.04,.5-2.13,1.38-3.62,1.89-4.34Z"/><path class="cls-25" d="M60.11,27.6c-.32,.02-.63,.04-.94,.07-.57,.98-1.26,2.46-1.63,4.4,.25-.02,.52-.04,.79-.06,.43-2.06,1.23-3.56,1.78-4.4Z"/><path class="cls-25" d="M62.81,27.43c-.32,.02-.63,.03-.94,.05-.57,.94-1.29,2.42-1.7,4.38,.26-.02,.52-.04,.79-.05,.47-2.1,1.32-3.6,1.85-4.38Z"/><path class="cls-25" d="M57.39,27.81c-.32,.03-.64,.05-.93,.08-.57,1.02-1.21,2.51-1.55,4.42,.24-.02,.5-.05,.79-.08,.39-2.01,1.13-3.52,1.69-4.43Z"/><path class="cls-25" d="M53.72,28.16c-.53,1.01-1.11,2.43-1.41,4.2,.23,.1,.49,.15,.75,.14,.34-1.97,1.03-3.47,1.59-4.44-.36,.04-.67,.07-.93,.1Z"/><path class="cls-25" d="M80.59,27.98c-.27-.04-.54-.09-.81-.13-.54,.95-1.14,2.33-1.5,4.08,.25,.03,.51,.06,.75,.1,.37-1.79,1.02-3.16,1.55-4.05Z"/><path class="cls-25" d="M82.19,28.29h-.05c-.51,.99-1.04,2.35-1.34,4.04,.22,.04,.44,.09,.65,.13,.03,0,.06,0,.09,0,.28-1.62,.8-2.93,1.29-3.88-.19-.14-.41-.25-.65-.3Z"/><path class="cls-25" d="M75.76,27.43c-.29-.02-.58-.04-.87-.05-.55,.88-1.26,2.3-1.7,4.18,.26,0,.52,.02,.77,.03,.48-1.98,1.28-3.4,1.79-4.16Z"/><path class="cls-25" d="M78.2,27.65c-.28-.03-.56-.06-.84-.09-.55,.91-1.21,2.3-1.61,4.13,.26,.02,.51,.04,.77,.06,.43-1.89,1.17-3.28,1.69-4.1Z"/><path class="cls-25" d="M73.26,27.3c-.3-.01-.6-.02-.9-.03-.55,.87-1.3,2.3-1.75,4.23,.26,0,.52,0,.78,0,.51-2.06,1.37-3.51,1.86-4.21Z"/><path class="cls-25" d="M69.79,27.24c-.56,.86-1.32,2.31-1.77,4.27,.26,0,.52,0,.79-.01,.53-2.11,1.42-3.58,1.9-4.26-.31,0-.61,0-.91,0Z"/><path class="cls-25" d="M68.11,27.25c-.31,0-.62,0-.93,.02-.56,.88-1.32,2.34-1.77,4.31,.26,0,.53-.02,.79-.03,.52-2.13,1.42-3.61,1.91-4.31Z"/></g><path class="cls-2" d="M81.83,30.69c-.12,0-.24-.01-.37-.04-9.85-2.18-28.08,0-28.26,.03-.82,.1-1.58-.41-1.91-1.21-.14,.34-.21,.73-.17,1.13,.11,1.17,1.05,2.01,2.08,1.88,.18-.02,18.4-2.2,28.26-.03,.12,.03,.25,.04,.37,.04,.89,0,1.68-.7,1.85-1.72,.08-.46,.02-.92-.15-1.32-.31,.74-.97,1.22-1.7,1.22Z"/></g><g><path class="cls-23" d="M81.83,36.78c-.12,0-.24-.01-.37-.04-9.85-2.18-28.08,0-28.26,.03-1.04,.13-1.97-.72-2.08-1.88-.11-1.17,.64-2.22,1.67-2.34,.77-.09,18.97-2.27,29.39,.03,1.02,.23,1.69,1.34,1.49,2.5-.18,1.01-.97,1.72-1.85,1.72Z"/><g><path class="cls-25" d="M65.48,31.59c-.32,.01-.63,.02-.94,.04-.57,.9-1.32,2.37-1.75,4.35,.26-.01,.53-.03,.79-.04,.5-2.13,1.38-3.62,1.89-4.34Z"/><path class="cls-25" d="M60.11,31.87c-.32,.02-.63,.04-.94,.07-.57,.98-1.26,2.46-1.63,4.4,.25-.02,.52-.04,.79-.06,.43-2.06,1.23-3.56,1.78-4.4Z"/><path class="cls-25" d="M62.81,31.7c-.32,.02-.63,.03-.94,.05-.57,.94-1.29,2.42-1.7,4.38,.26-.02,.52-.04,.79-.05,.47-2.1,1.32-3.6,1.85-4.38Z"/><path class="cls-25" d="M57.39,32.08c-.32,.03-.64,.05-.93,.08-.57,1.02-1.21,2.51-1.55,4.42,.24-.02,.5-.05,.79-.08,.39-2.01,1.13-3.52,1.69-4.43Z"/><path class="cls-25" d="M53.72,32.43c-.53,1.01-1.11,2.43-1.41,4.2,.23,.1,.49,.15,.75,.14,.34-1.97,1.03-3.47,1.59-4.44-.36,.04-.67,.07-.93,.1Z"/><path class="cls-25" d="M80.59,32.26c-.27-.04-.54-.09-.81-.13-.54,.95-1.14,2.33-1.5,4.08,.25,.03,.51,.06,.75,.1,.37-1.79,1.02-3.16,1.55-4.05Z"/><path class="cls-25" d="M82.19,32.57h-.05c-.51,.99-1.04,2.35-1.34,4.04,.22,.04,.44,.09,.65,.13,.03,0,.06,0,.09,0,.28-1.62,.8-2.93,1.29-3.88-.19-.14-.41-.25-.65-.3Z"/><path class="cls-25" d="M75.76,31.71c-.29-.02-.58-.04-.87-.06-.55,.88-1.26,2.3-1.7,4.18,.26,0,.52,.02,.77,.03,.48-1.98,1.28-3.4,1.79-4.16Z"/><path class="cls-25" d="M78.2,31.93c-.28-.03-.56-.06-.84-.09-.55,.91-1.21,2.3-1.61,4.13,.26,.02,.51,.04,.77,.06,.43-1.89,1.17-3.28,1.69-4.1Z"/><path class="cls-25" d="M73.26,31.58c-.3-.01-.6-.02-.9-.03-.55,.87-1.3,2.3-1.75,4.23,.26,0,.52,0,.78,0,.51-2.06,1.37-3.51,1.86-4.21Z"/><path class="cls-25" d="M69.79,31.51c-.56,.86-1.32,2.31-1.77,4.27,.26,0,.52,0,.79-.01,.53-2.11,1.42-3.58,1.9-4.26-.31,0-.61,0-.91,0Z"/><path class="cls-25" d="M68.11,31.53c-.31,0-.62,0-.93,.02-.56,.88-1.32,2.34-1.77,4.31,.26,0,.53-.02,.79-.03,.52-2.13,1.42-3.61,1.91-4.31Z"/></g><path class="cls-2" d="M81.83,34.97c-.12,0-.24-.01-.37-.04-9.85-2.18-28.08,0-28.26,.03-.82,.1-1.58-.41-1.91-1.21-.14,.34-.21,.73-.17,1.13,.11,1.17,1.05,2.01,2.08,1.88,.18-.02,18.4-2.2,28.26-.03,.12,.03,.25,.04,.37,.04,.89,0,1.68-.7,1.85-1.72,.08-.46,.02-.92-.15-1.32-.31,.74-.97,1.22-1.7,1.22Z"/></g></g></g></g></g></svg>