<svg width="214" height="110" viewBox="0 0 214 110" fill="none" xmlns="http://www.w3.org/2000/svg">
<path d="M16.3096 109.945C16.3096 109.945 -8.20893 83.7498 12.1636 55.3905C30.2391 30.2281 51.3137 31.9475 66.7794 42.1588C73.365 46.5079 92.3516 42.6951 108.512 17.0909C130.545 -17.8252 206.936 3.35193 193.008 57.0713C186.268 83.0685 213.522 84.0129 199.635 109.998L16.3096 109.945Z" fill="#EBF3FA"/>
<path d="M63.3964 59.3065C63.3964 59.3065 51.2661 42.1242 46.5264 44.3507C41.7867 46.5773 63.3964 59.3065 63.3964 59.3065Z" fill="#A8D29F"/>
<path d="M62.6247 54.6872C62.6247 54.6872 60.7717 41.7705 57.8509 42.277C54.9302 42.7834 62.6247 54.6872 62.6247 54.6872Z" fill="#A8D29F"/>
<path d="M52.3695 94.9496C52.3695 94.9496 53.5354 89.2 49.0079 88.4794C49.0079 88.4794 45.9367 88.3731 44.1288 89.5253C44.1288 89.5253 49.2643 92.4749 48.6533 93.3925C48.0422 94.31 43.1695 89.6907 43.1695 89.6907C43.1695 89.6907 37.6644 92.0898 36.4351 93.8272C36.4351 93.8272 42.9408 94.9803 42.1223 95.7175C41.3039 96.4547 34.4777 95.5694 34.4777 95.5694C34.4777 95.5694 30.0799 99.0939 31.9954 101.9C33.9109 104.706 36.0971 104.687 36.7889 104.199C37.4808 103.712 40.8685 99.6823 41.3007 100.23C41.7329 100.777 40.2408 104.18 38.4773 105.281C38.4773 105.281 44.018 107.136 45.6803 104.785C47.3425 102.434 46.5771 100.605 47.6346 99.1711C48.692 97.7369 49.9047 97.0643 49.6878 98.048C49.4709 99.0317 47.2609 101.1 47.2515 102.98C47.242 104.86 47.0544 106.229 49.2129 104.566C51.3714 102.904 54.2375 99.0593 53.3027 97.0052L52.3695 94.9496Z" fill="#82B378"/>
<path d="M34.4316 100.656C34.4316 100.656 47.3487 92.8105 52.3733 94.9464C52.3733 94.9464 54.0973 96.5098 57.0632 97.1565L57.8436 97.8228C57.8436 97.8228 54.2081 96.6949 53.3081 97.0045C53.3042 97.0076 51.9712 91.6417 34.4316 100.656Z" fill="#82B378"/>
<path d="M57.0594 97.1596C57.0594 97.1596 61.0638 97.6691 63.3529 101.286L62.8645 101.617C62.8645 101.617 59.7965 98.2677 57.3143 97.6707C54.832 97.0737 57.0594 97.1596 57.0594 97.1596Z" fill="#82B378"/>
<path d="M56.3232 78.1777C56.3232 78.1777 65.7037 72.9511 61.3257 65.858C61.3257 65.858 57.8239 61.5025 54.0721 60.3825C54.0721 60.3825 56.0731 70.9601 54.0721 71.209C52.0711 71.4578 52.6964 59.2626 52.6964 59.2626C52.6964 59.2626 42.8164 54.537 38.9395 54.9071C38.9395 54.9071 45.0676 65.2358 43.0666 64.9885C41.0656 64.7412 34.1871 54.2849 34.1871 54.2849C34.1871 54.2849 24.0555 52.4183 22.4313 58.3915C20.807 64.3647 23.4294 67.3513 24.9333 67.7246C26.4372 68.0979 36.0639 67.9735 35.8137 69.221C35.5636 70.4686 29.0604 72.4565 25.4336 71.3366C25.4336 71.3366 29.4356 81.1674 34.6882 80.6697C39.9408 80.1719 41.5666 76.9364 44.8198 76.6875C48.073 76.4387 50.4476 77.3097 48.8218 78.184C47.196 79.0582 41.6933 78.4699 39.0669 80.6909C36.4406 82.912 34.3177 84.2816 39.192 85.2772C44.0663 86.2727 52.8238 85.6505 54.5747 81.9172L56.3232 78.1777Z" fill="#A8D29F"/>
<path d="M27.0586 60.2581C27.0586 60.2581 53.3217 68.7201 56.3232 78.1776C56.3232 78.1776 56.1981 82.4086 58.8244 87.2619V89.1285C58.8244 89.1285 56.0731 82.782 54.5723 81.9109C54.5723 81.9109 60.4503 73.6977 27.0586 60.2581Z" fill="#82B378"/>
<path d="M58.8244 87.2618C58.8244 87.2618 62.8747 93.3823 60.5658 100.831L59.5233 100.553C59.5233 100.553 60.5349 92.3474 58.4152 88.2211C56.2954 84.0948 58.8244 87.2618 58.8244 87.2618Z" fill="#82B378"/>
<path d="M65.8556 34.449L51.8225 106.642C51.755 106.986 51.765 107.342 51.8518 107.682C51.9385 108.022 52.1 108.34 52.3244 108.611C52.5489 108.882 52.8309 109.1 53.1502 109.25C53.4694 109.399 53.818 109.477 54.171 109.477H61.5726L65.8556 34.449Z" fill="#F97C36"/>
<path d="M159.143 55.1151C159.143 55.1151 152.831 51.1085 156.159 46.3498C156.159 46.3498 158.771 43.4601 161.423 42.83C161.423 42.83 159.607 50.1059 160.989 50.3587C162.37 50.6115 162.423 42.1062 162.423 42.1062C162.423 42.1062 169.482 39.2102 172.163 39.6237C172.163 39.6237 167.488 46.5625 168.89 46.4695C170.291 46.3766 175.493 39.3811 175.493 39.3811C175.493 39.3811 182.612 38.4856 183.503 42.7032C184.393 46.9208 182.448 48.8938 181.39 49.0938C180.331 49.2939 173.64 48.8252 173.764 49.7003C173.888 50.5753 178.329 52.2206 180.896 51.5834C180.896 51.5834 177.719 58.2607 174.089 57.7063C170.459 57.1518 169.456 54.837 167.203 54.5346C164.949 54.2321 163.264 54.7433 164.36 55.4143C165.455 56.0854 169.305 55.8956 171.043 57.5409C172.78 59.1862 174.203 60.2266 170.772 60.7252C167.341 61.2237 161.273 60.4432 160.21 57.7772L159.143 55.1151Z" fill="#C7DCFB"/>
<path d="M180.212 43.8169C180.212 43.8169 161.611 48.6575 159.144 55.1151C159.144 55.1151 159.064 58.0623 157.04 61.3324L156.965 62.6304C156.965 62.6304 159.133 58.3269 160.211 57.7803C160.211 57.7803 156.454 51.8363 180.212 43.8169Z" fill="#C7DCFB"/>
<path d="M157.04 61.3323C157.04 61.3323 153.979 65.4278 155.285 70.6993L156.021 70.5465C156.021 70.5465 155.647 64.7969 157.287 62.0151C158.927 59.2333 157.04 61.3323 157.04 61.3323Z" fill="#C7DCFB"/>
<path d="M142.147 37.7263C142.147 37.7263 132.448 35.6068 134.407 28.1695C134.407 28.1695 136.33 23.3856 139.345 21.3961C139.345 21.3961 140.425 31.2797 142.26 30.9662C144.096 30.6528 140.26 20.0351 140.26 20.0351C140.26 20.0351 147.72 13.2207 151.248 12.5166C151.248 12.5166 148.612 23.2816 150.314 22.5279C152.016 21.7741 155.282 10.6996 155.282 10.6996C155.282 10.6996 163.734 6.34888 166.779 11.195C169.825 16.0411 168.308 19.3861 167.082 20.1123C165.856 20.8384 157.31 23.3005 157.866 24.3338C158.422 25.3672 164.707 25.3932 167.611 23.436C167.611 23.436 166.721 33.1936 161.944 34.1537C157.167 35.1138 154.858 32.688 151.917 33.3346C148.975 33.9812 147.109 35.3823 148.781 35.7218C150.452 36.0613 155.16 34.0733 158.08 35.3375C161 36.6016 163.248 37.2442 159.204 39.4243C155.16 41.6044 147.252 43.3891 144.701 40.5561L142.147 37.7263Z" fill="#DFEBFD"/>
<path d="M163.191 14.0791C163.191 14.0791 142.254 28.5624 142.147 37.7261C142.147 37.7261 143.397 41.4326 142.384 46.4229L142.887 48.0768C142.887 48.0768 143.61 41.7335 144.702 40.5631C144.7 40.556 137.292 34.8632 163.191 14.0791Z" fill="#DFEBFD"/>
<path d="M142.383 46.4199C142.383 46.4199 140.451 52.9098 144.498 58.8798L145.344 58.3553C145.344 58.3553 142.24 51.3716 143.002 47.1587C143.764 42.9458 142.383 46.4199 142.383 46.4199Z" fill="#DFEBFD"/>
<path d="M66.025 34.1567L56.7229 105.041C56.6502 105.595 56.6972 106.158 56.8606 106.692C57.0241 107.227 57.3002 107.72 57.6706 108.14C58.041 108.56 58.4972 108.896 59.0086 109.126C59.52 109.356 60.0749 109.475 60.6362 109.475H74.2815L66.5878 33.9023L66.025 34.1567Z" fill="#78ACEA"/>
<path d="M66.025 34.1567L61.8616 104.587C61.8249 105.215 61.9175 105.843 62.1336 106.434C62.3498 107.025 62.6849 107.565 63.1185 108.023C63.552 108.48 64.0749 108.844 64.655 109.093C65.2352 109.342 65.8603 109.471 66.492 109.471H86.8432L66.025 34.1567Z" fill="#699DEE"/>
<path d="M65.8691 34.7334L67.8939 104.589C67.8572 105.217 67.9498 105.845 68.1659 106.436C68.3821 107.027 68.7172 107.567 69.1508 108.024C69.5844 108.482 70.1072 108.846 70.6874 109.095C71.2675 109.344 71.8926 109.472 72.5244 109.472H92.8755L65.8691 34.7334Z" fill="#5288D8"/>
<path d="M163.309 109.477H83.0637C82.0927 109.477 81.1525 109.138 80.4067 108.519C79.661 107.9 79.1571 107.041 78.9826 106.09L66.7716 39.6441C66.6415 38.936 66.6695 38.208 66.8535 37.5119C67.0375 36.8157 67.373 36.1683 67.8363 35.6154C68.2995 35.0625 68.8793 34.6177 69.5344 34.3124C70.1896 34.0072 70.9042 33.8489 71.6276 33.8489H150.929C151.9 33.849 152.84 34.188 153.586 34.8068C154.332 35.4256 154.836 36.2851 155.01 37.2356L167.391 104.604C167.5 105.199 167.477 105.811 167.323 106.397C167.168 106.982 166.886 107.527 166.497 107.992C166.107 108.456 165.62 108.831 165.069 109.087C164.518 109.344 163.918 109.477 163.309 109.477Z" fill="#D7E9FF"/>
<path d="M68.36 48.2739H157.091L154.816 35.7289C154.721 35.2014 154.442 34.7241 154.029 34.3804C153.616 34.0367 153.094 33.8486 152.555 33.8489H66.6091C66.4987 33.8488 66.3896 33.8729 66.2896 33.9194C66.1896 33.966 66.1012 34.0339 66.0305 34.1184C65.9599 34.2028 65.9088 34.3017 65.8809 34.4079C65.853 34.5142 65.8489 34.6253 65.869 34.7334L68.36 48.2739Z" fill="#F97C36"/>
<path d="M70.4347 30.074C69.4149 30.0748 68.437 30.4782 67.7158 31.1957C66.9946 31.9132 66.5889 32.8862 66.5879 33.9009H67.3272C67.3276 33.2972 67.5056 32.7067 67.8394 32.2025C68.1732 31.6982 68.648 31.3023 69.2054 31.0635C69.7627 30.8248 70.3781 30.7536 70.9756 30.8589C71.5731 30.9641 72.1265 31.2412 72.5676 31.6558C73.0086 32.0705 73.318 32.6046 73.4575 33.1922C73.597 33.7798 73.5605 34.3952 73.3525 34.9624C73.1446 35.5296 72.7742 36.0238 72.2872 36.384C71.8002 36.7442 71.2178 36.9545 70.6121 36.9891V37.7263C70.946 37.7115 71.2765 37.653 71.5951 37.5523C72.4715 37.2773 73.22 36.6991 73.705 35.9225C74.19 35.1459 74.3796 34.2221 74.2393 33.3184C74.0991 32.4148 73.6383 31.591 72.9404 30.9961C72.2425 30.4013 71.3537 30.0747 70.4347 30.0755V30.074Z" fill="#78ACEA"/>
<path d="M71.6244 37.3325C71.6244 37.4072 71.6146 37.4816 71.5951 37.5538C71.5453 37.7342 71.4358 37.8926 71.2842 38.0033C71.1326 38.114 70.9479 38.1705 70.76 38.1636C70.5721 38.1568 70.3921 38.087 70.2491 37.9655C70.106 37.8441 70.0084 37.6782 69.9721 37.4946C69.9357 37.3111 69.9627 37.1207 70.0487 36.9543C70.1347 36.788 70.2746 36.6554 70.4458 36.5781C70.617 36.5008 70.8095 36.4833 70.9919 36.5284C71.1744 36.5736 71.3362 36.6787 71.451 36.8268C71.5639 36.9714 71.6249 37.1494 71.6244 37.3325Z" fill="#78ACEA"/>
<path d="M84.228 30.074C83.2081 30.0748 82.2302 30.4782 81.5088 31.1957C80.7875 31.9132 80.3816 32.8861 80.3804 33.9009H81.1189C81.1189 33.0807 81.4464 32.294 82.0293 31.7139C82.6122 31.1339 83.4028 30.808 84.2272 30.808C85.0516 30.808 85.8422 31.1339 86.4252 31.7139C87.0081 32.294 87.3356 33.0807 87.3356 33.9009C87.3369 34.2337 87.2834 34.5644 87.1773 34.8799C86.9804 35.4669 86.6112 35.9816 86.1174 36.3576C85.6235 36.7335 85.0277 36.9535 84.4069 36.9891V37.7263C84.7409 37.7116 85.0714 37.653 85.39 37.5523C86.2662 37.2773 87.0146 36.6993 87.4996 35.9228C87.9847 35.1464 88.1744 34.2228 88.0343 33.3192C87.8943 32.4157 87.4338 31.5919 86.7362 30.9969C86.0386 30.4019 85.15 30.0751 84.2312 30.0755L84.228 30.074Z" fill="#78ACEA"/>
<path d="M85.4167 37.3326C85.4165 37.4073 85.4064 37.4817 85.3866 37.5539C85.3303 37.757 85.1986 37.9312 85.0181 38.0413C84.8375 38.1514 84.6217 38.1892 84.4143 38.1469C84.2068 38.1047 84.0233 37.9856 83.9007 37.8138C83.7781 37.642 83.7257 37.4303 83.7541 37.2215C83.7825 37.0127 83.8895 36.8225 84.0535 36.6892C84.2176 36.556 84.4263 36.4897 84.6376 36.5038C84.8488 36.5179 85.0468 36.6114 85.1915 36.7652C85.3361 36.9191 85.4166 37.1219 85.4167 37.3326Z" fill="#78ACEA"/>
<path d="M98.0204 30.074C97.0006 30.0748 96.0227 30.4782 95.3015 31.1957C94.5803 31.9132 94.1746 32.8862 94.1736 33.9009H94.9121C94.9121 33.2967 95.0901 32.7057 95.4239 32.201C95.7577 31.6962 96.2328 31.2998 96.7904 31.0607C97.3481 30.8216 97.964 30.7503 98.5619 30.8556C99.1599 30.9608 99.7138 31.2381 100.155 31.653C100.597 32.068 100.906 32.6025 101.046 33.1906C101.185 33.7787 101.149 34.3945 100.94 34.9621C100.732 35.5297 100.361 36.0241 99.8736 36.3843C99.3861 36.7446 98.8032 36.9548 98.1969 36.9891V37.7263C98.5309 37.7114 98.8614 37.6529 99.18 37.5523C100.056 37.2773 100.805 36.6992 101.29 35.9226C101.775 35.1461 101.964 34.2224 101.824 33.3188C101.684 32.4152 101.224 31.5914 100.526 30.9965C99.828 30.4016 98.9393 30.0749 98.0204 30.0755V30.074Z" fill="#78ACEA"/>
<path d="M99.2102 37.3326C99.2099 37.4073 99.1998 37.4817 99.1801 37.5539C99.1238 37.757 98.992 37.9312 98.8115 38.0413C98.631 38.1514 98.4152 38.1892 98.2077 38.1469C98.0003 38.1047 97.8167 37.9856 97.6942 37.8138C97.5716 37.642 97.5192 37.4303 97.5476 37.2215C97.5759 37.0127 97.683 36.8225 97.847 36.6892C98.011 36.556 98.2198 36.4897 98.431 36.5038C98.6423 36.5179 98.8403 36.6114 98.9849 36.7652C99.1296 36.9191 99.2101 37.1219 99.2102 37.3326Z" fill="#78ACEA"/>
<path d="M111.813 30.074C110.793 30.0746 109.815 30.4779 109.094 31.1955C108.372 31.913 107.966 32.886 107.965 33.9009H108.703C108.703 33.2972 108.881 32.7068 109.215 32.2026C109.549 31.6984 110.024 31.3024 110.581 31.0636C111.138 30.8249 111.754 30.7537 112.351 30.8589C112.949 30.9641 113.502 31.2411 113.943 31.6556C114.384 32.0702 114.694 32.6042 114.833 33.1918C114.973 33.7793 114.936 34.3947 114.729 34.9619C114.521 35.5291 114.151 36.0234 113.664 36.3836C113.177 36.7439 112.594 36.9544 111.989 36.9891V37.7263C112.323 37.7114 112.653 37.6529 112.972 37.5523C113.847 37.2763 114.594 36.6979 115.079 35.9215C115.563 35.1452 115.752 34.2221 115.612 33.3191C115.471 32.4161 115.011 31.5928 114.314 30.998C113.617 30.4031 112.73 30.0759 111.811 30.0755L111.813 30.074Z" fill="#78ACEA"/>
<path d="M113.003 37.3325C113.002 37.4072 112.992 37.4816 112.973 37.5538C112.923 37.7342 112.814 37.8926 112.662 38.0033C112.511 38.114 112.326 38.1705 112.138 38.1636C111.95 38.1568 111.77 38.087 111.627 37.9655C111.484 37.8441 111.387 37.6782 111.35 37.4946C111.314 37.3111 111.341 37.1207 111.427 36.9543C111.513 36.788 111.653 36.6554 111.824 36.5781C111.995 36.5008 112.188 36.4833 112.37 36.5284C112.553 36.5736 112.714 36.6787 112.829 36.8268C112.942 36.9714 113.003 37.1494 113.003 37.3325Z" fill="#78ACEA"/>
<path d="M125.606 30.074C124.586 30.0748 123.608 30.4782 122.887 31.1957C122.166 31.9132 121.76 32.8861 121.759 33.9009H122.497C122.497 33.2969 122.675 32.7062 123.009 32.2017C123.343 31.6972 123.818 31.3011 124.375 31.0621C124.933 30.8232 125.548 30.752 126.146 30.8572C126.744 30.9625 127.298 31.2396 127.739 31.6544C128.18 32.0693 128.489 32.6036 128.629 33.1914C128.768 33.7792 128.732 34.3949 128.524 34.9623C128.316 35.5296 127.945 36.024 127.458 36.3842C126.971 36.7444 126.388 36.9547 125.782 36.9891V37.7263C126.116 37.7116 126.446 37.653 126.765 37.5523C127.641 37.2773 128.39 36.6993 128.875 35.9228C129.36 35.1464 129.549 34.2228 129.409 33.3192C129.269 32.4157 128.809 31.5919 128.111 30.9969C127.414 30.4019 126.525 30.0751 125.606 30.0755V30.074Z" fill="#78ACEA"/>
<path d="M126.795 37.3324C126.795 37.4071 126.785 37.4816 126.765 37.5537C126.715 37.7338 126.605 37.8919 126.454 38.0023C126.302 38.1126 126.118 38.1688 125.93 38.1618C125.742 38.1547 125.563 38.0848 125.42 37.9633C125.277 37.8418 125.18 37.676 125.144 37.4926C125.108 37.3092 125.135 37.1191 125.221 36.953C125.307 36.7869 125.447 36.6546 125.618 36.5775C125.789 36.5004 125.981 36.4831 126.163 36.5283C126.346 36.5736 126.507 36.6787 126.622 36.8267C126.735 36.9713 126.796 37.1493 126.795 37.3324Z" fill="#78ACEA"/>
<path d="M139.399 30.074C138.379 30.0748 137.401 30.4782 136.68 31.1957C135.958 31.9132 135.553 32.8862 135.552 33.9009H136.289C136.29 33.2972 136.468 32.7068 136.802 32.2026C137.135 31.6984 137.61 31.3024 138.167 31.0636C138.725 30.8249 139.34 30.7537 139.938 30.8589C140.535 30.9641 141.089 31.2411 141.53 31.6556C141.971 32.0702 142.28 32.6042 142.42 33.1918C142.559 33.7793 142.523 34.3947 142.315 34.9619C142.107 35.5291 141.737 36.0234 141.25 36.3836C140.763 36.7439 140.181 36.9544 139.575 36.9891V37.7263C139.909 37.7115 140.24 37.653 140.558 37.5523C141.433 37.2763 142.181 36.698 142.665 35.9217C143.149 35.1454 143.338 34.2224 143.198 33.3195C143.058 32.4166 142.598 31.5933 141.901 30.9983C141.204 30.4034 140.317 30.0761 139.399 30.0755V30.074Z" fill="#78ACEA"/>
<path d="M140.588 37.3325C140.588 37.4072 140.578 37.4816 140.558 37.5538C140.508 37.7342 140.399 37.8926 140.247 38.0033C140.096 38.114 139.911 38.1705 139.723 38.1636C139.535 38.1568 139.355 38.087 139.212 37.9655C139.069 37.8441 138.972 37.6782 138.935 37.4946C138.899 37.3111 138.926 37.1207 139.012 36.9543C139.098 36.788 139.238 36.6554 139.409 36.5781C139.58 36.5008 139.773 36.4833 139.955 36.5284C140.138 36.5736 140.299 36.6787 140.414 36.8268C140.527 36.9714 140.588 37.1494 140.588 37.3325Z" fill="#78ACEA"/>
<path d="M153.191 30.074C152.171 30.0748 151.193 30.4782 150.472 31.1957C149.751 31.9132 149.345 32.8862 149.344 33.9009H150.083C150.083 33.0807 150.41 32.294 150.993 31.7139C151.576 31.1339 152.367 30.808 153.191 30.808C154.015 30.808 154.806 31.1339 155.389 31.7139C155.972 32.294 156.299 33.0807 156.299 33.9009C156.301 34.2337 156.247 34.5644 156.141 34.8799C155.944 35.4667 155.575 35.9813 155.081 36.3573C154.587 36.7333 153.992 36.9533 153.371 36.9891V37.7263C153.705 37.7116 154.035 37.653 154.354 37.5523C155.23 37.2773 155.979 36.6992 156.464 35.9226C156.949 35.1461 157.138 34.2224 156.998 33.3188C156.858 32.4152 156.397 31.5914 155.7 30.9965C155.002 30.4016 154.113 30.0749 153.194 30.0755L153.191 30.074Z" fill="#78ACEA"/>
<path d="M154.381 37.3324C154.381 37.4071 154.371 37.4816 154.351 37.5537C154.301 37.7338 154.191 37.8919 154.04 38.0023C153.888 38.1126 153.703 38.1688 153.516 38.1618C153.328 38.1547 153.148 38.0848 153.006 37.9633C152.863 37.8418 152.766 37.676 152.729 37.4926C152.693 37.3092 152.72 37.1191 152.807 36.953C152.893 36.7869 153.032 36.6546 153.204 36.5775C153.375 36.5004 153.567 36.4831 153.749 36.5283C153.931 36.5736 154.093 36.6787 154.208 36.8267C154.32 36.9713 154.381 37.1493 154.381 37.3324Z" fill="#78ACEA"/>
<path d="M119.674 71.8406H115.189C114.67 71.8406 114.16 71.4185 114.064 70.9026L113.199 66.4393C113.098 65.9234 113.441 65.5012 113.96 65.5012H118.445C118.964 65.5012 119.47 65.9234 119.57 66.4393L120.435 70.9026C120.536 71.4185 120.193 71.8406 119.674 71.8406Z" fill="#AFCDFB"/>
<path d="M130.993 71.8406H126.508C125.989 71.8406 125.479 71.4185 125.383 70.9026L124.518 66.4393C124.418 65.9234 124.76 65.5012 125.278 65.5012H129.764C130.283 65.5012 130.789 65.9234 130.889 66.4393L131.754 70.9026C131.855 71.4185 131.512 71.8406 130.993 71.8406Z" fill="#AFCDFB"/>
<path d="M142.312 71.8406H137.827C137.308 71.8406 136.803 71.4185 136.702 70.9026L135.837 66.4393C135.737 65.9234 136.079 65.5012 136.598 65.5012H141.083C141.602 65.5012 142.108 65.9234 142.208 66.4393L143.074 70.9026C143.174 71.4185 142.831 71.8406 142.312 71.8406Z" fill="#78ACEA"/>
<path d="M85.7167 71.8406H81.2311C80.7126 71.8406 80.2068 71.4185 80.1063 70.9026L79.2412 66.4393C79.1414 65.9234 79.4834 65.5012 80.0026 65.5012H84.4883C85.0067 65.5012 85.5125 65.9234 85.613 66.4393L86.4782 70.9026C86.5779 71.4185 86.2352 71.8406 85.7167 71.8406Z" fill="#AFCDFB"/>
<path d="M80.8006 58.4404H78.8732C78.7591 58.4357 78.6498 58.3936 78.5624 58.3207C78.4749 58.2477 78.4141 58.148 78.3896 58.0371L78.0183 56.1193C78.0059 56.0706 78.005 56.0196 78.0158 55.9705C78.0266 55.9214 78.0487 55.8754 78.0804 55.8363C78.1121 55.7972 78.1526 55.7659 78.1985 55.745C78.2445 55.7242 78.2947 55.7142 78.3452 55.716H80.2726C80.3866 55.7208 80.4959 55.7629 80.5833 55.8359C80.6708 55.9088 80.7316 56.0084 80.7562 56.1193L81.1275 58.0371C81.1399 58.0858 81.1408 58.1368 81.13 58.1859C81.1192 58.235 81.0971 58.281 81.0654 58.3201C81.0337 58.3592 80.9932 58.3905 80.9473 58.4113C80.9013 58.4322 80.8511 58.4421 80.8006 58.4404Z" fill="#F99746"/>
<path d="M97.0358 71.8406H92.5501C92.0317 71.8406 91.5259 71.4185 91.4262 70.9026L90.5602 66.4393C90.4605 65.9234 90.8032 65.5012 91.3217 65.5012H95.8073C96.3258 65.5012 96.8316 65.9234 96.9321 66.4393L97.7972 70.9026C97.897 71.4185 97.555 71.8406 97.0358 71.8406Z" fill="#AFCDFB"/>
<path d="M108.356 71.8406H103.87C103.352 71.8406 102.841 71.4185 102.745 70.9026L101.88 66.4393C101.78 65.9234 102.122 65.5012 102.641 65.5012H107.126C107.645 65.5012 108.151 65.9234 108.251 66.4393L109.116 70.9026C109.216 71.4185 108.874 71.8406 108.356 71.8406Z" fill="#AFCDFB"/>
<path d="M153.631 71.8406H149.146C148.627 71.8406 148.121 71.4185 148.021 70.9026L147.156 66.4393C147.056 65.9234 147.399 65.5012 147.917 65.5012H152.403C152.921 65.5012 153.427 65.9234 153.528 66.4393L154.393 70.9026C154.492 71.4185 154.15 71.8406 153.631 71.8406Z" fill="#78ACEA"/>
<path d="M117.795 62.1466H113.31C112.79 62.1466 112.281 61.7245 112.185 61.2086L111.32 56.7452C111.219 56.2286 111.562 55.8064 112.08 55.8064H116.566C117.085 55.8064 117.59 56.2286 117.691 56.7452L118.556 61.2086C118.656 61.7245 118.314 62.1466 117.795 62.1466Z" fill="#AFCDFB"/>
<path d="M129.114 62.1466H124.629C124.11 62.1466 123.6 61.7245 123.504 61.2086L122.639 56.7452C122.538 56.2286 122.881 55.8064 123.4 55.8064H127.885C128.404 55.8064 128.91 56.2286 129.01 56.7452L129.875 61.2086C129.975 61.7245 129.633 62.1466 129.114 62.1466Z" fill="#AFCDFB"/>
<path d="M140.433 62.1466H135.948C135.429 62.1466 134.919 61.7245 134.823 61.2086L133.958 56.7452C133.857 56.2286 134.2 55.8064 134.718 55.8064H139.204C139.722 55.8064 140.229 56.2286 140.329 56.7452L141.194 61.2086C141.294 61.7245 140.952 62.1466 140.433 62.1466Z" fill="#78ACEA"/>
<path d="M151.752 62.1466H147.266C146.748 62.1466 146.242 61.7245 146.142 61.2086L145.277 56.7452C145.177 56.2286 145.519 55.8064 146.037 55.8064H150.523C151.041 55.8064 151.548 56.2286 151.648 56.7452L152.513 61.2086C152.613 61.7245 152.271 62.1466 151.752 62.1466Z" fill="#78ACEA"/>
<path d="M121.666 82.1149H117.18C116.662 82.1149 116.156 81.6927 116.056 81.1768L115.19 76.7127C115.091 76.1968 115.433 75.7747 115.952 75.7747H120.437C120.956 75.7747 121.462 76.1968 121.561 76.7127L122.427 81.1761C122.529 81.6927 122.184 82.1149 121.666 82.1149Z" fill="#AFCDFB"/>
<path d="M132.985 82.1149H128.499C127.981 82.1149 127.475 81.6927 127.375 81.1768L126.509 76.7127C126.41 76.1968 126.752 75.7747 127.271 75.7747H131.757C132.275 75.7747 132.781 76.1968 132.881 76.7127L133.746 81.1761C133.849 81.6927 133.504 82.1149 132.985 82.1149Z" fill="#AFCDFB"/>
<path d="M144.305 82.1149H139.819C139.3 82.1149 138.79 81.6927 138.694 81.1768L137.829 76.7127C137.729 76.1968 138.071 75.7747 138.59 75.7747H143.075C143.594 75.7747 144.1 76.1968 144.2 76.7127L145.065 81.1761C145.167 81.6927 144.823 82.1149 144.305 82.1149Z" fill="#78ACEA"/>
<path d="M87.7091 82.1149H83.2235C82.705 82.1149 82.1945 81.6927 82.0987 81.1768L81.2336 76.7127C81.133 76.1968 81.4758 75.7747 81.9942 75.7747H86.4799C86.9983 75.7747 87.5089 76.1968 87.6046 76.7127L88.4698 81.1761C88.5727 81.6927 88.2276 82.1149 87.7091 82.1149Z" fill="#AFCDFB"/>
<path d="M99.028 82.1149H94.5423C94.0239 82.1149 93.5133 81.6927 93.4176 81.1768L92.5524 76.7127C92.4519 76.1968 92.7946 75.7747 93.3131 75.7747H97.7987C98.3172 75.7747 98.8277 76.1968 98.9235 76.7127L99.7886 81.1761C99.8915 81.6927 99.5464 82.1149 99.028 82.1149Z" fill="#AFCDFB"/>
<path d="M110.347 82.1149H105.861C105.343 82.1149 104.837 81.6927 104.737 81.1768L103.872 76.7127C103.772 76.1968 104.114 75.7747 104.632 75.7747H109.118C109.637 75.7747 110.147 76.1968 110.243 76.7127L111.109 81.1761C111.211 81.6927 110.866 82.1149 110.347 82.1149Z" fill="#AFCDFB"/>
<path d="M155.624 82.1149H151.138C150.62 82.1149 150.109 81.6927 150.013 81.1768L149.148 76.7127C149.048 76.1968 149.39 75.7747 149.909 75.7747H154.394C154.913 75.7747 155.423 76.1968 155.519 76.7127L156.384 81.1761C156.486 81.6927 156.142 82.1149 155.624 82.1149Z" fill="#78ACEA"/>
<path d="M123.658 92.39H119.173C118.654 92.39 118.148 91.9678 118.048 91.4519L117.183 86.9886C117.082 86.4727 117.425 86.0505 117.943 86.0505H122.429C122.948 86.0505 123.458 86.4727 123.554 86.9886L124.419 91.4519C124.519 91.9678 124.177 92.39 123.658 92.39Z" fill="#AFCDFB"/>
<path d="M134.977 92.39H130.492C129.973 92.39 129.467 91.9678 129.367 91.4519L128.502 86.9886C128.401 86.4727 128.744 86.0505 129.262 86.0505H133.748C134.266 86.0505 134.777 86.4727 134.873 86.9886L135.738 91.4519C135.838 91.9678 135.496 92.39 134.977 92.39Z" fill="#AFCDFB"/>
<path d="M146.296 92.39H141.81C141.292 92.39 140.785 91.9678 140.686 91.4519L139.821 86.9886C139.721 86.4727 140.063 86.0505 140.581 86.0505H145.067C145.586 86.0505 146.096 86.4727 146.192 86.9886L147.057 91.4519C147.157 91.9678 146.815 92.39 146.296 92.39Z" fill="#78ACEA"/>
<path d="M89.7006 92.39H85.215C84.6965 92.39 84.1907 91.9678 84.0902 91.4519L83.2251 86.9886C83.1253 86.4727 83.4673 86.0505 83.9857 86.0505H88.4721C88.9906 86.0505 89.4964 86.4727 89.5961 86.9886L90.4621 91.4519C90.5618 91.9678 90.2191 92.39 89.7006 92.39Z" fill="#AFCDFB"/>
<path d="M101.019 92.39H96.5338C96.0154 92.39 95.5096 91.9678 95.4091 91.4519L94.5439 86.9886C94.4442 86.4727 94.7861 86.0505 95.3054 86.0505H99.791C100.309 86.0505 100.815 86.4727 100.916 86.9886L101.781 91.4519C101.881 91.9678 101.538 92.39 101.019 92.39Z" fill="#F99746"/>
<path d="M112.339 92.39H107.854C107.334 92.39 106.829 91.9678 106.729 91.4519L105.863 86.9886C105.763 86.4727 106.106 86.0505 106.624 86.0505H111.11C111.629 86.0505 112.134 86.4727 112.235 86.9886L113.1 91.4519C113.2 91.9678 112.858 92.39 112.339 92.39Z" fill="#AFCDFB"/>
<path d="M157.615 92.39H153.13C152.611 92.39 152.105 91.9678 152.005 91.4519L151.14 86.9886C151.04 86.4727 151.382 86.0505 151.9 86.0505H156.387C156.905 86.0505 157.411 86.4727 157.511 86.9886L158.377 91.4519C158.476 91.9678 158.134 92.39 157.615 92.39Z" fill="#78ACEA"/>
<path d="M125.537 102.084H121.052C120.533 102.084 120.027 101.662 119.927 101.146L119.062 96.6824C118.961 96.1665 119.304 95.7444 119.822 95.7444H124.308C124.826 95.7444 125.337 96.1665 125.433 96.6824L126.298 101.146C126.398 101.662 126.056 102.084 125.537 102.084Z" fill="#AFCDFB"/>
<path d="M136.856 102.084H132.371C131.852 102.084 131.346 101.662 131.246 101.146L130.381 96.6824C130.281 96.1665 130.623 95.7444 131.141 95.7444H135.627C136.146 95.7444 136.656 96.1665 136.752 96.6824L137.617 101.146C137.718 101.662 137.375 102.084 136.856 102.084Z" fill="#AFCDFB"/>
<path d="M148.175 102.084H143.69C143.171 102.084 142.665 101.662 142.565 101.146L141.7 96.6824C141.6 96.1665 141.942 95.7444 142.461 95.7444H146.947C147.465 95.7444 147.971 96.1665 148.072 96.6824L148.937 101.146C149.036 101.662 148.694 102.084 148.175 102.084Z" fill="#78ACEA"/>
<path d="M91.5805 102.084H87.0948C86.5764 102.084 86.0706 101.662 85.9709 101.146L85.1049 96.6824C85.0052 96.1665 85.3479 95.7444 85.8664 95.7444H90.352C90.8704 95.7444 91.3762 96.1665 91.4768 96.6824L92.3419 101.146C92.4409 101.662 92.0989 102.084 91.5805 102.084Z" fill="#AFCDFB"/>
<path d="M102.9 102.084H98.4139C97.8947 102.084 97.3889 101.662 97.2892 101.146L96.424 96.6824C96.3235 96.1665 96.6662 95.7444 97.1847 95.7444H101.67C102.189 95.7444 102.695 96.1665 102.795 96.6824L103.66 101.146C103.76 101.662 103.418 102.084 102.9 102.084Z" fill="#AFCDFB"/>
<path d="M114.218 102.084H109.733C109.214 102.084 108.708 101.662 108.608 101.146L107.743 96.6824C107.642 96.1665 107.985 95.7444 108.504 95.7444H112.989C113.508 95.7444 114.018 96.1665 114.114 96.6824L114.979 101.146C115.08 101.662 114.737 102.084 114.218 102.084Z" fill="#AFCDFB"/>
<path d="M94.396 56.6792H82.5127C82.4287 56.6792 82.3482 56.646 82.2888 56.5869C82.2294 56.5278 82.196 56.4477 82.196 56.3641C82.196 56.2806 82.2294 56.2004 82.2888 56.1413C82.3482 56.0823 82.4287 56.0491 82.5127 56.0491H94.396C94.4799 56.0491 94.5605 56.0823 94.6198 56.1413C94.6792 56.2004 94.7126 56.2806 94.7126 56.3641C94.7126 56.4055 94.7044 56.4465 94.6885 56.4847C94.6726 56.5229 94.6492 56.5576 94.6198 56.5869C94.5904 56.6161 94.5555 56.6393 94.5171 56.6552C94.4787 56.671 94.4375 56.6792 94.396 56.6792Z" fill="#AFCDFB"/>
<path d="M94.7578 58.111H82.8737C82.7898 58.111 82.7092 58.0778 82.6499 58.0188C82.5905 57.9597 82.5571 57.8796 82.5571 57.796C82.5571 57.7124 82.5905 57.6323 82.6499 57.5732C82.7092 57.5141 82.7898 57.481 82.8737 57.481H94.757C94.841 57.481 94.9215 57.5141 94.9809 57.5732C95.0403 57.6323 95.0737 57.7124 95.0737 57.796C95.0737 57.8794 95.0404 57.9594 94.9812 58.0185C94.922 58.0775 94.8417 58.1108 94.7578 58.111Z" fill="#AFCDFB"/>
<path d="M81.6515 46.0151H77.5703C77.4093 46.0147 77.2551 45.9509 77.1412 45.8377C77.0273 45.7245 76.963 45.5711 76.9624 45.411C76.963 45.2508 77.0273 45.0974 77.1412 44.9842C77.2551 44.8711 77.4093 44.8073 77.5703 44.8069H81.6483C81.8092 44.8073 81.9633 44.8711 82.0771 44.9843C82.1909 45.0975 82.255 45.2509 82.2554 45.411C82.255 45.5705 82.1913 45.7235 82.0782 45.8366C81.9652 45.9497 81.8118 46.0138 81.6515 46.0151Z" fill="white"/>
<path d="M92.8406 46.0151H88.7626C88.6017 46.0147 88.4476 45.9509 88.3338 45.8377C88.22 45.7245 88.1559 45.5711 88.1555 45.411C88.1559 45.2509 88.22 45.0975 88.3338 44.9843C88.4476 44.8711 88.6017 44.8073 88.7626 44.8069H92.8406C93.0016 44.8073 93.1558 44.8711 93.2697 44.9842C93.3836 45.0974 93.4479 45.2508 93.4485 45.411C93.4479 45.5711 93.3836 45.7245 93.2697 45.8377C93.1558 45.9509 93.0016 46.0147 92.8406 46.0151Z" fill="white"/>
<path d="M104.031 46.0151H99.9526C99.7917 46.0147 99.6375 45.9509 99.5237 45.8377C99.41 45.7245 99.3459 45.5711 99.3455 45.411C99.3459 45.2509 99.41 45.0975 99.5237 44.9843C99.6375 44.8711 99.7917 44.8073 99.9526 44.8069H104.031C104.191 44.8073 104.346 44.8711 104.459 44.9843C104.573 45.0975 104.637 45.2509 104.638 45.411C104.637 45.5711 104.573 45.7245 104.459 45.8377C104.346 45.9509 104.191 46.0147 104.031 46.0151Z" fill="white"/>
<path d="M115.221 46.0151H111.143C110.982 46.0147 110.827 45.9509 110.713 45.8377C110.6 45.7245 110.535 45.5711 110.535 45.411C110.535 45.2508 110.6 45.0974 110.713 44.9842C110.827 44.8711 110.982 44.8073 111.143 44.8069H115.221C115.381 44.8073 115.536 44.8711 115.649 44.9843C115.763 45.0975 115.827 45.2509 115.828 45.411C115.827 45.5711 115.763 45.7245 115.649 45.8377C115.536 45.9509 115.381 46.0147 115.221 46.0151Z" fill="white"/>
<path d="M126.408 46.0151H122.33C122.169 46.0147 122.015 45.9509 121.901 45.8377C121.787 45.7245 121.723 45.5711 121.722 45.411C121.723 45.2508 121.787 45.0974 121.901 44.9842C122.015 44.8711 122.169 44.8073 122.33 44.8069H126.408C126.569 44.8073 126.723 44.8711 126.837 44.9843C126.951 45.0975 127.015 45.2509 127.015 45.411C127.015 45.5711 126.951 45.7245 126.837 45.8377C126.723 45.9509 126.569 46.0147 126.408 46.0151Z" fill="white"/>
<path d="M137.6 46.0151H133.522C133.361 46.0147 133.207 45.9509 133.093 45.8377C132.979 45.7245 132.915 45.5711 132.915 45.411C132.915 45.2509 132.979 45.0975 133.093 44.9843C133.207 44.8711 133.361 44.8073 133.522 44.8069H137.6C137.761 44.8073 137.915 44.8711 138.029 44.9842C138.143 45.0974 138.207 45.2508 138.208 45.411C138.207 45.5711 138.143 45.7245 138.029 45.8377C137.915 45.9509 137.761 46.0147 137.6 46.0151Z" fill="white"/>
<path d="M148.789 46.0151H144.711C144.55 46.0147 144.396 45.9509 144.283 45.8377C144.169 45.7245 144.105 45.5711 144.104 45.411C144.105 45.2509 144.169 45.0975 144.283 44.9843C144.396 44.8711 144.55 44.8073 144.711 44.8069H148.789C148.95 44.8073 149.104 44.8711 149.218 44.9843C149.332 45.0975 149.396 45.2509 149.396 45.411C149.396 45.5711 149.332 45.7245 149.218 45.8377C149.104 45.9509 148.95 46.0147 148.789 46.0151Z" fill="white"/>
<path d="M122.998 62.2342C122.097 62.2342 121.442 61.9498 121.084 61.3977C120.399 60.3392 120.926 58.8561 122.657 56.9872C123.503 56.0929 124.423 55.2714 125.408 54.5314C125.422 54.5199 125.438 54.5114 125.455 54.5063C125.472 54.5013 125.49 54.4998 125.508 54.5019C125.526 54.5041 125.543 54.5098 125.559 54.5189C125.574 54.5279 125.587 54.54 125.598 54.5543C125.608 54.5687 125.616 54.5851 125.62 54.6025C125.624 54.6199 125.624 54.6379 125.621 54.6554C125.617 54.6729 125.61 54.6895 125.6 54.7042C125.59 54.7189 125.577 54.7314 125.562 54.7409C125.505 54.7826 119.822 58.9696 121.304 61.2568C121.773 61.9814 122.777 62.0294 123.538 61.942C124.946 61.7797 126.783 61.0252 128.446 59.9241C130.171 58.7837 131.386 57.4983 131.78 56.398C132.038 55.6758 131.958 55.1646 131.543 54.8779C131.005 54.5078 129.881 54.5078 128.535 54.8779C127.249 55.2316 125.954 55.8695 125.155 56.5414C125.142 56.5523 125.127 56.5606 125.111 56.5658C125.094 56.571 125.077 56.5729 125.06 56.5715C125.043 56.57 125.027 56.5653 125.012 56.5575C124.996 56.5497 124.983 56.539 124.972 56.526C124.961 56.513 124.953 56.498 124.947 56.4818C124.942 56.4656 124.94 56.4486 124.942 56.4317C124.943 56.4147 124.948 56.3982 124.956 56.3832C124.964 56.3681 124.974 56.3546 124.987 56.3437C125.812 55.649 127.145 54.9914 128.466 54.6283C129.904 54.2345 131.078 54.2463 131.688 54.6661C132.049 54.9142 132.4 55.4316 132.022 56.4854C131.61 57.6377 130.359 58.9696 128.586 60.1407C126.887 61.2638 125.009 62.031 123.562 62.2003C123.375 62.2222 123.187 62.2335 122.998 62.2342Z" fill="#C65447"/>
<path d="M146.544 54.8764L146.082 54.01C146.082 54.01 146.311 52.4616 144.361 51.4818C144.361 51.4818 143.648 51.1935 143.245 51.7716C142.875 52.304 143.952 52.208 143.895 53.1192C143.837 54.0305 144.271 54.5653 144.877 54.8622L145.376 55.4387L146.544 54.8764Z" fill="#FFB27D"/>
<path d="M164.973 52.7995C164.973 52.7995 163.298 60.978 154.083 63.6495C151.206 64.4836 144.671 55.0599 144.671 55.0599C144.671 55.0599 144.901 54.1935 146.34 54.3912C146.34 54.3912 152.704 58.5829 153.505 59.0381C154.217 59.4421 158.887 53.8399 161.024 52.9413C163.161 52.0426 164.973 52.7995 164.973 52.7995Z" fill="#233862"/>
<path d="M138.035 52.6536L138.405 54.6377L148.435 52.7896L148.066 50.8055L138.035 52.6536Z" fill="#C65447"/>
<path d="M135.879 54.0745L138.396 54.6369L138.027 52.6521L135.879 54.0745Z" fill="#FFB27D"/>
<path d="M149.346 51.2479L149.463 51.878C149.481 51.9698 149.479 52.0642 149.46 52.1556C149.441 52.247 149.403 52.3337 149.35 52.4107C149.297 52.4877 149.229 52.5535 149.15 52.6043C149.071 52.655 148.983 52.6898 148.891 52.7066L148.427 52.7916L148.057 50.8077L148.562 50.7147C148.737 50.6822 148.918 50.7201 149.065 50.8201C149.212 50.9201 149.313 51.0739 149.346 51.2479Z" fill="#FFB27D"/>
<path d="M175.975 104.212C175.975 104.212 177.119 105.25 176.895 105.987C176.672 106.724 175.641 107.217 175.501 108.118C175.362 109.02 174.804 109.512 174.302 109.512H171.909C171.909 109.512 171.54 108.882 172.432 108.686C173.324 108.491 173.661 107.436 173.605 106.452C173.549 105.468 173.689 104.157 173.689 104.157L175.588 103.72L175.975 104.212Z" fill="#233862"/>
<path d="M161.948 106.897C161.948 106.897 162.153 109.26 161.651 109.505L155.228 109.492C155.228 109.492 155.228 108.755 156.257 108.591C157.286 108.427 159.101 107.825 159.407 106.487C159.713 105.149 161.948 106.897 161.948 106.897Z" fill="#233862"/>
<path d="M156.527 73.5228C156.527 73.5228 156.865 77.664 157.264 82.6425C157.805 89.4049 158.456 97.7117 158.52 99.2853C158.631 102.018 159.074 106.389 159.074 106.389C159.074 106.389 160.133 107.427 162.253 106.989C162.253 106.989 164.141 100.75 164.681 94.151C164.69 94.0431 164.698 93.9336 164.706 93.8249C165.208 87.1043 165.989 72.9534 165.989 72.9534L156.527 73.5228Z" fill="#F99746"/>
<path d="M156.527 73.5228C156.527 73.5228 156.865 77.664 157.264 82.6425L164.685 94.1478C164.694 94.0399 164.702 93.9304 164.71 93.8217C165.212 87.1011 165.993 72.9502 165.993 72.9502L156.527 73.5228Z" fill="#ED7D2B"/>
<path d="M158.073 74.0144C158.073 74.0144 164.18 89.0136 168.195 96.0619C172.211 103.11 173.465 105.078 173.465 105.078C173.465 105.078 175.766 104.176 175.975 103.561C175.975 103.561 174.44 89.954 171.751 86.6366C170.231 84.7621 168.446 79.137 168.362 77.1704C168.278 75.2037 167.819 71.3098 167.819 71.3098L158.073 74.0144Z" fill="#F99746"/>
<path d="M166.108 50.9013C166.108 50.9013 161.976 52.8845 159.595 52.1489C160.048 51.6253 160.594 51.19 161.207 50.8651C161.128 50.3925 161.061 49.9767 161.023 49.6262C160.966 49.2065 160.933 48.7839 160.923 48.3605L162.517 47.113L164.029 45.9189C163.909 49.2765 166.108 50.9013 166.108 50.9013Z" fill="#FFB27D"/>
<path d="M156.265 73.8647C156.333 73.927 156.422 73.9621 156.514 73.9632C157.411 73.945 160.022 74.4357 162.23 74.2144C164.098 74.0348 165.747 73.4961 167.516 72.725C167.753 72.6171 168.295 72.3312 168.286 72.0792C168.276 71.7917 168.249 71.3877 168.212 70.8663C168.138 69.8424 168.034 68.3845 168.001 66.6589C167.976 65.379 167.99 63.9503 168.084 62.4381C168.089 62.3365 168.094 62.2341 168.099 62.131C168.126 61.5796 168.138 61.0181 168.138 60.4723C168.156 58.819 168.031 57.1673 167.763 55.5356C167.314 52.9365 166.471 50.8958 165.226 49.9885C165.06 49.8625 164.038 50.3563 163.082 50.8139C162.211 51.236 161.341 51.2809 160.517 51.1195L159.693 51.8378C158.693 52.7435 157.594 53.9911 157.108 55.8766C156.706 57.4747 156.467 60.3659 156.338 63.3588C156.276 64.723 156.229 66.0871 156.211 67.3882V67.4331C156.201 67.5678 156.201 67.7033 156.201 67.838C156.156 71.1719 156.201 73.8198 156.265 73.8647Z" fill="#2B478B"/>
<path d="M164.056 47.2028C164.056 47.2028 163.012 49.0931 161.023 49.6263C160.966 49.2066 160.933 48.784 160.923 48.3606L162.517 47.113L164.056 47.2028Z" fill="#ED985F"/>
<path d="M160.196 48.3061C160.196 48.3061 164.137 48.9472 164.508 46.5364C164.878 44.1255 165.636 42.5842 163.135 42.073C160.633 41.5619 160.002 42.4093 159.679 43.1843C159.357 43.9593 159.178 48.0769 160.196 48.3061Z" fill="#FFB27D"/>
<path d="M165.94 41.7839C165.976 41.743 166.058 41.7107 166.242 41.7004C166.137 41.6412 166.02 41.6082 165.899 41.6043C165.861 41.3499 165.724 40.9002 165.285 40.7907C165.356 40.8324 165.417 40.8893 165.464 40.9575C165.51 41.0256 165.54 41.1032 165.553 41.1845C165.043 40.6647 163.952 40.2859 160.932 40.523C156.95 40.838 158.263 43.3717 158.778 43.6734C159.293 43.975 160.591 43.1472 161.548 43.2229C162.506 43.2985 162.691 44.6791 163.017 44.869C163.343 45.0588 163.215 44.7232 163.655 44.5248C164.095 44.3263 164.138 45.0533 164.011 45.5258C163.883 45.9984 164.486 46.6222 164.486 46.6222L165.098 45.9661C165.709 45.31 166.285 42.5321 166.008 41.9399C165.987 41.8894 165.965 41.8375 165.94 41.7839Z" fill="#2C3A64"/>
<path d="M146.073 53.9667C146.073 53.9667 146.208 53.4335 145.835 53.1941C145.463 52.9546 145.123 52.3025 144.965 52.3907C144.641 52.5734 145.143 53.1421 145.051 53.8517C145.02 54.0998 145.601 54.7504 146.073 53.9667Z" fill="#FFB27D"/>
<path d="M168.001 66.6589C167.976 65.3791 167.99 63.9504 168.084 62.4382C168.089 62.3366 168.094 62.2342 168.099 62.131C167.724 60.2841 167.157 58.6458 166.323 58.5923C166.323 58.5923 163.837 62.4783 168.001 66.6589Z" fill="#233862"/>
<path d="M171.288 73.3607C171.288 73.3607 171.081 75.3643 170.853 75.7432C170.626 76.122 169.658 77.3341 169.246 77.5712C168.833 77.8083 169.498 75.9755 169.414 75.6187C169.33 75.262 169.074 76.2701 168.893 76.2937C168.712 76.3173 168.757 75.41 168.751 75.08C168.745 74.75 169.635 73.9348 169.949 73.2315C170.264 72.5282 171.288 73.3607 171.288 73.3607Z" fill="#FFB27D"/>
<path d="M165.224 49.9688C165.224 49.9688 167.717 51.1439 168.913 52.9498C170.768 55.7521 172.918 65.9642 172.958 66.9101C172.999 67.856 171.389 74.5326 171.389 74.5326C171.389 74.5326 169.757 74.4254 169.336 73.6063C169.336 73.6063 169.662 66.7463 169.456 66.3052C169.249 65.8642 162.652 57.1013 163.394 55.2339C164.136 53.3665 165.224 49.9688 165.224 49.9688Z" fill="#2B478B"/>
<path d="M137.169 53.2207L137.3 54.3919L135.879 54.0745L137.169 53.2207Z" fill="#C65447"/>
<path d="M191.133 109.477H183.947C183.562 109.152 184.213 108.414 184.897 108.364C185.193 108.342 185.567 108.404 185.994 108.493C186.093 107.187 186.658 101.31 188.786 101.547C191.18 101.811 188.786 104.134 188.11 105.51C187.609 106.528 187.081 107.989 186.839 108.679C187.032 108.721 187.234 108.762 187.439 108.8C187.756 107.83 188.937 104.57 190.438 104.76C192.2 104.983 191.492 106.29 190.243 107.065C189.326 107.636 188.201 108.447 187.666 108.839C188.131 108.919 188.601 108.957 189.072 108.951C190.3 108.919 190.901 109.28 191.133 109.477Z" fill="#82B378"/>
<path d="M27.0705 109.134C26.689 108.539 25.5428 106.994 24.016 107.198C22.3537 107.421 25.8531 108.512 26.9248 109.138C26.7247 109.149 26.5242 109.126 26.332 109.07C25.6157 108.815 24.3888 109.306 23.9962 109.474H30.8176C30.7396 109.213 30.5655 108.991 30.33 108.853C30.2176 108.785 29.9928 108.774 29.7023 108.797C30.1076 108.325 30.3894 106.802 29.2599 107.193C28.4351 107.479 28.4375 108.407 28.5182 108.957C28.3433 108.984 28.1652 109.011 27.9895 109.036C27.6499 107.314 26.4483 102.262 24.0136 102.132C21.548 101.995 26.1096 107.368 27.6246 109.083C27.433 109.108 27.2462 109.126 27.0705 109.134Z" fill="#82B378"/>
<path d="M213.758 109.402H0.242209C0.108441 109.402 0 109.51 0 109.643V109.726C0 109.859 0.108441 109.967 0.242209 109.967H213.758C213.892 109.967 214 109.859 214 109.726V109.643C214 109.51 213.892 109.402 213.758 109.402Z" fill="#2E3552"/>
</svg>
