<svg width="194" height="183" viewBox="0 0 194 183" fill="none" xmlns="http://www.w3.org/2000/svg">
<path d="M3.45352 77.5372L5.48723 83.6283C5.48723 83.6283 2.50827 83.1468 1.14483 81.6734C-0.218621 80.1999 -0.32174 78.5698 1.01306 77.6126C1.37621 77.3807 1.79402 77.2515 2.22314 77.2382C2.65227 77.2249 3.07709 77.3282 3.45352 77.5372Z" fill="#8D1B0E"/>
<path d="M121.059 183C161.061 183 193.488 180.72 193.488 177.907C193.488 175.094 161.061 172.813 121.059 172.813C81.0578 172.813 48.6304 175.094 48.6304 177.907C48.6304 180.72 81.0578 183 121.059 183Z" fill="#EEDACE"/>
<path d="M59.6295 60.3489L53.4195 72.1598C53.4195 72.1598 49.8792 66.9041 50.1427 62.7041C50.4119 58.3939 52.6977 56.0271 56.0318 56.7058C58.9191 57.3033 59.6295 60.3489 59.6295 60.3489Z" fill="#AF1F17"/>
<path d="M59.6297 60.3489L53.4197 72.1598C53.4197 72.1598 59.7213 72.2005 62.9982 69.6364C66.275 67.0723 67.0427 63.7599 64.6194 61.3409C62.5227 59.2467 59.6297 60.3489 59.6297 60.3489Z" fill="#8D1B0E"/>
<path d="M14.0975 47.0412L18.7837 57.164C18.7837 57.164 13.5476 56.9262 10.9123 54.6522C8.27711 52.3782 7.78444 49.5879 9.89835 47.691C11.7316 45.9971 14.0975 47.0412 14.0975 47.0412Z" fill="#AF1F17"/>
<path d="M14.0974 47.0411L18.7835 57.1639C18.7835 57.1639 21.9458 52.935 21.9 49.4253C21.8542 45.8229 20.0439 43.7519 17.2425 44.2044C14.8135 44.5293 14.0974 47.0411 14.0974 47.0411Z" fill="#8D1B0E"/>
<path d="M50.7502 11.3941L55.4363 21.4937C55.4363 21.4937 50.2002 21.2558 47.5593 18.9818C44.9183 16.7078 44.4371 13.9175 46.551 12.0206C48.3842 10.3499 50.7502 11.3941 50.7502 11.3941Z" fill="#AF1F17"/>
<path d="M50.7502 11.3937L55.4364 21.4933C55.4364 21.4933 58.5987 17.2643 58.5528 13.7547C58.507 10.1522 56.6967 8.08127 53.8953 8.53375C51.4606 8.88182 50.7502 11.3937 50.7502 11.3937Z" fill="#8D1B0E"/>
<path d="M37.8375 42.0175L35.8038 48.1028C35.8038 48.1028 33.7243 45.8926 33.5123 43.8797C33.3003 41.8667 34.2112 40.5151 35.8439 40.5731C36.2734 40.6114 36.6848 40.7657 37.0355 41.0197C37.3861 41.2737 37.663 41.6183 37.8375 42.0175Z" fill="#AF1F17"/>
<path d="M37.8374 42.0176L35.8037 48.1029C35.8037 48.1029 38.7827 47.6272 40.1518 46.1479C41.521 44.6687 41.6127 43.0444 40.2779 42.0872C39.9149 41.8544 39.4966 41.7251 39.0671 41.7129C38.6376 41.7006 38.2128 41.8059 37.8374 42.0176Z" fill="#8D1B0E"/>
<path d="M81.0954 27.7005L85.7815 37.8001C85.7815 37.8001 80.5454 37.5622 77.9045 35.2882C75.2635 33.0142 74.7823 30.2239 76.8962 28.327C78.7294 26.6563 81.0954 27.7005 81.0954 27.7005Z" fill="#AF1F17"/>
<path d="M81.0955 27.7005L85.7816 37.8001C85.7816 37.8001 88.9439 33.5654 88.898 30.0616C88.8522 26.4591 87.0419 24.3882 84.2406 24.8406C81.8116 25.1887 81.0955 27.7005 81.0955 27.7005Z" fill="#8D1B0E"/>
<path d="M110.375 3.545L104.148 12.757C104.148 12.757 101.696 8.0698 102.292 4.63559C102.888 1.20138 105.019 -0.660748 107.717 0.215208C110.06 0.951939 110.375 3.545 110.375 3.545Z" fill="#AF1F17"/>
<path d="M110.375 3.54492L104.148 12.757C104.148 12.757 109.355 13.3719 112.317 11.5561C115.279 9.74042 116.201 7.06035 114.42 4.83275C112.867 2.90101 110.375 3.54492 110.375 3.54492Z" fill="#8D1B0E"/>
<path d="M80.6485 4.41519L78.6147 10.5005C78.6147 10.5005 76.5352 8.29028 76.3232 6.27732C76.1113 4.26436 77.0164 2.91272 78.6491 2.97653C79.0793 3.01214 79.4921 3.16457 79.8439 3.41775C80.1958 3.67093 80.4737 4.01551 80.6485 4.41519Z" fill="#AF1F17"/>
<path d="M80.6487 4.41504L78.615 10.5003C78.615 10.5003 81.594 10.0246 82.9574 8.55118C84.3208 7.07772 84.424 5.44763 83.0892 4.49046C82.7267 4.25679 82.3087 4.12646 81.8792 4.11319C81.4497 4.09991 81.0246 4.20419 80.6487 4.41504Z" fill="#8D1B0E"/>
<path d="M3.45337 77.537L5.48708 83.6281C5.48708 83.6281 7.56663 81.4121 7.77859 79.4049C7.99055 77.3978 7.08541 76.0345 5.45271 76.0983C5.0225 76.134 4.60973 76.2864 4.25788 76.5396C3.90602 76.7927 3.62809 77.1373 3.45337 77.537Z" fill="#AF1F17"/>
<path d="M127.161 18.0243L127.464 29.1797C127.464 29.1797 132.047 26.5866 133.382 23.3496C134.717 20.1127 133.921 17.4036 131.182 16.6611C128.811 16.0171 127.161 18.0243 127.161 18.0243Z" fill="#AF1F17"/>
<path d="M127.16 18.0244L127.464 29.1798C127.464 29.1798 122.761 26.8593 121.237 23.6862C119.713 20.513 120.378 17.7807 123.07 16.8874C125.407 16.11 127.16 18.0244 127.16 18.0244Z" fill="#8D1B0E"/>
<path d="M95.4805 54.3622L97.5142 60.4475C97.5142 60.4475 99.5937 58.2373 99.8057 56.2301C100.018 54.223 99.1068 52.8597 97.4798 52.9235C97.0496 52.9591 96.6368 53.1116 96.285 53.3648C95.9331 53.6179 95.6552 53.9625 95.4805 54.3622Z" fill="#AF1F17"/>
<path d="M95.4801 54.3622L97.5138 60.4475C97.5138 60.4475 94.5349 59.9718 93.1714 58.4983C91.808 57.0249 91.7049 55.3948 93.0397 54.4376C93.4028 54.2057 93.8206 54.0764 94.2497 54.0631C94.6789 54.0499 95.1037 54.1531 95.4801 54.3622Z" fill="#8D1B0E"/>
<path d="M185.76 110.783H72.7141V176.95H185.76V110.783Z" fill="#D48256"/>
<path d="M185.76 110.783H72.7141V119.281H185.76V110.783Z" fill="#BB744C"/>
<path d="M188.991 104.953H69.4834V113.353H188.991V104.953Z" fill="#D48256"/>
<path d="M188.986 104.953H69.4834L94.8848 78.4363H165.314L188.986 104.953Z" fill="#D79C5D"/>
<path d="M112.902 89.1274L109.092 93.1011H149.377L145.825 89.1274H112.902Z" fill="#B05F3E"/>
<path d="M114.196 90.6473H147.188L145.825 89.1274H112.902L109.092 93.1011H111.842L114.196 90.6473Z" fill="#7D402E"/>
<path d="M136.103 130.837C129.355 128.801 124.479 134.422 124.479 134.422C124.479 134.422 119.599 128.801 112.85 130.837C105.065 133.158 102.865 140.786 107.081 150.172C111.189 159.326 124.479 166.386 124.479 166.386C124.479 166.386 137.764 159.326 141.872 150.172C146.088 140.809 143.889 133.204 136.103 130.837Z" fill="#7D402E"/>
<path d="M127.229 132.577V164.541C127.229 164.541 113.938 157.481 109.831 148.327C105.62 138.941 107.82 131.336 115.605 128.992C122.354 126.962 127.229 132.577 127.229 132.577Z" fill="#AF1F17"/>
<path d="M127.229 132.577V164.541C127.229 164.541 140.52 157.481 144.628 148.327C148.838 138.941 146.638 131.336 138.853 128.992C132.104 126.962 127.229 132.577 127.229 132.577Z" fill="#8D1B0E"/>
<path d="M148.815 71.8175C143.344 75.0312 132.746 72.8849 132.746 72.8849L132.97 63.7366L149.382 59.908C149.382 59.908 154.286 68.6095 148.815 71.8175Z" fill="#C38769"/>
<path d="M156.515 62.8954C152.069 66.7763 141.66 67.5363 141.66 67.5363L140.635 58.446L154.745 52.5232C154.745 52.5232 160.96 59.0087 156.515 62.8954Z" fill="#C38769"/>
<path d="M160.685 55.6615C156.24 59.5424 145.831 60.3024 145.831 60.3024L144.805 51.2121L158.915 45.3125C158.915 45.3125 165.131 51.7749 160.685 55.6615Z" fill="#C38769"/>
<path d="M166.649 18.9817L178.628 31.5873L152.373 47.6098L138.234 57.0771C138.234 57.0771 137.598 65.1057 140.864 67.2637C146.266 70.8313 140.944 79.6373 134.046 76.963C127.149 74.2887 116.07 65.4828 117.387 59.4845C118.705 53.4862 129.945 36.8605 132.981 34.0876C138.521 29.0001 166.649 18.9817 166.649 18.9817Z" fill="#F8B894"/>
<path d="M171.215 33.258C165.268 33.5075 159.356 33.8381 153.456 34.4995C153.03 34.5693 152.593 34.4981 152.21 34.2964C151.827 34.0947 151.518 33.7733 151.33 33.3799C147.988 34.7892 145.109 37.1308 143.029 40.1323C140.211 43.9957 137.633 47.749 134.201 51.0962C131.509 53.7241 127.9 56.787 127.682 60.8652C127.682 61.2422 127.539 63.5336 128.197 63.6264C129.211 63.7715 130.271 63.2842 131.171 62.8607C133.502 61.7643 135.599 60.2444 137.891 59.0784C137.992 59.0252 138.097 58.9806 138.206 58.945C138.206 57.8312 138.251 57.0771 138.251 57.0771L152.39 47.6098L176.067 33.1594C175.746 33.1246 175.425 33.0782 175.105 33.0376C173.77 33.1072 172.464 33.2058 171.215 33.258Z" fill="#DCA585"/>
<path d="M136.985 42.0234L144.232 52.825L146.283 51.688L136.985 42.0234Z" fill="#C38769"/>
<path d="M120.612 61.3871L133.479 62.2515L133.863 59.9194L120.612 61.3871Z" fill="#C38769"/>
<path d="M123.614 63.5449L142.244 88.7155C142.244 88.7155 127.659 91.094 119.094 86.3429C110.306 81.4701 107.602 74.1608 112.369 67.6694C116.493 62.0424 123.614 63.5449 123.614 63.5449Z" fill="#AF1F17"/>
<path d="M123.615 63.5452L142.244 88.7159C142.244 88.7159 148.592 75.2111 146.489 65.5465C144.335 55.6384 138.171 50.9686 130.672 53.7705C124.17 56.2185 123.615 63.5452 123.615 63.5452Z" fill="#8D1B0E"/>
<path d="M151.158 31.9874L178.628 31.5872C178.628 31.5872 168.453 38.0553 167.021 40.7934C164.799 45.0107 166.047 47.8823 159.362 53.1032C153.186 57.8948 144.072 63.8989 136.412 67.571C130.42 70.4715 124.783 65.703 129.349 60.9056C132.941 57.1291 137.822 53.3642 140.841 50.6842C143.86 48.0041 143.35 37.4404 151.158 31.9874Z" fill="#F8B894"/>
<path d="M179.584 6.75903L160.479 18.5351L174.217 37.7191L179.584 35.0391V6.75903Z" fill="#0D3858"/>
</svg>
