<svg xmlns="http://www.w3.org/2000/svg" width="28" height="28" viewBox="0 0 28 28">
  <path id="print" d="M24.5,10.5V4.225a1.751,1.751,0,0,0-.512-1.238L21.512.512A1.75,1.75,0,0,0,20.275,0H5.25A1.75,1.75,0,0,0,3.5,1.75V10.5A3.5,3.5,0,0,0,0,14v6.125A.875.875,0,0,0,.875,21H3.5v5.25A1.75,1.75,0,0,0,5.25,28h17.5a1.75,1.75,0,0,0,1.75-1.75V21h2.625A.875.875,0,0,0,28,20.125V14A3.5,3.5,0,0,0,24.5,10.5ZM21,24.5H7V19.25H21Zm0-12.25H7V3.5H17.5V6.125A.875.875,0,0,0,18.375,7H21Zm2.625,3.937a1.312,1.312,0,1,1,1.313-1.312A1.313,1.313,0,0,1,23.625,16.187Z"/>
</svg>
