<svg width="161" height="71" viewBox="0 0 161 71" fill="none" xmlns="http://www.w3.org/2000/svg">
<g clip-path="url(#clip0_150_1560)">
<path d="M0.588276 64.4359H39.3475L24.1424 30.9731C24.1424 30.9731 4.08777 29.8043 7.28489 48.7015C7.28958 48.7015 -2.45649 55.74 0.588276 64.4359Z" fill="url(#paint0_linear_150_1560)"/>
<path d="M19.1217 51.8949H111.707C111.707 51.8949 107.821 27.1163 87.0676 23.5608C87.0676 23.5608 85.3003 12.92 73.1353 12.899C73.1353 12.899 71.2859 5.41867 62.0813 4.64259C62.0813 4.64259 56.4887 -3.92472 47.5325 2.46395C47.5325 2.46395 28.6521 -1.04246 28.4974 20.6598C28.4974 20.6598 13.0275 28.2547 19.1217 51.8949Z" fill="url(#paint1_linear_150_1560)"/>
<path d="M60.6304 65.219H161C161 65.219 158.968 54.1481 149.904 48.6478C147.717 35.978 140.308 33.4253 135.936 32.4318C132.09 22.8757 125.215 20.1033 117.949 19.6218C117.48 7.5457 104.903 2.62973 95.398 10.1732C95.398 10.1732 74.8323 6.06834 75.5636 28.8109C75.5636 28.8109 55.8465 45.8169 60.6304 65.219Z" fill="url(#paint2_linear_150_1560)"/>
<path d="M22.0047 48.1779C21.5992 49.6669 20.3264 50.8731 19.4545 51.1934C18.3294 51.6071 17.4645 50.6885 18.0059 49.9545C18.5474 49.2204 19.6467 49.5594 20.7155 48.2924C20.7577 48.241 20.7975 48.1896 20.8374 48.1358C21.1227 47.7314 21.2957 47.2589 21.3389 46.7663C21.3822 46.2737 21.294 45.7784 21.0835 45.3307C20.1331 43.3042 18.8858 41.43 17.3824 39.7695C17.4763 40.7627 17.4487 41.7635 17.3004 42.75C17.1152 44.2764 16.2761 45.7888 15.4557 45.3494C14.6353 44.9099 15.2799 43.5097 16.1589 41.698C16.2775 41.4439 16.3724 41.1794 16.4425 40.9079C16.5769 40.3832 16.5683 39.8321 16.4175 39.3118C16.2666 38.7915 15.9791 38.3208 15.5846 37.9485C15.0854 37.481 14.5674 37.0135 14.0376 36.5787C13.6392 36.2491 13.2477 35.9475 12.8657 35.6624C13.0809 36.4845 13.0962 37.346 12.9102 38.1753C12.6758 39.3254 11.6656 40.4404 11.3281 39.5965C10.9905 38.7527 11.4828 38.7129 11.8953 37.0252C11.8953 36.9901 11.9117 36.9527 11.9211 36.9176C12.0365 36.4151 11.9883 35.889 11.7835 35.4156C11.5786 34.9423 11.2278 34.5464 10.7819 34.2855C9.92063 33.7841 9.02271 33.3481 8.09577 32.9811C8.56456 33.9606 8.98881 35.1761 8.85989 35.6927C8.65597 36.5109 7.52854 36.5132 7.5426 34.8442C7.5426 34.6572 7.5426 34.4819 7.52854 34.3159C7.49365 33.8267 7.3029 33.3614 6.98411 32.988C6.66533 32.6146 6.2352 32.3525 5.75653 32.2401C4.52233 31.9342 3.25143 31.8013 1.98045 31.8451C1.88291 31.8501 1.78816 31.8793 1.70483 31.9301C1.6215 31.9809 1.55223 32.0517 1.50332 32.136C1.45441 32.2204 1.42741 32.3155 1.42477 32.4129C1.42214 32.5103 1.44395 32.6068 1.48823 32.6936C1.83536 33.4758 2.05456 34.3084 2.1375 35.1598C2.1896 35.6518 2.38296 36.1185 2.69436 36.5036C3.00576 36.8888 3.42199 37.1763 3.8931 37.3314C3.9603 37.3517 4.03061 37.3704 4.10406 37.3875C5.66746 37.7381 5.14007 38.8485 4.4158 38.6732C3.5934 38.4625 2.84597 38.0279 2.25704 37.4179C2.22891 38 2.14219 38.8836 2.06718 39.9659C2.04312 40.3019 2.12364 40.6371 2.29773 40.9258C2.47183 41.2145 2.73102 41.4425 3.03991 41.5788C3.45106 41.7589 3.89042 41.8665 4.33845 41.8967C6.29329 42.0323 6.82067 42.792 6.19484 43.4536C5.62996 44.0543 3.47823 43.4209 1.9617 42.0954C1.91289 43.5131 1.95203 44.9324 2.0789 46.3452C2.12554 46.8105 2.32349 47.2479 2.64257 47.5906C2.96165 47.9333 3.38435 48.1625 3.84622 48.2433C4.80964 48.4381 5.79842 48.4752 6.7738 48.3532C9.52088 47.9231 9.15523 50.0667 7.57073 50.3191C6.49018 50.4898 4.21891 50.1461 2.60394 49.5477C2.99481 51.3144 3.73335 52.9861 4.77677 54.466C5.13232 54.946 5.65003 55.2814 6.23426 55.4103C6.81849 55.5392 7.42975 55.4529 7.95514 55.1673H7.9692C9.72246 54.1738 10.3272 53.4048 11.0608 53.9985C11.7945 54.5923 10.6343 56.5699 8.14968 56.6587C7.72074 56.6727 7.33399 56.6587 6.97772 56.6587C7.429 56.9806 7.90738 57.263 8.40752 57.5026C16.0839 61.1843 18.4278 56.4507 18.4278 56.4507C21.7539 54.4029 22.6563 51.4014 22.0047 48.1779Z" fill="url(#paint3_linear_150_1560)"/>
<path d="M2.61108 32.5955C5.13081 34.6409 9.05924 37.5044 11.7524 44.0497C14.4456 50.595 17.9638 56.9065 21.7141 59.361" stroke="white" stroke-width="0.63" stroke-miterlimit="10"/>
<path d="M8.23648 41.0694C8.1685 41.3032 7.76769 41.4084 7.31062 41.2868C6.85356 41.1653 6.55822 40.8707 6.62385 40.6299C6.68948 40.3892 7.09264 40.291 7.5497 40.4125C8.00677 40.5341 8.30211 40.8286 8.23648 41.0694Z" fill="#73D9AB"/>
<path d="M16.7683 47.6007C16.8128 47.8461 16.48 48.1126 16.0253 48.1921C15.5706 48.2716 15.1674 48.136 15.1229 47.8905C15.0783 47.6451 15.4135 47.3786 15.8682 47.2991C16.323 47.2196 16.7261 47.3552 16.7683 47.6007Z" fill="#73D9AB"/>
<path d="M10.939 45.8824C10.9061 46.4294 10.0576 46.8175 9.0474 46.7637C8.03717 46.7099 7.24258 46.2073 7.27773 45.658C7.31289 45.1087 8.15671 44.723 9.16929 44.7767C10.1819 44.8305 10.9718 45.3331 10.939 45.8824Z" fill="#73D9AB"/>
<path d="M12.8916 49.8493C13.2526 50.1765 13.0604 50.976 12.458 51.6375C11.8556 52.2991 11.0797 52.5726 10.7188 52.2476C10.3578 51.9227 10.5524 51.1209 11.1524 50.4594C11.7525 49.7978 12.5353 49.5243 12.8916 49.8493Z" fill="#73D9AB"/>
<path d="M10.0436 38.3111C9.7928 38.3344 9.55606 37.9838 9.51153 37.5256C9.46699 37.0674 9.63576 36.6771 9.88421 36.6537C10.1327 36.6303 10.3718 36.981 10.4163 37.4391C10.4608 37.8973 10.2921 38.2877 10.0436 38.3111Z" fill="#73D9AB"/>
<path d="M12.9899 44.4378C12.561 44.3209 12.3876 43.5869 12.6032 42.8014C12.8188 42.016 13.3415 41.4667 13.7752 41.5836C14.2088 41.7004 14.3799 42.4368 14.1619 43.2199C13.9439 44.003 13.4212 44.5546 12.9899 44.4378Z" fill="#73D9AB"/>
<path d="M141.808 56.3221C141.674 56.0603 141.841 55.6652 142.991 55.5273C143.273 55.4975 143.538 55.3783 143.747 55.1873C143.956 54.9963 144.098 54.7435 144.152 54.466C144.208 54.1785 144.25 53.9003 144.281 53.6362C144.311 53.372 144.327 53.1196 144.335 52.8695C144.224 53.0423 144.07 53.1837 143.889 53.2799C143.707 53.3762 143.504 53.424 143.298 53.4188C143.01 53.3884 142.795 52.6895 143.549 52.3949C143.778 52.3054 143.97 52.141 144.092 51.9286C144.215 51.7161 144.262 51.4684 144.224 51.2261C144.035 49.9911 143.617 48.8021 142.991 47.7197C142.858 48.3018 142.127 49.1574 141.116 49.9966C140.991 50.0982 140.9 50.2355 140.856 50.3902C140.812 50.5448 140.816 50.7092 140.868 50.8615C141.238 51.9321 141.243 52.4791 140.842 52.6404C140.441 52.8017 139.904 52.1284 139.979 50.8358C139.417 51.2148 138.828 51.5538 138.217 51.8503C138.03 51.9389 137.875 52.0842 137.776 52.2656C137.677 52.447 137.637 52.6551 137.664 52.8601C137.821 54.0289 137.964 54.4777 137.629 54.7115C137.293 54.9453 136.925 54.3024 137 53.2318C137.025 52.9128 137.092 52.5984 137.2 52.2968C136.218 52.7398 135.332 53.3685 134.591 54.1481C134.432 54.319 134.342 54.5418 134.338 54.7744C134.333 55.007 134.414 55.2333 134.565 55.4104C135.388 56.3805 135.777 56.7008 135.61 57.1075C135.444 57.5143 134.731 57.1473 134.181 56.1304C134.013 55.8181 133.887 55.4848 133.808 55.1393C133.315 55.9103 132.944 56.7523 132.709 57.6358C132.641 57.8742 132.597 58.1184 132.575 58.3652C132.562 58.5241 132.613 58.6817 132.716 58.8035C132.819 58.9253 132.967 59.0013 133.126 59.015C133.991 59.0781 134.333 59.0431 134.452 59.3189C134.572 59.5947 134.052 59.7631 133.281 59.5527C133.041 59.4809 132.812 59.3771 132.601 59.2441C132.682 59.6529 132.856 60.038 133.108 60.3702C133.361 60.7025 133.685 60.9734 134.058 61.1624C134.43 61.3514 134.841 61.4537 135.259 61.4615C135.677 61.4694 136.091 61.3826 136.471 61.2077C137.499 61.4866 138.588 61.4467 139.593 61.0932C138.965 60.8267 138.791 60.4503 138.918 60.3358C139.124 60.1511 139.358 60.2399 139.869 60.6864C139.937 60.7444 140.021 60.7798 140.109 60.7878C140.198 60.7957 140.287 60.7758 140.364 60.7308C141.147 60.256 141.818 59.6181 142.33 58.8607C141.065 59.1506 140.315 58.7228 140.233 58.4633C140.122 58.1174 140.383 57.6452 141.466 58.0893C141.541 58.1221 141.616 58.1478 141.7 58.1735C141.971 58.2529 142.262 58.2332 142.519 58.1179C142.777 58.0027 142.985 57.7994 143.106 57.5447C143.375 56.9907 143.602 56.4171 143.784 55.8289C142.98 56.4203 141.979 56.647 141.808 56.3221Z" fill="url(#paint4_linear_150_1560)"/>
<path d="M143.069 48.4983C143.069 48.4983 143.245 52.6171 140.666 55.6864C138.088 58.7557 135.657 60.8876 136.037 63.9849" stroke="white" stroke-width="0.63" stroke-miterlimit="10"/>
<path d="M139.701 54.9267C139.887 54.9267 140.038 54.6065 140.038 54.2114C140.038 53.8163 139.887 53.4961 139.701 53.4961C139.514 53.4961 139.363 53.8163 139.363 54.2114C139.363 54.6065 139.514 54.9267 139.701 54.9267Z" fill="#85DBAA"/>
<path d="M137.964 56.6659C138.095 57.1521 138.018 57.6009 137.788 57.6593C137.558 57.7178 137.265 57.3742 137.134 56.8879C137.003 56.4017 137.082 55.9529 137.312 55.8944C137.542 55.836 137.823 56.1773 137.964 56.6659Z" fill="#85DBAA"/>
<path d="M142.687 54.8916C142.342 55.088 141.984 55.1254 141.897 54.9571C141.81 54.7888 142.005 54.5059 142.349 54.3096C142.694 54.1132 143.052 54.0758 143.139 54.2418C143.226 54.4078 143.029 54.7 142.687 54.8916Z" fill="#85DBAA"/>
<path d="M140.835 57.2081C140.561 57.2081 140.345 57.0819 140.35 56.9533C140.355 56.8248 140.584 56.7313 140.859 56.7453C141.133 56.7593 141.348 56.8715 141.341 57.0001C141.334 57.1287 141.105 57.2222 140.835 57.2081Z" fill="#85DBAA"/>
<path d="M56.7605 40.5504C56.2542 40.4101 55.9331 39.7135 57.1425 38.0351L57.1543 38.0188C57.444 37.6104 57.5965 37.1209 57.5897 36.6207C57.583 36.1204 57.4174 35.6352 57.1168 35.2347C56.8027 34.8116 56.4886 34.4189 56.1792 34.0659C55.8698 33.7129 55.5534 33.3786 55.2416 33.0677C55.4033 33.8695 55.2205 34.6386 54.7142 35.0898C54.3251 35.4357 53.1415 34.87 53.6641 33.5236C53.823 33.1166 53.8383 32.6679 53.7075 32.2512C53.5767 31.8344 53.3077 31.4744 52.9446 31.2304C51.0883 29.9896 49.017 29.1034 46.8363 28.6169C47.441 29.4982 47.6871 31.4922 47.5629 33.8462C47.5456 34.133 47.617 34.4181 47.7675 34.6631C47.918 34.9081 48.1403 35.1011 48.4044 35.216C50.2795 36.0248 50.9968 36.6793 50.7225 37.3993C50.4483 38.1193 48.9271 37.9954 47.2957 36.3497C47.1166 37.5475 46.8518 38.731 46.5034 39.8912C46.3936 40.2447 46.3985 40.6239 46.5177 40.9744C46.6368 41.325 46.864 41.629 47.1668 41.8431C48.9013 43.054 49.6654 43.407 49.5693 44.1293C49.4732 44.8516 48.1629 44.5641 46.8527 43.1638C46.4623 42.7414 46.129 42.2699 45.8612 41.7613C45.2623 43.5871 45.0235 45.5113 45.158 47.4276C45.1932 47.8428 45.3795 48.2308 45.6817 48.5184C45.984 48.8061 46.3813 48.9735 46.7988 48.9892H46.8152C49.0888 49.0803 49.9865 48.9588 50.3311 49.6694C50.6756 50.38 49.3185 50.8686 47.3097 50.3707C46.6946 50.2118 46.1035 49.9721 45.5518 49.6577C45.9736 51.2386 46.6369 52.7453 47.5184 54.1249C47.7512 54.5025 48.0196 54.857 48.32 55.1838C48.5143 55.3926 48.7834 55.5163 49.0687 55.5281C49.3541 55.54 49.6326 55.4389 49.8435 55.2469C50.9733 54.1903 51.3413 53.6947 51.8476 53.8747C52.3539 54.0547 51.9507 54.936 50.746 55.67C50.3627 55.8995 49.9493 56.0749 49.5177 56.1913C52.3305 57.9141 55.8299 56.4251 56.7839 53.4844C58.6098 52.2688 59.7584 50.8148 60.41 49.2439C59.2966 49.7465 58.5888 49.5174 58.5911 49.2136C58.5911 48.7203 58.9989 48.5123 60.2061 48.3884C60.364 48.3704 60.5123 48.3034 60.63 48.1969C60.7478 48.0903 60.829 47.9497 60.8624 47.7946C61.1865 46.1924 61.1585 44.5392 60.7803 42.9488C59.6318 44.9638 58.1598 45.4313 57.7192 45.2279C57.1261 44.9521 56.8167 44.0381 58.7153 43.1545C58.8466 43.0937 58.9755 43.0283 59.0974 42.9581C59.5351 42.7013 59.8653 42.2956 60.0272 41.8155C60.1891 41.3354 60.1719 40.8131 59.9787 40.3447C59.5735 39.3204 59.09 38.3287 58.5325 37.3783C58.3122 39.1268 57.391 40.7257 56.7605 40.5504Z" fill="url(#paint5_linear_150_1560)"/>
<path d="M47.9475 29.4329C47.9475 29.4329 53.6011 34.1875 54.534 41.2868C55.4668 48.3861 55.3403 54.1624 59.8922 57.4163" stroke="white" stroke-width="0.63" stroke-miterlimit="10"/>
<path d="M52.3622 41.634C52.5872 41.3897 52.3462 40.8036 51.8237 40.325C51.3013 39.8464 50.6953 39.6565 50.4703 39.9008C50.2452 40.1452 50.4863 40.7312 51.0087 41.2099C51.5311 41.6885 52.1371 41.8784 52.3622 41.634Z" fill="#73D9AB"/>
<path d="M53.6542 47.4531C53.8505 47.0776 53.3591 46.4351 52.5567 46.018C51.7543 45.6009 50.9447 45.5671 50.7484 45.9426C50.5522 46.3181 51.0435 46.9607 51.846 47.3778C52.6484 47.7949 53.4579 47.8286 53.6542 47.4531Z" fill="#73D9AB"/>
<path d="M55.9286 37.6729C55.7739 38.3742 55.3848 38.8627 55.059 38.7903C54.7332 38.7178 54.5902 38.1007 54.7519 37.4111C54.9137 36.7215 55.2934 36.2189 55.6192 36.2914C55.945 36.3638 56.0809 36.981 55.9286 37.6729Z" fill="#73D9AB"/>
<path d="M56.7489 42.9091C56.3997 43.2527 55.9871 43.3977 55.8254 43.234C55.6637 43.0704 55.8254 42.6613 56.1629 42.3177C56.5004 41.9741 56.9247 41.8268 57.0864 41.9904C57.2482 42.1541 57.0981 42.5655 56.7489 42.9091Z" fill="#73D9AB"/>
<path d="M135.331 51.2332C135.418 50.2491 136.862 50.2982 138.355 50.7353C138.563 50.7955 138.787 50.7722 138.978 50.6705C139.17 50.5688 139.313 50.3966 139.379 50.1906C139.643 49.3661 139.849 48.524 139.994 47.6707C140.054 47.3177 140.101 46.9694 140.141 46.6188C138.939 47.6099 137 47.8577 136.925 47.0232C136.86 46.2635 137.961 46.1092 139.152 46.2354H139.166C139.3 46.2486 139.434 46.2345 139.562 46.1941C139.69 46.1536 139.808 46.0877 139.91 46.0002C140.011 45.9127 140.094 45.8056 140.153 45.6853C140.211 45.565 140.245 45.434 140.251 45.3004C140.316 44.0871 140.292 42.8707 140.181 41.6607C139.365 42.9604 137.673 43.802 137.328 43.0516C137.01 42.3503 137.996 41.8454 139.161 41.5649C139.434 41.4976 139.672 41.3316 139.829 41.0992C139.986 40.8668 140.05 40.5845 140.01 40.3073C139.882 39.3527 139.69 38.4077 139.436 37.4788C138.05 37.8082 136.691 38.2395 135.369 38.7691C135.265 38.8123 135.179 38.889 135.124 38.9869C135.069 39.0849 135.049 39.1983 135.067 39.3091C135.247 40.4896 135.142 41.5953 134.38 41.5626C133.742 41.5345 133.677 40.4101 134.099 39.3255C133.118 39.7877 132.177 40.3295 131.286 40.9454C131.071 41.0936 130.915 41.3113 130.843 41.5614C130.771 41.8115 130.789 42.0787 130.892 42.3176C131.204 43.0189 131.49 44.0077 130.822 44.356C130.217 44.6716 129.711 43.3625 129.804 42.1095C129.18 42.6584 128.601 43.2573 128.075 43.9002C127.883 44.1363 127.773 44.4273 127.759 44.7306C127.746 45.0338 127.83 45.3335 128 45.5856C128.846 46.8362 129.324 48.1569 128.436 48.5286C127.601 48.8792 126.844 47.2523 126.889 45.5715C126.161 46.794 125.618 48.1164 125.276 49.4964C125.219 49.7181 125.239 49.9524 125.332 50.1615C125.425 50.3707 125.586 50.5423 125.789 50.6488C126.865 51.2075 127.707 51.9509 127.226 52.554C126.746 53.1571 125.574 52.229 124.969 50.9948C124.808 52.0848 124.752 53.1878 124.802 54.2885C124.802 54.3516 124.802 54.41 124.802 54.4708C124.808 54.5521 124.832 54.6312 124.873 54.7017C124.914 54.7723 124.97 54.8325 125.038 54.8778C125.106 54.923 125.184 54.952 125.265 54.9625C125.346 54.973 125.428 54.9647 125.506 54.9383C126.467 54.5923 127.411 54.4942 127.51 55.137C127.608 55.7798 126.103 56.0159 124.931 55.5274C125.599 58.9707 128.213 60.1395 128.213 60.1395C129.982 60.2031 131.729 59.7339 133.227 58.793C132.317 58.2928 131.729 57.5424 132.132 57.1263C132.535 56.7102 133.034 56.9931 133.555 57.5237C133.727 57.6961 133.959 57.7949 134.203 57.7993C134.446 57.8037 134.682 57.7132 134.86 57.5471C135.461 56.9943 136.011 56.3879 136.501 55.7354C134.888 56.0253 132.985 55.2445 133.348 54.4427C133.681 53.7204 134.755 54.1505 135.777 54.8799H135.788C135.905 54.9629 136.038 55.0213 136.178 55.0513C136.318 55.0814 136.463 55.0826 136.604 55.0548C136.745 55.027 136.878 54.9708 136.996 54.8897C137.114 54.8085 137.215 54.7042 137.291 54.583C137.853 53.6818 138.339 52.7357 138.744 51.7545C137.15 52.3927 135.245 52.1753 135.331 51.2332Z" fill="url(#paint6_linear_150_1560)"/>
<path d="M138.965 38.0095C138.965 38.0095 129.301 47.6732 128.183 61.6403" stroke="white" stroke-width="0.63" stroke-miterlimit="10"/>
<path d="M133.217 43.5682C132.983 43.6126 132.725 43.2643 132.631 42.7875C132.538 42.3106 132.631 41.8898 132.866 41.8524C133.1 41.815 133.356 42.1563 133.452 42.6308C133.548 43.1054 133.445 43.5215 133.217 43.5682Z" fill="#73D9AB"/>
<path d="M130.69 48.3439C130.362 48.4093 129.987 47.9114 129.851 47.2312C129.715 46.5509 129.87 45.9455 130.198 45.88C130.526 45.8146 130.901 46.3148 131.037 46.9951C131.173 47.6753 131.026 48.2807 130.69 48.3439Z" fill="#73D9AB"/>
<path d="M135.887 48.9306C135.941 49.335 135.242 49.7581 134.328 49.8656C133.414 49.9732 132.629 49.7534 132.577 49.349C132.526 48.9446 133.222 48.5192 134.136 48.4023C135.05 48.2854 135.835 48.5238 135.887 48.9306Z" fill="#73D9AB"/>
<path d="M134.073 52.6614C134.035 52.9723 133.433 53.1547 132.732 53.0658C132.031 52.977 131.49 52.6567 131.53 52.3458C131.57 52.0349 132.17 51.8526 132.87 51.9414C133.571 52.0303 134.101 52.3622 134.073 52.6614Z" fill="#73D9AB"/>
<path d="M136.813 45.1626C136.888 45.4361 136.485 45.7797 135.915 45.934C135.346 46.0883 134.823 45.9901 134.743 45.7166C134.664 45.4431 135.074 45.0995 135.643 44.9452C136.213 44.7909 136.74 44.8821 136.813 45.1626Z" fill="#73D9AB"/>
<path d="M82.8485 44.5968C83.0453 43.629 84.4728 43.8394 85.9096 44.4332C86.1101 44.5158 86.335 44.517 86.5364 44.4367C86.7378 44.3563 86.8998 44.2007 86.9878 44.003C87.348 43.2142 87.6519 42.4011 87.8973 41.5696C87.9957 41.226 88.0825 40.8823 88.1598 40.541C86.8542 41.3943 84.8994 41.4293 84.9182 40.5901C84.9369 39.8281 86.0479 39.7977 87.2199 40.0525H87.2316C87.3629 40.0802 87.4984 40.081 87.6299 40.0549C87.7615 40.0288 87.8864 39.9764 87.9971 39.9008C88.1077 39.8252 88.2018 39.7279 88.2737 39.615C88.3456 39.502 88.3938 39.3757 88.4153 39.2437C88.6118 38.0453 88.7214 36.8345 88.7434 35.6204C87.7895 36.8219 86.0151 37.4741 85.7549 36.691C85.5205 35.9664 86.5519 35.5643 87.7402 35.4124H87.7543C88.0326 35.3749 88.287 35.2358 88.4684 35.0221C88.6498 34.8084 88.7453 34.5351 88.7364 34.2552C88.7134 33.2929 88.6265 32.3332 88.4762 31.3823C87.0625 31.5559 85.6639 31.8357 84.2923 32.2192C84.1799 32.2467 84.0805 32.3124 84.0112 32.4049C83.942 32.4974 83.9071 32.6111 83.9126 32.7264C83.9618 33.9186 83.7368 35.0056 82.975 34.8911C82.3422 34.7929 82.4055 33.6685 82.9399 32.6353C81.9175 32.9887 80.9258 33.4249 79.9748 33.9397C79.7457 34.0632 79.5663 34.2619 79.4672 34.5022C79.3681 34.7424 79.3554 35.0095 79.431 35.2581C79.6654 36.0014 79.8412 37.0066 79.138 37.2778C78.5028 37.5255 78.1442 36.1697 78.3739 34.9402C77.6922 35.4166 77.0516 35.9491 76.4589 36.5321C76.2407 36.744 76.0973 37.0208 76.0504 37.321C76.0035 37.6211 76.0555 37.9283 76.1987 38.1964V38.2105C76.9019 39.5452 77.2347 40.9081 76.3089 41.1839C75.4393 41.441 74.8697 39.7416 75.0971 38.0749C74.2397 39.2101 73.5542 40.4647 73.0625 41.7987C72.9813 42.013 72.9748 42.2483 73.0441 42.4667C73.1134 42.6851 73.2545 42.8739 73.4446 43.0025C74.4502 43.6758 75.2049 44.508 74.6611 45.0526C74.1173 45.5973 73.0532 44.55 72.5891 43.255C72.3178 44.3243 72.1498 45.4171 72.0875 46.5183C72.0875 46.5791 72.0875 46.6399 72.0875 46.7006C72.0837 46.7829 72.0992 46.8648 72.1327 46.9401C72.1662 47.0153 72.2167 47.0817 72.2804 47.1341C72.344 47.1865 72.4191 47.2234 72.4995 47.2419C72.5799 47.2603 72.6635 47.2599 72.7438 47.2406C73.7376 47.0069 74.6845 47.0069 74.715 47.6567C74.7455 48.3066 73.2196 48.3767 72.0992 47.7619C72.3828 51.2566 74.8627 52.7059 74.8627 52.7059C76.6137 52.9625 78.4016 52.6871 79.9936 51.9158C79.145 51.3197 78.6458 50.5133 79.0911 50.1392C79.5365 49.7652 80.0029 50.1065 80.4623 50.6909C80.6141 50.88 80.8336 51.003 81.0745 51.034C81.3154 51.0649 81.5589 51.0015 81.7538 50.8569C82.4119 50.3732 83.0239 49.8302 83.5821 49.2346C81.9414 49.3468 80.1342 48.3603 80.5889 47.5983C81.0014 46.918 82.0257 47.4627 82.9563 48.2996C83.0631 48.3952 83.1884 48.4679 83.3245 48.5133C83.4607 48.5587 83.6047 48.5758 83.7476 48.5635C83.8906 48.5513 84.0296 48.5099 84.1559 48.442C84.2823 48.3741 84.3933 48.281 84.4822 48.1686C85.149 47.3392 85.7426 46.4539 86.2565 45.5225C84.5291 45.9503 82.6609 45.5248 82.8485 44.5968Z" fill="url(#paint7_linear_150_1560)"/>
<path d="M87.9162 31.8499C87.9162 31.8499 77.2466 40.3961 74.6003 54.1576" stroke="white" stroke-width="0.63" stroke-linecap="round" stroke-linejoin="round"/>
<path d="M81.5922 36.7471C81.3578 36.7658 81.1375 36.3917 81.0953 35.9079C81.0531 35.424 81.2078 35.0172 81.4399 34.9962C81.6719 34.9752 81.8946 35.3515 81.9368 35.8354C81.979 36.3193 81.8243 36.726 81.5922 36.7471Z" fill="#85DBAA"/>
<path d="M78.5545 41.219C78.2217 41.247 77.9052 40.7094 77.8513 40.0198C77.7974 39.3302 78.0107 38.7435 78.3436 38.7154C78.6764 38.6874 78.9952 39.2227 79.0467 39.9146C79.0983 40.6065 78.8874 41.1886 78.5545 41.219Z" fill="#85DBAA"/>
<path d="M83.6547 42.369C83.6547 42.7757 82.9234 43.1217 81.9999 43.138C81.0764 43.1544 80.3264 42.8388 80.317 42.4368C80.3076 42.0347 81.0506 41.684 81.9718 41.6653C82.893 41.6466 83.6477 41.9599 83.6547 42.369Z" fill="#85DBAA"/>
<path d="M81.4305 45.8777C81.3578 46.1816 80.7273 46.2962 80.0523 46.1349C79.3772 45.9736 78.8639 45.5902 78.9365 45.2863C79.0092 44.9824 79.6257 44.8655 80.3148 45.0292C81.0039 45.1928 81.5032 45.5832 81.4305 45.8777Z" fill="#85DBAA"/>
<path d="M84.9909 38.7271C85.0354 39.0053 84.5971 39.3045 84.0134 39.3933C83.4298 39.4822 82.9212 39.3302 82.8766 39.0497C82.8321 38.7692 83.2728 38.4723 83.8564 38.3835C84.44 38.2947 84.9487 38.4466 84.9909 38.7271Z" fill="#85DBAA"/>
<path d="M112.755 47.2031C111.407 46.7239 111.892 45.9174 112.422 45.8005C112.952 45.6837 113.559 46.2681 114.55 46.3148C114.687 46.323 114.823 46.3039 114.952 46.2585C115.08 46.2131 115.199 46.1424 115.299 46.0507C115.4 45.9589 115.481 45.8479 115.538 45.7242C115.595 45.6005 115.627 45.4667 115.631 45.3307C115.646 44.2584 115.562 43.1871 115.378 42.1305C115.269 41.4636 115.105 40.8068 114.888 40.1669C114.185 41.504 112.881 42.5185 112.406 42.4624C111.606 42.3643 111.358 41.7378 113.256 40.3796L113.385 40.2838C113.74 40.0125 113.985 39.623 114.075 39.1865C114.166 38.75 114.095 38.2956 113.878 37.9065C113.07 36.4877 112.06 35.1932 110.88 34.0634C111.562 35.8774 111.114 37.7031 110.324 37.4974C109.33 37.2356 109.933 35.8727 110.09 34.6245V34.5964C110.125 34.2115 110.06 33.8241 109.903 33.471C109.745 33.1178 109.5 32.8108 109.19 32.5791C108.57 32.0934 107.922 31.6445 107.249 31.2349C107.111 31.1511 106.946 31.1203 106.787 31.1482C106.627 31.1762 106.483 31.261 106.382 31.3869C105.817 32.097 105.345 32.8753 104.975 33.7034C104.817 34.0449 104.777 34.4292 104.862 34.7957C104.947 35.1622 105.152 35.4901 105.444 35.7278C105.629 35.8734 105.824 36.0054 106.028 36.1229C106.841 36.5904 106.813 37.4319 106.117 37.4787C105.517 37.5184 104.666 36.9223 104.178 35.9008C103.847 37.117 103.637 38.3627 103.55 39.6199C103.51 40.132 103.668 40.64 103.992 41.0393C104.316 41.4385 104.781 41.6986 105.292 41.7658C105.573 41.7999 105.857 41.8109 106.14 41.7986C107.078 41.7495 107.514 42.4695 106.954 42.8855C106.304 43.3694 104.64 43.1333 103.51 41.7822C103.428 43.6359 103.998 45.6416 104.448 46.9249C104.513 47.1078 104.621 47.2723 104.763 47.4044C104.906 47.5364 105.078 47.632 105.266 47.6831C105.453 47.7341 105.65 47.739 105.84 47.6973C106.03 47.6557 106.207 47.5687 106.356 47.4439C106.66 47.1923 106.936 46.9094 107.181 46.6C107.8 45.8005 108.695 45.9548 108.644 46.7005C108.583 47.5818 107.183 48.8044 105.24 48.7296C107.352 52.1284 111.102 51.0251 111.102 51.0251C112.692 51.0742 114.766 50.2467 115.427 47.1844C114.563 47.4859 113.623 47.4925 112.755 47.2031Z" fill="url(#paint8_linear_150_1560)"/>
<path d="M107.153 32.2356C107.153 32.2356 111.841 45.1836 110.866 55.9015" stroke="white" stroke-width="0.63" stroke-linecap="round" stroke-linejoin="round"/>
<path d="M108.496 40.3773C108.433 40.5667 108.006 40.5947 107.542 40.4381C107.078 40.2815 106.757 40.0057 106.82 39.8163C106.883 39.627 107.312 39.5989 107.774 39.7555C108.236 39.9122 108.559 40.188 108.496 40.3773Z" fill="#85DBAA"/>
<path d="M111.618 39.6318C111.78 39.7486 111.674 40.1624 111.384 40.5668C111.093 40.9712 110.73 41.1816 110.568 41.0624C110.406 40.9432 110.512 40.5317 110.802 40.1273C111.093 39.7229 111.456 39.5055 111.618 39.6318Z" fill="#85DBAA"/>
<path d="M109.08 44.0101C109.171 44.2439 108.803 44.5968 108.257 44.8236C107.711 45.0503 107.19 45.0573 107.099 44.8236C107.008 44.5898 107.373 44.2345 107.919 44.0101C108.465 43.7857 108.993 43.7857 109.08 44.0101Z" fill="#85DBAA"/>
<path d="M113.39 44.4776C113.313 44.7113 112.795 44.7394 112.232 44.5524C111.669 44.3654 111.28 44.0264 111.358 43.795C111.435 43.5636 111.953 43.5332 112.513 43.7225C113.073 43.9119 113.467 44.2485 113.39 44.4776Z" fill="#85DBAA"/>
<path d="M107.458 35.1832C107.361 35.3141 107.022 35.2299 106.7 34.9938C106.379 34.7577 106.197 34.4608 106.295 34.3276C106.393 34.1944 106.731 34.2808 107.052 34.5169C107.373 34.753 107.556 35.0499 107.458 35.1832Z" fill="#85DBAA"/>
<path d="M107.619 65.3406H146.214C146.214 65.3406 144.731 63.3934 142.621 63.3934C139.809 58.0941 136.45 58.2507 135.121 60.6654C134.64 60.1316 134.021 59.7402 133.331 59.534C132.642 59.3279 131.909 59.3149 131.213 59.4966C131.213 59.4966 128.949 55.4666 126.525 55.2609C124.73 49.7558 122.049 46.5814 122.072 52.4838C122.072 52.4838 117.853 52.9513 116.761 56.9253C115.178 54.9196 111.993 55.4455 110.978 60.1979C108.946 57.0819 107.462 61.4438 107.619 65.3406Z" fill="url(#paint9_linear_150_1560)"/>
<path d="M84.1798 65.3407H130.667C130.667 65.3407 129.729 63.4707 128.089 62.7694C126.214 58.4846 124.73 60.0414 124.416 60.5884C122.463 57.7038 120.822 58.1713 120.822 58.1713C120.822 58.1713 120.431 54.5808 117.15 53.7299C113.948 50.0715 112.384 51.785 110.666 50.0715C108.948 48.3581 107.619 46.4085 104.884 46.3314C101.837 41.8104 98.2434 40.2536 97.3832 47.7339C94.4134 48.2014 91.6007 53.8117 90.8975 57.1615C90.1943 60.5113 82.7734 56.1469 84.1798 65.3407Z" fill="url(#paint10_linear_150_1560)"/>
<path d="M53.5518 65.3406H114.806C114.806 65.3406 113.556 64.4055 112.15 63.4705C110.744 62.5355 109.806 62.3788 109.026 62.5355C108.008 59.9641 105.353 59.5737 104.103 57.8603C103.32 55.366 100.665 54.3539 97.7747 54.5876C94.7276 50.8475 91.2727 51.2378 89.571 51.1584C86.845 48.8208 84.8831 49.0545 84.1799 49.2111C82.4595 47.2639 81.0531 45.9385 79.2577 45.7047C79.2577 45.7047 78.0857 41.9459 76.2106 42.1212C74.3354 42.2965 72.3431 49.0171 72.3431 49.0171C71.3249 49.4173 70.4168 50.053 69.6934 50.872C68.97 51.6909 68.4522 52.6696 68.1826 53.7274C67.7311 52.7268 66.9717 51.8957 66.0144 51.3547C66.0144 51.3547 65.8387 47.673 64.4909 47.6145C63.1431 47.5561 61.854 54.9196 61.854 54.9196C61.854 54.9196 58.3967 55.0364 57.9279 58.2506C57.9279 58.2506 53.5518 57.6078 53.5518 65.3406Z" fill="url(#paint11_linear_150_1560)"/>
<path d="M29.4866 65.3407H74.101C74.101 65.3407 72.2258 65.1069 71.0539 63.7044C69.8819 62.3018 69.2561 61.8343 68.1615 61.8343C66.4434 58.405 64.3338 57.9375 62.9275 58.0941C59.7233 53.3418 56.9903 53.2623 53.8635 52.7177C50.582 46.7965 46.3629 44.4776 44.176 45.3636C41.9891 46.2495 41.5203 50.6138 41.5203 50.6138C41.5203 50.6138 36.7528 51.9603 36.1293 55.261C32.6907 55.9903 31.9102 60.3546 31.8305 61.7572C30.0351 61.7572 29.1748 64.249 29.4866 65.3407Z" fill="url(#paint12_linear_150_1560)"/>
<path d="M43.0017 71H22.6095C19.2694 71 16.2996 68.5081 15.9762 65.4295L9.70849 5.57051C9.38737 2.49422 11.8344 0 15.1745 0H35.5667C38.9092 0 41.8696 2.49422 42.1907 5.57051L48.4654 65.4295C48.7889 68.5081 46.3418 71 43.0017 71Z" fill="url(#paint13_linear_150_1560)"/>
<path d="M46.7051 71H26.3129C22.9704 71 20.0077 68.5081 19.6889 65.4295L13.4142 5.57051C13.0907 2.49422 15.5378 0 18.8779 0H39.2701C42.6102 0 45.58 2.49422 45.9011 5.57051L52.1688 65.4295C52.504 68.5081 50.0452 71 46.7051 71Z" fill="#1051B3"/>
<path d="M39.46 1.87012H35.0488C34.896 1.86294 34.7455 1.90823 34.6222 1.99842C34.4989 2.08861 34.4104 2.21825 34.3714 2.3657C34.292 2.66198 34.1134 2.9223 33.8653 3.10344C33.6172 3.28457 33.3144 3.37564 33.0072 3.36152H25.8394C25.5096 3.36108 25.1868 3.26726 24.9083 3.09097C24.6299 2.91468 24.4074 2.66317 24.2667 2.3657C24.1972 2.21768 24.0869 2.09247 23.9487 2.0047C23.8104 1.91694 23.65 1.87026 23.4861 1.87012H19.0725C16.8552 1.87012 15.2355 3.52748 15.4441 5.57055L21.7165 65.4295C21.9298 67.4749 23.9034 69.13 26.1207 69.13H46.5129C48.7326 69.13 50.357 67.4749 50.1437 65.4295L43.8666 5.57055C43.6533 3.52748 41.6797 1.87012 39.46 1.87012Z" fill="white"/>
<path d="M30.8553 2.31188H25.9049C25.8274 2.31287 25.7521 2.28603 25.6927 2.23625C25.6333 2.18648 25.5938 2.11708 25.5815 2.04072C25.578 2.00454 25.5824 1.96803 25.5945 1.93374C25.6066 1.89945 25.6261 1.86821 25.6515 1.84217C25.6769 1.81614 25.7077 1.79595 25.7418 1.783C25.7759 1.77006 25.8123 1.76467 25.8487 1.76722H30.7967C30.8749 1.76623 30.9508 1.79332 31.0106 1.84353C31.0704 1.89374 31.1102 1.96373 31.1225 2.04072C31.1253 2.07662 31.1203 2.1127 31.1079 2.14652C31.0955 2.18034 31.076 2.21112 31.0507 2.23681C31.0254 2.26249 30.9948 2.28247 30.9611 2.29542C30.9274 2.30837 30.8914 2.31398 30.8553 2.31188Z" fill="#16367C"/>
<path d="M32.9884 2.04068C32.995 2.11684 32.985 2.19353 32.9591 2.26548C32.9332 2.33743 32.892 2.40296 32.8383 2.45757C32.7847 2.51218 32.7199 2.55458 32.6483 2.58188C32.5767 2.60918 32.5 2.62072 32.4235 2.61573C32.2586 2.61793 32.0985 2.56112 31.972 2.45561C31.8456 2.3501 31.7613 2.20289 31.7344 2.04068C31.7278 1.9642 31.7379 1.88721 31.7639 1.81498C31.7899 1.74274 31.8312 1.67696 31.8851 1.62214C31.939 1.56731 32.0041 1.52473 32.0759 1.49732C32.1478 1.4699 32.2248 1.45829 32.3016 1.46329C32.4667 1.46076 32.6271 1.5178 32.7533 1.6239C32.8795 1.73001 32.963 1.87802 32.9884 2.04068Z" fill="#16367C"/>
<path d="M12.9244 18.979C12.7353 18.9819 12.5514 18.9165 12.4067 18.795C12.262 18.6734 12.1662 18.5039 12.1369 18.3175L11.2227 9.58421C11.2152 9.49653 11.2266 9.40825 11.2563 9.32538C11.2861 9.24252 11.3333 9.16701 11.3949 9.10401C11.4566 9.04101 11.5311 8.99199 11.6134 8.96029C11.6957 8.9286 11.7839 8.91496 11.872 8.92033C12.0611 8.91813 12.2446 8.98408 12.3889 9.10604C12.5332 9.228 12.6284 9.3978 12.6572 9.58421L13.5737 18.3105C13.5824 18.3986 13.5717 18.4876 13.5425 18.5712C13.5132 18.6548 13.4661 18.7311 13.4043 18.7947C13.3425 18.8583 13.2676 18.9078 13.1847 18.9396C13.1019 18.9714 13.013 18.9849 12.9244 18.979Z" fill="#3C72E8"/>
<path d="M14.2533 31.6605C14.0641 31.6633 13.8803 31.598 13.7356 31.4764C13.5909 31.3549 13.4951 31.1853 13.4657 30.999L12.5516 22.2727C12.544 22.185 12.5555 22.0967 12.5852 22.0139C12.6149 21.931 12.6622 21.8555 12.7238 21.7925C12.7854 21.7295 12.8599 21.6805 12.9422 21.6488C13.0246 21.6171 13.1128 21.6034 13.2009 21.6088C13.3902 21.6065 13.5741 21.6724 13.7187 21.7943C13.8634 21.9162 13.9591 22.0861 13.9884 22.2727L14.9049 30.999C14.9125 31.0867 14.901 31.1751 14.8712 31.2581C14.8413 31.341 14.7938 31.4165 14.7318 31.4794C14.6699 31.5422 14.5951 31.591 14.5125 31.6223C14.4299 31.6535 14.3414 31.6666 14.2533 31.6605Z" fill="#3C72E8"/>
<path d="M50.139 65.4295L46.3442 29.22C44.5628 27.9904 42.6994 26.8076 40.7563 25.6902C32.6744 21.0361 24.3487 18.0697 16.6138 16.7793L21.7165 65.4295C21.9298 67.4749 23.9034 69.1299 26.1208 69.1299H46.513C48.728 69.1299 50.3523 67.4749 50.139 65.4295Z" fill="url(#paint14_linear_150_1560)"/>
<path d="M21.7166 65.4295C21.9299 67.4749 23.9034 69.13 26.1208 69.13H46.513C48.7327 69.13 50.3571 67.4749 50.1438 65.4295L50.1086 65.0906H21.6814L21.7166 65.4295Z" fill="url(#paint15_linear_150_1560)"/>
<path d="M111.625 64.436L112.241 67.7087C112.241 67.7087 115.612 69.1112 115.631 69.5063C115.649 69.9013 111.859 69.5063 110.708 69.5063C109.558 69.5063 110.563 68.2884 110.509 67.8162C110.455 67.344 109.309 64.4384 109.309 64.4384L111.625 64.436Z" fill="#9C6B43"/>
<path d="M94.2986 64.436L92.7727 67.7087C92.7727 67.7087 96.1433 69.1112 96.162 69.5063C96.1808 69.9013 92.3906 69.5063 91.2398 69.5063C90.0889 69.5063 90.8554 68.2557 91.0405 67.8162C91.3593 67.0612 91.9781 64.4384 91.9781 64.4384L94.2986 64.436Z" fill="#9C6B43"/>
<path d="M104.378 31.3099C104.378 31.3099 107.659 39.7837 108.597 47.6731C108.597 47.6731 110.003 49.1341 110.003 53.1665C110.003 53.1665 111.644 61.5234 112.054 64.6792H107.542C107.361 64.0221 107.261 63.3454 107.244 62.6642C107.24 62.0967 107.089 61.5398 106.808 61.0465C106.021 59.6916 105.57 58.169 105.491 56.6051C105.491 56.6051 103.967 52.6312 103.616 50.9948C103.264 49.3585 101.096 44.508 100.979 42.9301C100.979 42.9301 100.217 49.5338 98.9865 53.9753C97.7559 58.4167 94.7674 64.6698 94.7674 64.6698H90.6655C90.6655 64.6698 90.8413 62.2153 91.6031 60.9881C91.6031 60.9881 92.0719 57.131 92.8923 54.9688C92.8923 54.9688 93.0376 51.7265 94.015 49.8073C94.239 49.3574 94.3423 48.8573 94.315 48.3557C94.1931 45.7843 93.8673 38.4115 94.0267 36.1511C94.2611 32.6844 95.8222 31.3005 95.8222 31.3005L104.378 31.3099Z" fill="#D95757"/>
<path d="M104.837 54.8472C107.073 54.9033 109.558 56.6331 110.865 57.6897C110.502 55.7308 110.162 54.029 110.052 53.4142C109.009 52.6989 108.147 51.5184 107.307 50.4782C105.99 48.8419 106.517 46.2705 104.319 45.1017C102.12 43.9329 101.565 39.1128 101.565 39.1128C101.419 40.5154 100.979 42.9394 100.979 42.9394C101.096 44.5173 103.264 49.3679 103.616 51.0042C103.955 52.3056 104.363 53.5883 104.837 54.8472Z" fill="url(#paint16_linear_150_1560)"/>
<path d="M104.832 32.5534C104.553 31.7633 104.377 31.3098 104.377 31.3098H95.8221C95.8221 31.3098 94.5212 32.4786 94.1157 35.3422C94.6806 36.3707 95.8455 36.352 97.0738 35.8097C98.5762 35.1482 99.0661 33.9022 100.491 34.136C101.832 34.3627 103.705 33.6124 104.832 32.5534Z" fill="url(#paint17_linear_150_1560)"/>
<path d="M116.259 39.3747C116.259 39.3747 115.947 40.0759 115.361 39.7253C114.775 39.3747 116.123 38.3227 116.259 38.5565C116.395 38.7903 116.545 39.038 116.259 39.3747Z" fill="#805737"/>
<path d="M110.971 25.8281L111.409 28.7384L115.893 37.446C115.893 37.446 116.538 38.6733 116.128 39.4914C115.952 39.8421 115.921 38.7036 115.921 38.7036C115.776 38.643 115.645 38.5513 115.539 38.435C115.433 38.3187 115.354 38.1806 115.307 38.0304L114.838 38.7621C114.669 38.3043 114.599 37.8159 114.632 37.3291C114.632 37.3291 109.3 32.7708 108.158 30.6085C107.458 29.2286 107.067 27.7129 107.014 26.1671L110.971 25.8281Z" fill="#BD8151"/>
<path d="M111.226 27.5276L110.971 25.8281L107.014 26.1671C107.045 27.07 107.19 27.9654 107.446 28.8319C108.575 27.6865 110.237 27.5135 111.226 27.5276Z" fill="#805737"/>
<path d="M105.097 12.4921C105.097 12.4921 105.418 13.8666 105.097 14.1588C104.776 14.451 103.691 14.1588 103.691 14.1588L103.456 15.7811L105.625 16.1738C105.625 16.1738 105.477 18.322 102.167 18.322C98.8576 18.322 98.8271 16.0148 98.8271 16.0148L100.789 15.5894L101.302 14.0863L101.565 12.8567C101.565 12.8567 101.009 11.2625 101.185 10.6944C101.361 10.1264 102.385 9.27552 103.939 9.6846C105.493 10.0937 105.667 10.6056 105.625 11.1316C105.582 11.6575 105.097 12.4921 105.097 12.4921Z" fill="#BD8151"/>
<path d="M102.05 12.6978C102.05 12.6978 102.533 13.8666 103.691 14.1588L103.529 15.2785C103.433 15.2989 103.334 15.2991 103.238 15.2789C103.142 15.2588 103.051 15.2188 102.971 15.1616C102.749 14.9676 102.866 14.5678 102.669 14.4019C102.472 14.2359 102.034 14.1868 101.947 13.8268C101.86 13.4668 101.87 12.9713 101.781 12.9128C101.692 12.8544 102.05 12.6978 102.05 12.6978Z" fill="#805737"/>
<path d="M98.8272 15.7063C98.8272 15.7063 99.4436 18.0439 102.409 18.0439C105.374 18.0439 105.456 15.9401 105.456 15.9401C105.456 15.9401 108.737 15.8232 109.703 17.0224C110.669 18.2216 110.758 19.8275 111.168 20.5568C111.578 21.2862 112.867 26.4312 112.867 26.4312C112.351 26.4 111.832 26.4 111.316 26.4312C110.692 26.49 110.064 26.49 109.44 26.4312C108.707 26.3728 108.327 26.5761 107.683 26.6346C107.352 26.6728 107.017 26.6728 106.686 26.6346C106.422 27.2801 106.207 27.9442 106.042 28.6216C105.964 29.1544 105.823 29.6761 105.622 30.1761C105.388 30.7254 105.66 31.5786 105.339 31.8591C105.017 32.1396 97.6036 31.8591 95.9324 31.8591C94.2612 31.8591 94.6245 31.4547 94.7183 30.7558C94.812 30.0568 94.2635 23.7126 94.2635 23.7126L93.326 25.4962L92.965 25.4284L88.4904 25.1081L88.3732 24.5167C88.0848 24.3632 87.7807 24.2409 87.4661 24.1521C87.1464 24.0724 86.833 23.9693 86.5286 23.8435C86.5286 23.8435 88.4318 21.9898 89.3413 20.4119C90.2507 18.834 92.0368 16.847 94.3807 16.438C96.7247 16.0289 98.8272 15.7063 98.8272 15.7063Z" fill="#275ACC"/>
<path d="M111.909 68.4497L110.165 67.7694C110.09 68.2977 109.654 69.5039 110.718 69.5039C111.866 69.5039 115.657 69.9037 115.64 69.5039C115.624 69.1042 112.546 67.4702 112.546 67.4702L112.113 67.7507C112.014 67.8147 111.938 67.9091 111.898 68.0197C111.858 68.1302 111.855 68.2508 111.89 68.3632L111.909 68.4497Z" fill="#223763"/>
<path d="M92.4398 68.4497L90.6889 67.7694C90.6139 68.2977 90.1779 69.5039 91.242 69.5039C92.3906 69.5039 96.1807 69.9037 96.1643 69.5039C96.1479 69.1042 93.0726 67.4702 93.0726 67.4702L92.6367 67.7507C92.5376 67.8145 92.4623 67.909 92.4225 68.0197C92.3827 68.1304 92.3805 68.2511 92.4163 68.3632L92.4398 68.4497Z" fill="#223763"/>
<path d="M104.598 10.6384C104.464 10.5334 104.293 10.485 104.124 10.5038C103.954 10.5226 103.799 10.607 103.691 10.7389C103.281 11.2228 102.519 11.9241 102.519 11.9241C102.519 11.9241 102.371 11.2509 102.05 11.3677C101.729 11.4846 101.623 12.6254 102.05 12.6978L101.302 14.0864C101.255 13.8013 101.23 13.5128 101.23 13.2238C100.772 12.386 100.525 11.4499 100.51 10.4958C100.51 10.4958 99.9404 10.0961 100.409 9.64493C100.878 9.19377 105.346 7.59952 105.273 9.57012C105.273 9.57012 106.752 10.0821 106.532 10.4911C106.311 10.9002 105.097 12.4921 105.097 12.4921C105.097 12.4921 105.273 10.8418 105.081 10.594C104.888 10.3462 104.598 10.6384 104.598 10.6384Z" fill="#333333"/>
<path d="M95.433 20.5381C95.433 20.5381 95.3346 22.3895 94.4158 23.4204" stroke="#16367C" stroke-width="0.75" stroke-miterlimit="10"/>
<path d="M108.772 19.2454C108.769 19.7646 108.628 20.2738 108.362 20.7204C108.386 21.1113 108.311 21.502 108.144 21.8565" stroke="#16367C" stroke-width="0.75" stroke-miterlimit="10"/>
<path d="M96.1152 28.5444C96.3683 27.6772 96.3097 26.499 96.2019 25.5897C96.103 24.8066 96.1628 24.0117 96.3777 23.2521C96.5275 22.7265 96.6063 22.1832 96.6121 21.6368C96.6127 21.5984 96.6 21.561 96.5763 21.5307C96.5526 21.5005 96.5192 21.4792 96.4817 21.4705C96.4442 21.4617 96.4049 21.4661 96.3702 21.4827C96.3355 21.4994 96.3075 21.5273 96.291 21.562C95.8404 22.457 95.1383 23.2018 94.2705 23.7056C94.2705 23.7056 94.819 30.0499 94.7252 30.7488C94.6315 31.4477 94.2705 31.8521 95.9394 31.8521C96.5676 31.8521 98.002 31.8895 99.5654 31.9223C97.7606 31.1789 95.787 29.6875 96.1152 28.5444Z" fill="url(#paint18_linear_150_1560)"/>
<path d="M107.69 26.6346C108.254 26.5832 108.627 26.4219 109.192 26.4219C108.362 25.7861 108.512 24.7061 108.578 23.4204C108.608 22.8725 108.571 22.323 108.468 21.7841C108.46 21.745 108.438 21.7099 108.407 21.6847C108.376 21.6595 108.338 21.6458 108.298 21.6458C108.258 21.6458 108.219 21.6595 108.188 21.6847C108.157 21.7099 108.136 21.745 108.128 21.7841C107.825 23.3456 107.08 25.5102 106.693 26.644C107.025 26.679 107.359 26.6759 107.69 26.6346Z" fill="url(#paint19_linear_150_1560)"/>
<path d="M100.28 31.0668L97.6528 30.1131L100.4 25.8259L103.027 26.7797L100.28 31.0668Z" fill="white"/>
<path d="M92.972 25.4284L92.2102 26.6931L99.7483 28.5188C100.066 28.3151 100.408 28.1511 100.766 28.0302C101.352 27.8362 101.488 28.0699 101.293 28.1471C101.098 28.2242 100.355 28.3434 100.51 28.5959C100.665 28.8484 101.469 28.6356 101.741 28.3808C102.013 28.126 102.524 28.0302 102.385 28.2453C102.247 28.4603 102.055 28.5117 102.015 28.7128C101.975 28.9138 102.055 29.1242 101.781 29.2224C101.506 29.3206 101.623 29.5917 101.37 29.6315C101.117 29.6712 101.117 29.9611 100.883 29.8839L99.5725 29.4538C99.5725 29.4538 90.5484 31.0504 88.0685 29.4725C85.5886 27.8946 88.3803 24.5098 88.3803 24.5098C88.3803 24.5098 88.6733 24.8277 89.6694 24.7248C90.6656 24.622 91.1719 24.996 91.6711 25.1012C92.1704 25.2064 92.972 25.4284 92.972 25.4284Z" fill="#BD8151"/>
<path d="M92.9719 25.4285C92.9719 25.4285 92.1702 25.2135 91.671 25.1083C91.1717 25.0031 90.6654 24.6407 89.6693 24.7319C88.6731 24.8231 88.3801 24.5168 88.3801 24.5168C88.3801 24.5168 88.2207 24.7109 88.0098 25.0288C89.4161 25.0007 91.3991 26.5061 92.2101 26.6932L92.9719 25.4285Z" fill="#805737"/>
<path d="M120.766 64.2327L119.995 66.2266C119.915 66.4339 119.899 66.6605 119.951 66.8767C120.002 67.0929 120.118 67.2884 120.284 67.4375L120.483 67.6175C120.662 67.7785 120.883 67.8855 121.12 67.9261C121.643 68.0196 122.585 68.23 122.801 68.5759H117.621L118.629 66.9162L119.072 64.2327H120.766Z" fill="#D97E7E"/>
<path d="M117.621 68.5758H122.801C122.585 68.2298 121.643 68.0194 121.12 67.9259C120.883 67.8854 120.662 67.7784 120.483 67.6174L120.284 67.4374C120.169 67.3319 120.077 67.2038 120.014 67.061L119.409 67.4701L118.472 67.1686L117.621 68.5758Z" fill="#275ACC"/>
<path d="M135.73 61.7245C135.73 61.7245 135.174 64.0737 135.196 64.5296C135.217 64.9854 136.117 65.8527 136.117 65.8527C136.117 65.8527 137.743 66.6217 137.722 66.8134C137.701 67.0051 133.182 65.6867 133.182 65.6867L134.103 64.1112L134.232 61.6497L135.73 61.7245Z" fill="#D97E7E"/>
<path d="M133.182 65.6866C133.182 65.6866 137.701 67.0097 137.722 66.818C137.743 66.6263 136.117 65.8573 136.117 65.8573C135.827 65.5736 135.567 65.2602 135.343 64.9222L134.776 65.2191L133.681 64.8147L133.182 65.6866Z" fill="#275ACC"/>
<path d="M133.442 30.1995L133.246 33.0934C133.246 33.0934 137.699 42.5303 138.381 47.9956C139.063 53.4609 136.079 62.1662 136.079 62.1662H131.919C131.919 62.1662 132.739 60.5299 132.739 59.5364C132.739 58.5429 132.739 58.3676 133.149 57.0819C133.56 55.7962 133.032 55.0365 133.208 53.6924C133.384 52.3482 133.794 51.1794 133.618 50.2444C133.515 49.4993 133.495 48.7451 133.56 47.9956L129.575 42.0044C129.575 42.0044 125.473 57.6897 121.078 64.6791H116.259C116.518 63.8132 116.855 62.9721 117.265 62.1662C117.968 60.7636 118.437 60.0039 118.612 58.6598C118.764 57.5615 119.143 56.5067 119.726 55.5625C120.194 54.7443 120.37 51.7638 121.366 50.5366C121.366 50.5366 122.485 37.8177 125.41 32.9859L125.869 30.1995H133.442Z" fill="#275ACC"/>
<path d="M131.412 30.6926L130.831 35.4824" stroke="#16367C" stroke-width="0.47" stroke-miterlimit="10"/>
<path d="M133.37 31.1485L133.433 30.1995H125.869L125.419 32.9859C125.281 33.2196 125.145 33.4534 125.013 33.7292C125.116 33.9288 125.272 34.096 125.465 34.212C125.657 34.328 125.878 34.3883 126.103 34.3861C127.92 34.517 128.29 33.3552 130.264 32.4786C131.687 31.8451 132.847 31.3659 133.37 31.1485Z" fill="url(#paint20_linear_150_1560)"/>
<path d="M131.098 13.7007C131.098 13.7007 132.622 13.0392 133.112 14.0514C133.602 15.0635 133.112 15.9401 132.31 16.2721C131.509 16.604 131.666 19.5845 130.102 20.0707C128.539 20.5569 127.289 20.7907 126.568 21.3751C125.846 21.9595 124.301 24.0446 121.762 23.7337C119.723 23.4836 120.215 22.9319 120.874 22.4106C120.984 22.3192 121.059 22.1925 121.085 22.0521C121.112 21.9118 121.089 21.7666 121.019 21.6416C120.75 21.1249 120.75 20.1408 123.181 18.8925C123.269 18.8484 123.338 18.7749 123.378 18.6848C123.417 18.5947 123.424 18.4937 123.396 18.3993C123.258 17.9084 123.485 16.9266 126.856 16.1459C127.017 16.1108 127.163 16.0279 127.276 15.9081C127.388 15.7883 127.462 15.6373 127.486 15.475C127.578 14.8438 127.871 13.8386 128.813 13.3711C130.24 12.6675 131.098 13.7007 131.098 13.7007Z" fill="#223763"/>
<path d="M123.129 24.2338L121.001 30.3373L115.659 37.855L115.307 38.0304C115.307 38.0304 114.428 39.3347 114.456 39.5591C114.485 39.7836 114.984 40.223 115.366 39.7251C115.639 39.3807 115.937 39.0572 116.259 38.7573C116.259 38.7573 116.165 39.5965 116.259 39.5591C116.353 39.5217 116.65 38.8205 116.561 38.2641C116.561 38.2641 121.554 34.0868 123.438 31.6604C125.323 29.234 126.582 25.8164 126.582 25.8164L125.26 21.2581L123.129 24.2338Z" fill="#D97E7E"/>
<path d="M123.443 31.6604C125.318 29.2364 126.586 25.8164 126.586 25.8164L125.274 21.2979L125.196 21.3353L123.129 24.2222L122.332 26.5107C123.417 26.6206 123.373 31.041 123.061 32.121C123.199 31.9667 123.326 31.8101 123.443 31.6604Z" fill="#D95757"/>
<path d="M130.421 19.6218C130.421 19.6218 132.643 19.8369 133.735 19.9935C134.827 20.1501 135.885 20.3628 136.295 21.3961C136.705 22.4293 137.174 23.0698 137.525 24.1217C137.877 25.1736 137.389 30.2977 137.525 31.4267C137.661 32.5558 138.247 34.8162 137.31 34.9144C136.372 35.0126 134.127 26.7726 134.127 26.7726C134.127 26.7726 133.384 29.3229 133.639 29.5964C133.895 29.8699 134.302 30.279 133.892 30.5712C133.482 30.8634 128.717 31.3683 127.212 31.2514C125.707 31.1345 125.238 30.5899 125.26 30.0826L123.443 31.6605C123.443 31.6605 124.985 28.8367 125.004 27.5697C125.023 26.3027 124.711 22.7191 124.711 22.7191L122.524 25.8282C122.524 25.8282 123.656 22.7589 124.146 21.8238C124.636 20.8888 124.908 20.3231 125.846 20.0309C126.783 19.7387 128.867 19.6218 130.421 19.6218Z" fill="#FFB637"/>
<path d="M128.579 29.5964C128.776 28.9933 127.897 29.0704 127.564 28.7782C127.231 28.486 127.934 27.1232 127.974 26.5762C128.014 26.0292 127.798 26.0503 127.545 26.7515C127.292 27.4528 126.099 29.2855 125.26 30.0826C125.239 30.5899 125.707 31.1345 127.212 31.2514C128.151 31.282 129.091 31.2492 130.025 31.1532C128.937 30.8564 128.447 30.0265 128.579 29.5964Z" fill="url(#paint21_linear_150_1560)"/>
<path d="M131.9 14.5867C132.102 14.8312 132.273 15.0997 132.409 15.3861C132.594 15.8046 132.807 15.7555 133.023 15.7227C133.023 15.7227 133.396 17.158 133.18 17.324C132.964 17.49 132.477 17.5391 132.378 17.6559C132.28 17.7728 131.872 19.7972 131.989 19.9258C132.136 20.0329 132.301 20.1121 132.477 20.1595C132.477 20.1595 133.384 22.3498 132.085 25.6622C132.085 25.6622 131.584 23.4649 130.571 22.0763C129.558 20.6878 128.975 19.9445 128.975 19.9445C128.975 19.9445 129.751 19.7107 129.971 19.1707C130.191 18.6307 130.646 17.0669 130.646 17.0669C130.646 17.0669 129.868 16.2043 130.264 15.8233C130.66 15.4422 130.805 16.1599 130.805 16.1599C131.123 16.0343 131.396 15.818 131.591 15.5381C131.786 15.2582 131.893 14.9273 131.9 14.5867Z" fill="#D97E7E"/>
<path d="M130.646 17.0645C130.646 17.0645 130.646 17.0505 130.526 17.4642C130.789 17.4339 131.063 17.5016 131.305 17.9037C131.478 18.1912 131.45 18.4086 131.696 18.7149C131.742 18.773 131.802 18.8197 131.869 18.8513C131.937 18.883 132.011 18.8987 132.085 18.8972C132.151 18.4758 132.249 18.06 132.378 17.6536C132.392 17.6355 132.411 17.6211 132.432 17.6115C131.684 17.9014 130.646 17.0645 130.646 17.0645Z" fill="#D95757"/>
<path d="M128.023 23.8435C128.015 24.9981 127.781 26.14 127.334 27.205" stroke="#997122" stroke-width="0.47" stroke-linecap="round" stroke-linejoin="round"/>
<path d="M128.579 24.9844C128.579 24.9844 128.579 25.9779 127.568 27.0158" stroke="#997122" stroke-width="0.47" stroke-linecap="round" stroke-linejoin="round"/>
<path d="M134.717 23.2312C134.717 23.2312 135.041 24.4 134.717 25.2486C134.394 26.0971 134.303 26.1252 134.127 26.7727" stroke="#997122" stroke-width="0.47" stroke-linecap="round" stroke-linejoin="round"/>
<path d="M135.807 26.7188C135.632 28.7197 136.335 32.5183 136.841 33.589C137.347 34.6596 137.64 34.6409 137.823 33.631C137.786 32.897 137.589 32.0134 137.525 31.4267C137.462 30.8399 137.554 29.1358 137.615 27.5042L135.807 26.7188Z" fill="url(#paint22_linear_150_1560)"/>
<path d="M136.607 22.7637L138.381 25.4075C138.381 25.4075 140.826 18.9347 140.842 18.5864C140.858 18.2381 140.017 17.2469 139.986 16.8753C139.956 16.5036 139.986 15.8631 140.076 15.9402C140.185 16.1403 140.241 16.3647 140.24 16.5924C140.261 16.8753 140.955 17.1488 140.955 17.1488L141.456 17.0646C141.456 17.0646 141.78 17.5462 141.78 18.5396C141.78 19.5331 141.848 30.1692 139.054 30.6648C137.823 30.8845 136.651 29.6432 135.772 28.035C135.738 27.0976 135.785 26.1591 135.913 25.2299C136.124 23.9769 136.583 23.3761 136.607 22.7637Z" fill="#D97E7E"/>
<path d="M135.92 25.2322C135.792 26.1615 135.745 27.1 135.779 28.0373C135.887 28.236 135.997 28.4253 136.112 28.61C136.39 28.182 136.77 27.8294 137.218 27.5838C137.462 27.4417 137.671 27.2489 137.833 27.0185C137.995 26.7882 138.105 26.5257 138.156 26.249C138.201 25.9604 138.28 25.678 138.39 25.4075L136.616 22.7637C136.583 23.3761 136.124 23.9769 135.92 25.2322Z" fill="#D95757"/>
<path d="M141.651 17.6536L140.413 18.2076L139.872 14.596L141.107 14.042L141.651 17.6536Z" fill="#275ACC"/>
<path d="M141.051 15.2974C141.051 15.2974 141.686 15.8935 141.843 16.4872C142 17.081 141.78 18.6588 141.78 18.6588C141.691 18.3777 141.561 18.1114 141.393 17.8687C141.208 17.6841 140.622 17.5391 140.613 17.4012C140.603 17.2633 141.442 17.5765 141.442 17.5765C141.442 17.5765 140.446 16.915 140.505 16.6999C140.563 16.4849 141.407 17.0646 141.407 17.0646C141.407 17.0646 140.608 16.2044 140.76 16.0594C140.913 15.9145 141.508 16.7069 141.508 16.7069C141.452 16.4087 141.35 16.1208 141.206 15.8537C141.032 15.648 140.884 15.3675 141.051 15.2974Z" fill="#D97E7E"/>
<path d="M136.489 49.5243C136.958 46.8361 135.669 44.7323 134.145 43.9141C132.13 42.8178 130.177 39.1758 130.177 39.1758L129.575 42.0136L133.559 48.0049C133.495 48.7543 133.515 49.5086 133.618 50.2537C133.794 51.1887 133.384 52.3575 133.208 53.7016C133.032 55.0458 133.559 55.8055 133.149 57.0912C132.739 58.3768 132.739 58.5522 132.739 59.5456C132.739 60.5391 131.919 62.1755 131.919 62.1755H136.079C136.079 62.1755 136.391 61.2685 136.782 59.8589C135.01 57.3249 136.06 51.9858 136.489 49.5243Z" fill="url(#paint23_linear_150_1560)"/>
<path d="M123.291 49.2908C122.96 49.8017 122.502 50.2182 121.962 50.4993" stroke="#16367C" stroke-width="0.47" stroke-miterlimit="10"/>
<path d="M123.912 51.2776L120.522 55.1744" stroke="#16367C" stroke-width="0.47" stroke-miterlimit="10"/>
<path d="M134.342 47.6544C134.342 47.6544 135.2 46.135 136.295 45.2771" stroke="#16367C" stroke-width="0.47" stroke-miterlimit="10"/>
<path d="M134.614 48.4L135.669 47.9956" stroke="#16367C" stroke-width="0.47" stroke-miterlimit="10"/>
<path d="M134.614 50.0247C134.614 50.0247 135.798 51.5815 136.789 52.049" stroke="#16367C" stroke-width="0.47" stroke-miterlimit="10"/>
<path d="M79.9466 49.3467L82.4546 64.7164L83.4391 66.9091C83.4391 66.9091 85.1525 68.3607 84.9345 68.5805C84.7165 68.8002 82.8765 68.3257 82.4828 67.781C82.089 67.2363 81.4608 66.472 81.4608 66.472L81.653 68.3257L81.217 68.2158C81.217 68.2158 80.7061 66.5444 80.8889 65.7099C81.0717 64.8754 81.2522 64.2559 81.2522 64.2559C81.2522 64.2559 76.8433 54.424 76.8433 49.9521L79.9466 49.3467Z" fill="#DEA70D"/>
<path d="M80.8891 65.7101C80.7063 66.5446 81.2173 68.216 81.2173 68.216L81.6532 68.3259L81.461 66.4722C81.461 66.4722 82.0916 67.2342 82.483 67.7812C82.8744 68.3282 84.7144 68.7981 84.9347 68.5807C85.1551 68.3633 83.4393 66.9093 83.4393 66.9093L83.0854 66.1215C82.8837 66.1788 82.6945 66.2731 82.5275 66.3997L81.004 65.2075C80.9665 65.3618 80.9266 65.5301 80.8891 65.7101Z" fill="#C44040"/>
<path d="M67.7396 49.8985L61.0266 63.9592L60.5836 66.3178C60.5836 66.3178 61.1602 68.4871 60.8554 68.5409C60.5507 68.5946 59.3108 67.164 59.2991 66.4931C59.2874 65.8222 59.2077 64.8381 59.2077 64.8381L58.3052 66.4744L58.0076 66.1355C58.0076 66.1355 58.5443 64.4734 59.1795 63.889C59.8147 63.3046 60.3093 62.9002 60.3093 62.9002C60.3093 62.9002 62.2993 52.3156 64.8542 48.6409L67.7396 49.8985Z" fill="#DEA70D"/>
<path d="M59.1749 63.8842C58.5491 64.4686 58.0029 66.1307 58.0029 66.1307L58.3006 66.4696L59.203 64.8333C59.203 64.8333 59.2827 65.8174 59.2944 66.4883C59.3062 67.1592 60.5484 68.5922 60.8508 68.5361C61.1532 68.48 60.5789 66.313 60.5789 66.313L60.7383 65.4668C60.5396 65.3982 60.3296 65.368 60.1195 65.378L59.5476 63.5312L59.1749 63.8842Z" fill="#C44040"/>
<path d="M63.033 52.4933C64.0909 52.765 65.1725 52.9357 66.2629 53.0029L67.7396 49.8985L64.8448 48.6362C64.2002 49.5713 63.5861 50.9598 63.033 52.4933Z" fill="#C9810C"/>
<path d="M79.9466 49.3467L76.8433 49.9521C76.8495 50.4808 76.8957 51.0083 76.9816 51.53C78.3481 51.1139 79.4427 50.7048 80.1248 50.4337L79.9466 49.3467Z" fill="#C9810C"/>
<path d="M80.1953 18.2497C79.928 17.7518 80.1624 16.7583 79.9421 16.8308C79.8112 16.8741 79.6698 16.8741 79.5389 16.8308C79.637 16.7075 79.7672 16.6136 79.9151 16.5592C80.0631 16.5048 80.2233 16.492 80.3781 16.5222C80.3781 16.5222 79.4405 15.7485 79.546 15.704C79.6515 15.6596 79.7944 15.7788 79.9866 15.8794C80.1788 15.9799 80.4554 16.1435 80.4554 16.1435C80.4554 16.1435 80.221 15.5147 79.9116 15.3394C79.7476 15.2618 79.6175 15.1271 79.546 14.9607C79.8001 14.9707 80.0452 15.0571 80.2492 15.2085C80.4157 15.3744 80.5528 15.5672 80.6547 15.7788L80.289 14.5282C80.1718 14.1238 80.3476 14.0093 80.3476 14.0093C80.3476 14.0093 81.0649 15.3698 81.182 15.9962C81.2992 16.6227 80.9477 18.2754 80.9477 18.2754C80.9477 18.2754 81.8852 27.0227 78.7748 27.0227C75.6644 27.0227 74.0471 20.9449 74.0471 20.9449L74.1643 15.704C74.1643 15.704 74.9261 15.6666 75.5121 17.0879C76.0981 18.5092 78.5897 23.4719 78.5897 23.4719L80.1953 18.2497Z" fill="#DEA70D"/>
<path d="M74.6869 25.0288L81.2101 49.4474C81.2101 49.4474 72.8891 52.2899 60.4663 49.4474L66.4433 30.1762C66.3674 28.3467 66.8889 26.5421 67.9294 25.0335L74.6869 25.0288Z" fill="#16367C"/>
<path d="M74.6869 25.0288H67.9293C67.195 26.1252 66.7146 27.3709 66.5229 28.6755C67.3785 28.9794 68.5833 28.7596 69.5537 28.1846C70.9459 27.3594 72.6008 26.7306 75.1392 26.6908L74.6869 25.0288Z" fill="url(#paint24_linear_150_1560)"/>
<path d="M81.1179 13.9548L79.6429 13.556C79.4442 13.5023 79.2395 13.6193 79.1857 13.8175L78.0976 17.8199C78.0437 18.018 78.1611 18.2221 78.3597 18.2759L79.8347 18.6747C80.0334 18.7284 80.2381 18.6114 80.292 18.4132L81.3801 14.4108C81.4339 14.2127 81.3166 14.0086 81.1179 13.9548Z" fill="#275ACC"/>
<path d="M78.5942 23.4741C78.4073 23.9759 78.2791 24.4975 78.2122 25.0286" stroke="#C9810C" stroke-width="0.4" stroke-miterlimit="10"/>
<path d="M76.6723 21.3938C76.8204 21.14 76.9038 20.8538 76.9153 20.5604C76.9267 20.267 76.8658 19.9752 76.7379 19.7107C76.2176 18.6401 75.7347 17.6209 75.5167 17.0903C74.9307 15.669 74.169 15.7064 74.169 15.7064L74.0518 20.9473C74.4348 22.2908 74.9919 23.5788 75.7089 24.7786C75.7665 23.5918 76.096 22.4338 76.6723 21.3938Z" fill="#C9810C"/>
<path d="M72.2939 15.2389C72.325 15.1492 72.388 15.074 72.4709 15.0275C72.5538 14.981 72.651 14.9664 72.744 14.9865C73.0768 15.0636 74.366 15.0636 74.4832 15.3558C74.6004 15.648 74.3449 16.2137 74.4832 16.8963C74.6215 17.5789 75.9083 19.1357 75.634 20.3629C75.3598 21.5902 75.1278 22.6094 75.3809 23.8436C75.634 25.0779 75.4981 25.6412 74.8934 25.6997C74.2886 25.7581 69.1413 25.6997 68.0819 25.6997C67.0224 25.6997 66.8255 24.94 67.3342 24.2597C67.8428 23.5795 67.5873 23.2662 67.3131 22.3686L65.6137 16.7794L64.873 16.583C64.873 16.583 64.9621 15.5264 65.3793 15.122C65.9958 14.5306 66.6216 14.5797 68.0819 14.8883C69.5422 15.1968 72.2939 15.2389 72.2939 15.2389Z" fill="#D95757"/>
<path d="M70.0366 24.0049C69.3592 22.2938 70.271 21.1717 69.1295 20.3232C67.988 19.4746 67.9318 17.2258 67.9318 17.2258L66.6145 20.0684C66.9216 21.0782 67.2052 22.0179 67.3177 22.3686C67.5919 23.2662 67.8451 23.5771 67.3388 24.2597C66.8325 24.9423 67.0247 25.6996 68.0865 25.6996C68.7147 25.6996 70.7773 25.7207 72.479 25.7254C71.5414 25.4612 70.4117 24.9539 70.0366 24.0049Z" fill="url(#paint25_linear_150_1560)"/>
<path d="M57.0302 34.9239C56.4513 35.3236 55.5817 35.8823 55.7364 35.9688C55.8911 36.0553 56.7959 35.3236 56.8896 35.3727C56.9834 35.4218 56.0528 36.4597 56.238 36.4877C56.4232 36.5158 57.0888 35.4452 57.1756 35.4826C57.2623 35.52 56.6857 36.3522 56.8427 36.469C56.9201 36.5251 57.3256 35.5644 57.5459 35.5761C57.7006 35.5761 57.6795 36.0787 57.6537 36.3779C57.6551 36.3815 57.6575 36.3845 57.6606 36.3867C57.6638 36.3889 57.6675 36.3901 57.6713 36.3901C57.6751 36.3901 57.6789 36.3889 57.682 36.3867C57.6852 36.3845 57.6876 36.3815 57.6889 36.3779L58.2866 34.1665L57.0302 34.9239Z" fill="#C9810C"/>
<path d="M66.6144 15.4142C68.4567 15.9004 68.0981 18.3759 67.2847 21.1997C66.8792 22.6023 66.4831 23.9581 66.1807 24.975C65.8371 26.1419 65.2329 27.216 64.4134 28.1167L58.5231 34.5965C58.5231 34.5965 57.7027 36.0856 57.4988 35.9687C57.2949 35.8518 57.8504 35.4428 57.7332 35.0921C57.616 34.7415 57.03 34.9168 57.03 34.9168L58.3192 33.5727L62.8172 25.6786C62.8172 25.6786 64.3126 18.0744 64.6923 17.0084C65.1447 15.7064 65.8924 15.2248 66.6144 15.4142Z" fill="#DEA70D"/>
<path d="M72.6455 8.88296C72.6455 8.88296 74.237 9.15412 74.3354 10.1383C74.4339 11.1224 73.5151 12.4759 73.4166 13.0229C73.3182 13.5699 73.8666 13.5862 73.8666 14.1426C73.4669 14.0335 73.0452 14.0335 72.6455 14.1426C71.8462 14.3085 70.3906 14.4254 69.228 13.8293C68.0654 13.2332 67.6271 11.5993 68.6701 10.704C68.6772 10.711 69.971 7.24664 72.6455 8.88296Z" fill="#333333"/>
<path d="M72.3336 9.80396C72.3336 9.80396 71.8648 11.1294 70.7913 11.4029C70.7913 11.4029 70.81 10.8278 70.4866 10.7881C70.1631 10.7483 70.0178 11.7722 70.4866 11.8494L70.1068 11.9966C70.1068 11.9966 69.6193 14.3342 69.3638 14.6264C69.1083 14.9186 67.627 14.8999 67.627 14.8999C67.627 14.8999 69.2372 16.3399 71.328 16.3399C72.3148 16.3399 72.6758 15.1337 72.6758 15.1337L71.5718 14.9607L71.6491 13.1865C71.6491 13.1865 72.2843 13.5278 72.5094 13.1865C72.7344 12.8452 72.6852 12.0387 72.8422 11.4824C72.9992 10.926 72.9196 9.94187 72.3336 9.80396Z" fill="#DEA70D"/>
<path d="M71.6493 13.1982C70.8172 12.92 70.4774 11.8494 70.4774 11.8494L70.0977 11.9966C70.0977 11.9966 70.0719 12.1229 70.0273 12.3216C70.2336 12.6231 70.6391 13.0041 70.761 13.6774C70.7863 13.8892 70.88 14.087 71.028 14.2409C71.176 14.3949 71.3703 14.4965 71.5814 14.5306L71.6493 13.1982Z" fill="#C9810C"/>
<path d="M45.1183 67.8862C44.5628 67.2037 43.4143 66.9302 42.8306 66.832C42.7203 66.8134 42.6168 66.7662 42.5304 66.6953C42.444 66.6243 42.3778 66.532 42.3384 66.4276L41.5555 64.3237H38.4404L39.5843 67.1873V67.8886C39.5861 68.0196 39.6394 68.1447 39.7328 68.237C39.8262 68.3292 39.9521 68.3812 40.0835 68.3818H41.375C41.3235 68.1761 41.3024 67.9353 41.4688 67.9143C41.6352 67.8932 41.9024 68.1621 42.0852 68.3818H44.8558C44.9152 68.386 44.9746 68.3729 45.0266 68.3441C45.0787 68.3152 45.1213 68.2719 45.1491 68.2194C45.1769 68.1669 45.1888 68.1074 45.1833 68.0482C45.1779 67.9891 45.1553 67.9328 45.1183 67.8862Z" fill="#805737"/>
<path d="M41.5554 64.3284H38.4497L39.2138 66.2405L42.0805 65.7309L41.5554 64.3284Z" fill="#593D26"/>
<path d="M36.0238 33.5889C36.0238 33.5889 35.3932 39.0823 34.6901 42.5302C34.6901 42.5302 36.448 46.212 37.9716 50.069C39.4951 53.926 42.0735 64.679 42.0735 64.679H37.5708C37.5708 64.679 36.0613 62.6921 36.0238 61.1142C36.0238 61.1142 33.9963 57.6662 33.5275 56.0883L30.7148 52.1144C30.7148 52.1144 29.3084 54.2767 28.2536 55.0948C27.1989 55.913 20.9992 58.5896 20.9992 58.5896L20.5093 53.9144L21.9156 52.9957C21.9156 52.9957 25.598 50.2513 26.6035 49.3397L27.2528 45.0361C27.2528 45.0361 25.3425 40.2183 25.019 38.2571C24.6158 35.826 25.7222 33.5819 25.7222 33.5819V32.4131L36.0238 33.5889Z" fill="#FFB637"/>
<path d="M35.8973 34.6479C35.9794 33.9934 36.0239 33.589 36.0239 33.589L25.7246 32.4202V33.589C25.5064 34.0665 25.3337 34.5635 25.209 35.0733C26.6786 36.1907 29.1491 35.9242 30.7149 35.2276C32.3556 34.496 32.59 35.1972 33.9073 35.2276C34.6105 35.2141 35.2974 35.014 35.8973 34.6479Z" fill="#C9810C"/>
<path d="M27.7684 33.2432C27.7684 33.2432 28.0849 37.4508 24.9768 37.9184" stroke="#9E6509" stroke-width="0.4" stroke-miterlimit="10"/>
<path d="M35.3489 38.7178L32.508 37.6051L32.3252 37.1843C32.3252 37.1843 33.469 39.8492 34.6996 42.5304C34.9246 41.392 35.159 40.0315 35.3489 38.7178Z" fill="#C9810C"/>
<path d="M34.0127 33.8789L32.7915 38.2572" stroke="#9E6509" stroke-width="0.4" stroke-miterlimit="10"/>
<path d="M35.6653 51.1211C36.1521 51.6836 36.7647 52.124 37.4537 52.4068" stroke="#9E6509" stroke-width="0.4" stroke-miterlimit="10"/>
<path d="M35.8997 52.6404L37.4537 53.1383" stroke="#9E6509" stroke-width="0.4" stroke-miterlimit="10"/>
<path d="M37.5707 64.6791H42.0828C42.0828 64.6791 41.9773 64.2419 41.7968 63.5103H36.823C37.0464 63.9157 37.2961 64.3062 37.5707 64.6791Z" fill="#C9810C"/>
<path d="M29.1982 54.1505C29.7418 53.5009 30.2481 52.8211 30.7147 52.1145C29.7584 50.7657 29.088 48.3159 29.088 48.3159C28.3787 47.2831 27.766 46.1876 27.2574 45.0432L26.6081 49.3467C25.8768 50.0246 23.7227 51.661 22.6094 52.4885C23.9806 53.9775 26.2472 52.7082 27.6371 52.4067C27.8293 53.2085 28.5958 53.7999 29.1982 54.1505Z" fill="#C9810C"/>
<path d="M36.3989 16.7302C36.3989 16.7302 37.1021 13.8713 34.055 13.4739C31.0079 13.0765 24.7965 13.4739 24.5621 17.8686C23.246 18.1513 22.0607 18.8607 21.1915 19.886C19.7851 21.5807 17.5068 25.2624 17.5068 25.2624L18.1045 30.9592L24.3558 25.2321C24.3558 25.2321 24.5621 29.9961 24.3863 30.7254C24.2105 31.4548 23.8284 33.035 25.2067 33.1215C26.5849 33.208 32.0627 33.3552 33.6729 33.7947C35.2832 34.2342 37.2193 34.3487 36.6333 31.8662C36.6333 31.8662 37.2193 29.3229 37.5404 28.68C37.7422 28.2304 37.8423 27.742 37.8334 27.2494C37.8334 27.2494 38.771 26.284 38.8601 25.3209C38.8601 25.3209 41.0282 30.4917 44.455 30.9592C47.8819 31.4267 49.7875 29.0611 50.4625 27.9203C51.1376 26.7796 50.9313 25.0287 50.9313 25.0287L51.0673 24.6103C51.0673 24.6103 49.3093 24.103 49.2226 23.168L49.0257 23.4789C49.0257 23.4789 47.6779 22.8945 46.5646 24.7365C46.5646 24.7365 46.7122 23.8295 45.6575 24.3274C45.6575 24.3274 43.8409 20.5288 42.7275 18.834C41.6142 17.1393 39.5914 16.5829 36.3989 16.7302Z" fill="#109627"/>
<path d="M39.3428 21.4336C39.4385 22.6534 39.2911 23.8801 38.9092 25.0429" stroke="#2E6617" stroke-width="0.75" stroke-linecap="round" stroke-linejoin="round"/>
<path d="M40.8523 21.0547C40.8523 21.0547 40.7046 23.7125 39.2842 25.0426" stroke="#2E6617" stroke-width="0.75" stroke-linecap="round" stroke-linejoin="round"/>
<path d="M49.0257 23.4788C49.0257 23.4788 48.9179 24.5798 50.6969 24.9514" stroke="#2E6617" stroke-width="0.75" stroke-linecap="round" stroke-linejoin="round"/>
<path d="M46.3887 25.0427C46.3887 25.0427 45.9199 25.55 45.491 26.859" stroke="#2E6617" stroke-width="0.75" stroke-linecap="round" stroke-linejoin="round"/>
<path d="M45.4908 24.4536C45.4908 24.4536 44.9002 24.4934 44.0024 26.0572" stroke="#2E6617" stroke-width="0.75" stroke-linecap="round" stroke-linejoin="round"/>
<path d="M43.011 30.4682C42.2867 29.8324 42.0734 28.7852 42.125 28.0956C42.2251 26.7345 41.8921 25.3765 41.1733 24.2152C41.4382 22.6139 40.4701 21.41 40.367 22.5297C40.2639 23.6495 38.8599 25.3208 38.8599 25.3208C38.8599 25.3208 40.4303 29.0657 43.011 30.4682Z" fill="url(#paint26_linear_150_1560)"/>
<path d="M49.1147 23.3385C49.1147 23.3385 50.6805 21.0009 50.8868 20.0659C50.8868 20.0659 50.2187 18.9626 50.4039 18.3711C50.4906 18.0883 50.8235 19.1706 51.018 18.9065C51.2126 18.6423 51.1938 18.0298 51.0672 17.6114C50.9407 17.193 50.8633 16.9686 51.018 16.9592C51.1727 16.9499 51.5454 17.4852 51.6134 18.4787C51.7784 18.1048 51.8493 17.6963 51.8196 17.2888C51.7423 16.7161 52.054 16.8517 52.122 17.2514C52.235 17.6955 52.235 18.1608 52.122 18.6049C52.122 18.6049 52.3564 18.5652 52.483 18.1865C52.6096 17.8078 52.4549 17.5039 52.64 17.5039C52.8252 17.5039 52.8557 18.0789 52.776 18.4389C52.7315 18.6518 52.6227 18.846 52.4642 18.9953C52.5692 18.9788 52.6679 18.9349 52.7503 18.868C52.8326 18.801 52.8957 18.7135 52.933 18.6142C53.0315 18.2823 53.0994 18.1654 53.1674 18.2356C53.1968 18.33 53.2068 18.4295 53.1968 18.5279C53.1867 18.6263 53.1568 18.7217 53.1088 18.8083C52.9491 19.0272 52.7543 19.2183 52.5322 19.374C52.5322 19.374 52.3869 20.2412 51.8595 20.503C51.8595 20.503 51.7704 22.9575 50.8914 24.7318C50.8914 24.7271 49.457 24.5237 49.1147 23.3385Z" fill="#D97E7E"/>
<path d="M24.3511 17.9154C24.423 17.908 24.4938 17.8923 24.562 17.8687C24.562 17.8687 24.4847 17.8827 24.3511 17.9154Z" fill="url(#paint27_linear_150_1560)"/>
<path d="M29.0155 17.4714C28.7506 17.2633 27.1239 17.3147 27.0653 16.8332C27.0067 16.3516 26.334 16.3072 26.041 15.9706C25.748 15.634 26.041 15.0005 26.5356 14.6382C25.4222 15.3395 24.6417 16.3703 24.562 17.8688C25.9356 17.3966 29.0155 17.4714 29.0155 17.4714Z" fill="url(#paint28_linear_150_1560)"/>
<path d="M36.3989 16.7302C36.3052 16.9986 36.1665 17.2492 35.9887 17.4712C35.6511 17.9388 35.8715 18.425 35.4167 18.7172" stroke="#2E6617" stroke-width="0.75" stroke-linecap="round" stroke-linejoin="round"/>
<path d="M32.1118 18.7173C32.1118 18.7173 31.4086 19.1848 31.643 19.9726C31.8774 20.7604 32.1423 21.2793 31.854 21.7258C31.5657 22.1723 30.9023 22.5065 30.9984 23.3434C31.0945 24.1803 31.5516 24.2971 31.5516 24.2971" stroke="white" stroke-linecap="round" stroke-linejoin="round"/>
<path d="M33.9376 18.7173C33.9376 18.7173 34.4181 18.951 34.2165 19.8183C34.0149 20.6855 33.5649 20.9287 33.6446 21.6884C33.7243 22.4481 34.5025 22.6234 34.4837 23.1494C34.4956 23.4211 34.3996 23.6865 34.2165 23.8881" stroke="white" stroke-linecap="round" stroke-linejoin="round"/>
<path d="M25.3613 19.6218C25.671 21.441 25.391 23.3113 24.562 24.9609" stroke="#2E6617" stroke-width="0.75" stroke-linecap="round" stroke-linejoin="round"/>
<path d="M27.5481 17.4829C29.3178 17.2655 29.5803 17.8499 29.953 18.0252C30.3257 18.2005 30.6351 18.2987 31.0851 18.5114" stroke="#2E6617" stroke-width="0.75" stroke-linecap="round" stroke-linejoin="round"/>
<path d="M26.4653 31.1929C26.934 30.2298 26.6715 29.615 26.0551 28.7384C25.4386 27.8618 26.0269 27.2189 26.2027 25.9519C26.3785 24.685 25.6449 23.7125 25.7339 22.8079C25.823 21.9032 25.0003 21.784 25.0308 22.8079C25.0612 23.8317 24.3627 25.232 24.3627 25.232C24.3627 25.232 24.569 29.996 24.3932 30.7253C24.2174 31.4547 23.8354 33.0349 25.2136 33.1214C25.8558 33.1634 27.3981 33.2172 29.0201 33.3084C27.3981 32.6726 26.1863 31.7702 26.4653 31.1929Z" fill="url(#paint29_linear_150_1560)"/>
<path d="M35.4167 29.9377C35.9669 30.4777 36.3834 31.138 36.6332 31.8663" stroke="#2E6617" stroke-width="0.75" stroke-linecap="round" stroke-linejoin="round"/>
<path d="M26.0856 21.3025C26.0493 22.1491 25.8003 22.973 25.3613 23.6985" stroke="#2E6617" stroke-width="0.75" stroke-linecap="round" stroke-linejoin="round"/>
<path d="M36.9683 12.4197L36.2956 13.3408C36.2956 13.3408 36.0729 14.914 35.5784 15.1384C35.1752 15.3207 34.7275 14.9771 34.7275 14.9771L34.1486 17.0061C34.1238 17.096 34.0756 17.1777 34.0089 17.243C33.9422 17.3082 33.8594 17.3548 33.7688 17.3778C33.2719 17.504 32.2664 17.6279 31.6007 16.8495C31.5233 16.7561 31.4765 16.6413 31.4664 16.5205C31.4563 16.3997 31.4836 16.2788 31.5444 16.1739L33 13.661C33 13.661 31.8703 12.581 33.0727 11.5876C34.2751 10.5941 36.7995 10.725 36.9683 12.4197Z" fill="#D97E7E"/>
<path d="M33.2651 13.4739L33.0002 13.6609C33.0002 13.6609 32.7658 14.4907 33.0682 14.6754C33.3705 14.8601 33.6729 14.8016 33.7713 15.2692C33.8423 15.6616 34.0458 16.0179 34.348 16.279L34.7183 14.977C34.7183 14.977 33.6659 14.4557 33.2651 13.4739Z" fill="#D95757"/>
<path d="M36.0308 11.9218C36.0308 11.9218 36.8207 13.0743 37.7723 12.6348C38.5411 12.2795 38.9021 10.8255 37.716 10.372C37.716 10.372 37.8004 8.73569 35.6956 9.6006C35.6956 9.6006 34.758 8.91802 34.0548 9.20321C33.3516 9.4884 33.3305 10.2949 33.3305 10.2949C33.3305 10.2949 32.0226 9.99566 31.8937 11.2439C31.7648 12.4922 32.3906 12.9177 32.3906 12.9177C32.3906 12.9177 32.1562 14.0117 32.4774 14.3202C32.7985 14.6288 33.2743 13.4693 33.2743 13.4693C33.2743 13.4693 32.8149 12.6231 33.2837 12.3683C33.7525 12.1135 33.7243 12.92 33.7243 12.92C33.7243 12.92 34.308 13.1538 34.5775 12.3403C34.5869 12.3403 35.4987 12.712 36.0308 11.9218Z" fill="#333333"/>
<path d="M32.1118 36.7449C32.1118 36.7449 33.9635 40.9362 34.2776 41.6281" stroke="#9E6509" stroke-width="0.4" stroke-miterlimit="10"/>
<path d="M125.044 14.9863L123.488 13.3242C123.331 13.1605 123.216 12.9625 123.15 12.7462C123.084 12.5298 123.069 12.3011 123.108 12.0783C123.362 10.6811 123.108 9.23923 122.39 8.01275C121.672 6.78628 120.539 5.85587 119.194 5.38929C117.849 4.92271 116.381 4.95065 115.055 5.46808C113.729 5.98552 112.632 6.95839 111.962 8.21129C111.292 9.46418 111.093 10.9147 111.4 12.3012C111.708 13.6877 112.502 14.919 113.639 15.7732C114.777 16.6273 116.183 17.048 117.604 16.9594C119.025 16.8709 120.368 16.2789 121.39 15.2901C121.558 15.1311 121.762 15.0139 121.984 14.9481C122.207 14.8823 122.442 14.8697 122.67 14.9115L124.866 15.3088C124.905 15.3135 124.945 15.3063 124.98 15.2883C125.016 15.2702 125.045 15.242 125.064 15.2074C125.083 15.1727 125.091 15.1332 125.088 15.0938C125.084 15.0544 125.069 15.017 125.044 14.9863Z" fill="#3C72E8"/>
<path d="M118.751 12.6511C118.581 12.6517 118.417 12.7067 118.282 12.8077L115.938 11.2298C115.975 11.1016 115.975 10.9653 115.938 10.8371L118.282 9.25921C118.435 9.37426 118.625 9.43131 118.816 9.42022C119.008 9.40912 119.189 9.3306 119.328 9.19861C119.467 9.06663 119.555 8.88974 119.575 8.69941C119.596 8.50907 119.548 8.31764 119.441 8.15915C119.333 8.00065 119.172 7.88538 118.988 7.83383C118.803 7.78228 118.605 7.7978 118.431 7.87761C118.257 7.95743 118.116 8.09638 118.035 8.26975C117.953 8.44311 117.936 8.63965 117.986 8.82442L115.642 10.4023C115.508 10.3002 115.343 10.2452 115.174 10.2457C115.048 10.2451 114.925 10.2742 114.813 10.3306C114.701 10.387 114.605 10.4691 114.531 10.5701C114.457 10.6712 114.409 10.7882 114.389 10.9117C114.37 11.0351 114.38 11.1613 114.42 11.28C114.459 11.3986 114.526 11.5063 114.615 11.594C114.704 11.6818 114.813 11.7472 114.932 11.7847C115.052 11.8223 115.178 11.831 115.302 11.8101C115.425 11.7892 115.542 11.7394 115.642 11.6646L117.986 13.2425C117.946 13.4012 117.956 13.5685 118.016 13.7212C118.075 13.8738 118.181 14.0041 118.318 14.0937C118.456 14.1834 118.618 14.228 118.782 14.2213C118.946 14.2146 119.104 14.1569 119.233 14.0563C119.363 13.9557 119.458 13.8172 119.504 13.6602C119.551 13.5033 119.548 13.3356 119.494 13.1808C119.441 13.026 119.34 12.8917 119.206 12.7967C119.073 12.7017 118.912 12.6508 118.748 12.6511H118.751Z" fill="white"/>
<path d="M29.4116 10.6409L27.0841 9.23829C26.8524 9.09906 26.6565 8.90778 26.512 8.6797C26.3676 8.45162 26.2785 8.19303 26.252 7.92456C26.0916 6.23587 25.3316 4.65987 24.1089 3.48067C22.8863 2.30147 21.2815 1.59663 19.5838 1.49322C17.8862 1.38981 16.2073 1.89463 14.8498 2.91667C13.4924 3.93872 12.5457 5.41075 12.1804 7.06742C11.8151 8.72409 12.0553 10.4564 12.8576 11.9521C13.6598 13.4478 14.9715 14.6084 16.5561 15.2248C18.1406 15.8413 19.8939 15.8729 21.4997 15.314C23.1056 14.7551 24.4584 13.6425 25.3144 12.1767C25.4558 11.9385 25.652 11.7374 25.8867 11.5898C26.1215 11.4423 26.3881 11.3526 26.6645 11.3281L29.3178 11.0756C29.3671 11.0706 29.4135 11.0502 29.4504 11.0172C29.4873 10.9843 29.5128 10.9405 29.5232 10.8922C29.5336 10.844 29.5284 10.7936 29.5084 10.7485C29.4883 10.7033 29.4545 10.6656 29.4116 10.6409Z" fill="#D95757"/>
<path d="M20.8446 6.13376C19.7711 6.02156 18.9507 7.0688 18.9507 7.0688C18.9507 7.0688 18.1303 6.01221 17.0568 6.13376C15.5801 6.28804 15.5004 8.19085 15.9153 9.13758C16.2099 9.76819 16.6313 10.3316 17.1535 10.7929C17.6757 11.2542 18.2874 11.6034 18.9507 11.8188C19.6161 11.6048 20.2301 11.2562 20.7544 10.7949C21.2787 10.3335 21.702 9.76936 21.9978 9.13758C22.401 8.1815 22.3213 6.28804 20.8446 6.13376Z" fill="white"/>
<path d="M98.3138 11.6997H82.7407C82.5817 11.6997 82.4242 11.6685 82.2773 11.6077C82.1304 11.5469 81.997 11.4579 81.8847 11.3456C81.7723 11.2334 81.6833 11.1001 81.6226 10.9535C81.562 10.8069 81.5309 10.6498 81.5313 10.4912V2.66958C81.5313 2.34968 81.6587 2.04287 81.8855 1.81667C82.1123 1.59046 82.42 1.46338 82.7407 1.46338H94.226C94.5468 1.46338 94.8544 1.59046 95.0812 1.81667C95.308 2.04287 95.4355 2.34968 95.4355 2.66958V8.86423C95.4341 9.08632 95.4857 9.30555 95.586 9.50387C95.6862 9.7022 95.8323 9.87394 96.0121 10.005L98.3138 11.6997Z" fill="#3C72E8"/>
<path d="M86.4676 5.49114H88.2865C88.5108 5.49104 88.7286 5.41617 88.9053 5.27842L89.8827 4.5187C90.117 4.33717 90.2963 4.09443 90.4007 3.81742L90.5929 3.30315C90.6027 3.27732 90.6193 3.25454 90.6408 3.23713C90.6623 3.21973 90.688 3.20831 90.7154 3.20403C90.7428 3.19976 90.7708 3.20279 90.7966 3.2128C90.8225 3.22282 90.8452 3.23947 90.8624 3.26107C91.0185 3.44174 91.1193 3.6632 91.1531 3.89924C91.1836 4.32702 90.6702 5.27842 90.6702 5.27842H92.1844C92.2918 5.28027 92.3941 5.32425 92.4691 5.40084C92.5441 5.47742 92.5859 5.58043 92.5852 5.6875V5.98905C92.5852 6.09445 92.5433 6.19553 92.4685 6.27005C92.3938 6.34458 92.2924 6.38645 92.1868 6.38645V6.98254C92.1868 7.08049 92.1478 7.17443 92.0783 7.2437C92.0088 7.31296 91.9147 7.35188 91.8164 7.35188V7.89186C91.8164 7.98238 91.7804 8.06919 91.7162 8.13319C91.652 8.1972 91.565 8.23315 91.4742 8.23315V8.71937C91.4742 8.79399 91.4447 8.86558 91.392 8.91856C91.3393 8.97153 91.2678 9.00161 91.1929 9.00222H89.7866C89.4354 9.00366 89.0888 8.92363 88.774 8.76846L88.5537 8.65626C88.4135 8.58792 88.2597 8.55196 88.1036 8.55107H86.4629L86.4676 5.49114Z" fill="white"/>
<path d="M87.9396 5.27368H85.0144V8.8619H87.9396V5.27368Z" fill="#C9DAFF"/>
<path d="M87.0747 5.27368H85.0144V8.8619H87.0747V5.27368Z" fill="#16367C"/>
<path d="M65.5385 11.6273H52.1055C51.8286 11.6273 51.5631 11.5178 51.3671 11.3228C51.1711 11.1277 51.0607 10.8632 51.0601 10.5871V3.84073C51.0619 3.56544 51.1729 3.30206 51.3687 3.10805C51.5646 2.91405 51.8294 2.80517 52.1055 2.80518H62.0086C62.2842 2.80579 62.5484 2.91494 62.7438 3.10888C62.9391 3.30282 63.0498 3.56585 63.0516 3.84073V9.18449C63.0516 9.37551 63.0966 9.56386 63.1829 9.73439C63.2692 9.90491 63.3944 10.0528 63.5485 10.1663L65.5385 11.6273Z" fill="#3C72E8"/>
<path d="M56.3363 7.45232C56.3209 7.22538 56.256 7.00452 56.1463 6.8051C56.0366 6.60568 55.8847 6.43248 55.7011 6.29754L55.2651 5.97495C55.4635 5.85524 55.6172 5.67406 55.7026 5.45908C55.788 5.2441 55.8005 5.00714 55.7382 4.78439C55.6759 4.56165 55.5422 4.36537 55.3575 4.22554C55.1728 4.08571 54.9473 4.01001 54.7155 4.01001C54.4836 4.01001 54.2581 4.08571 54.0734 4.22554C53.8887 4.36537 53.755 4.56165 53.6927 4.78439C53.6304 5.00714 53.6429 5.2441 53.7284 5.45908C53.8138 5.67406 53.9674 5.85524 54.1658 5.97495L53.7298 6.29754C53.5459 6.43236 53.3936 6.60548 53.2835 6.80489C53.1734 7.0043 53.1082 7.22523 53.0923 7.45232L52.9868 8.97176H56.4441L56.3363 7.45232Z" fill="#C9DAFF"/>
<path d="M57.7543 8.44333C57.7384 8.21624 57.6732 7.99532 57.5631 7.79591C57.453 7.59649 57.3007 7.42337 57.1168 7.28856L56.6808 6.96597C56.8349 6.87375 56.9628 6.74369 57.0523 6.58819C57.1417 6.43269 57.1898 6.25694 57.1918 6.07768C57.1927 5.89255 57.145 5.71042 57.0533 5.54944C56.9616 5.38846 56.8292 5.25426 56.6693 5.16022C56.5094 5.06618 56.3276 5.01559 56.142 5.0135C55.9564 5.0114 55.7735 5.05787 55.6115 5.14828C55.4495 5.23868 55.3141 5.36986 55.2188 5.52873C55.1235 5.6876 55.0716 5.8686 55.0683 6.0537C55.0651 6.2388 55.1105 6.42152 55.2001 6.58364C55.2898 6.74576 55.4204 6.88161 55.5791 6.97765L55.1432 7.30024C54.9599 7.43551 54.8082 7.60879 54.6986 7.80814C54.5889 8.0075 54.5239 8.22819 54.508 8.45502L54.4001 9.97446H57.8598L57.7543 8.44333Z" fill="white"/>
<path d="M60.7663 6.91706H59.6927V5.84644H59.2896V6.91706H58.2161V7.32146H59.2896V8.39208H59.6927V7.32146H60.7663V6.91706Z" fill="white"/>
</g>
<defs>
<linearGradient id="paint0_linear_150_1560" x1="22.3071" y1="55.705" x2="-0.146554" y2="37.5292" gradientUnits="userSpaceOnUse">
<stop stop-color="white" stop-opacity="0"/>
<stop offset="1" stop-color="#8FB2FF"/>
</linearGradient>
<linearGradient id="paint1_linear_150_1560" x1="65.8433" y1="40.2092" x2="76.7244" y2="-4.68626" gradientUnits="userSpaceOnUse">
<stop stop-color="white" stop-opacity="0"/>
<stop offset="1" stop-color="#8FB2FF"/>
</linearGradient>
<linearGradient id="paint2_linear_150_1560" x1="109.755" y1="55.5741" x2="143.225" y2="5.30918" gradientUnits="userSpaceOnUse">
<stop stop-color="white" stop-opacity="0"/>
<stop offset="1" stop-color="#8FB2FF"/>
</linearGradient>
<linearGradient id="paint3_linear_150_1560" x1="1.41791" y1="45.3634" x2="22.2039" y2="45.3634" gradientUnits="userSpaceOnUse">
<stop stop-color="#66B58A"/>
<stop offset="0.92" stop-color="#407ABD"/>
</linearGradient>
<linearGradient id="paint4_linear_150_1560" x1="139.855" y1="53.9868" x2="134.6" y2="62.9593" gradientUnits="userSpaceOnUse">
<stop stop-color="#66B58A"/>
<stop offset="0.92" stop-color="#407ABD"/>
</linearGradient>
<linearGradient id="paint5_linear_150_1560" x1="49.2247" y1="29.2668" x2="54.5882" y2="52.6492" gradientUnits="userSpaceOnUse">
<stop stop-color="#66B58A"/>
<stop offset="0.92" stop-color="#407ABD"/>
</linearGradient>
<linearGradient id="paint6_linear_150_1560" x1="137.488" y1="38.8953" x2="128.7" y2="57.535" gradientUnits="userSpaceOnUse">
<stop stop-color="#66B58A"/>
<stop offset="0.92" stop-color="#407ABD"/>
</linearGradient>
<linearGradient id="paint7_linear_150_1560" x1="89.6365" y1="27.6305" x2="74.4598" y2="51.7448" gradientUnits="userSpaceOnUse">
<stop stop-color="#66B58A"/>
<stop offset="0.92" stop-color="#407ABD"/>
</linearGradient>
<linearGradient id="paint8_linear_150_1560" x1="103.392" y1="40.4957" x2="116.115" y2="42.3067" gradientUnits="userSpaceOnUse">
<stop stop-color="#66B58A"/>
<stop offset="0.92" stop-color="#407ABD"/>
</linearGradient>
<linearGradient id="paint9_linear_150_1560" x1="141.679" y1="57.3297" x2="110.657" y2="57.3297" gradientUnits="userSpaceOnUse">
<stop stop-color="#B7EBCF"/>
<stop offset="0.92" stop-color="#4099BD"/>
</linearGradient>
<linearGradient id="paint10_linear_150_1560" x1="131.6" y1="53.9356" x2="82.6891" y2="53.9356" gradientUnits="userSpaceOnUse">
<stop stop-color="#B7EBCF"/>
<stop offset="0.92" stop-color="#4099BD"/>
</linearGradient>
<linearGradient id="paint11_linear_150_1560" x1="99.8022" y1="53.7274" x2="48.1068" y2="53.7274" gradientUnits="userSpaceOnUse">
<stop stop-color="#B7EBCF"/>
<stop offset="0.92" stop-color="#4099BD"/>
</linearGradient>
<linearGradient id="paint12_linear_150_1560" x1="67.5731" y1="55.261" x2="16.3278" y2="55.261" gradientUnits="userSpaceOnUse">
<stop stop-color="#B7EBCF"/>
<stop offset="0.92" stop-color="#4099BD"/>
</linearGradient>
<linearGradient id="paint13_linear_150_1560" x1="29.0881" y1="4.60274" x2="29.0881" y2="76.8347" gradientUnits="userSpaceOnUse">
<stop stop-color="#1051B3"/>
<stop offset="1" stop-color="#16367C"/>
</linearGradient>
<linearGradient id="paint14_linear_150_1560" x1="32.3087" y1="50.9597" x2="36.5053" y2="13.5556" gradientUnits="userSpaceOnUse">
<stop stop-color="#ADC7FF" stop-opacity="0"/>
<stop offset="1" stop-color="#ADC7FF"/>
</linearGradient>
<linearGradient id="paint15_linear_150_1560" x1="21.6814" y1="67.1103" x2="50.1578" y2="67.1103" gradientUnits="userSpaceOnUse">
<stop stop-color="#ADC7FF" stop-opacity="0"/>
<stop offset="1" stop-color="#ADC7FF"/>
</linearGradient>
<linearGradient id="paint16_linear_150_1560" x1="111.995" y1="48.4001" x2="100.496" y2="48.4001" gradientUnits="userSpaceOnUse">
<stop stop-color="#9E4040" stop-opacity="0"/>
<stop offset="1" stop-color="#9E4040"/>
</linearGradient>
<linearGradient id="paint17_linear_150_1560" x1="99.474" y1="38.8486" x2="99.474" y2="32.3243" gradientUnits="userSpaceOnUse">
<stop stop-color="#9E4040" stop-opacity="0"/>
<stop offset="1" stop-color="#9E4040"/>
</linearGradient>
<linearGradient id="paint18_linear_150_1560" x1="100.158" y1="26.7024" x2="95.2362" y2="26.7024" gradientUnits="userSpaceOnUse">
<stop offset="0.04" stop-color="#25468F" stop-opacity="0"/>
<stop offset="1" stop-color="#25468F"/>
</linearGradient>
<linearGradient id="paint19_linear_150_1560" x1="109.333" y1="24.0936" x2="105.934" y2="24.2111" gradientUnits="userSpaceOnUse">
<stop offset="0.04" stop-color="#25468F" stop-opacity="0"/>
<stop offset="1" stop-color="#25468F"/>
</linearGradient>
<linearGradient id="paint20_linear_150_1560" x1="125.009" y1="32.2986" x2="133.442" y2="32.2986" gradientUnits="userSpaceOnUse">
<stop offset="0.04" stop-color="#25468F" stop-opacity="0"/>
<stop offset="1" stop-color="#25468F"/>
</linearGradient>
<linearGradient id="paint21_linear_150_1560" x1="129.769" y1="27.9648" x2="125.59" y2="31.5548" gradientUnits="userSpaceOnUse">
<stop stop-color="#997122" stop-opacity="0"/>
<stop offset="0.96" stop-color="#997122"/>
</linearGradient>
<linearGradient id="paint22_linear_150_1560" x1="137.673" y1="35.5479" x2="137.032" y2="30.5216" gradientUnits="userSpaceOnUse">
<stop stop-color="#997122" stop-opacity="0"/>
<stop offset="0.96" stop-color="#997122"/>
</linearGradient>
<linearGradient id="paint23_linear_150_1560" x1="135.826" y1="56.8761" x2="125.26" y2="40.4868" gradientUnits="userSpaceOnUse">
<stop offset="0.04" stop-color="#25468F" stop-opacity="0"/>
<stop offset="1" stop-color="#25468F"/>
</linearGradient>
<linearGradient id="paint24_linear_150_1560" x1="66.5136" y1="26.9199" x2="75.1299" y2="26.9199" gradientUnits="userSpaceOnUse">
<stop stop-color="#0F2554" stop-opacity="0"/>
<stop offset="1" stop-color="#0F2554"/>
</linearGradient>
<linearGradient id="paint25_linear_150_1560" x1="72.5751" y1="26.9479" x2="67.2004" y2="20.8557" gradientUnits="userSpaceOnUse">
<stop stop-color="#9E4040" stop-opacity="0"/>
<stop offset="1" stop-color="#9E4040"/>
</linearGradient>
<linearGradient id="paint26_linear_150_1560" x1="43.4188" y1="26.2956" x2="38.1051" y2="26.2557" gradientUnits="userSpaceOnUse">
<stop stop-color="#0A631A" stop-opacity="0"/>
<stop offset="1" stop-color="#0A631A"/>
</linearGradient>
<linearGradient id="paint27_linear_150_1560" x1="28.0756" y1="18.0229" x2="23.2401" y2="17.8467" gradientUnits="userSpaceOnUse">
<stop stop-color="#0A631A" stop-opacity="0"/>
<stop offset="1" stop-color="#0A631A"/>
</linearGradient>
<linearGradient id="paint28_linear_150_1560" x1="28.1365" y1="16.3493" x2="23.301" y2="16.173" gradientUnits="userSpaceOnUse">
<stop stop-color="#0A631A" stop-opacity="0"/>
<stop offset="1" stop-color="#0A631A"/>
</linearGradient>
<linearGradient id="paint29_linear_150_1560" x1="26.7864" y1="27.6818" x2="22.3728" y2="27.5243" gradientUnits="userSpaceOnUse">
<stop stop-color="#0A631A" stop-opacity="0"/>
<stop offset="1" stop-color="#0A631A"/>
</linearGradient>
<clipPath id="clip0_150_1560">
<rect width="161" height="71" fill="white"/>
</clipPath>
</defs>
</svg>
