<svg width="24" height="34" viewBox="0 0 24 34" fill="none" xmlns="http://www.w3.org/2000/svg">
<g clip-path="url(#clip0_407_3090)">
<path d="M18.9167 34C17.5999 33.6184 17.0158 32.5402 16.5375 31.4115C15.7628 29.5843 15.3235 27.6515 14.8557 25.7301C14.5184 24.3463 14.2011 22.9541 13.7819 21.5941C13.3607 20.2285 12.6146 19.0618 11.2654 18.4023C10.3402 17.9502 9.34546 17.8075 8.32973 17.7999C6.66704 17.7875 5.00529 17.8018 3.3426 17.7913C2.28876 17.7846 1.52649 17.0128 1.5608 16.0174C1.59033 15.1761 2.23922 14.4843 3.07962 14.4024C3.26637 14.3844 3.45503 14.3796 3.64369 14.3777C5.61606 14.3634 7.59033 14.3958 9.55984 14.3254C11.132 14.2692 12.587 13.7934 13.7809 12.7047C14.3431 12.1917 14.768 11.5827 15.0415 10.8242C14.869 10.8242 14.7385 10.8242 14.608 10.8242C10.3745 10.8242 6.14107 10.8242 1.90763 10.8242C1.02435 10.8242 0.364989 10.3959 0.107724 9.66983C-0.26674 8.60968 0.401197 7.51146 1.52173 7.35158C1.6961 7.32684 1.87428 7.31923 2.05151 7.31828C6.29638 7.31637 10.5403 7.31732 14.7852 7.31732H15.2149C14.97 6.28763 14.466 5.46729 13.6751 4.82587C12.6127 3.96462 11.3512 3.61726 10.0258 3.46214C9.55413 3.40695 9.0758 3.40124 8.60034 3.39933C6.3507 3.39362 4.10105 3.39933 1.85141 3.39458C1.00053 3.39267 0.362131 2.98631 0.111535 2.30968C-0.28008 1.2581 0.40882 0.155121 1.5446 0.0171299C1.67609 0.000951662 1.81044 0 1.94288 0C8.64798 0 15.3531 0 22.0572 0C22.9596 0 23.6027 0.381616 23.8771 1.07443C24.3069 2.15742 23.5589 3.34319 22.3812 3.37935C21.1739 3.41551 19.9658 3.39267 18.7576 3.39458C18.6032 3.39458 18.4479 3.39458 18.2144 3.39458C19.0653 4.58701 19.5246 5.88031 19.7037 7.31447C20.204 7.31447 20.687 7.31066 21.1711 7.31542C21.6027 7.32018 22.0382 7.30019 22.465 7.35158C23.3921 7.46198 24.0258 8.22521 23.9886 9.135C23.9505 10.06 23.2492 10.7814 22.304 10.8128C21.4407 10.8413 20.5756 10.8251 19.7113 10.8194C19.5274 10.8185 19.4141 10.847 19.3455 11.0526C18.5565 13.4527 16.9214 15.0638 14.6318 16.0574C14.5517 16.0926 14.4727 16.1316 14.3631 16.183C14.4136 16.2296 14.4431 16.2734 14.485 16.2934C16.2583 17.1442 17.3178 18.6193 17.9076 20.416C18.4155 21.9662 18.7518 23.5717 19.1825 25.1476C19.6075 26.7027 20.0429 28.2548 20.5031 29.8003C20.6146 30.1753 20.8166 30.5302 21.0215 30.8681C21.7094 32.0006 21.1616 33.488 19.8924 33.8906C19.7876 33.9239 19.6847 33.9629 19.5808 33.9991H18.9157L18.9167 34Z" fill="white"/>
</g>
<defs>
<clipPath id="clip0_407_3090">
<rect width="24" height="34" fill="white"/>
</clipPath>
</defs>
</svg>
