<svg width="43" height="46" viewBox="0 0 43 46" fill="none" xmlns="http://www.w3.org/2000/svg">
<path d="M23.9803 12.1456C24.4003 11.9367 24.7514 11.7606 25.1047 11.5867C27.3556 10.4776 29.8745 12.0329 29.8865 14.5442C29.8931 15.8272 29.8865 17.1101 29.8865 18.4434C30.0725 18.4434 30.2322 18.4412 30.3908 18.4434C31.7842 18.4664 33.1886 18.3833 34.5667 18.5386C36.7072 18.7792 38.35 20.6889 38.409 22.8425C38.443 24.0587 38.4189 25.2761 38.4211 26.4923C38.4211 26.64 38.4211 26.7887 38.4211 26.9331C38.7448 26.9954 39.0423 27.0304 39.3267 27.1114C40.6184 27.4811 41.5831 28.5748 41.6728 29.9201C41.7461 31.0226 41.7603 32.1393 41.6684 33.2386C41.5295 34.889 40.3297 35.9379 38.4211 36.1928C38.4211 36.674 38.4287 37.164 38.42 37.6518C38.4014 38.7161 38.4626 39.7923 38.3314 40.8434C38.0667 42.962 36.1931 44.5961 34.0614 44.689C33.9247 44.6945 33.788 44.6967 33.6512 44.6967C24.3533 44.6967 15.0553 44.6989 5.75732 44.6967C3.46592 44.6967 1.65029 43.3076 1.13623 41.1529C1.04545 40.7723 1.00826 40.3698 1.00717 39.9772C0.999511 34.3717 0.997323 28.7673 1.00389 23.1618C1.00717 20.4625 2.98029 18.4839 5.67748 18.4347C5.87326 18.4314 6.10842 18.345 6.25498 18.217C10.3029 14.6853 14.3454 11.1459 18.3803 7.59888C19.4675 6.64294 20.6695 6.31919 22.0115 6.92841C23.3744 7.54747 23.9781 8.67841 23.9792 10.1528C23.9792 10.7948 23.9792 11.4368 23.9792 12.1456H23.9803ZM37.1097 26.9757C37.1097 25.707 37.1097 24.5039 37.1097 23.3018C37.1086 21.1165 35.7425 19.7559 33.5462 19.7559C24.3314 19.7559 15.1154 19.7559 5.9006 19.7559C3.67373 19.7559 2.31748 21.1056 2.31639 23.3215C2.31639 28.8165 2.31639 34.3126 2.31639 39.8076C2.31639 42.0268 3.67264 43.3842 5.88967 43.3842C12.4795 43.3842 19.0694 43.3842 25.6603 43.3842C28.3815 43.3842 31.1017 43.3929 33.823 43.3798C35.5522 43.3711 36.9992 42.0739 37.0856 40.3797C37.1556 39.0026 37.0987 37.6201 37.0965 36.2387C37.0965 36.2179 37.0637 36.1982 37.0331 36.1632C34.9003 36.1632 32.7544 36.1676 30.6084 36.1622C28.959 36.1578 27.9298 35.3747 27.5109 33.7843C27.1719 32.4948 27.1598 31.1812 27.3961 29.8808C27.7789 27.7764 28.7862 26.9747 30.9267 26.9747C32.8003 26.9747 34.6728 26.9747 36.5464 26.9747H37.1108L37.1097 26.9757ZM8.00717 18.4423C9.17092 18.4423 10.2078 18.4456 11.2436 18.4368C11.3595 18.4368 11.4809 18.38 11.5881 18.3264C15.192 16.5315 18.7959 14.7367 22.3922 12.9276C22.5223 12.862 22.6514 12.652 22.6558 12.5054C22.6809 11.7004 22.6667 10.8933 22.6678 10.0872C22.6689 9.18153 22.2894 8.49575 21.4603 8.11622C20.6411 7.74106 19.9312 7.98716 19.2794 8.56028C16.4892 11.0147 13.6892 13.4603 10.8936 15.9092C9.9606 16.7262 9.02982 17.5454 8.00717 18.4423ZM34.4344 34.8518C35.7458 34.8518 37.0572 34.8584 38.3697 34.8497C39.5422 34.842 40.38 34.002 40.392 32.8306C40.3997 32.0245 40.3953 31.2184 40.3931 30.4123C40.3887 29.1064 39.575 28.2893 38.2701 28.2882C35.7283 28.2861 33.1875 28.2861 30.6456 28.2882C29.5256 28.2882 28.982 28.7148 28.7458 29.8086C28.5062 30.9165 28.4986 32.0354 28.7097 33.1456C28.959 34.4526 29.4665 34.8507 30.7856 34.8507C32.0019 34.8507 33.2181 34.8507 34.4333 34.8507L34.4344 34.8518ZM28.5708 18.427C28.5708 17.0303 28.5992 15.6784 28.5598 14.3276C28.5369 13.5522 28.0851 13.0075 27.3753 12.6968C26.7376 12.4179 26.1328 12.5372 25.5269 12.8412C21.9273 14.6448 18.3223 16.4364 14.7206 18.2334C14.632 18.2782 14.5489 18.3351 14.3958 18.427H28.5719H28.5708Z" fill="white" stroke="white" stroke-width="2"/>
<path d="M40.7572 7.56619C40.6391 8.16447 40.5593 8.74525 40.4083 9.30744C39.8133 11.519 38.5522 13.2657 36.6666 14.5629C36.2127 14.8746 36.0377 14.8703 35.5991 14.5421C34.8433 13.9778 34.0897 13.4134 33.3361 12.8468C32.6679 12.3448 32.6821 11.8854 33.3985 11.4676C34.595 10.7698 35.3235 9.75588 35.528 8.38104C35.5652 8.12947 35.5565 7.87025 35.5707 7.5651C35.2469 7.5651 34.9647 7.56729 34.6815 7.5651C34.1991 7.56072 33.8371 7.34635 33.6271 6.91432C33.4236 6.49432 33.4936 6.09291 33.7704 5.72213C34.758 4.3965 35.738 3.0665 36.7311 1.74525C37.4782 0.751036 38.7119 0.751036 39.4655 1.74854C40.4608 3.0676 41.4397 4.39979 42.4274 5.72432C42.7129 6.10822 42.7894 6.5151 42.5641 6.95041C42.3399 7.38244 41.9702 7.57057 41.4911 7.56619C41.2461 7.564 41.0011 7.56619 40.7572 7.56619V7.56619ZM34.676 12.2113L36.1525 13.316C36.2291 13.2624 36.275 13.234 36.3177 13.2001C38.2865 11.6371 39.32 9.59838 39.4196 7.08822C39.4436 6.46807 39.6504 6.25916 40.2705 6.25479C40.5494 6.2526 40.8283 6.25479 41.1849 6.25479C40.2421 4.98822 39.3572 3.79494 38.468 2.60494C38.1771 2.21557 38.0152 2.21885 37.7177 2.61697C36.9247 3.679 36.1361 4.74432 35.3465 5.80854C35.2524 5.93541 35.1682 6.06775 35.0391 6.25588C35.4296 6.25588 35.7522 6.25369 36.0749 6.25588C36.4774 6.25916 36.7596 6.47135 36.7771 6.85635C36.8088 7.55963 36.8547 8.2815 36.7388 8.96947C36.5135 10.3017 35.7697 11.3549 34.6749 12.2113H34.676Z" fill="white" stroke="white" stroke-width="0.5"/>
<circle cx="32.3496" cy="31.354" r="1" fill="white"/>
</svg>
