<svg width="24" height="24" viewBox="0 0 24 24" fill="none" xmlns="http://www.w3.org/2000/svg">
<path d="M9.3195 0.181644H1.86512C1.7019 0.181258 1.54021 0.213118 1.38934 0.275396C1.23848 0.337673 1.1014 0.429139 0.985983 0.544541C0.870569 0.659944 0.779094 0.797011 0.716811 0.947865C0.654527 1.09872 0.622664 1.26039 0.62305 1.4236V8.87628C0.623107 9.12207 0.696041 9.36232 0.832633 9.56667C0.969225 9.77101 1.16334 9.93028 1.39044 10.0243C1.61754 10.1184 1.86744 10.143 2.10853 10.0951C2.34962 10.0471 2.57108 9.92879 2.74492 9.75502L4.81504 7.6851L8.9045 11.7742L4.81602 15.8642L2.7459 13.7943C2.57206 13.6205 2.35059 13.5022 2.1095 13.4543C1.86841 13.4063 1.61852 13.4309 1.39142 13.525C1.16432 13.619 0.970201 13.7783 0.833609 13.9827C0.697018 14.187 0.624084 14.4272 0.624027 14.673V22.1257C0.62364 22.2889 0.655504 22.4506 0.717787 22.6015C0.78007 22.7523 0.871546 22.8894 0.98696 23.0048C1.10237 23.1202 1.23945 23.2116 1.39032 23.2739C1.54119 23.3362 1.70288 23.3681 1.8661 23.3677H9.3195C9.56531 23.3676 9.80558 23.2947 10.01 23.1581C10.2143 23.0215 10.3736 22.8274 10.4677 22.6004C10.5617 22.3733 10.5863 22.1234 10.5384 21.8823C10.4905 21.6413 10.3721 21.4198 10.1983 21.246L8.12821 19.1761L12.2177 15.087L16.3071 19.1761L14.237 21.246C14.0632 21.4198 13.9449 21.6413 13.8969 21.8823C13.849 22.1234 13.8736 22.3733 13.9677 22.6004C14.0617 22.8274 14.221 23.0215 14.4254 23.1581C14.6297 23.2947 14.87 23.3676 15.1158 23.3677H22.5692C22.7325 23.3681 22.8941 23.3362 23.045 23.2739C23.1959 23.2116 23.333 23.1202 23.4484 23.0048C23.5638 22.8894 23.6553 22.7523 23.7175 22.6015C23.7798 22.4506 23.8117 22.2889 23.8113 22.1257V14.674C23.8112 14.4282 23.7383 14.188 23.6017 13.9836C23.4651 13.7793 23.271 13.62 23.0439 13.526C22.8168 13.4319 22.5669 13.4073 22.3258 13.4552C22.0847 13.5032 21.8633 13.6215 21.6894 13.7953L19.6193 15.8652L15.5299 11.7761L19.6193 7.68706L21.6894 9.75698C21.8633 9.93074 22.0847 10.0491 22.3258 10.097C22.5669 10.1449 22.8168 10.1203 23.0439 10.0263C23.271 9.93223 23.4651 9.77297 23.6017 9.56862C23.7383 9.36427 23.8112 9.12402 23.8113 8.87824V1.4236C23.8117 1.26047 23.7799 1.09888 23.7176 0.948093C23.6554 0.797302 23.564 0.660278 23.4487 0.544888C23.3334 0.429498 23.1964 0.33801 23.0457 0.275675C22.8949 0.21334 22.7333 0.181387 22.5702 0.181644H15.1168C14.871 0.181701 14.6307 0.254629 14.4264 0.391208C14.222 0.527786 14.0627 0.721884 13.9687 0.948964C13.8746 1.17604 13.85 1.42591 13.8979 1.66698C13.9459 1.90805 14.0642 2.12949 14.238 2.30331L16.3081 4.37323L12.2186 8.4623L8.12821 4.37421L10.1983 2.30429C10.3724 2.13051 10.4911 1.90899 10.5392 1.66775C10.5873 1.42652 10.5628 1.17643 10.4687 0.949151C10.3746 0.721869 10.2152 0.527618 10.0106 0.390992C9.80603 0.254365 9.56551 0.181507 9.3195 0.181644Z" fill="white"/>
</svg>
