<svg width="18" height="18" viewBox="0 0 18 18" fill="none" xmlns="http://www.w3.org/2000/svg">
<path opacity="0.15" d="M13.4996 10.5L15.7496 3.75H3.58887L4.55315 10.5H13.4996Z" fill="#001A72"/>
<path fill-rule="evenodd" clip-rule="evenodd" d="M0.9375 2.25C0.9375 1.93934 1.18934 1.6875 1.5 1.6875H3.375C3.65493 1.6875 3.89226 1.89334 3.93185 2.17045L4.07714 3.1875H15.75C15.9308 3.1875 16.1006 3.27442 16.2063 3.4211C16.312 3.56778 16.3408 3.75634 16.2836 3.92788L14.0336 10.6779C13.9571 10.9076 13.7421 11.0625 13.5 11.0625H5.20214L5.36285 12.1875H12.75C13.8891 12.1875 14.8125 13.1109 14.8125 14.25C14.8125 15.3891 13.8891 16.3125 12.75 16.3125C11.6109 16.3125 10.6875 15.3891 10.6875 14.25C10.6875 13.9124 10.7686 13.5938 10.9124 13.3125H8.58762C8.7314 13.5938 8.8125 13.9124 8.8125 14.25C8.8125 15.3891 7.88911 16.3125 6.75 16.3125C5.61092 16.3125 4.6875 15.3891 4.6875 14.25C4.6875 13.9124 4.7686 13.5938 4.91239 13.3125H4.875C4.59507 13.3125 4.35774 13.1067 4.31815 12.8295L3.99815 10.5895C3.99716 10.5834 3.99628 10.5772 3.9955 10.571L3.03384 3.83933C3.03287 3.8333 3.03201 3.82725 3.03124 3.82116L2.88715 2.8125H1.5C1.18934 2.8125 0.9375 2.56066 0.9375 2.25ZM4.23785 4.3125L5.04142 9.9375H13.0946L14.9696 4.3125H4.23785ZM6.75 13.3125C6.23223 13.3125 5.8125 13.7322 5.8125 14.25C5.8125 14.7678 6.23223 15.1875 6.75 15.1875C7.26779 15.1875 7.6875 14.7678 7.6875 14.25C7.6875 13.7322 7.26779 13.3125 6.75 13.3125ZM12.75 13.3125C12.2322 13.3125 11.8125 13.7322 11.8125 14.25C11.8125 14.7678 12.2322 15.1875 12.75 15.1875C13.2678 15.1875 13.6875 14.7678 13.6875 14.25C13.6875 13.7322 13.2678 13.3125 12.75 13.3125Z" fill="#001A72"/>
</svg>
