<svg width="32" height="30" viewBox="0 0 32 30" fill="none" xmlns="http://www.w3.org/2000/svg">
<path d="M16 29.5369C15.5059 29.5363 15.0235 29.387 14.6155 29.1084C8.5704 25.0048 5.95284 22.1911 4.50908 20.432C1.43232 16.6822 -0.0406821 12.8324 0.000854122 8.66338C0.0493131 3.88595 3.88219 0 8.54501 0C11.9356 0 14.2839 1.9099 15.6516 3.50058C15.6949 3.55046 15.7484 3.59046 15.8085 3.61787C15.8686 3.64528 15.9339 3.65947 16 3.65947C16.0661 3.65947 16.1314 3.64528 16.1915 3.61787C16.2516 3.59046 16.3051 3.55046 16.3484 3.50058C17.7161 1.90836 20.0644 0 23.455 0C28.1178 0 31.9507 3.88595 31.9991 8.66415C32.0407 12.8339 30.5661 16.6837 27.4909 20.4328C26.0472 22.1919 23.4296 25.0056 17.3845 29.1092C16.9764 29.3875 16.494 29.5365 16 29.5369Z" fill="#FF6400"/>
</svg>
