<svg width="237" height="313" viewBox="0 0 237 313" fill="none" xmlns="http://www.w3.org/2000/svg">
<g opacity="0.05" clip-path="url(#clip0_73_643)">
<path d="M218.806 174.358C218.504 174.305 218.2 174.298 217.948 174.199C217.222 173.866 216.506 173.505 215.811 173.135C215.291 172.85 214.775 172.518 214.297 172.169C210.95 169.773 207.353 167.813 203.695 165.925C203.156 165.649 202.629 165.345 202.077 165.145C197.602 163.406 193.13 161.619 188.623 159.964C183.732 158.175 178.705 156.817 173.56 155.931C172.475 155.731 171.387 155.58 170.372 155.117C167.636 153.849 164.707 153.202 161.881 152.206C161.029 151.904 160.156 151.659 159.346 151.293C157.521 150.463 155.63 149.803 153.74 149.142C151.756 148.429 149.782 147.735 147.709 147.294C146.937 147.12 146.18 146.823 145.454 146.49C144.347 145.975 143.202 145.639 142.022 145.434C140.047 145.113 138.082 144.81 136.086 144.545C134.789 144.392 133.502 144.42 132.2 144.572C129.623 144.887 127.061 145.288 124.499 145.69C122.129 146.053 119.759 146.417 117.478 147.09C116.039 147.512 114.625 147.991 113.225 148.558C108.465 150.457 104.098 153.092 99.8969 156.003C99.1477 156.518 98.4094 157.004 97.6517 157.499C96.489 158.288 95.3714 159.126 94.3612 160.104C92.5183 161.935 90.4949 163.566 88.2398 164.88C87.7204 165.178 87.2181 165.514 86.7158 165.85C84.962 167.038 83.1056 167.991 81.1698 168.815C79.6125 169.498 78.0552 170.18 76.5344 170.893C76.0867 171.089 75.6988 171.422 75.2938 171.716C74.265 172.492 74.0824 173.294 74.5885 174.608C74.7083 174.881 74.7891 175.171 74.8893 175.453C75.1032 175.941 75.4361 176.33 75.9343 176.461C78.0732 177.106 79.9293 178.271 81.7331 179.528C82.1378 179.816 82.5946 180.011 83.0297 180.263C84.5114 181.103 85.913 182.024 87.26 183.086C89.7796 185.077 92.2494 187.112 95.0145 188.763C96.3001 189.526 97.5141 190.39 98.9976 190.81C99.9356 191.097 100.79 191.724 101.599 192.3C102.344 192.834 103.143 193.229 103.995 193.53C105.689 194.114 107.392 194.718 109.176 195.029C110.054 195.18 110.928 195.425 111.79 195.699C114.013 196.377 116.302 196.677 118.608 196.644C121.696 196.594 124.808 196.441 127.883 196.257C129.468 196.167 131.089 196.108 132.621 195.739C136.602 194.763 140.537 193.574 143.977 191.206C145.298 190.302 146.645 189.456 147.957 188.532C148.431 188.184 148.871 187.759 149.255 187.311C150.015 186.397 150.839 185.524 151.745 184.731C153.188 183.471 154.377 181.949 155.214 180.257C156.198 178.266 157.413 176.431 158.644 174.635C159.887 172.811 161.074 170.965 162.232 169.107C163.578 166.936 165.366 165.245 167.509 163.887C168.364 163.349 169.251 162.938 170.252 162.732C172.214 162.338 174.158 161.904 176.12 161.51C177.918 161.164 179.72 161.305 181.496 161.598C182.969 161.836 184.473 162.038 185.936 162.305C187.701 162.625 189.423 163.22 191.107 163.832C194.305 164.99 197.472 166.232 200.605 167.558C201.715 168.026 202.901 168.297 204.035 168.661C205.553 169.16 207.047 169.762 208.403 170.633C208.911 170.946 209.439 171.25 209.988 171.498C211.844 172.29 213.501 173.425 215.057 174.698C216.23 175.627 217.391 176.584 218.716 177.33C219.956 178.043 220.835 179.147 221.713 180.251C223.156 182.062 224.463 183.933 225.581 185.956C227.775 189.904 230.108 193.745 232.341 197.676C233.234 199.239 234 200.881 234.825 202.498C236.508 205.809 238.19 209.12 239.904 212.395C240.747 214.003 241.477 215.615 242.067 217.333C242.993 219.976 244.122 222.553 245.134 225.181C245.76 226.768 246.347 228.372 246.945 229.948C247.065 230.222 247.126 230.52 247.226 230.802C248.434 234.089 249.592 237.421 250.878 240.673C251.681 242.718 252.649 244.714 253.53 246.724C253.564 246.803 253.71 246.925 253.721 246.897C253.896 246.82 254.11 246.726 254.156 246.566C254.849 244.122 254.356 241.779 253.256 239.585C250.821 234.718 249.203 229.541 247.292 224.491C245.516 219.802 243.642 215.155 241.34 210.695C240.419 208.911 239.371 207.207 238.342 205.494C237.506 204.115 236.786 202.685 236.378 201.119C236.089 200.036 235.634 199.049 234.984 198.147C234.342 197.265 233.761 196.309 233.149 195.39C233.033 195.232 232.889 195.062 232.832 194.878C232.212 192.404 230.391 190.526 229.449 188.216C228.661 186.258 227.764 184.371 227.093 182.362C226.487 180.556 225.746 178.81 225.015 177.036C223.762 174.072 222.78 171.035 222.098 167.89C221.81 166.597 221.779 165.308 222.024 164.014C222.355 162.333 222.798 160.696 223.616 159.175C224.319 157.866 225.005 156.519 225.671 155.18C225.841 154.826 225.974 154.442 226.06 154.055C226.396 152.651 227.084 151.466 228.215 150.552C228.88 150.004 229.144 149.284 229.223 148.458C229.282 147.85 229.321 147.252 229.464 146.677C229.55 146.29 229.66 145.8 229.945 145.605C230.786 144.981 230.895 144.119 231.035 143.22C231.117 142.718 231.171 142.206 231.318 141.746C231.96 139.929 232.13 138.04 232.395 136.155C232.671 134.243 232.603 132.341 232.315 130.466C231.948 128.091 231.427 125.737 230.741 123.431C230.209 121.687 229.452 120.064 228.48 118.535C226.882 116.001 225.129 113.535 223.729 110.868C222.103 107.741 220.034 104.925 218.134 101.965C216.675 99.6951 215.286 97.372 213.878 95.0575C213.781 94.8903 213.715 94.6866 213.58 94.5365C212.372 93.1576 211.634 91.5264 210.888 89.8757C210.717 89.4853 210.363 89.3143 210.231 89.4887C210.077 89.7192 209.864 89.9752 209.861 90.2326C209.817 90.9266 209.848 91.6341 209.852 92.3306C209.898 95.2422 209.983 98.1368 209.506 101.021C209.218 102.8 208.854 104.564 208.463 106.318C208.157 107.686 207.926 109.066 207.97 110.49C207.998 111.083 207.967 111.701 207.872 112.278C207.351 115.484 207.659 118.677 208.053 121.854C208.471 125.138 209.341 128.34 210.24 131.506C211.334 135.378 212.641 139.157 214.355 142.803C214.896 143.985 215.34 145.21 215.541 146.518C215.655 147.306 215.882 148.09 216.102 148.855C217.092 152.121 217.85 155.442 218.59 158.771C218.77 159.553 218.969 160.326 219.294 161.068C219.714 162.025 219.865 163.005 219.748 164.01C219.48 166.152 219.817 168.192 220.497 170.221C220.893 171.443 221.203 172.68 221.618 174.104C221.237 173.922 221.038 173.892 220.996 173.795C218.104 167.988 214.282 162.868 209.499 158.519C206.704 155.951 203.759 153.519 200.425 151.629C198.424 150.505 196.538 149.167 194.642 147.857C193.979 147.403 193.346 146.913 192.598 146.635C190.214 145.749 188.568 144.004 187.34 141.889C185.831 139.293 184.489 136.6 183.586 133.692C183.324 132.829 183.081 131.958 182.886 131.09C182.204 127.945 181.261 124.891 179.669 122.052C179.53 121.787 179.449 121.497 179.357 121.235C179.506 120.727 179.644 120.248 179.782 119.769C179.383 119.176 178.993 118.602 178.613 118.001C177.897 116.895 177.267 115.775 177.5 114.347C177.542 114.072 177.444 113.743 177.372 113.472C177.027 112.157 177.234 110.88 177.638 109.632C178.323 107.541 178.999 105.43 179.656 103.327C180.017 102.192 180.436 101.031 180.646 99.8684C181.107 97.1071 181.615 94.3482 181.679 91.5281C181.695 90.8231 181.815 90.1425 181.897 89.4314C181.902 89.3363 181.954 89.2436 181.959 89.1484C182.701 84.7515 182.504 80.2773 181.352 76.0588C181.029 74.8974 180.55 73.8043 180.023 72.7087C177.284 67.0915 172.881 63.1337 167.67 59.9257C166.746 59.3532 165.69 58.955 164.714 58.4752C162.03 57.1151 159.343 55.8026 156.626 54.5266C152.376 52.5035 147.985 50.7974 143.871 48.5047C142.99 48.0298 142.098 47.5829 141.228 47.08C138.814 45.648 136.4 44.2161 134.005 42.7757C132.989 42.1506 131.882 41.6354 131.41 40.3995C131.299 40.1458 130.993 39.9773 130.754 39.8028C130.231 39.4036 129.683 39.318 128.969 39.7007C128.923 40.2325 128.809 40.8179 128.856 41.4022C129.014 43.4039 129.23 45.3801 129.387 47.3818C129.601 49.9873 129.806 52.5733 129.991 55.1679C130.153 57.6563 130.296 60.1532 130.419 62.6587C130.451 63.3662 130.426 64.0517 130.335 64.7433C130.199 65.7568 130.266 66.7046 130.501 67.7184C130.696 68.5869 130.66 69.5103 130.635 70.4056C130.608 71.5107 130.506 72.6023 130.385 73.7025C130.038 76.6701 130.63 79.5051 131.666 82.2391C132.793 85.2354 134.201 88.1318 136.395 90.5443C136.531 90.6944 136.666 90.8445 136.763 91.0117C139.222 94.9832 142.808 97.9258 145.905 101.339C146.844 102.37 147.852 103.348 148.88 104.317C149.525 104.941 150.19 105.558 150.926 106.073C152.833 107.354 154.628 108.802 156.687 109.901C157.568 110.376 158.375 110.999 159.173 111.603C161.33 113.241 163.692 114.556 166.096 115.806C169.289 117.479 172.451 119.188 175.506 121.13C176.725 121.899 177.558 122.954 178.356 124.14C179.639 126.114 180.34 128.296 180.915 130.51C181.754 133.749 182.994 136.79 184.475 139.747C184.691 140.187 184.916 140.647 185.082 141.133C185.194 141.387 185.313 141.66 185.07 141.953C184.918 142.136 184.542 142.231 184.264 142.073C182.628 141.092 180.926 140.278 179.363 139.148C176.036 136.744 172.471 134.699 168.803 132.839C167.549 132.202 166.367 131.464 165.143 130.79C163.134 129.646 161.037 128.726 158.877 127.928C155.109 126.53 151.304 125.312 147.457 124.159C147.082 124.044 146.688 123.938 146.302 123.851C142.197 122.904 138.101 121.976 134.016 121.02C130.967 120.309 127.878 120.197 124.793 119.989C121.491 119.761 118.224 119.4 115.041 118.491C114.065 118.221 113.14 117.859 112.344 117.207C111.804 116.769 111.294 116.294 110.915 115.693C109.707 113.732 108.442 111.797 107.215 109.844C106.994 109.499 106.773 109.154 106.62 108.802C105.374 105.695 103.098 103.202 101.47 100.332C101.118 99.7418 100.63 99.211 100.182 98.6631C97.4198 95.2196 94.6276 91.8127 91.9048 88.3521C91.34 87.6456 90.7752 86.9391 90.0803 86.3594C87.7459 84.4737 85.4418 82.5515 82.7927 81.0597C81.5693 80.3858 80.409 79.5912 79.1965 78.8892C77.8828 78.1153 76.4795 77.6133 74.9998 77.3076C72.8514 76.8529 70.7163 76.3225 68.5618 75.8006C68.0722 75.6894 67.5849 75.5306 67.1281 75.3352C65.1691 74.5182 63.1266 74.0403 61.0818 73.61C58.1418 72.9902 55.208 72.4375 52.2172 72.0726C51.3088 71.9587 50.4431 71.9425 49.5338 72.0384C46.0523 72.3539 42.5622 72.6499 39.0644 72.7165C37.1774 72.7522 35.2514 72.805 33.4947 73.6678C30.4653 74.2738 27.5244 75.3995 24.3917 75.3992C22.1891 76.0385 19.8148 75.9154 17.6502 76.7475C17.2998 76.901 16.8786 76.946 16.4768 76.9824C14.5936 77.1327 12.6933 77.2441 10.8015 77.3749C10.5057 77.3882 10.2013 77.3819 9.90548 77.3952C4.85454 77.677 3.96467 77.7644 0.685193 77.2701C0.562204 77.2542 0.362818 77.4346 0.252209 77.5529C0.193817 77.5785 0.223316 77.7517 0.257527 77.8298C1.62276 79.6747 2.79952 81.6721 4.50042 83.2769C5.01007 83.7516 5.4091 84.3446 5.78013 84.9266C7.35446 87.3547 8.96774 89.7657 10.6978 92.1256C12.179 94.1291 13.4023 96.3387 14.695 98.4947C16.5407 101.595 18.3669 104.704 20.6066 107.538C21.4032 108.562 22.15 109.631 22.9357 110.683C24.2581 112.43 29.2098 117.218 30.9951 118.274C33.7516 119.905 36.5276 121.527 39.369 122.981C41.7645 124.212 44.2948 125.22 46.7534 126.33C47.8524 126.826 48.9779 127.171 50.2016 127.263C50.9894 127.313 51.7896 127.498 52.5594 127.719C54.1099 128.133 55.6846 128.444 57.2797 128.536C59.682 128.67 62.053 129.05 64.4155 129.411C65.9085 129.641 67.3892 129.737 68.894 129.729C73.3975 129.734 77.8739 129.518 82.3597 129.111C83.364 129.02 84.3426 128.871 85.3298 128.741C85.6365 128.699 85.9176 128.599 86.222 128.606C88.8228 128.769 91.3797 128.091 93.99 128.064C94.981 128.049 95.9791 127.891 96.9515 127.674C100.273 126.94 103.594 126.206 106.651 124.657C107.091 124.441 107.584 124.295 108.042 124.071C109.057 123.58 110.141 123.407 111.242 123.483C111.84 123.524 112.435 123.612 113.036 123.605C113.426 123.597 113.921 123.613 114.198 123.398C115.565 122.334 117.231 122.535 118.775 122.3C120.54 122.039 122.36 122.009 124.155 121.921C124.852 121.871 125.545 121.917 126.249 121.934C126.439 121.944 126.637 121.973 126.836 122.003C128.318 122.261 129.838 121.758 131.3 122.234C132.641 122.647 134.019 122.881 135.438 122.887C135.628 122.897 135.845 122.918 136.033 122.975C138.618 123.844 141.331 124.051 143.963 124.55C145.652 124.857 147.286 125.304 148.851 126.015C150.592 126.811 152.368 127.476 154.234 127.868C155.224 128.062 156.168 128.417 157.018 128.928C158.147 129.597 159.363 130.042 160.609 130.45C162.717 131.131 164.719 132.046 166.584 133.23C168.541 134.466 170.583 135.526 172.677 136.493C174.046 137.127 175.331 137.89 176.595 138.709C180.283 141.142 183.952 143.583 187.477 146.227C190.369 148.38 193.394 150.358 196.471 152.244C199.113 153.879 201.571 155.78 203.967 157.755C204.881 158.518 205.804 159.3 206.769 160.018C208.157 161.015 209.385 162.176 210.491 163.483C211.733 164.94 212.985 166.369 214.218 167.806C214.543 168.176 214.856 168.574 215.131 168.988C216.199 170.684 217.464 172.248 218.74 173.783C218.847 173.922 218.855 174.151 218.918 174.402L218.806 174.358Z" fill="black"/>
</g>
<defs>
<clipPath id="clip0_73_643">
<rect width="193" height="257" fill="white" transform="matrix(-0.91594 0.401315 0.401315 0.91594 176.776 0)"/>
</clipPath>
</defs>
</svg>
