<svg width="424" height="275" viewBox="0 0 424 275" fill="none" xmlns="http://www.w3.org/2000/svg">
<path d="M-43.319 274.562C-42.0482 272.048 -40.8135 269.524 -39.204 267.185C-38.7242 266.467 -38.234 265.713 -37.8876 264.918C-36.1709 260.858 -33.8486 257.129 -31.3314 253.534C-29.6189 251.109 -28.2244 248.436 -26.5734 245.953C-21.4089 238.178 -16.2188 230.449 -11.0287 222.72C-10.0588 221.248 -8.99129 219.844 -8.15474 218.294C-4.48358 211.645 -0.140433 205.502 4.79797 199.725C5.37526 199.074 5.96292 198.387 6.50426 197.725C7.41686 196.587 8.06259 195.294 8.00454 193.876C7.88428 190.649 8.68351 187.609 9.60097 184.565C10.5392 181.449 10.28 178.299 10.0207 175.148C9.9758 174.629 9.82301 174.079 9.5928 173.662C8.42651 171.496 7.26021 169.33 5.95496 167.24C4.83914 165.439 3.34237 163.878 1.56699 162.742C-0.901123 161.174 -2.51955 158.955 -4.05018 156.567C-7.43914 151.306 -9.28499 145.557 -10.1788 139.343C-10.8708 134.588 -10.6737 129.856 -10.2146 125.161C-9.89312 122.023 -9.00124 118.932 -7.59085 116.069C-3.73163 108.229 1.4612 101.435 8.39277 96.0385C12.7186 92.654 17.5152 90.0673 22.7772 88.4323C26.8354 87.1897 30.7658 85.7155 34.589 83.9379C36.2973 83.1462 38.1543 82.5142 39.0393 80.1223C39.7562 81.1467 40.2636 81.6824 40.5498 82.31C42.6508 86.7705 45.4107 90.8371 48.5051 94.6888C51.3279 98.2674 53.9239 102.092 55.8354 106.264C56.4078 107.519 56.9388 108.918 57.0535 110.275C57.5588 115.677 58.208 121.12 58.23 126.576C58.2535 131.488 58.3848 136.432 58.0999 141.332C57.9111 144.821 57.1775 148.307 56.6445 151.774C56.2891 154.085 55.0661 156.029 53.879 157.984C53.8016 158.117 53.852 158.482 53.888 158.492C54.1756 158.575 54.5351 158.679 54.7307 158.541C61.2883 154.71 67.0058 149.742 73.0358 145.175C74.1275 144.361 75.0761 143.234 75.8704 142.1C77.7841 139.382 79.6107 136.561 81.4014 133.73C82.5366 131.955 83.4409 130.036 84.5761 128.262C85.7577 126.461 86.5078 124.537 87.063 122.478C87.6956 120.286 88.5798 118.166 89.3563 116.015C89.8637 114.527 90.3816 113.002 90.8171 111.493C91.0142 110.81 90.6768 110.09 90.123 109.579C89.5949 109.116 88.9996 108.749 88.461 108.321C86.6504 106.903 84.8861 105.46 83.1114 104.052C81.1162 102.464 79.7439 100.472 78.9122 98.091C78.1061 95.7561 77.4182 93.4164 76.7048 91.0304C75.497 86.9835 74.7933 82.8094 74.0895 78.6354C73.3305 73.9783 74.1429 67.7892 76.3221 63.7463C79.3378 58.1541 82.9792 53.0928 88.2571 49.2434C93.2825 45.5937 98.4712 42.4582 104.172 39.9767C108.582 38.0568 113.015 36.7279 117.741 35.8725C122.749 34.9819 127.661 33.4796 132.583 32.2136C132.912 32.1529 133.241 32.0921 133.734 32.001C134.247 34.407 134.688 36.7922 135.248 39.1727C135.619 40.7202 135.99 42.2678 136.675 43.6724C139.62 49.9334 141.114 56.6323 142.361 63.3769C142.503 64.2353 142.516 65.1345 142.457 66.0129C142.259 68.9925 142.015 71.9976 141.709 74.946C141.297 79.343 140.408 83.6411 138.824 87.7781C137.872 90.2674 136.53 92.4885 134.716 94.4566C131.949 97.4342 128.884 100.092 125.507 102.349C123.339 103.787 120.9 104.952 118.426 105.834C116.08 106.675 113.872 107.712 111.731 108.924C109.904 109.993 107.954 110.676 105.851 111.082C102.725 111.659 99.6346 112.246 96.4482 112.222C95.9394 112.231 95.425 112.394 94.9673 112.496C94.0409 113.007 93.828 113.88 93.5894 114.706C93.0502 116.575 92.5109 118.444 92.0539 120.297C91.0673 124.256 89.5981 127.998 87.4307 131.46C86.9405 132.214 86.5582 132.999 86.1758 133.784C86.1344 133.928 86.0873 134.226 86.1848 134.293C86.4157 134.437 86.7801 134.659 87.0013 134.567C87.7936 134.251 88.6066 133.863 89.3326 133.372C93.6985 130.388 98.2435 127.729 102.927 125.265C107.275 123.016 111.476 120.335 115.518 117.53C119.745 114.624 124.381 112.458 128.802 109.957C130.341 109.078 131.921 108.327 133.485 107.494C134.124 107.172 134.685 106.711 135.364 106.517C141.587 104.654 146.527 100.629 151.307 96.48C155.937 92.4439 160.789 88.5882 165.061 84.176C165.56 83.6584 166.086 83.1871 166.452 82.5921C166.685 82.192 166.789 81.5603 166.687 81.1027C166.53 80.4344 166.172 79.786 165.839 79.1839C163.962 75.5668 162.646 71.761 161.726 67.7971C160.989 64.5478 160.216 61.2882 159.232 58.0845C158.375 55.3847 157.93 52.6089 157.567 49.818C156.866 44.827 157.582 40.0506 159.917 35.4687C161.823 31.6974 163.729 27.9262 166.718 24.8566C170.036 21.454 173.478 18.1648 177.58 15.6892C181.961 13.0602 186.305 10.4208 191.264 8.89296C192.935 8.36317 194.581 7.78706 196.324 7.55033C199.646 7.10725 202.941 6.61786 206.282 6.64753C208.035 6.64718 209.818 6.53901 211.551 6.33822C214.851 5.96701 218.193 5.72438 221.045 3.66667C221.632 3.25209 222.316 3.17689 222.973 3.6C222.784 9.11261 224.137 14.4085 225.712 19.6125C226.299 21.4946 226.741 23.3352 226.926 25.2574C227.216 28.5722 227.495 31.923 227.43 35.2522C227.4 36.8398 227.571 38.4074 227.742 39.975C228.094 42.8018 227.841 45.5706 227.078 48.3482C225.631 53.4977 223.625 58.2911 219.904 62.2784C219.064 63.165 218.485 64.3605 217.568 65.1082C215.766 66.4957 213.876 67.7802 211.859 68.8331C209.229 70.2543 206.431 71.3154 204.246 73.4879C203.643 74.0926 202.758 74.4601 202.068 74.9617C198.938 77.1728 195.302 77.7589 191.637 78.1805C190.424 78.3365 189.165 78.2457 187.946 78.2835C187.237 78.3124 186.513 78.259 185.87 78.4628C181.384 79.9714 176.669 80.7909 172.306 82.6852C171.678 82.9712 171.055 83.3754 170.576 83.8211C168.912 85.4042 167.32 87.0081 165.717 88.6479C165.614 88.7349 165.603 89.0432 165.629 89.0895C165.885 89.2803 166.183 89.5997 166.429 89.5541C167.643 89.3981 168.841 89.1599 169.901 88.4538C172.486 86.7858 175.345 86.0538 178.352 85.7537C183.282 85.2688 188.101 84.3622 192.894 83.137C195.625 82.4457 198.325 81.5899 200.964 80.6774C206.453 78.7964 211.89 76.8228 217.338 74.8133C218.47 74.4002 219.643 73.8434 220.596 73.1061C223.098 71.181 225.576 69.2097 227.868 67.0682C230.32 64.7782 232.675 62.4211 235.44 60.5327C237.777 58.9104 239.571 56.7419 241.225 55.1947C241.778 53.9528 241.502 53.2892 241.263 52.6361C240.195 49.9922 239.611 47.2931 239.896 44.4166C239.991 43.5485 240.034 42.5878 239.789 41.8164C239.152 39.8417 239.635 38.0344 240.184 36.1297C241.657 31.0265 243.961 26.2801 246.81 21.8075C248.6 18.9762 250.832 16.5058 253.356 14.2365C256.246 11.6445 259.274 9.2482 262.364 6.90854C264.501 5.30617 266.806 4.06392 269.317 3.19217C277.059 0.520971 285.022 -0.490035 293.207 0.431469C294.98 0.631554 296.681 0.810894 298.454 0.738665C303.219 0.556428 307.956 1.14482 312.673 1.53278C314.076 1.66506 315.452 2.02334 316.803 2.33531C317.83 2.55391 318.837 2.84439 319.89 3.1093C321.564 3.51464 323.73 2.89371 324.79 4.48426C325.773 5.93587 324.976 7.88616 325.059 9.62304C325.216 12.5881 325.008 15.6036 324.882 18.6039C324.854 19.6468 324.769 20.7513 324.453 21.7112C322.058 29.4683 318.822 36.9044 314.195 43.6278C313.313 44.9304 312.2 46.0886 311.194 47.2779C310.844 47.6828 310.345 47.9281 310.03 48.3434C307.348 51.9687 303.632 54.322 299.689 56.3768C298.912 56.7754 298.212 57.313 297.512 57.8506C297.316 57.9888 297.335 58.4615 297.371 58.7442C297.375 58.8624 297.596 59.0429 297.74 59.0843C298.778 59.267 299.805 59.4856 300.848 59.5142C304.523 59.6013 308.222 60.007 311.928 59.714C312.766 59.6443 313.66 59.7855 314.554 59.9266C316.368 60.2553 317.202 59.5228 317.802 57.9831C318.754 55.4937 320.086 53.3085 321.813 51.2375C323.246 49.5099 324.418 47.4733 325.461 45.4774C326.143 44.1948 326.963 43.1077 328.014 42.1652C330.229 40.1571 332.418 38.1028 334.659 36.141C338.466 32.8014 342.758 30.614 347.867 30.181C350.134 30.0176 352.397 29.4637 354.669 29.4186C357.131 29.3893 359.592 29.6324 362.033 29.9473C366.235 30.4983 370.345 31.3727 374.241 33.12C376.654 34.2056 379.17 34.9318 381.511 36.2689C382.881 37.0536 384.416 37.5357 385.937 37.9355C388.043 38.4653 389.818 39.6005 391.47 40.8947C392.177 41.4104 392.829 41.9876 393.47 42.6008C396.156 45.1669 398.874 47.6252 402.169 49.4325C403.077 49.9282 403.81 50.7626 404.584 51.4532C406.292 52.9582 408.036 54.4735 409.687 56.04C413.665 59.7965 417.902 63.1991 422.546 66.1354C422.812 66.2902 422.981 66.6504 423.258 67.0416C422.707 67.4666 422.192 67.9019 421.605 68.3165C420.58 69.033 419.776 69.93 419.316 71.1207C418.11 74.0821 416.177 76.5996 413.925 78.8696C411.833 80.991 409.766 83.1588 407.403 85.0072C406.038 86.0927 404.811 87.3739 403.498 88.552C402.184 89.7302 400.845 90.8621 399.48 91.9476C395.742 94.9175 391.593 97.1463 387.077 98.7627C383.46 100.094 379.859 101.507 376.339 103.178C373.041 104.756 369.369 105.605 365.683 106.098C363.775 106.365 361.817 106.54 360.011 107.264C358.694 107.78 357.306 108.002 355.862 107.741C354.788 107.548 353.765 107.72 352.762 108.092C351.177 108.725 349.652 108.479 348.178 107.782C346.258 106.877 344.416 105.84 342.294 105.5C340.463 104.154 338.301 103.413 336.779 101.534C335.37 99.8033 333.534 98.3391 331.77 96.8956C328.708 94.4159 326.609 91.1629 324.258 88.1096C323.208 86.7555 322.708 84.9763 321.967 83.361C320.587 80.3155 319.125 77.2852 317.828 74.2245C316.637 71.4673 315.74 68.6389 315.969 65.5515C316.006 65.0173 315.961 64.4982 315.916 63.9791C315.902 63.3523 315.174 62.6361 314.558 62.6138C310.318 62.5971 306.134 62.5189 301.92 62.5485C299.268 62.5618 296.662 62.5496 294.026 62.1005C292.321 61.803 290.527 61.9471 288.789 62.0297C287.206 62.1179 285.638 62.2883 284.086 62.5409C279.864 63.2693 275.687 62.7646 271.495 62.1777C267.313 61.5549 263.131 60.932 258.974 60.3555C255.64 59.8994 252.388 59.1558 249.23 58.0887C248.09 57.7208 247.133 58.0676 246.309 58.7641C244.033 60.7155 241.792 62.6772 239.541 64.6749C233.174 70.2734 226.167 74.9864 218.73 79.0303C215.822 80.6049 212.613 81.7419 209.51 82.9101C205.884 84.2772 202.201 85.4334 198.523 86.7079C197.401 87.0851 196.234 87.4878 195.112 87.8649C195.03 87.8801 195.029 88.1524 195.034 88.2706C195.111 88.4096 195.249 88.6052 195.393 88.6467C199.126 89.8797 202.395 91.913 205.364 94.4439C205.487 94.5573 205.688 94.5373 206.001 94.6666C207.265 94.6033 208.633 94.4529 210.077 94.4414C212.02 94.457 214.014 94.2929 215.843 94.7038C220.851 95.8375 225.955 95.8309 231.032 96.0503C232.075 96.0788 233.123 96.2256 234.172 96.3723C235.374 96.5246 236.192 95.9822 236.658 94.9096C238.271 90.9371 241.029 87.7231 243.336 84.1842C244.605 82.2146 246.377 80.6626 248.307 79.5067C254.525 75.7729 261.019 72.7027 268.401 71.9521C270.689 71.7169 272.986 71.718 275.226 72.053C278.504 72.5706 281.828 73.0626 284.929 74.4635C286.679 75.2801 288.58 75.7117 290.46 76.2153C293.012 76.9518 295.347 78.1708 297.595 79.5591C300.802 81.5357 303.587 83.8965 305.382 87.2566C305.715 87.8586 306.073 88.507 306.509 89.022C308.574 91.4476 310.108 94.2264 311.412 97.1329C311.831 98.1103 312.285 99.098 312.946 99.9117C314.765 102.111 316.039 104.58 317.199 107.173C318.333 109.719 319.957 112.057 320.803 114.792C321.175 116.068 322.154 117.129 322.814 118.215C322.333 119.205 321.582 119.65 320.83 120.095C318.014 121.891 315.398 123.939 313.033 126.332C310.828 128.576 308.427 130.686 305.863 132.555C298.088 138.175 289.689 142.448 280.095 144.117C276.65 144.719 273.24 145.604 269.689 145.63C267.227 145.659 264.771 145.262 262.344 145.846C261.721 145.978 260.941 145.714 260.325 145.42C257.014 143.802 253.605 142.39 250.423 140.46C245.41 137.456 241.977 133.156 239.318 128.068C239.062 127.604 238.863 127.08 238.771 126.586C238.158 123.45 236.89 120.554 235.798 117.592C234.946 115.282 234.386 112.902 234.048 110.43C233.831 108.888 233.342 107.345 233.089 105.792C232.791 103.721 231.462 102.793 229.587 102.407C229.264 102.314 228.904 102.21 228.58 102.117C224.25 101.334 219.93 100.516 215.614 99.8155C213.909 99.5179 212.115 99.3897 210.392 99.8269C210.099 99.898 209.769 100.231 209.651 100.508C209.568 100.796 209.68 101.217 209.843 101.459C210.269 102.01 210.73 102.572 211.325 102.938C213.562 104.362 215.438 106.227 217.315 108.092C219.919 110.674 222.683 113.106 225.426 115.611C225.424 116.7 224.712 117.546 224.021 118.32C222.357 120.175 221.2 122.294 220.397 124.671C219.693 126.842 218.737 128.941 217.755 130.994C217.243 132.092 216.516 133.128 215.738 134.071C213.165 137.183 210.644 140.387 207.886 143.329C206.356 144.99 204.573 146.578 202.592 147.641C197.631 150.258 192.741 153.168 187.442 155.065C180.369 157.579 173.588 156.517 167.235 152.621C163.66 149.487 160.21 146.194 157.893 141.944C155.846 138.239 153.754 134.56 152.474 130.492C152.01 128.995 151.253 127.57 150.532 126.155C149.023 123.151 147.772 120.064 147.256 116.723C146.837 113.721 145.518 111.005 144.4 108.268C144.308 108.047 143.779 107.856 143.496 107.891C142.977 107.936 142.427 108.088 142.025 108.401C139.837 109.91 137.378 110.875 134.985 112.014C130.524 114.114 126.062 116.213 121.678 118.452C118.559 120.082 115.619 122.037 112.552 123.76C108.234 126.173 103.875 128.458 99.5411 130.789C98.4757 131.377 97.3129 131.898 96.3498 132.671C92.147 136.169 87.34 138.792 82.9886 142.13C78.8225 145.366 74.6563 148.602 70.3775 151.688C66.938 154.161 63.4218 156.494 59.8184 158.724C56.215 160.955 52.8986 163.54 49.5718 166.162C46.8063 168.323 44.1792 170.679 41.552 173.035C38.6621 175.627 35.6595 178.07 32.5187 180.317C30.0678 182.062 27.8527 184.07 25.7862 186.238C25.6162 186.423 25.7537 186.891 25.8146 187.22C25.8146 187.22 26.1381 187.313 26.313 187.247C28.0103 186.763 29.7124 186.398 31.3689 185.786C34.8312 184.449 38.4311 183.58 42.0663 182.994C47.2542 182.155 52.4628 181.245 57.7766 181.455C60.9319 181.586 64.1142 181.22 67.2398 180.915C69.8926 180.63 72.5086 180.606 75.0922 181.235C75.4158 181.328 75.7808 181.278 76.1251 181.299C76.7418 181.321 77.5859 180.825 77.7982 180.225C78.5905 177.884 79.3006 175.558 79.4714 173.077C79.8952 166.075 82.1781 159.648 86.0373 153.832C89.2155 149.027 93.5262 145.56 99.1994 143.849C104.112 142.347 109.058 141.4 114.254 141.614C116.947 141.729 119.494 142.348 122.031 143.002C124.569 143.656 127.038 144.681 129.513 145.55C130.186 145.784 130.781 146.15 131.376 146.516C134.917 148.823 138.323 151.324 141.322 154.292C144.198 157.146 146.868 160.175 149.538 163.203C150.978 164.825 151.929 166.657 152.5 168.729C153.737 173.213 153.804 173.388 152.036 177.355C151.167 179.284 150.515 181.276 149.96 183.335C148.725 187.612 146.583 191.392 143.824 194.879C139.277 200.652 133.381 204.751 127.327 208.727C125.551 209.889 123.749 211.004 121.897 212.026C120.193 212.936 118.438 213.753 116.658 214.524C114.842 215.285 112.924 215.588 110.951 215.408C106.933 215.027 102.915 214.646 99.0065 213.479C96.2743 212.691 93.7487 211.456 91.3007 210.088C87.8467 208.157 85.2998 205.242 83.2216 201.917C82.6637 201.016 82.2911 200.013 81.6869 199.138C79.9613 196.616 78.7964 193.905 78.5987 190.811C78.4362 188 76.8302 186.953 74.2826 186.335C71.1598 185.55 67.9941 185.454 64.8588 185.523C55.7253 185.729 46.5863 186.089 37.5572 187.688C31.1145 188.827 24.9213 190.855 19.0192 193.629C17.9386 194.134 16.9292 194.933 16.0277 195.763C12.6739 198.883 9.63811 202.25 6.9252 205.983C0.952504 214.265 -5.16883 222.387 -11.434 230.468C-15.1003 235.21 -18.4997 240.108 -21.6427 245.196C-24.5844 249.992 -27.7211 254.654 -31.1144 259.125C-33.2493 261.935 -35.1429 264.853 -36.8264 267.988C-37.9575 270.153 -39.4992 272.122 -40.8612 274.143C-41.4648 275.02 -42.0663 275.08 -43.581 274.526L-43.4732 274.557L-43.319 274.562Z" fill="black" fill-opacity="0.05"/>
</svg>
