<svg width="595" height="475" viewBox="0 0 595 475" fill="none" xmlns="http://www.w3.org/2000/svg">
<path d="M143.804 390.627C136.105 389.056 128.63 387.828 120.905 388.525C118.019 388.806 115.144 388.18 112.572 386.855C109.143 385.088 105.453 384.27 101.648 383.564C97.6843 382.834 93.7701 381.787 90.0211 380.197C88.7112 379.636 87.359 378.825 86.0206 378.763C81.5979 378.48 77.76 376.731 73.8551 374.89C71.9819 373.982 69.7398 373.568 67.6317 373.337C62.6909 372.73 57.8044 371.353 52.7341 372.106C50.5742 372.419 48.5045 372.779 46.4979 373.57C40.9344 375.723 35.3039 377.785 29.7418 379.824C26.5732 380.987 23.6056 382.424 20.7475 384.203C19.7415 384.825 18.6247 385.22 17.553 385.637C17.4163 385.681 17.1469 385.428 16.9897 385.29C16.8324 385.152 16.6765 384.9 16.6778 384.787C17.2473 382.684 18.629 381 19.7851 379.2C21.5178 376.613 23.2054 374.003 25.0955 371.554C28.46 367.242 31.8698 362.952 35.4149 358.732C38.1769 355.477 41.2315 352.431 44.0386 349.2C48.2725 344.308 52.7074 339.691 58.2637 336.222C59.4529 335.466 60.6885 334.619 61.6534 333.633C65.9025 329.377 70.7999 325.968 75.607 322.512C80.8487 318.767 85.8895 314.747 90.3025 310.062C91.4519 308.829 92.6683 307.687 93.9517 306.637C94.4561 306.213 95.2543 305.882 95.8668 305.913C98.02 306.167 99.5728 305.37 100.908 303.776C101.369 303.215 101.941 302.768 102.379 302.252C106.841 297.25 112.37 294.166 118.986 293.183C125.921 292.136 132.773 292.358 139.108 296.022C139.74 296.348 140.508 296.629 140.933 297.134C143.283 299.999 146.694 301.357 149.691 303.187C150.226 304.033 150.876 304.767 151.274 305.657C153.019 309.694 156.161 312.682 158.754 316.072C159.336 316.828 160.055 317.427 160.819 318.049C161.381 318.51 162.013 318.835 162.598 319.251C164.69 320.842 167.08 322.188 168.715 324.114C170.191 325.902 170.889 328.315 171.749 330.526C172.476 332.328 173.41 333.95 174.641 335.44C176.274 337.479 177.701 339.697 179.331 341.964C181.948 343.312 184.745 344.754 186.369 347.587C190.936 351.024 195.18 354.866 199.471 358.617C199.988 359.055 200.639 359.676 201.228 359.751C204.267 359.948 206.491 361.949 209.065 363.048C210.15 363.493 211.347 363.939 212.505 363.908C216.568 363.891 220.652 364.056 224.608 363.47C229.11 362.824 233.396 361.154 237.328 358.844C240.024 357.267 242.609 355.576 245.261 353.976C245.672 353.732 246.174 353.534 246.428 353.151C248.139 350.496 251.016 349.013 252.996 346.61C254.009 345.421 254.184 344.085 253.749 342.491C253.277 342.077 252.783 341.594 252.221 341.134C249.816 339.153 247.203 337.464 245.051 335.214C243.077 333.17 241.723 330.59 240.003 328.277C237.612 325.049 234.787 322.11 232.534 318.724C231.241 316.802 229.192 315.347 227.303 313.917C222.782 310.39 218.007 307.245 213.14 304.28C211.742 303.446 210.16 302.859 208.555 302.317C204.939 301.024 201.275 299.934 197.704 298.664C194.72 297.583 191.663 296.978 188.594 297.393C185.48 297.785 182.395 297.678 179.308 297.685C175.699 297.707 172.133 297.866 168.608 298.503C167.721 298.673 166.61 298.5 165.89 298.015C162.063 295.358 157.812 293.966 153.258 293.274C151.649 293.072 150.046 292.303 148.533 291.695C146.545 290.898 144.535 290.034 142.64 289.057C140.068 287.732 137.377 286.859 134.474 286.732C133.566 286.72 132.617 286.345 131.713 285.994C131.352 285.808 130.949 285.371 130.863 284.985C130.776 284.598 130.898 283.919 131.196 283.673C132.296 282.757 133.396 281.841 134.674 281.245C140.083 278.727 145.182 275.592 150.279 272.571C151.925 271.594 153.637 270.708 155.394 269.959C158.747 268.549 161.787 266.75 164.382 264.152C167.598 260.903 171.395 258.41 175.482 256.352C175.939 256.131 176.327 255.931 176.716 255.619C183.129 250.709 190.846 248.81 198.407 246.659C200.069 246.204 201.729 245.975 203.334 246.517C207.516 247.931 211.809 247.69 216.081 247.267C218.013 247.065 219.851 247.042 221.679 247.927C222.717 248.462 223.939 248.75 225.118 248.901C231.167 249.793 236.47 252.469 241.562 255.663C245.392 258.093 249.176 260.5 252.636 263.538C256.77 267.151 261.088 270.517 265.567 273.681C272.771 278.762 280.772 281.63 289.771 280.677C293.089 280.333 296.367 279.512 299.727 279.419C303.019 279.347 306.371 279.933 309.682 280.156C312.563 280.329 315.4 280.364 318.236 280.4C320.846 280.433 323.479 280.421 326.115 280.181C331.658 279.729 336.897 278.208 341.652 275.296C343.709 274.074 345.766 272.852 347.756 271.539C350.341 269.847 353.06 268.339 355.867 266.991C359.291 265.333 362.561 263.309 365.829 261.4C367.726 260.267 368.68 258.305 369.611 256.389C369.773 256.073 369.577 255.345 369.285 255.137C367.576 253.8 365.612 252.845 363.459 252.591C361.691 252.365 360.432 251.374 358.988 250.63C354.927 248.537 351.235 245.95 347.405 243.52C344.972 242.038 342.259 241.096 339.429 240.493C335.445 239.581 331.6 238.399 327.876 236.651C320.698 233.294 313.073 231.247 305.493 229.224C302.032 228.296 298.64 227.232 295.342 225.875C293.806 225.198 292.271 224.521 290.712 223.889C283.913 221.126 276.931 220.381 269.701 221.447C268.541 221.591 267.362 221.553 266.137 221.493C261.804 221.257 257.601 221.658 253.389 222.739C250.293 223.539 247.575 224.934 245.369 227.22C243.393 229.282 241.529 231.459 239.688 233.591C239.228 234.152 238.902 234.783 238.487 235.368C236.572 237.975 234.235 239.851 230.698 239.512C229.066 239.355 227.383 239.629 225.704 239.562C223.572 239.49 221.439 239.418 219.278 239.844C217.367 240.229 215.484 240.114 213.654 239.456C213.473 239.363 213.157 239.2 213.159 239.087C213.164 238.633 213.104 237.975 213.355 237.819C217.018 235.143 220.569 232.352 224.053 229.47C226.781 227.168 229.867 225.278 233.13 223.822C242.142 219.853 250.197 214.306 258.386 208.942C259.575 208.186 260.699 207.224 261.687 206.193C264.788 203.056 268.533 201.107 272.724 199.844C279.148 197.906 285.173 195.079 291.311 192.366C291.744 192.19 292.133 191.877 292.567 191.701C299.843 188.662 307.163 185.76 314.129 182.105C316.253 180.974 318.64 180.664 321.11 180.968C325.393 181.52 329.617 181.301 333.914 180.72C337.62 180.177 341.508 179.614 345.238 180.908C350.735 180.546 356.171 181.522 361.66 181.84C363.088 181.949 364.499 181.649 365.929 181.645C371.016 181.414 375.886 182.269 380.395 184.821C383.078 186.374 385.876 187.703 388.582 189.211C390.048 190.023 391.467 190.926 392.818 191.85C400.317 196.912 403.474 204.415 404.894 212.962C404.979 213.462 405.019 213.939 405.013 214.393C405.204 221.336 408.592 226.619 413.509 231.149C415.44 232.943 417.44 234.601 419.395 236.35C423.167 239.777 427.797 241.764 432.426 243.75C432.832 243.959 433.352 244.17 433.784 244.107C438.417 243.871 442.613 246.033 447.078 246.566C448.959 246.793 450.793 247.225 452.576 248.086C455.239 249.345 458.099 249.335 460.981 249.394C462.184 249.387 463.392 248.926 464.548 249.122C470.369 250.125 475.883 248.289 481.544 247.498C482.226 247.393 482.977 247.267 483.638 246.98C488.226 244.837 492.523 242.26 495.971 238.561C499.097 235.265 501.93 231.762 504.898 228.329C505.911 227.139 505.994 225.87 505.217 224.386C503.174 220.595 500.832 217.049 497.507 214.195C495.687 212.629 494.165 210.818 492.459 209.141C486.962 203.741 480.772 199.353 473.473 196.675C467.01 194.258 460.596 191.523 454.226 188.925C448.466 186.584 442.984 183.703 437.944 179.964C434.12 177.081 430.064 174.535 425.73 172.529C423.563 171.527 421.325 170.773 418.849 170.923C415.01 171.169 411.253 170.26 407.54 169.488C404.393 168.836 401.442 168.799 398.475 170.236C396.512 171.164 394.304 171.68 392.174 171.381C387.846 170.805 383.592 171.636 379.324 171.719C378.348 171.729 377.415 171.876 376.462 171.842C373.786 171.717 371.259 172.298 368.776 173.129C364.446 174.549 359.993 174.992 355.435 174.639C350.695 174.308 345.907 174.179 341.166 173.961C337.99 173.808 335.074 174.701 332.09 175.616C330.268 176.16 328.402 176.568 326.514 176.907C325.377 177.12 324.152 177.059 322.971 177.135C323.001 176.523 322.872 175.886 323.17 175.64C324.225 174.701 325.304 173.716 326.47 173.005C329.121 171.405 331.818 169.828 334.514 168.365C337.872 166.502 341.14 164.592 344.008 162.02C345.82 160.386 347.943 159.37 350.089 158.308C355.704 155.611 361.518 153.416 367.549 152.017C374.309 150.424 380.762 147.873 387.103 145.208C388.86 144.459 390.638 143.778 392.482 143.303C399.382 141.439 406.173 139.119 412.765 136.299C418.263 133.941 423.894 131.879 429.587 130.25C437.444 127.967 445.424 126.888 453.62 128.601C455.929 129.107 458.357 129.16 460.715 129.348C467.609 129.934 474.504 130.293 481.295 131.853C483.128 132.284 485.03 132.694 486.723 133.509C491.35 135.722 496.457 135.673 501.298 137.027C502.407 137.313 503.703 137.125 504.839 137.026C511.725 136.296 518.637 135.294 525.264 133.404C533.576 131.013 541.049 126.706 547.541 120.868C552.863 116.08 557.916 111.04 561.351 104.595C562.768 101.846 564.681 99.352 566.324 96.7187C570.024 90.8674 573.162 84.6688 575.35 78.0953C575.704 76.9656 576.081 75.7908 576.615 74.754C580.796 66.6404 583.395 57.9399 586.514 49.45C588.156 44.9338 590.249 40.6502 593.266 36.9C593.958 36.0013 594.875 35.2189 594.823 33.8799C594.347 33.8059 593.829 33.4818 593.464 33.636C590.954 34.7386 588.458 34.7072 585.782 34.4694C579.094 33.8182 572.596 32.4662 566.052 31.2043C559.983 30.0165 554.035 28.1497 548.156 26.261C538.909 23.2639 529.57 22.2164 519.987 24.5231C517.643 25.0834 515.323 25.4852 513.002 26.0004C508.359 27.0308 503.871 28.4262 499.555 30.7083C494.713 33.2334 489.538 35.1872 484.54 37.4607C481.278 38.9168 477.97 40.3497 474.774 41.8974C473.313 42.6275 471.894 43.6078 470.656 44.681C467.01 47.7656 463.432 50.9417 459.877 54.0727C457.354 56.3094 455.213 58.9137 454.311 62.2142C453.598 64.9273 451.716 66.6957 449.811 68.5091C448.067 70.1204 446.233 71.6852 444.534 73.3198C442.261 75.5142 440.574 78.1243 439.653 81.1297C439.038 83.2089 438.176 85.1035 436.659 86.7176C434.567 89.0051 434.194 91.7224 434.545 94.6984C434.918 97.7428 435.017 100.874 435.071 103.983C435.131 106.637 434.488 109.215 433.415 111.629C432.974 112.485 432.6 113.433 431.979 114.084C427.822 118.273 424.268 123.174 418.743 125.917C415.136 127.709 411.973 130.3 408.187 131.886C404.469 133.45 401.149 135.903 397.275 137.216C395.953 137.675 394.785 138.613 393.55 139.346C389.847 141.546 386.057 143.471 381.8 144.529C379.706 145.047 377.699 145.839 375.671 146.562C372.092 147.855 368.426 148.875 364.694 149.69C358.641 151.021 352.763 152.897 347.256 156.049C343.714 158.046 340.174 159.93 336.922 162.361C334.861 163.923 332.463 165.141 330.134 166.337C328.741 167.045 327.521 168.527 325.648 167.618C325.465 165.756 326.661 164.433 327.652 163.175C330.601 159.447 333.191 155.419 336.904 152.312C340.228 149.519 343.796 147.25 348.23 146.512C355.28 145.353 361.288 142.116 366.652 137.579C370.114 134.628 373.665 131.837 377.015 128.772C380.871 125.168 383.94 120.874 386.739 116.441C388.011 114.415 389.283 112.39 390.555 110.364C393.377 105.886 395.499 101.103 396.672 95.9461C397.581 91.9652 398.422 88.0061 399.399 84.1167C401.756 74.778 401.778 65.2057 402.003 55.6813C402.04 54.5022 401.804 53.297 401.546 52.1369C400.597 47.8831 400.443 43.6392 400.562 39.3081C400.797 32.8689 400.282 26.4429 399.177 20.0548C398.498 16.0539 398.001 12.0326 397.39 8.00991C397.009 5.646 396.674 3.30535 395.428 1.18008C395.005 0.448884 393.716 0.0697298 392.983 0.604931C391.426 1.74222 389.893 2.83444 388.493 4.10982C386.198 6.23592 383.637 7.88232 380.784 9.20747C375.58 11.6599 370.445 14.0906 364.714 15.0166C362.349 15.3951 360.18 16.5021 358.234 17.952C354.754 20.4942 351.319 23.0597 347.884 25.6251C345.182 27.6554 342.906 30.0766 341.012 32.8656C338.909 36.0602 336.739 39.1633 334.501 42.2882C331.985 45.8406 330.936 50.092 329.211 53.9946C328.909 54.5806 328.899 55.3744 328.868 56.0999C328.364 62.2862 327.271 68.3971 325.883 74.4136C325.501 76.042 325.367 77.7416 324.895 79.3235C324.021 82.2387 324.261 84.9865 325.432 87.7006C325.785 88.567 326.136 89.5468 326.126 90.4541C326.148 94.2879 326.603 98.0592 327.877 101.682C328.426 103.277 328.179 104.975 327.728 106.625C327.088 108.976 327.083 111.313 327.258 113.742C327.418 115.649 327.281 117.576 327.168 119.457C326.984 121.587 326.914 123.718 327.411 125.857C327.627 126.767 327.91 127.769 327.718 128.696C327.039 132.34 327.884 135.798 328.705 139.302C328.986 140.531 328.857 141.777 328.188 142.744C326.18 145.531 325.664 148.859 324.606 152.022C323.547 155.184 322.195 158.252 321.883 161.628C321.752 163.101 321.192 164.409 320.361 165.578C318.998 167.558 317.726 169.583 316.342 171.494C314.818 173.675 312.937 175.33 310.404 176.478C307.392 177.891 304.601 179.762 301.788 181.564C299.341 183.098 297.052 184.771 294.074 185.119C293.392 185.224 292.527 185.462 292.113 185.934C290.315 188.202 287.611 188.463 285.171 189.43C283.393 190.111 281.57 190.769 279.947 191.701C275.993 194.056 271.687 195.431 267.293 196.532C260.874 198.13 255.279 201.009 250.571 205.713C250.088 206.206 249.471 206.629 248.876 207.007C248.052 207.61 246.622 207.614 246.266 206.975C245.865 206.312 246.032 205.656 246.402 205.048C246.889 204.215 247.375 203.382 248.019 202.687C251.468 198.874 253.339 194.247 254.938 189.481C255.054 189.256 255.012 189.006 255.128 188.78C257.859 182.372 259.278 175.63 261.013 168.938C262.441 163.398 264.162 157.953 266.425 152.674C267.546 150.056 268.192 147.252 268.973 144.517C270.442 139.227 272.116 133.986 273.268 128.647C274.681 122.358 275.346 115.97 274.038 109.534C272.859 103.621 273.656 97.6428 274.134 91.7283C274.536 86.5161 274.938 81.3039 276.269 76.1714C277.053 73.2097 276.864 70.0315 277.263 66.9289C277.966 61.2441 278.827 55.5839 279.529 49.8991C279.654 48.9934 279.529 48.0164 279.494 47.0859C279.474 46.9042 279.181 46.6963 279.001 46.6033C278.865 46.5336 278.638 46.5307 278.433 46.5962C278.228 46.6617 277.977 46.8173 277.839 46.9743C274.313 51.4895 269.867 55.131 266.229 59.5313C264.433 61.6864 262.052 63.4257 259.897 65.2814C258.108 66.8694 256.23 68.2976 254.395 69.8624C250.888 72.7899 248.01 76.2697 246.122 80.4878C245.282 82.4507 244.328 84.4122 243.262 86.2589C241.036 90.2459 239.489 94.4684 238.799 99.0191C238.649 100.197 238.341 101.35 237.897 102.433C236.424 106.067 235.904 109.735 236.244 113.618C236.361 115.275 236.182 116.952 236.231 118.631C236.325 122.216 236.418 125.801 238.082 129.112C238.689 133.474 240.597 137.196 243.577 140.5C245.616 142.749 246.081 145.613 245.819 148.558C245.714 149.759 245.451 150.935 245.256 152.09C244.909 154.535 244.928 156.827 246.834 158.779C247.17 159.123 247.505 159.581 247.523 159.99C247.889 163.601 249.872 166.734 250.33 170.278C250.912 174.799 251.723 179.21 253.284 183.494C253.878 185.112 253.744 186.812 252.954 188.345C250.771 192.582 248.79 196.98 246.178 200.94C243.567 204.899 240.235 208.373 237.083 211.94C235.381 213.915 233.273 215.567 231.615 217.565C227.932 221.942 223.158 224.559 217.695 225.851C214.577 226.583 211.883 227.933 209.409 229.853C206.958 231.727 204.417 233.556 201.967 235.43C198.164 238.377 194.006 240.683 189.559 242.442C186.846 243.497 184.334 244.826 182.066 246.567C176.409 250.897 170.281 254.699 164.847 259.371C163.013 260.936 160.978 262.226 158.544 262.626C158.226 262.69 157.777 262.231 157.416 262.045C157.281 261.975 157.353 261.613 157.356 261.387C157.359 261.16 157.384 260.888 157.477 260.708C160.373 255.753 163.043 250.683 166.231 245.937C169.696 240.763 172.62 235.311 175.59 229.881C176.031 229.025 176.472 228.168 176.755 227.287C178.554 222.909 181.564 219.839 185.901 217.739C192.156 214.687 196.525 209.865 198.964 203.249C200.815 198.328 202.644 193.338 203.318 188.151C203.944 183.169 205.181 178.33 205.467 173.343C205.988 163.8 205.306 154.264 202.737 144.954C201.518 140.561 199.409 136.565 196.638 132.855C192.906 127.908 188.831 123.184 184.663 118.64C179.621 113.133 175.333 107.158 171.938 100.56C171.517 99.7155 171.074 98.8026 170.469 98.0918C167.026 93.6931 164.54 88.8756 162.878 83.5694C162.484 82.3395 160.877 81.911 159.982 82.7617C157.849 84.6857 155.872 86.7477 154.189 89.0176C149.277 95.5568 145.269 102.448 142.793 110.356C141.213 115.417 139.792 120.39 139.209 125.622C138.778 129.451 138.982 133.264 139.846 137.018C140.559 140.066 141.296 143.07 141.713 146.137C142.843 154.25 145.454 161.927 148.771 169.341C149.633 171.325 150.518 173.265 151.243 175.293C151.837 176.911 152.524 178.348 153.712 179.588C154.34 180.254 154.874 181.1 155.296 181.945C158.662 189.042 162.553 195.896 165.303 203.302C166.58 206.698 168.222 209.827 170.665 212.511C171.987 213.934 172.921 215.557 173.581 217.38C174.393 219.681 174.935 221.843 173.659 224.209C172.242 226.958 172.566 230.319 170.877 233.043C169.396 235.474 167.734 237.812 166.41 240.382C165.318 242.5 164.114 244.504 162.481 246.344C161.721 247.264 161.028 248.276 160.584 249.359C159.27 253.018 156.875 256.004 154.817 259.222C154.192 260.213 153.454 261.201 152.965 262.261C151.453 265.418 148.886 267.518 146.073 269.32C144.449 270.366 142.692 271.115 141.226 272.299C137.743 275.068 133.798 276.629 129.522 277.392C123.585 278.496 118.176 281.014 112.679 283.372C110.26 284.408 108.332 286.267 106.382 288.057C103.193 290.92 100.004 293.784 96.2564 295.96C95.6167 296.314 95.111 296.852 94.4494 297.139C90.5947 298.746 87.6138 301.318 84.8312 304.39C82.4395 307.037 79.5993 309.224 76.848 311.571C75.9541 312.309 74.8579 312.885 73.8081 313.371C73.5115 313.503 72.8785 313.291 72.5407 313.06C72.2713 312.807 71.9157 312.167 72.0318 311.942C74.3913 306.255 75.9836 300.173 78.9979 294.767C80.8767 291.343 82.2346 287.821 82.507 283.968C82.7003 281.045 83.8438 278.382 84.7604 275.717C85.4885 273.639 86.8483 271.887 88.9684 271.097C94.7821 268.902 98.0359 264.361 100.234 258.876C101.66 255.333 103.177 251.836 104.309 248.198C107.21 238.911 107.299 229.431 104.982 219.965C104.723 218.805 104.26 217.71 103.796 216.616C103.221 215.293 102.555 214.037 101.958 212.759C97.2192 202.673 91.9149 193.094 86.0449 184.022C84.7292 182.032 83.3684 180.019 81.6167 178.432C78.3827 175.51 75.9729 171.987 73.2433 168.641C70.3126 165.02 68.5452 160.914 67.6909 156.367C67.5403 155.662 67.5032 154.958 67.3526 154.253C67.2047 153.321 66.5306 152.746 66.0057 152.989C65.6175 153.188 65.0939 153.317 64.863 153.655C62.2257 157.886 59.52 162.139 57.5363 166.765C56.1359 170.036 54.4867 173.236 53.7864 176.812C53.6649 177.491 53.4067 178.213 53.0815 178.844C49.73 185.902 48.9829 193.447 49.0055 201.159C49.0092 204.698 48.5809 208.299 48.2442 211.834C48.0084 214.508 48.2744 216.983 49.3565 219.538C50.816 222.8 52.1389 226.106 53.9635 229.214C56.5882 233.761 58.8247 238.507 61.3578 243.121C65.1574 250.042 69.0036 256.873 73.5578 263.327C74.3839 264.494 75.1415 265.683 75.9443 266.896C77.1479 268.771 77.5326 270.795 76.9386 273.055C76.081 276.493 75.5174 280.024 75.1574 283.604C74.7497 287.387 73.776 291.049 72.146 294.545C69.7468 299.755 67.5062 304.989 65.7852 310.434C65.1254 312.49 64.7378 314.572 64.1232 316.651C63.0578 320.381 61.4537 323.604 58.291 326.196C53.7068 329.995 49.548 334.298 45.2551 338.417C43.6942 339.895 42.2005 341.464 40.6177 342.873C38.3011 344.931 36.0296 347.012 34.0042 349.391C32.6006 351.007 30.9947 352.461 29.412 353.87C27.4617 355.66 25.6699 357.475 24.0559 359.61C20.321 364.531 16.3838 369.29 13.4816 374.811C12.9473 375.848 11.9851 376.607 11.135 377.481C8.6531 380.081 6.14928 382.613 3.71248 385.236C1.27568 387.859 -0.7332 390.76 -2.40562 394.006C-4.77621 398.717 -7.77713 402.989 -11.2293 407.029C-13.0934 409.206 -14.7551 411.544 -16.1913 413.998C-18.5293 417.871 -21.1381 421.603 -23.6334 425.337C-23.7495 425.563 -24.362 425.532 -24.7024 425.528C-24.7926 425.482 -24.9472 425.117 -24.8994 424.913C-23.676 419.326 -22.7466 413.644 -21.1391 408.197C-20.026 404.264 -19.9327 400.205 -18.8197 396.272C-17.3023 390.779 -16.0789 385.191 -14.7872 379.582C-14.1672 377.049 -13.751 374.469 -13.6971 371.815C-13.6297 368.028 -13.3122 364.198 -12.9045 360.415C-12.5785 357.788 -12.3892 355.204 -12.5854 352.593C-12.7968 349.347 -11.719 346.48 -9.51183 344.08C-8.56882 343.026 -7.58066 341.995 -6.54743 340.987C0.340848 334.269 5.81256 326.421 10.2478 317.925C13.4301 311.749 15.3244 305.081 15.4072 298.05C15.4718 294.49 15.5597 290.884 14.9203 287.36C14.6643 285.973 14.4096 284.473 14.5391 283.114C15.0424 278.923 13.9531 275.053 12.5453 271.248C9.68729 263.386 6.89761 255.502 4.08472 247.663C3.51285 246.114 2.96424 244.519 2.39238 242.969C2.10642 242.194 0.680447 241.859 -0.074071 242.326C-0.896909 242.814 -1.90025 243.21 -2.34024 243.953C-6.43027 250.117 -11.5773 255.451 -15.8026 261.545C-17.9959 264.693 -19.8734 268.004 -21.1192 271.641C-22.13 274.6 -23.1628 277.49 -24.3089 280.379C-26.3664 285.48 -27.542 290.864 -28.8078 296.201C-29.2379 298.033 -29.329 299.983 -29.4871 301.841C-29.7474 304.673 -29.9175 307.552 -30.1327 310.407C-30.243 312.062 -30.3082 313.74 -30.3733 315.418C-30.7343 324.872 -27.246 333.173 -22.2526 340.88C-19.7566 344.791 -17.9427 348.806 -17.3386 353.395C-16.9838 356.031 -16.9912 358.594 -17.5893 361.196C-19.1213 367.936 -19.8837 374.845 -20.4641 381.734C-21.0732 389.121 -22.6789 396.337 -22.8341 403.73C-23.8874 406.439 -23.7854 409.343 -24.1592 412.174C-24.3066 413.125 -24.7028 414.005 -24.9856 414.886C-25.6931 417.145 -26.469 419.427 -27.0863 421.733C-28.3946 426.82 -30.1321 431.743 -31.6209 436.738C-31.8107 437.439 -32.0908 438.093 -32.416 438.724C-34.8085 443.367 -37.4498 447.938 -39.6618 452.674C-42.8753 459.575 -46.9693 466.079 -49.7768 473.189C-49.9394 473.505 -49.741 474.006 -49.7231 474.415C-49.6833 474.892 -48.3409 474.614 -47.879 473.939C-47.4185 473.378 -47.003 472.793 -46.5876 472.208C-44.3943 469.06 -42.1791 465.98 -40.0309 462.809C-34.3242 454.284 -28.6627 445.735 -22.911 437.233C-20.5086 433.679 -18.1514 430.102 -15.2759 426.849C-13.7343 425.076 -12.3487 423.052 -11.2118 420.957C-8.66073 416.339 -5.43415 412.183 -1.93823 408.28C1.07529 404.87 4.02041 401.482 6.53893 397.702C6.95439 397.118 7.36981 396.533 7.87547 395.995C9.04811 394.717 10.4874 393.918 12.3235 394.123C14.4768 394.377 16.5384 394.698 18.6684 394.997C22.4527 395.521 26.1426 396.338 30.0225 396.455C34.9003 396.63 39.352 398.297 43.4745 400.934C47.9129 403.735 52.0971 406.918 56.12 410.303C56.8392 410.902 57.4656 411.681 58.2996 412.168C65.7624 416.413 73.1773 420.861 81.6648 422.896C82.7736 423.182 84.0217 423.198 85.181 423.054C87.5214 422.834 89.9096 422.41 92.2965 422.1C101.867 420.814 110.89 417.82 119.187 412.911C122.89 410.712 126.459 408.329 130.028 405.947C131.607 404.878 133.096 403.649 134.429 402.282C137.438 399.213 140.358 396.096 143.255 392.912C143.646 392.485 143.655 391.692 143.823 390.922L143.804 390.627Z" fill="black" fill-opacity="0.08"/>
</svg>
