<svg width="70" height="42" viewBox="0 0 70 42" fill="none" xmlns="http://www.w3.org/2000/svg">
<path d="M69.9999 20.9879C70.0032 32.5573 60.6269 41.9379 49.0575 41.941C37.4879 41.9438 28.1076 32.5679 28.1045 20.9986C28.1045 20.9948 28.1045 20.9917 28.1045 20.9879C28.1014 9.41881 37.4778 0.0377422 49.0466 0.0346687C60.6162 0.0315953 69.9968 9.40794 69.9999 20.9773C69.9999 20.9808 69.9999 20.9841 69.9999 20.9879Z" fill="#FF9900"/>
<path d="M20.8128 0.0423414C9.31203 0.115395 0 9.4721 0 20.9901C0 32.5531 9.38461 41.9377 20.9478 41.9377C26.3748 41.9377 31.3216 39.8695 35.044 36.4798C35.044 36.4798 35.0433 36.4793 35.0424 36.4788H35.0469C35.8091 35.7842 36.52 35.0348 37.1734 34.2357H32.8817C32.3087 33.5435 31.7878 32.8222 31.32 32.0779H38.7217C39.1719 31.3575 39.5795 30.6095 39.9412 29.8348H30.0979C29.7624 29.1156 29.4712 28.3801 29.2225 27.634H40.8176C41.5164 25.5459 41.8956 23.312 41.8956 20.9899C41.8956 19.4504 41.7287 17.9493 41.4129 16.5041H28.6075C28.7662 15.7603 28.9664 15.0256 29.2052 14.3035H40.8046C40.5452 13.5352 40.244 12.7864 39.9015 12.0606H30.0967C30.4504 11.3051 30.8511 10.57 31.2987 9.8603H38.695C38.2028 9.07611 37.6581 8.3269 37.0692 7.61717H32.9453C33.583 6.86678 34.2849 6.16013 35.0469 5.50123C31.3242 2.111 26.376 0.0423414 20.9478 0.0423414C20.9027 0.0423414 20.858 0.042105 20.8128 0.0423414Z" fill="#CC0000"/>
<path d="M67.8927 31.9387C68.0066 31.9387 68.1175 31.9683 68.2258 32.0264C68.3345 32.0846 68.4182 32.1685 68.4787 32.2775C68.5393 32.3853 68.5695 32.499 68.5695 32.6168C68.5695 32.7331 68.5395 32.8456 68.4799 32.9534C68.4206 33.061 68.3369 33.1449 68.2291 33.2047C68.1225 33.2636 68.0097 33.2934 67.8924 33.2934C67.7752 33.2934 67.6626 33.2636 67.5553 33.2047C67.4477 33.1447 67.3645 33.0612 67.304 32.9534C67.2444 32.8456 67.2148 32.7331 67.2148 32.6168C67.2148 32.499 67.2449 32.3853 67.3056 32.2775C67.3666 32.1685 67.4508 32.0853 67.5588 32.0264C67.6681 31.9683 67.7789 31.9387 67.8927 31.9387ZM67.8927 32.051C67.7979 32.051 67.7052 32.0756 67.6146 32.1245C67.5248 32.1735 67.4546 32.2428 67.404 32.3345C67.3527 32.4248 67.3271 32.5184 67.3271 32.6168C67.3271 32.7142 67.3522 32.8083 67.4016 32.8976C67.4522 32.9868 67.5222 33.0567 67.6116 33.1069C67.7016 33.1567 67.795 33.1813 67.8924 33.1813C67.9903 33.1813 68.0839 33.1567 68.1735 33.1069C68.2629 33.0567 68.3326 32.9868 68.3825 32.8976C68.4319 32.8083 68.4565 32.7144 68.4565 32.6168C68.4565 32.5184 68.4315 32.4246 68.3806 32.3345C68.3303 32.2428 68.2598 32.1735 68.1693 32.1245C68.0797 32.0754 67.9875 32.051 67.8927 32.051ZM67.5957 32.9908V32.2621H67.8468C67.9319 32.2621 67.9938 32.2688 68.0321 32.2829C68.0704 32.2964 68.1009 32.3194 68.1239 32.3532C68.1463 32.3865 68.1579 32.422 68.1579 32.4598C68.1579 32.5132 68.139 32.5596 68.1007 32.5988C68.0634 32.638 68.0125 32.6605 67.9496 32.6652C67.9754 32.6759 67.996 32.6893 68.012 32.704C68.0416 32.7324 68.0771 32.7804 68.1196 32.8482L68.2083 32.9908H68.065L68.0007 32.8761C67.9499 32.7858 67.909 32.7295 67.8775 32.7064C67.856 32.6901 67.8246 32.6815 67.7837 32.6815H67.7144V32.9915H67.5962M67.7135 32.5806H67.8562C67.9243 32.5806 67.9704 32.5702 67.9953 32.5501C68.0203 32.5293 68.0328 32.5028 68.0328 32.4692C68.0328 32.4475 68.0272 32.4281 68.0151 32.4116C68.0028 32.3943 67.9863 32.382 67.9648 32.3733C67.9437 32.365 67.9045 32.3603 67.8473 32.3603H67.7139V32.5806" fill="#FCB340"/>
<path d="M27.9213 26.998L28.2003 25.102C28.0478 25.102 27.8236 25.1679 27.6255 25.1679C26.8491 25.1679 26.7522 24.753 26.8132 24.4499L27.5782 20.6365H28.7584L29.0017 18.4844H27.8894L28.1159 17.1803H25.789C25.7399 17.2295 24.4727 24.5145 24.4727 25.402C24.4727 26.7153 25.2098 27.2997 26.2496 27.2905C27.0633 27.2836 27.6976 27.0583 27.9213 26.998Z" fill="#000066"/>
<path d="M28.6211 23.3847C28.6211 26.5366 30.7013 27.2854 32.474 27.2854C34.1103 27.2854 34.9682 26.9062 34.9682 26.9062L35.3611 24.7548C35.3611 24.7548 33.9786 25.317 32.8549 25.317C30.4597 25.317 30.8796 23.5311 30.8796 23.5311L35.481 23.545C35.481 23.545 35.7739 22.1003 35.7739 21.5113C35.7739 20.0415 34.9732 18.2372 32.5244 18.2372C30.2817 18.2377 28.6211 20.6541 28.6211 23.3847ZM32.5329 20.2344C33.7916 20.2344 33.5594 21.6492 33.5594 21.7638H31.0832C31.0832 21.6173 31.317 20.2344 32.5329 20.2344Z" fill="#000066"/>
<path d="M46.647 26.9976L47.0463 24.5662C47.0463 24.5662 45.9512 25.115 45.2006 25.115C43.6183 25.115 42.9835 23.9069 42.9835 22.6087C42.9835 19.9757 44.3448 18.5269 45.8602 18.5269C46.9969 18.5269 47.9088 19.165 47.9088 19.165L48.2729 16.8025C48.2729 16.8025 47.1962 16.0249 46.0373 16.0204C42.5513 16.0067 40.5566 18.4338 40.5566 22.6295C40.5566 25.4105 42.0338 27.303 44.6954 27.303C45.4479 27.303 46.647 26.9976 46.647 26.9976Z" fill="#000066"/>
<path d="M15.6468 18.2711C14.1174 18.2711 12.9453 18.7626 12.9453 18.7626L12.6214 20.684C12.6214 20.684 13.5891 20.2908 15.052 20.2908C15.8825 20.2908 16.4901 20.3842 16.4901 21.0592C16.4901 21.4691 16.4159 21.6205 16.4159 21.6205C16.4159 21.6205 15.7606 21.5658 15.457 21.5658C13.2796 21.5658 11.502 22.389 11.502 24.871C11.502 26.8269 12.8313 27.2753 13.6552 27.2753C15.2291 27.2753 15.852 26.2817 15.888 26.2788L15.8698 27.1035H17.8337L18.7099 20.9613C18.7099 18.3548 16.4365 18.2711 15.6468 18.2711ZM15.9868 23.2586C16.0296 23.6336 15.8899 25.4067 14.5465 25.4067C13.8538 25.4067 13.6739 24.8771 13.6739 24.5646C13.6739 23.9537 14.0056 23.221 15.6397 23.221C16.0204 23.221 15.9227 23.2484 15.9868 23.2586Z" fill="#000066"/>
<path d="M20.794 27.2303C21.2964 27.2303 24.1681 27.3582 24.1681 24.3947C24.1681 21.6236 21.5098 22.1714 21.5098 21.0579C21.5098 20.5042 21.9432 20.3297 22.7354 20.3297C23.0496 20.3297 24.2596 20.4297 24.2596 20.4297L24.5407 18.4603C24.5407 18.4603 23.7577 18.2852 22.4829 18.2852C20.833 18.2852 19.1582 18.9438 19.1582 21.1974C19.1582 23.7511 21.9508 23.4946 21.9508 24.5703C21.9508 25.2883 21.1706 25.3474 20.5691 25.3474C19.5287 25.3474 18.592 24.9902 18.5887 25.0075L18.291 26.9567C18.3452 26.9733 18.9232 27.2303 20.794 27.2303Z" fill="#000066"/>
<path d="M65.0465 16.4856L64.6434 19.4902C64.6434 19.4902 63.8034 18.3306 62.4892 18.3306C60.0165 18.3306 58.7422 20.7948 58.7422 23.6254C58.7422 25.4529 59.651 27.2443 61.508 27.2443C62.844 27.2443 63.5847 26.3126 63.5847 26.3126L63.4866 27.1081H65.6565L67.3603 16.5019L65.0465 16.4856ZM64.0885 22.3254C64.0885 23.5034 63.5051 25.0773 62.2963 25.0773C61.4934 25.0773 61.117 24.4032 61.117 23.3457C61.117 21.6163 61.8936 20.4756 62.8741 20.4756C63.6765 20.4756 64.0885 21.0265 64.0885 22.3254Z" fill="#000066"/>
<path d="M3.57082 27.117L4.92857 19.1095L5.1281 27.117H6.66459L9.53116 19.1095L8.26135 27.117H10.5447L12.3029 16.4967L8.67579 16.469L6.51824 22.9714L6.45914 16.4967H3.1351L1.35156 27.117H3.57082Z" fill="#000066"/>
<path d="M37.9254 27.1308C38.5746 23.4391 38.8058 20.5236 40.6991 21.1274C40.971 19.6985 41.619 18.4559 41.915 17.8512C41.915 17.8512 41.8214 17.7119 41.2362 17.7119C40.2374 17.7119 38.9037 19.739 38.9037 19.739L39.103 18.4857H37.0259L35.6348 27.1306L37.9254 27.1308Z" fill="#000066"/>
<path d="M51.3316 18.2716C49.8015 18.2716 48.6294 18.7631 48.6294 18.7631L48.3057 20.6845C48.3057 20.6845 49.2739 20.2913 50.7361 20.2913C51.5669 20.2913 52.1742 20.3847 52.1742 21.0597C52.1742 21.4696 52.1002 21.6209 52.1002 21.6209C52.1002 21.6209 51.4451 21.5663 51.1416 21.5663C48.9639 21.5663 47.1865 22.3895 47.1865 24.8715C47.1865 26.8273 48.5157 27.2758 49.3396 27.2758C50.9129 27.2758 51.5364 26.2822 51.5721 26.2793L51.5536 27.1039H53.518L54.394 20.9618C54.3942 18.3553 52.1208 18.2716 51.3316 18.2716ZM51.6711 23.2591C51.7137 23.634 51.574 25.4072 50.2309 25.4072C49.5377 25.4072 49.358 24.8776 49.358 24.5651C49.358 23.9542 49.6895 23.2215 51.3238 23.2215C51.7047 23.2215 51.6073 23.2489 51.6711 23.2591Z" fill="#000066"/>
<path d="M56.6534 27.1308C57.01 24.4148 57.6698 20.6019 59.4269 21.1274C59.6985 19.6985 59.4365 19.7023 58.8516 19.7023C57.8521 19.7023 57.6308 19.7387 57.6308 19.7387L57.8303 18.4855H55.7534L54.3623 27.1306L56.6534 27.1308Z" fill="#000066"/>
<path d="M28.4891 26.3225L28.7684 24.4267C28.6159 24.4267 28.3915 24.4919 28.1936 24.4919C27.4172 24.4919 27.3316 24.0791 27.3811 23.7739L28.0083 19.9056H29.1882L29.4731 17.8086H28.3605L28.587 16.5045H26.3567C26.3075 16.5537 25.04 23.8389 25.04 24.726C25.04 26.0393 25.7774 26.6242 26.8172 26.6147C27.6314 26.6078 28.2655 26.3825 28.4891 26.3225Z" fill="white"/>
<path d="M29.1895 22.7064C29.1895 25.8583 31.2699 26.6073 33.0424 26.6073C34.6784 26.6073 35.3983 26.2415 35.3983 26.2415L35.7912 24.0904C35.7912 24.0904 34.5467 24.6386 33.4228 24.6386C31.0278 24.6386 31.4472 22.8529 31.4472 22.8529H35.9799C35.9799 22.8529 36.2725 21.4077 36.2725 20.8188C36.2725 19.3492 35.5411 17.5586 33.0922 17.5586C30.8496 17.5591 29.1895 19.9755 29.1895 22.7064ZM33.1008 19.5561C34.3594 19.5561 34.1273 20.9706 34.1273 21.085H31.651C31.651 20.9389 31.8851 19.5561 33.1008 19.5561Z" fill="white"/>
<path d="M47.2182 26.3204L47.6173 23.8888C47.6173 23.8888 46.5229 24.4375 45.7718 24.4375C44.1897 24.4375 43.5552 23.2294 43.5552 21.9315C43.5552 19.2985 44.9165 17.85 46.4319 17.85C47.5684 17.85 48.4805 18.4881 48.4805 18.4881L48.8445 16.1256C48.8445 16.1256 47.492 15.5782 46.3326 15.5782C43.7578 15.5782 41.2529 17.8119 41.2529 22.0069C41.2529 24.7886 42.6055 26.6258 45.2671 26.6258C46.0196 26.6261 47.2182 26.3204 47.2182 26.3204Z" fill="white"/>
<path d="M16.2086 17.5934C14.6792 17.5934 13.5068 18.0849 13.5068 18.0849L13.1832 20.0063C13.1832 20.0063 14.1508 19.6131 15.6135 19.6131C16.4441 19.6131 17.0517 19.7065 17.0517 20.3815C17.0517 20.7914 16.9772 20.9427 16.9772 20.9427C16.9772 20.9427 16.3221 20.8879 16.0188 20.8879C14.0898 20.8879 12.0635 21.7111 12.0635 24.193C12.0635 26.1486 13.3929 26.5974 14.2168 26.5974C15.7904 26.5974 16.4687 25.5763 16.5048 25.5732L16.4313 26.4255H18.3952L19.2714 20.2831C19.2714 17.6773 16.9982 17.5934 16.2086 17.5934ZM16.6864 22.5946C16.729 22.9698 16.4512 24.7285 15.1083 24.7285C14.4156 24.7285 14.2354 24.1994 14.2354 23.8864C14.2354 23.2759 14.5671 22.543 16.2015 22.543C16.5817 22.5435 16.6223 22.5842 16.6864 22.5946Z" fill="white"/>
<path d="M21.3631 26.5531C21.8655 26.5531 24.7375 26.6808 24.7375 23.7173C24.7375 20.9467 22.0789 21.494 22.0789 20.381C22.0789 19.8268 22.5123 19.6523 23.3043 19.6523C23.6187 19.6523 24.8285 19.7523 24.8285 19.7523L25.1098 17.783C25.1098 17.783 24.3268 17.6078 23.052 17.6078C21.4021 17.6078 19.7273 18.2664 19.7273 20.52C19.7273 23.0735 22.5199 22.8173 22.5199 23.893C22.5199 24.611 21.7397 24.6694 21.1385 24.6694C20.098 24.6694 19.1611 24.3124 19.1578 24.3294L18.8604 26.2789C18.9143 26.2954 19.4921 26.5531 21.3631 26.5531Z" fill="white"/>
<path d="M65.6934 15.8272L65.2123 18.8124C65.2123 18.8124 64.3728 17.6528 63.0585 17.6528C61.0149 17.6528 59.3115 20.1167 59.3115 22.9478C59.3115 24.7753 60.2201 26.566 62.0774 26.566C63.4134 26.566 64.1541 25.6345 64.1541 25.6345L64.056 26.43H66.2253L67.9292 15.8236L65.6934 15.8272ZM64.6576 21.6478C64.6576 22.8258 64.0744 24.3994 62.8651 24.3994C62.0625 24.3994 61.6863 23.7256 61.6863 22.6681C61.6863 20.939 62.463 19.798 63.4429 19.798C64.2458 19.7978 64.6576 20.3494 64.6576 21.6478Z" fill="white"/>
<path d="M4.13972 26.439L5.49747 18.4315L5.69677 26.439H7.23348L10.1001 18.4315L8.83025 26.439H11.1136L12.8721 15.8184H9.34115L7.14223 22.3348L7.0278 15.8184H3.77303L1.98926 26.439H4.13972Z" fill="white"/>
<path d="M38.4955 26.4532C39.1447 22.7613 39.265 19.7635 40.8143 20.3123C41.0855 18.8834 41.3472 18.3306 41.6432 17.7259C41.6432 17.7259 41.5044 17.6968 41.2131 17.6968C40.2143 17.6968 39.4743 19.0614 39.4743 19.0614L39.6731 17.8081H37.5964L36.2051 26.4532H38.4955Z" fill="white"/>
<path d="M52.3763 17.594C50.8469 17.594 49.6745 18.0855 49.6745 18.0855L49.3511 20.0069C49.3511 20.0069 50.3188 19.6137 51.7815 19.6137C52.612 19.6137 53.2192 19.7071 53.2192 20.3821C53.2192 20.792 53.1452 20.9433 53.1452 20.9433C53.1452 20.9433 52.49 20.8885 52.1865 20.8885C50.2578 20.8885 48.2314 21.7117 48.2314 24.1936C48.2314 26.1493 49.5606 26.598 50.3845 26.598C51.9581 26.598 52.6364 25.5769 52.6723 25.5738L52.5993 26.4261C52.5993 26.4261 54.5625 26.4261 54.5632 26.4261L55.4391 20.2837C55.4394 17.6779 53.166 17.594 52.3763 17.594ZM52.8548 22.5952C52.8974 22.9704 52.6194 24.7291 51.276 24.7291C50.5833 24.7291 50.4037 24.2 50.4037 23.887C50.4037 23.2765 50.7353 22.5436 52.3695 22.5436C52.7496 22.5441 52.7901 22.5848 52.8548 22.5952Z" fill="white"/>
<path d="M57.2355 26.4534C57.8849 22.7614 58.0053 19.7637 59.554 20.3124C59.8257 18.8835 60.0876 18.3307 60.3834 17.726C60.3834 17.726 60.2446 17.6969 59.9534 17.6969C58.9545 17.6969 58.2145 19.0615 58.2145 19.0615L58.4133 17.8083H56.3366L54.9453 26.4534H57.2355Z" fill="white"/>
<path d="M67.8834 25.1188C67.9966 25.1188 68.1082 25.1479 68.2158 25.207C68.3243 25.2642 68.4087 25.3483 68.4692 25.4573C68.53 25.5656 68.5598 25.6784 68.5598 25.7963C68.5598 25.9129 68.53 26.0254 68.4702 26.133C68.4108 26.2406 68.3274 26.325 68.2198 26.3843C68.1125 26.4434 67.9999 26.4732 67.8831 26.4732C67.7654 26.4732 67.6529 26.4434 67.5453 26.3843C67.4379 26.3245 67.3547 26.2406 67.2952 26.133C67.2346 26.0254 67.2051 25.9129 67.2051 25.7963C67.2051 25.6784 67.2351 25.5656 67.2959 25.4573C67.3569 25.3483 67.4415 25.2646 67.5495 25.207C67.6585 25.1479 67.7701 25.1188 67.8834 25.1188ZM67.8834 25.2304C67.7886 25.2304 67.6959 25.255 67.6053 25.3044C67.515 25.3526 67.4448 25.4223 67.394 25.5136C67.3434 25.6037 67.3179 25.698 67.3179 25.7959C67.3179 25.8938 67.3424 25.9874 67.3919 26.0767C67.4422 26.1659 67.5122 26.2359 67.6025 26.2862C67.6919 26.3354 67.7853 26.3602 67.8834 26.3602C67.9808 26.3602 68.0749 26.3354 68.1642 26.2862C68.2536 26.2359 68.3236 26.1659 68.3732 26.0767C68.4231 25.9867 68.4475 25.8938 68.4475 25.7959C68.4475 25.698 68.4222 25.6037 68.3716 25.5136C68.3212 25.4223 68.251 25.3526 68.1602 25.3044C68.0704 25.2552 67.9784 25.2304 67.8834 25.2304ZM67.5867 26.1704V25.4415H67.8375C67.9228 25.4415 67.9853 25.4483 68.0231 25.4623C68.0614 25.4753 68.0914 25.4987 68.1148 25.5325C68.1378 25.5661 68.1493 25.6013 68.1493 25.6391C68.1493 25.6923 68.1299 25.7389 68.0916 25.7781C68.0543 25.8174 68.0039 25.8401 67.941 25.8443C67.9661 25.8552 67.9869 25.8682 68.003 25.8829C68.0321 25.9117 68.068 25.96 68.1106 26.0273L68.1997 26.1701H68.0557L67.9916 26.0555C67.9406 25.9649 67.8997 25.9086 67.8685 25.8857C67.847 25.8689 67.8155 25.8607 67.7741 25.8607H67.7053V26.1706L67.5867 26.1704ZM67.7044 25.7602H67.8472C67.9155 25.7602 67.9616 25.75 67.9862 25.7297C68.011 25.7098 68.024 25.6826 68.024 25.6488C68.024 25.6273 68.0181 25.6079 68.0063 25.5916C67.9942 25.5741 67.9775 25.5616 67.9559 25.5528C67.9344 25.5446 67.8959 25.5403 67.8382 25.5403H67.7046V25.7602" fill="white"/>
</svg>
