<svg width="34" height="34" viewBox="0 0 34 34" fill="none" xmlns="http://www.w3.org/2000/svg">
<circle cx="17" cy="17" r="17" fill="#EC8E11"/>
<g clip-path="url(#clip0_79_658)">
<path d="M23.9781 20.5822L23.3424 23.3384C23.2531 23.7281 22.9106 24.0007 22.5095 24.0007C15.6109 24.0002 10 18.3892 10 11.4904C10 11.0895 10.2726 10.7466 10.6623 10.6578L13.4185 10.022C13.8199 9.92901 14.2301 10.1374 14.3969 10.5175L15.6689 13.4843C15.8176 13.8338 15.7173 14.2409 15.4234 14.481L13.9512 15.6631C14.8803 17.5558 16.4192 19.0947 18.3125 20.0244L19.5178 18.5533C19.7554 18.2585 20.1656 18.1565 20.515 18.3079L23.4818 19.5796C23.8387 19.7673 24.0711 20.183 23.9781 20.5822Z" fill="white"/>
</g>
<defs>
<clipPath id="clip0_79_658">
<rect width="14" height="14" fill="white" transform="translate(10 10)"/>
</clipPath>
</defs>
</svg>
