<svg width="100" height="32" viewBox="0 0 100 32" fill="none" xmlns="http://www.w3.org/2000/svg">
<path d="M28.7582 19.0189C30.4354 11.9161 26.0371 4.79855 18.9343 3.12137C11.8316 1.44418 4.71401 5.84247 3.03682 12.9452C1.35963 20.048 5.75792 27.1655 12.8607 28.8427C19.9634 30.5199 27.081 26.1216 28.7582 19.0189Z" fill="#5F259F"/>
<path d="M69.5114 23.533V18.7344C69.5114 17.5533 69.0685 16.9627 67.9611 16.9627C67.5182 16.9627 67.0014 17.0365 66.7061 17.1103V24.1235C66.7061 24.345 66.4847 24.5665 66.2632 24.5665H64.5652C64.3438 24.5665 64.1223 24.345 64.1223 24.1235V15.9292C64.1223 15.6339 64.3438 15.4124 64.5652 15.3386C65.6726 14.9695 66.7799 14.748 67.9611 14.748C70.6188 14.748 72.0952 16.1506 72.0952 18.7344V24.1974C72.0952 24.4188 71.8738 24.6403 71.6523 24.6403H70.6188C69.9544 24.6403 69.5114 24.1235 69.5114 23.533ZM76.1555 20.6538L76.0817 21.3183C76.0817 22.2041 76.6723 22.7209 77.632 22.7209C78.3702 22.7209 79.0346 22.4994 79.7728 22.1303C79.8467 22.1303 79.9205 22.0565 79.9943 22.0565C80.142 22.0565 80.2158 22.1303 80.2896 22.2041C80.3634 22.278 80.5111 22.4994 80.5111 22.4994C80.6587 22.7209 80.8064 23.0162 80.8064 23.2377C80.8064 23.6068 80.5849 23.9759 80.2896 24.1235C79.4775 24.5665 78.5179 24.7879 77.4843 24.7879C76.3032 24.7879 75.3434 24.4927 74.6052 23.9021C73.867 23.2377 73.424 22.3518 73.424 21.2444V18.3653C73.424 16.0768 74.9005 14.6742 77.4105 14.6742C79.8467 14.6742 81.2493 16.003 81.2493 18.3653V20.1371C81.2493 20.3586 81.0278 20.58 80.8064 20.58H76.1555V20.6538ZM76.0817 19.0297H78.887V18.2915C78.887 17.4056 78.3702 16.815 77.4843 16.815C76.5984 16.815 76.0817 17.3318 76.0817 18.2915V19.0297ZM94.9066 20.6538L94.8328 21.3183C94.8328 22.2041 95.4234 22.7209 96.3831 22.7209C97.1213 22.7209 97.7857 22.4994 98.5239 22.1303C98.5978 22.1303 98.6716 22.0565 98.7454 22.0565C98.8931 22.0565 98.9669 22.1303 99.0407 22.2041C99.1145 22.278 99.2622 22.4994 99.2622 22.4994C99.4098 22.7209 99.5575 23.0162 99.5575 23.2377C99.5575 23.6068 99.336 23.9759 99.0407 24.1235C98.2287 24.5665 97.269 24.7879 96.2354 24.7879C95.0543 24.7879 94.0946 24.4927 93.3563 23.9021C92.6181 23.2377 92.1752 22.3518 92.1752 21.2444V18.3653C92.1752 16.0768 93.6516 14.6742 96.1616 14.6742C98.5978 14.6742 100 16.003 100 18.3653V20.1371C100 20.3586 99.7789 20.58 99.5575 20.58H94.9066V20.6538ZM94.8328 19.0297H97.6381V18.2915C97.6381 17.4056 97.1213 16.815 96.2354 16.815C95.3495 16.815 94.8328 17.3318 94.8328 18.2915V19.0297ZM51.4247 24.6403H52.4582C52.6797 24.6403 52.9012 24.4188 52.9012 24.1974V18.7344C52.9012 16.2244 51.5724 14.748 49.3577 14.748C48.6933 14.748 47.955 14.8956 47.5121 15.0433V12.3118C47.5121 11.7212 46.9953 11.2045 46.4047 11.2045H45.3712C45.1497 11.2045 44.9283 11.4259 44.9283 11.6474V24.1974C44.9283 24.4188 45.1497 24.6403 45.3712 24.6403H47.0691C47.2906 24.6403 47.5121 24.4188 47.5121 24.1974V17.258C47.8812 17.1103 48.398 17.0365 48.7671 17.0365C49.8744 17.0365 50.3174 17.5533 50.3174 18.8083V23.6068C50.3912 24.1235 50.8341 24.6403 51.4247 24.6403ZM62.572 18.4391V21.1706C62.572 23.4591 61.0217 24.8618 58.4379 24.8618C55.9279 24.8618 54.3038 23.4591 54.3038 21.1706V18.4391C54.3038 16.1506 55.8541 14.748 58.4379 14.748C61.0217 14.748 62.572 16.1506 62.572 18.4391ZM59.9882 18.4391C59.9882 17.5533 59.4714 16.9627 58.5117 16.9627C57.552 16.9627 57.0353 17.4794 57.0353 18.4391V21.1706C57.0353 22.0565 57.552 22.5732 58.5117 22.5732C59.4714 22.5732 59.9882 22.0565 59.9882 21.1706V18.4391ZM43.5256 17.1842C43.5256 19.5465 41.7539 21.1706 39.3915 21.1706C38.8009 21.1706 38.2842 21.0968 37.7674 20.8753V24.1974C37.7674 24.4188 37.5459 24.6403 37.3245 24.6403H35.6265C35.4051 24.6403 35.1836 24.4188 35.1836 24.1974V12.4595C35.1836 12.1642 35.4051 11.9427 35.6265 11.8689C36.7339 11.4998 37.8412 11.2783 39.0224 11.2783C41.68 11.2783 43.5256 12.9024 43.5256 15.4124V17.1842ZM40.868 15.2647C40.868 14.0836 40.0559 13.493 38.9486 13.493C38.2842 13.493 37.8412 13.7145 37.8412 13.7145V18.5868C38.2842 18.8083 38.5056 18.8821 39.0224 18.8821C40.1298 18.8821 40.9418 18.2177 40.9418 17.1103V15.2647H40.868ZM91.2154 17.1842C91.2154 19.5465 89.4437 21.1706 87.0813 21.1706C86.4908 21.1706 85.974 21.0968 85.4572 20.8753V24.1974C85.4572 24.4188 85.2358 24.6403 85.0143 24.6403H83.3164C83.0949 24.6403 82.8734 24.4188 82.8734 24.1974V12.4595C82.8734 12.1642 83.0949 11.9427 83.3164 11.8689C84.4237 11.4998 85.5311 11.2783 86.7122 11.2783C89.3699 11.2783 91.2154 12.9024 91.2154 15.4124V17.1842ZM88.5578 15.2647C88.5578 14.0836 87.7458 13.493 86.6384 13.493C85.974 13.493 85.5311 13.7145 85.5311 13.7145V18.5868C85.974 18.8083 86.1955 18.8821 86.7122 18.8821C87.8196 18.8821 88.6316 18.2177 88.6316 17.1103V15.2647H88.5578Z" fill="#5F259F"/>
<path d="M21.8947 12.5333C21.8947 12.0166 21.4517 11.5736 20.935 11.5736H19.1632L15.1029 6.92275C14.7338 6.47981 14.1432 6.33216 13.5527 6.47981L12.15 6.92275C11.9285 6.99657 11.8547 7.29186 12.0024 7.43951L16.4318 11.6474H9.71384C9.49237 11.6474 9.34473 11.7951 9.34473 12.0166V12.7548C9.34473 13.2715 9.78767 13.7145 10.3044 13.7145H11.338V17.258C11.338 19.9156 12.7406 21.4659 15.1029 21.4659C15.8412 21.4659 16.4318 21.3921 17.17 21.0968V23.4592C17.17 24.1236 17.6868 24.6403 18.3512 24.6403H19.3847C19.6062 24.6403 19.8276 24.4189 19.8276 24.1974V13.6407H21.5256C21.747 13.6407 21.8947 13.493 21.8947 13.2715V12.5333ZM17.17 18.8821C16.7271 19.1036 16.1365 19.1774 15.6935 19.1774C14.5124 19.1774 13.9218 18.5868 13.9218 17.258V13.7145H17.17V18.8821Z" fill="white"/>
</svg>
