<svg width="70" height="30" viewBox="0 0 70 30" fill="none" xmlns="http://www.w3.org/2000/svg">
<path fill-rule="evenodd" clip-rule="evenodd" d="M70 15.4681C70 10.4903 67.5888 6.5625 62.9805 6.5625C58.3527 6.5625 55.5527 10.4903 55.5527 15.4292C55.5527 21.2819 58.8583 24.2375 63.6027 24.2375C65.9166 24.2375 67.6666 23.7125 68.9888 22.9736V19.0847C67.6666 19.7458 66.15 20.1542 64.225 20.1542C62.3388 20.1542 60.6666 19.4931 60.4527 17.1986H69.9611C69.9611 16.9458 70 15.9347 70 15.4681ZM60.3944 13.6208C60.3944 11.4236 61.7361 10.5097 62.9611 10.5097C64.1472 10.5097 65.4111 11.4236 65.4111 13.6208H60.3944Z" fill="#635BFF"/>
<path fill-rule="evenodd" clip-rule="evenodd" d="M48.0477 6.5625C46.1422 6.5625 44.9172 7.45694 44.2366 8.07917L43.9838 6.87361H39.7061V29.5458L44.5672 28.5153L44.5866 23.0125C45.2866 23.5181 46.3172 24.2375 48.0283 24.2375C51.5088 24.2375 54.6783 21.4375 54.6783 15.2736C54.6588 9.63472 51.4505 6.5625 48.0477 6.5625ZM46.8811 19.9597C45.7338 19.9597 45.0533 19.5514 44.5866 19.0458L44.5672 11.8319C45.0727 11.2681 45.7727 10.8792 46.8811 10.8792C48.6505 10.8792 49.8755 12.8625 49.8755 15.4097C49.8755 18.0153 48.6699 19.9597 46.8811 19.9597Z" fill="#635BFF"/>
<path fill-rule="evenodd" clip-rule="evenodd" d="M33.0166 5.41519L37.8972 4.36519V0.417969L33.0166 1.44852V5.41519Z" fill="#635BFF"/>
<path d="M37.8972 6.89294H33.0166V23.9068H37.8972V6.89294Z" fill="#635BFF"/>
<path fill-rule="evenodd" clip-rule="evenodd" d="M27.7865 8.33189L27.4754 6.89301H23.2754V23.9069H28.1365V12.3763C29.2837 10.8791 31.2282 11.1513 31.8309 11.3652V6.89301C31.2087 6.65967 28.9337 6.23189 27.7865 8.33189Z" fill="#635BFF"/>
<path fill-rule="evenodd" clip-rule="evenodd" d="M18.0637 2.67346L13.3192 3.68457L13.2998 19.2596C13.2998 22.1373 15.4581 24.2568 18.3359 24.2568C19.9304 24.2568 21.097 23.9651 21.7387 23.6151V19.6679C21.1165 19.9207 18.0442 20.8151 18.0442 17.9374V11.0346H21.7387V6.89291H18.0442L18.0637 2.67346Z" fill="#635BFF"/>
<path fill-rule="evenodd" clip-rule="evenodd" d="M4.91945 11.8319C4.91945 11.0736 5.54167 10.7819 6.57222 10.7819C8.05 10.7819 9.91667 11.2292 11.3944 12.0264V7.45694C9.78056 6.81528 8.18611 6.5625 6.57222 6.5625C2.625 6.5625 0 8.62361 0 12.0653C0 17.4319 7.38889 16.5764 7.38889 18.8903C7.38889 19.7847 6.61111 20.0764 5.52222 20.0764C3.90833 20.0764 1.84722 19.4153 0.213889 18.5208V23.1486C2.02222 23.9264 3.85 24.2569 5.52222 24.2569C9.56667 24.2569 12.3472 22.2542 12.3472 18.7736C12.3278 12.9792 4.91945 14.0097 4.91945 11.8319Z" fill="#635BFF"/>
</svg>
