<svg width="88" height="30" viewBox="0 0 88 30" fill="none" xmlns="http://www.w3.org/2000/svg">
<path d="M38.1306 28.8107H31.002L35.4607 1.24121H42.5889L38.1306 28.8107Z" fill="#00579F"/>
<path d="M63.9737 1.91544C62.5677 1.35761 60.3375 0.741699 57.5799 0.741699C50.5402 0.741699 45.5829 4.49565 45.5525 9.86267C45.494 13.8224 49.1018 16.0218 51.8001 17.3421C54.558 18.6913 55.4956 19.5719 55.4956 20.7745C55.4675 22.6214 53.267 23.4728 51.2146 23.4728C48.3685 23.4728 46.8435 23.0339 44.5261 22.0063L43.5874 21.5658L42.5898 27.7546C44.2618 28.5163 47.3421 29.1922 50.5402 29.2218C58.02 29.2218 62.8896 25.526 62.9473 19.8066C62.9758 16.6681 61.0707 14.2633 56.9636 12.2983C54.4703 11.0368 52.9434 10.1862 52.9434 8.89553C52.9727 7.72218 54.2349 6.52037 57.0494 6.52037C59.3669 6.46151 61.0696 7.01856 62.3595 7.576L63.0042 7.86875L63.9737 1.91544Z" fill="#00579F"/>
<path d="M73.45 19.0438C74.0371 17.46 76.2961 11.3301 76.2961 11.3301C76.2665 11.389 76.882 9.71703 77.234 8.69064L77.7322 11.0662C77.7322 11.0662 79.0821 17.6654 79.3753 19.0438C78.2612 19.0438 74.8581 19.0438 73.45 19.0438ZM82.2494 1.24121H76.7354C75.035 1.24121 73.7432 1.7394 73.0095 3.52867L62.4209 28.8103H69.9007C69.9007 28.8103 71.1322 25.4076 71.3969 24.6748C72.2174 24.6748 79.4938 24.6748 80.5494 24.6748C80.7541 25.6427 81.4 28.8103 81.4 28.8103H88.0004L82.2494 1.24121Z" fill="#00579F"/>
<path d="M25.0472 1.24121L18.0659 20.041L17.303 16.2282C16.0124 11.8287 11.9645 7.04873 7.44727 4.672L13.8418 28.7815H21.3802L32.5851 1.24121H25.0472Z" fill="#00579F"/>
<path d="M11.5866 1.24121H0.117335L0 1.79826C8.94673 4.08611 14.872 9.60087 17.3064 16.2293L14.8131 3.55868C14.4026 1.79787 13.1412 1.29929 11.5866 1.24121Z" fill="#FAA61A"/>
</svg>
